G04 EAGLE Gerber RS-274X export*
G75*
%MOMM*%
%FSLAX34Y34*%
%LPD*%
%INBottom Copper*%
%IPPOS*%
%AMOC8*
5,1,8,0,0,1.08239X$1,22.5*%
G01*
%ADD10C,1.625600*%
%ADD11C,0.685800*%
%ADD12C,0.203200*%
%ADD13C,0.304800*%

G36*
X607324Y5394D02*
X607324Y5394D01*
X607383Y5392D01*
X607464Y5414D01*
X607548Y5425D01*
X607601Y5449D01*
X607658Y5464D01*
X607730Y5507D01*
X607807Y5542D01*
X607852Y5579D01*
X607902Y5609D01*
X607960Y5671D01*
X608024Y5725D01*
X608057Y5774D01*
X608097Y5817D01*
X608135Y5892D01*
X608182Y5962D01*
X608200Y6018D01*
X608226Y6070D01*
X608238Y6138D01*
X608268Y6233D01*
X608270Y6333D01*
X608282Y6401D01*
X608282Y510845D01*
X608273Y510903D01*
X608275Y510961D01*
X608254Y511043D01*
X608242Y511126D01*
X608218Y511180D01*
X608203Y511236D01*
X608160Y511309D01*
X608126Y511386D01*
X608088Y511430D01*
X608058Y511481D01*
X607996Y511538D01*
X607942Y511603D01*
X607893Y511635D01*
X607851Y511675D01*
X607776Y511714D01*
X607705Y511760D01*
X607649Y511778D01*
X607597Y511805D01*
X607529Y511816D01*
X607434Y511846D01*
X607334Y511849D01*
X607266Y511860D01*
X4978Y511860D01*
X4921Y511852D01*
X4862Y511853D01*
X4780Y511832D01*
X4697Y511820D01*
X4644Y511796D01*
X4587Y511782D01*
X4515Y511738D01*
X4437Y511704D01*
X4393Y511666D01*
X4343Y511636D01*
X4285Y511575D01*
X4220Y511520D01*
X4188Y511472D01*
X4148Y511429D01*
X4110Y511354D01*
X4063Y511284D01*
X4045Y511228D01*
X4019Y511176D01*
X4007Y511108D01*
X3977Y511013D01*
X3975Y510913D01*
X3963Y510845D01*
X3963Y6401D01*
X3971Y6343D01*
X3970Y6284D01*
X3991Y6203D01*
X4003Y6119D01*
X4027Y6066D01*
X4042Y6009D01*
X4085Y5937D01*
X4119Y5860D01*
X4157Y5815D01*
X4187Y5765D01*
X4248Y5707D01*
X4303Y5643D01*
X4352Y5610D01*
X4394Y5570D01*
X4469Y5532D01*
X4540Y5485D01*
X4595Y5468D01*
X4647Y5441D01*
X4715Y5430D01*
X4811Y5399D01*
X4910Y5397D01*
X4978Y5386D01*
X607266Y5386D01*
X607324Y5394D01*
G37*
%LPC*%
G36*
X318852Y342366D02*
X318852Y342366D01*
X316845Y343197D01*
X315308Y344734D01*
X314477Y346741D01*
X314477Y348914D01*
X315308Y350921D01*
X316845Y352458D01*
X318852Y353289D01*
X321025Y353289D01*
X323032Y352458D01*
X324215Y351275D01*
X324285Y351223D01*
X324348Y351163D01*
X324398Y351138D01*
X324442Y351104D01*
X324524Y351073D01*
X324602Y351033D01*
X324649Y351025D01*
X324708Y351003D01*
X324855Y350991D01*
X324933Y350978D01*
X370223Y350978D01*
X370310Y350990D01*
X370397Y350993D01*
X370450Y351010D01*
X370505Y351018D01*
X370585Y351053D01*
X370668Y351080D01*
X370707Y351108D01*
X370764Y351134D01*
X370878Y351230D01*
X370941Y351275D01*
X427463Y407797D01*
X427516Y407867D01*
X427576Y407931D01*
X427601Y407980D01*
X427634Y408024D01*
X427665Y408106D01*
X427705Y408184D01*
X427713Y408232D01*
X427735Y408290D01*
X427748Y408438D01*
X427761Y408515D01*
X427761Y409720D01*
X427757Y409750D01*
X427759Y409779D01*
X427737Y409890D01*
X427721Y410002D01*
X427709Y410029D01*
X427703Y410057D01*
X427651Y410158D01*
X427605Y410261D01*
X427586Y410284D01*
X427572Y410310D01*
X427494Y410392D01*
X427421Y410478D01*
X427397Y410495D01*
X427376Y410516D01*
X427279Y410573D01*
X427184Y410636D01*
X427156Y410645D01*
X427131Y410660D01*
X427022Y410688D01*
X426913Y410722D01*
X426884Y410723D01*
X426856Y410730D01*
X426742Y410726D01*
X426629Y410729D01*
X426601Y410722D01*
X426571Y410721D01*
X426464Y410686D01*
X426354Y410657D01*
X426329Y410642D01*
X426301Y410633D01*
X426237Y410588D01*
X426110Y410512D01*
X426067Y410466D01*
X426028Y410438D01*
X373069Y357479D01*
X370985Y355396D01*
X273218Y355396D01*
X273132Y355384D01*
X273044Y355381D01*
X272992Y355364D01*
X272937Y355356D01*
X272857Y355320D01*
X272774Y355294D01*
X272734Y355266D01*
X272677Y355240D01*
X272564Y355144D01*
X272500Y355099D01*
X271216Y353815D01*
X269209Y352983D01*
X267036Y352983D01*
X265029Y353815D01*
X263492Y355351D01*
X262661Y357358D01*
X262661Y359531D01*
X263492Y361539D01*
X265029Y363075D01*
X267036Y363907D01*
X269209Y363907D01*
X271216Y363075D01*
X272500Y361791D01*
X272570Y361738D01*
X272634Y361678D01*
X272683Y361653D01*
X272728Y361620D01*
X272809Y361589D01*
X272887Y361549D01*
X272935Y361541D01*
X272993Y361519D01*
X273141Y361506D01*
X273218Y361494D01*
X368039Y361494D01*
X368126Y361506D01*
X368213Y361509D01*
X368266Y361526D01*
X368321Y361533D01*
X368400Y361569D01*
X368484Y361596D01*
X368523Y361624D01*
X368580Y361650D01*
X368693Y361745D01*
X368757Y361791D01*
X427463Y420497D01*
X427516Y420567D01*
X427576Y420631D01*
X427601Y420680D01*
X427634Y420724D01*
X427665Y420806D01*
X427705Y420884D01*
X427713Y420932D01*
X427735Y420990D01*
X427748Y421138D01*
X427761Y421215D01*
X427761Y421702D01*
X427757Y421731D01*
X427759Y421760D01*
X427737Y421871D01*
X427721Y421984D01*
X427709Y422010D01*
X427703Y422039D01*
X427651Y422140D01*
X427605Y422243D01*
X427586Y422265D01*
X427572Y422291D01*
X427494Y422373D01*
X427421Y422460D01*
X427396Y422476D01*
X427376Y422497D01*
X427279Y422555D01*
X427184Y422618D01*
X427156Y422626D01*
X427131Y422641D01*
X427022Y422669D01*
X426913Y422703D01*
X426884Y422704D01*
X426856Y422711D01*
X426742Y422708D01*
X426629Y422711D01*
X426601Y422703D01*
X426571Y422702D01*
X426464Y422667D01*
X426354Y422639D01*
X426329Y422624D01*
X426301Y422615D01*
X426237Y422569D01*
X426110Y422494D01*
X426067Y422448D01*
X426028Y422420D01*
X398977Y395369D01*
X396596Y392988D01*
X374310Y392988D01*
X374224Y392976D01*
X374136Y392973D01*
X374084Y392956D01*
X374029Y392948D01*
X373949Y392912D01*
X373866Y392886D01*
X373826Y392858D01*
X373769Y392832D01*
X373656Y392736D01*
X373592Y392691D01*
X372816Y391915D01*
X370809Y391083D01*
X368636Y391083D01*
X366629Y391915D01*
X365092Y393451D01*
X364261Y395458D01*
X364261Y397631D01*
X365092Y399639D01*
X366629Y401175D01*
X368636Y402007D01*
X370809Y402007D01*
X372816Y401175D01*
X373592Y400399D01*
X373662Y400346D01*
X373726Y400286D01*
X373775Y400261D01*
X373820Y400228D01*
X373901Y400197D01*
X373979Y400157D01*
X374027Y400149D01*
X374085Y400127D01*
X374233Y400114D01*
X374310Y400102D01*
X393229Y400102D01*
X393315Y400114D01*
X393403Y400117D01*
X393455Y400134D01*
X393510Y400141D01*
X393590Y400177D01*
X393673Y400204D01*
X393712Y400232D01*
X393770Y400258D01*
X393883Y400353D01*
X393946Y400399D01*
X427463Y433916D01*
X427516Y433985D01*
X427576Y434049D01*
X427601Y434099D01*
X427634Y434143D01*
X427665Y434225D01*
X427705Y434303D01*
X427713Y434350D01*
X427735Y434409D01*
X427748Y434556D01*
X427761Y434634D01*
X427761Y435731D01*
X428592Y437739D01*
X430129Y439275D01*
X432136Y440107D01*
X434309Y440107D01*
X436316Y439275D01*
X437853Y437739D01*
X438684Y435731D01*
X438684Y433558D01*
X437853Y431551D01*
X436316Y430015D01*
X434429Y429233D01*
X434404Y429218D01*
X434376Y429209D01*
X434281Y429146D01*
X434184Y429088D01*
X434164Y429067D01*
X434139Y429051D01*
X434067Y428964D01*
X433989Y428882D01*
X433975Y428855D01*
X433956Y428833D01*
X433911Y428730D01*
X433859Y428629D01*
X433853Y428600D01*
X433841Y428573D01*
X433825Y428461D01*
X433804Y428350D01*
X433806Y428321D01*
X433802Y428292D01*
X433818Y428179D01*
X433828Y428067D01*
X433839Y428039D01*
X433843Y428010D01*
X433889Y427907D01*
X433930Y427801D01*
X433948Y427778D01*
X433960Y427751D01*
X434033Y427665D01*
X434102Y427575D01*
X434125Y427557D01*
X434144Y427535D01*
X434211Y427493D01*
X434329Y427405D01*
X434388Y427382D01*
X434429Y427357D01*
X436316Y426575D01*
X437853Y425039D01*
X438684Y423031D01*
X438684Y420858D01*
X437853Y418851D01*
X436316Y417315D01*
X434429Y416533D01*
X434404Y416518D01*
X434376Y416509D01*
X434281Y416446D01*
X434184Y416388D01*
X434164Y416367D01*
X434139Y416351D01*
X434067Y416264D01*
X433989Y416182D01*
X433975Y416155D01*
X433956Y416133D01*
X433910Y416029D01*
X433859Y415929D01*
X433853Y415900D01*
X433841Y415873D01*
X433825Y415761D01*
X433804Y415650D01*
X433806Y415621D01*
X433802Y415592D01*
X433818Y415479D01*
X433828Y415367D01*
X433839Y415339D01*
X433843Y415310D01*
X433890Y415207D01*
X433930Y415101D01*
X433948Y415078D01*
X433960Y415051D01*
X434033Y414965D01*
X434102Y414875D01*
X434125Y414857D01*
X434144Y414835D01*
X434211Y414793D01*
X434329Y414704D01*
X434388Y414682D01*
X434429Y414657D01*
X436316Y413875D01*
X437853Y412339D01*
X438684Y410331D01*
X438684Y408158D01*
X437853Y406151D01*
X436316Y404615D01*
X434309Y403783D01*
X432493Y403783D01*
X432406Y403771D01*
X432319Y403768D01*
X432266Y403751D01*
X432211Y403743D01*
X432131Y403707D01*
X432048Y403681D01*
X432009Y403653D01*
X431952Y403627D01*
X431839Y403531D01*
X431775Y403486D01*
X373170Y344880D01*
X325136Y344880D01*
X325049Y344868D01*
X324962Y344865D01*
X324909Y344848D01*
X324854Y344841D01*
X324775Y344805D01*
X324691Y344778D01*
X324652Y344750D01*
X324595Y344724D01*
X324482Y344628D01*
X324418Y344583D01*
X323032Y343197D01*
X321025Y342366D01*
X318852Y342366D01*
G37*
%LPD*%
%LPC*%
G36*
X393101Y462584D02*
X393101Y462584D01*
X389367Y464131D01*
X386509Y466989D01*
X384962Y470724D01*
X384962Y474766D01*
X386509Y478500D01*
X389367Y481359D01*
X393101Y482906D01*
X397143Y482906D01*
X400878Y481359D01*
X403736Y478500D01*
X405283Y474766D01*
X405283Y470724D01*
X403736Y466989D01*
X400878Y464131D01*
X397143Y462584D01*
X393101Y462584D01*
G37*
%LPD*%
%LPC*%
G36*
X367701Y462584D02*
X367701Y462584D01*
X363967Y464131D01*
X361109Y466989D01*
X359562Y470724D01*
X359562Y474766D01*
X361109Y478500D01*
X363967Y481359D01*
X367701Y482906D01*
X371743Y482906D01*
X375478Y481359D01*
X378336Y478500D01*
X379883Y474766D01*
X379883Y470724D01*
X378336Y466989D01*
X375478Y464131D01*
X371743Y462584D01*
X367701Y462584D01*
G37*
%LPD*%
%LPC*%
G36*
X393101Y437184D02*
X393101Y437184D01*
X389367Y438731D01*
X386509Y441589D01*
X384962Y445324D01*
X384962Y449366D01*
X386509Y453100D01*
X389367Y455959D01*
X393101Y457506D01*
X397143Y457506D01*
X400878Y455959D01*
X403736Y453100D01*
X405283Y449366D01*
X405283Y445324D01*
X403736Y441589D01*
X400878Y438731D01*
X397143Y437184D01*
X393101Y437184D01*
G37*
%LPD*%
%LPC*%
G36*
X367701Y437184D02*
X367701Y437184D01*
X363967Y438731D01*
X361109Y441589D01*
X359562Y445324D01*
X359562Y449366D01*
X361109Y453100D01*
X363967Y455959D01*
X367701Y457506D01*
X371743Y457506D01*
X375478Y455959D01*
X378336Y453100D01*
X379883Y449366D01*
X379883Y445324D01*
X378336Y441589D01*
X375478Y438731D01*
X371743Y437184D01*
X367701Y437184D01*
G37*
%LPD*%
%LPC*%
G36*
X367701Y411784D02*
X367701Y411784D01*
X363967Y413331D01*
X361109Y416189D01*
X359562Y419924D01*
X359562Y423966D01*
X361109Y427700D01*
X363967Y430559D01*
X367701Y432106D01*
X371743Y432106D01*
X375478Y430559D01*
X378336Y427700D01*
X379883Y423966D01*
X379883Y419924D01*
X378336Y416189D01*
X375478Y413331D01*
X371743Y411784D01*
X367701Y411784D01*
G37*
%LPD*%
%LPC*%
G36*
X397154Y423976D02*
X397154Y423976D01*
X397154Y432425D01*
X397621Y432351D01*
X399218Y431832D01*
X400714Y431070D01*
X402073Y430082D01*
X403260Y428895D01*
X404247Y427536D01*
X405010Y426040D01*
X405528Y424443D01*
X405602Y423976D01*
X397154Y423976D01*
G37*
%LPD*%
%LPC*%
G36*
X384642Y423976D02*
X384642Y423976D01*
X384716Y424443D01*
X385235Y426040D01*
X385998Y427536D01*
X386985Y428895D01*
X388172Y430082D01*
X389531Y431070D01*
X391027Y431832D01*
X392624Y432351D01*
X393091Y432425D01*
X393091Y423976D01*
X384642Y423976D01*
G37*
%LPD*%
%LPC*%
G36*
X397154Y419914D02*
X397154Y419914D01*
X405602Y419914D01*
X405528Y419447D01*
X405010Y417849D01*
X404247Y416353D01*
X403260Y414994D01*
X402073Y413807D01*
X400714Y412820D01*
X399218Y412058D01*
X397621Y411539D01*
X397154Y411465D01*
X397154Y419914D01*
G37*
%LPD*%
%LPC*%
G36*
X392624Y411539D02*
X392624Y411539D01*
X391027Y412058D01*
X389531Y412820D01*
X388172Y413807D01*
X386985Y414994D01*
X385998Y416353D01*
X385235Y417849D01*
X384716Y419447D01*
X384642Y419914D01*
X393091Y419914D01*
X393091Y411465D01*
X392624Y411539D01*
G37*
%LPD*%
%LPC*%
G36*
X472338Y473760D02*
X472338Y473760D01*
X472338Y478629D01*
X473064Y478485D01*
X474150Y478035D01*
X475128Y477382D01*
X475959Y476550D01*
X476613Y475572D01*
X477063Y474486D01*
X477207Y473760D01*
X472338Y473760D01*
G37*
%LPD*%
%LPC*%
G36*
X307238Y384860D02*
X307238Y384860D01*
X307238Y389729D01*
X307964Y389585D01*
X309050Y389135D01*
X310028Y388482D01*
X310859Y387650D01*
X311513Y386672D01*
X311963Y385586D01*
X312107Y384860D01*
X307238Y384860D01*
G37*
%LPD*%
%LPC*%
G36*
X269138Y321360D02*
X269138Y321360D01*
X269138Y326229D01*
X269864Y326085D01*
X270950Y325635D01*
X271928Y324982D01*
X272759Y324150D01*
X273413Y323172D01*
X273863Y322086D01*
X274007Y321360D01*
X269138Y321360D01*
G37*
%LPD*%
%LPC*%
G36*
X345338Y219760D02*
X345338Y219760D01*
X345338Y224629D01*
X346064Y224485D01*
X347150Y224035D01*
X348128Y223382D01*
X348959Y222550D01*
X349613Y221572D01*
X350063Y220486D01*
X350207Y219760D01*
X345338Y219760D01*
G37*
%LPD*%
%LPC*%
G36*
X465438Y473760D02*
X465438Y473760D01*
X465582Y474486D01*
X466032Y475572D01*
X466685Y476550D01*
X467517Y477382D01*
X468495Y478035D01*
X469581Y478485D01*
X470307Y478629D01*
X470307Y473760D01*
X465438Y473760D01*
G37*
%LPD*%
%LPC*%
G36*
X472338Y471729D02*
X472338Y471729D01*
X477207Y471729D01*
X477063Y471003D01*
X476613Y469917D01*
X475959Y468939D01*
X475128Y468108D01*
X474150Y467454D01*
X473064Y467004D01*
X472338Y466860D01*
X472338Y471729D01*
G37*
%LPD*%
%LPC*%
G36*
X300338Y384860D02*
X300338Y384860D01*
X300482Y385586D01*
X300932Y386672D01*
X301585Y387650D01*
X302417Y388482D01*
X303395Y389135D01*
X304481Y389585D01*
X305207Y389729D01*
X305207Y384860D01*
X300338Y384860D01*
G37*
%LPD*%
%LPC*%
G36*
X307238Y382829D02*
X307238Y382829D01*
X312107Y382829D01*
X311963Y382103D01*
X311513Y381017D01*
X310859Y380039D01*
X310028Y379208D01*
X309050Y378554D01*
X307964Y378104D01*
X307238Y377960D01*
X307238Y382829D01*
G37*
%LPD*%
%LPC*%
G36*
X262238Y321360D02*
X262238Y321360D01*
X262382Y322086D01*
X262832Y323172D01*
X263485Y324150D01*
X264317Y324982D01*
X265295Y325635D01*
X266381Y326085D01*
X267107Y326229D01*
X267107Y321360D01*
X262238Y321360D01*
G37*
%LPD*%
%LPC*%
G36*
X269138Y319329D02*
X269138Y319329D01*
X274007Y319329D01*
X273863Y318603D01*
X273413Y317517D01*
X272759Y316539D01*
X271928Y315708D01*
X270950Y315054D01*
X269864Y314604D01*
X269138Y314460D01*
X269138Y319329D01*
G37*
%LPD*%
%LPC*%
G36*
X338438Y219760D02*
X338438Y219760D01*
X338582Y220486D01*
X339032Y221572D01*
X339685Y222550D01*
X340517Y223382D01*
X341495Y224035D01*
X342581Y224485D01*
X343307Y224629D01*
X343307Y219760D01*
X338438Y219760D01*
G37*
%LPD*%
%LPC*%
G36*
X345338Y217729D02*
X345338Y217729D01*
X350207Y217729D01*
X350063Y217003D01*
X349613Y215917D01*
X348959Y214939D01*
X348128Y214108D01*
X347150Y213454D01*
X346064Y213004D01*
X345338Y212860D01*
X345338Y217729D01*
G37*
%LPD*%
%LPC*%
G36*
X469581Y467004D02*
X469581Y467004D01*
X468495Y467454D01*
X467517Y468108D01*
X466685Y468939D01*
X466032Y469917D01*
X465582Y471003D01*
X465438Y471729D01*
X470307Y471729D01*
X470307Y466860D01*
X469581Y467004D01*
G37*
%LPD*%
%LPC*%
G36*
X304481Y378104D02*
X304481Y378104D01*
X303395Y378554D01*
X302417Y379208D01*
X301585Y380039D01*
X300932Y381017D01*
X300482Y382103D01*
X300338Y382829D01*
X305207Y382829D01*
X305207Y377960D01*
X304481Y378104D01*
G37*
%LPD*%
%LPC*%
G36*
X266381Y314604D02*
X266381Y314604D01*
X265295Y315054D01*
X264317Y315708D01*
X263485Y316539D01*
X262832Y317517D01*
X262382Y318603D01*
X262238Y319329D01*
X267107Y319329D01*
X267107Y314460D01*
X266381Y314604D01*
G37*
%LPD*%
%LPC*%
G36*
X342581Y213004D02*
X342581Y213004D01*
X341495Y213454D01*
X340517Y214108D01*
X339685Y214939D01*
X339032Y215917D01*
X338582Y217003D01*
X338438Y217729D01*
X343307Y217729D01*
X343307Y212860D01*
X342581Y213004D01*
G37*
%LPD*%
%LPC*%
G36*
X395122Y421944D02*
X395122Y421944D01*
X395122Y421946D01*
X395123Y421946D01*
X395123Y421944D01*
X395122Y421944D01*
G37*
%LPD*%
D10*
X369722Y447345D03*
X395122Y447345D03*
X395122Y472745D03*
X369722Y472745D03*
X369722Y421945D03*
X395122Y421945D03*
D11*
X433222Y409245D03*
D12*
X371907Y347929D01*
X320040Y347929D01*
X319938Y347828D01*
D11*
X319938Y347828D03*
X433222Y421945D03*
D12*
X369722Y358445D01*
X268122Y358445D01*
D11*
X268122Y358445D03*
X471322Y472745D03*
X344322Y218745D03*
X268122Y320345D03*
X306222Y383845D03*
X369722Y396545D03*
D13*
X395122Y396545D02*
X433222Y434645D01*
X395122Y396545D02*
X369722Y396545D01*
D11*
X433222Y434645D03*
M02*
