G04 EAGLE Gerber RS-274X export*
G75*
%MOMM*%
%FSLAX34Y34*%
%LPD*%
%INSoldermask Top*%
%IPPOS*%
%AMOC8*
5,1,8,0,0,1.08239X$1,22.5*%
G01*
%ADD10R,0.651600X1.701600*%
%ADD11R,1.701600X0.651600*%
%ADD12R,0.361600X0.891600*%
%ADD13R,0.891600X0.361600*%
%ADD14C,0.204637*%
%ADD15R,0.701600X1.201600*%
%ADD16C,1.727200*%
%ADD17R,5.151600X2.201600*%
%ADD18R,4.101600X4.101600*%
%ADD19R,1.401600X1.601600*%
%ADD20R,1.601600X1.401600*%
%ADD21R,1.301600X1.301600*%

G36*
X28614Y487665D02*
X28614Y487665D01*
X28657Y487677D01*
X28723Y487684D01*
X30407Y488135D01*
X30447Y488154D01*
X30511Y488173D01*
X32090Y488910D01*
X32127Y488936D01*
X32186Y488965D01*
X33614Y489965D01*
X33646Y489996D01*
X33699Y490036D01*
X34931Y491268D01*
X34957Y491305D01*
X35002Y491353D01*
X36002Y492781D01*
X36021Y492821D01*
X36057Y492877D01*
X36794Y494457D01*
X36806Y494500D01*
X36832Y494560D01*
X37283Y496244D01*
X37286Y496275D01*
X37293Y496296D01*
X37292Y496312D01*
X37302Y496353D01*
X37454Y498090D01*
X37450Y498134D01*
X37454Y498200D01*
X37302Y499937D01*
X37291Y499980D01*
X37283Y500045D01*
X36832Y501729D01*
X36813Y501770D01*
X36794Y501833D01*
X36057Y503413D01*
X36032Y503449D01*
X36002Y503509D01*
X35002Y504936D01*
X34971Y504968D01*
X34931Y505021D01*
X33699Y506254D01*
X33662Y506279D01*
X33614Y506325D01*
X32186Y507325D01*
X32146Y507343D01*
X32090Y507380D01*
X30511Y508117D01*
X30468Y508128D01*
X30407Y508154D01*
X28723Y508606D01*
X28678Y508609D01*
X28614Y508625D01*
X26878Y508777D01*
X26833Y508773D01*
X26767Y508777D01*
X25031Y508625D01*
X24988Y508613D01*
X24922Y508606D01*
X23238Y508154D01*
X23198Y508135D01*
X23134Y508117D01*
X21554Y507380D01*
X21518Y507354D01*
X21459Y507325D01*
X20031Y506325D01*
X19999Y506293D01*
X19946Y506254D01*
X18714Y505021D01*
X18688Y504985D01*
X18642Y504936D01*
X17643Y503509D01*
X17624Y503468D01*
X17587Y503413D01*
X16851Y501833D01*
X16839Y501790D01*
X16813Y501729D01*
X16362Y500045D01*
X16358Y500001D01*
X16343Y499937D01*
X16191Y498200D01*
X16195Y498156D01*
X16191Y498090D01*
X16343Y496353D01*
X16354Y496310D01*
X16358Y496276D01*
X16359Y496260D01*
X16360Y496255D01*
X16362Y496244D01*
X16813Y494560D01*
X16832Y494520D01*
X16851Y494457D01*
X17587Y492877D01*
X17613Y492840D01*
X17643Y492781D01*
X18642Y491353D01*
X18674Y491322D01*
X18714Y491268D01*
X19946Y490036D01*
X19983Y490010D01*
X20031Y489965D01*
X21459Y488965D01*
X21499Y488946D01*
X21554Y488910D01*
X23134Y488173D01*
X23177Y488162D01*
X23238Y488135D01*
X24922Y487684D01*
X24966Y487680D01*
X25031Y487665D01*
X26767Y487513D01*
X26812Y487517D01*
X26878Y487513D01*
X28614Y487665D01*
G37*
G36*
X28614Y17765D02*
X28614Y17765D01*
X28657Y17777D01*
X28723Y17784D01*
X30407Y18235D01*
X30447Y18254D01*
X30511Y18273D01*
X32090Y19010D01*
X32127Y19036D01*
X32186Y19065D01*
X33614Y20065D01*
X33646Y20096D01*
X33699Y20136D01*
X34931Y21368D01*
X34957Y21405D01*
X35002Y21453D01*
X36002Y22881D01*
X36021Y22921D01*
X36057Y22977D01*
X36794Y24557D01*
X36806Y24600D01*
X36832Y24660D01*
X37283Y26344D01*
X37286Y26375D01*
X37293Y26396D01*
X37292Y26412D01*
X37302Y26453D01*
X37454Y28190D01*
X37450Y28234D01*
X37454Y28300D01*
X37302Y30037D01*
X37291Y30080D01*
X37283Y30145D01*
X36832Y31829D01*
X36813Y31870D01*
X36794Y31933D01*
X36057Y33513D01*
X36032Y33549D01*
X36002Y33609D01*
X35002Y35036D01*
X34971Y35068D01*
X34931Y35121D01*
X33699Y36354D01*
X33662Y36379D01*
X33614Y36425D01*
X32186Y37425D01*
X32146Y37443D01*
X32090Y37480D01*
X30511Y38217D01*
X30468Y38228D01*
X30407Y38254D01*
X28723Y38706D01*
X28678Y38709D01*
X28614Y38725D01*
X26878Y38877D01*
X26833Y38873D01*
X26767Y38877D01*
X25031Y38725D01*
X24988Y38713D01*
X24922Y38706D01*
X23238Y38254D01*
X23198Y38235D01*
X23134Y38217D01*
X21554Y37480D01*
X21518Y37454D01*
X21459Y37425D01*
X20031Y36425D01*
X19999Y36393D01*
X19946Y36354D01*
X18714Y35121D01*
X18688Y35085D01*
X18642Y35036D01*
X17643Y33609D01*
X17624Y33568D01*
X17587Y33513D01*
X16851Y31933D01*
X16839Y31890D01*
X16813Y31829D01*
X16362Y30145D01*
X16358Y30101D01*
X16343Y30037D01*
X16191Y28300D01*
X16195Y28256D01*
X16191Y28190D01*
X16343Y26453D01*
X16354Y26410D01*
X16358Y26376D01*
X16359Y26360D01*
X16360Y26355D01*
X16362Y26344D01*
X16813Y24660D01*
X16832Y24620D01*
X16851Y24557D01*
X17587Y22977D01*
X17613Y22940D01*
X17643Y22881D01*
X18642Y21453D01*
X18674Y21422D01*
X18714Y21368D01*
X19946Y20136D01*
X19983Y20110D01*
X20031Y20065D01*
X21459Y19065D01*
X21499Y19046D01*
X21554Y19010D01*
X23134Y18273D01*
X23177Y18262D01*
X23238Y18235D01*
X24922Y17784D01*
X24966Y17780D01*
X25031Y17765D01*
X26767Y17613D01*
X26812Y17617D01*
X26878Y17613D01*
X28614Y17765D01*
G37*
G36*
X587414Y17765D02*
X587414Y17765D01*
X587457Y17777D01*
X587523Y17784D01*
X589207Y18235D01*
X589247Y18254D01*
X589311Y18273D01*
X590890Y19010D01*
X590927Y19036D01*
X590986Y19065D01*
X592414Y20065D01*
X592446Y20096D01*
X592499Y20136D01*
X593731Y21368D01*
X593757Y21405D01*
X593802Y21453D01*
X594802Y22881D01*
X594821Y22921D01*
X594857Y22977D01*
X595594Y24557D01*
X595606Y24600D01*
X595632Y24660D01*
X596083Y26344D01*
X596086Y26375D01*
X596093Y26396D01*
X596092Y26412D01*
X596102Y26453D01*
X596254Y28190D01*
X596250Y28234D01*
X596254Y28300D01*
X596102Y30037D01*
X596091Y30080D01*
X596083Y30145D01*
X595632Y31829D01*
X595613Y31870D01*
X595594Y31933D01*
X594857Y33513D01*
X594832Y33549D01*
X594802Y33609D01*
X593802Y35036D01*
X593771Y35068D01*
X593731Y35121D01*
X592499Y36354D01*
X592462Y36379D01*
X592414Y36425D01*
X590986Y37425D01*
X590946Y37443D01*
X590890Y37480D01*
X589311Y38217D01*
X589268Y38228D01*
X589207Y38254D01*
X587523Y38706D01*
X587478Y38709D01*
X587414Y38725D01*
X585678Y38877D01*
X585633Y38873D01*
X585567Y38877D01*
X583831Y38725D01*
X583788Y38713D01*
X583722Y38706D01*
X582038Y38254D01*
X581998Y38235D01*
X581934Y38217D01*
X580354Y37480D01*
X580318Y37454D01*
X580259Y37425D01*
X578831Y36425D01*
X578799Y36393D01*
X578746Y36354D01*
X577514Y35121D01*
X577488Y35085D01*
X577442Y35036D01*
X576443Y33609D01*
X576424Y33568D01*
X576387Y33513D01*
X575651Y31933D01*
X575639Y31890D01*
X575613Y31829D01*
X575162Y30145D01*
X575158Y30101D01*
X575143Y30037D01*
X574991Y28300D01*
X574995Y28256D01*
X574991Y28190D01*
X575143Y26453D01*
X575154Y26410D01*
X575158Y26376D01*
X575159Y26360D01*
X575160Y26355D01*
X575162Y26344D01*
X575613Y24660D01*
X575632Y24620D01*
X575651Y24557D01*
X576387Y22977D01*
X576413Y22940D01*
X576443Y22881D01*
X577442Y21453D01*
X577474Y21422D01*
X577514Y21368D01*
X578746Y20136D01*
X578783Y20110D01*
X578831Y20065D01*
X580259Y19065D01*
X580299Y19046D01*
X580354Y19010D01*
X581934Y18273D01*
X581977Y18262D01*
X582038Y18235D01*
X583722Y17784D01*
X583766Y17780D01*
X583831Y17765D01*
X585567Y17613D01*
X585612Y17617D01*
X585678Y17613D01*
X587414Y17765D01*
G37*
D10*
X303622Y240445D03*
X311622Y240445D03*
X319622Y240445D03*
X327622Y240445D03*
X335622Y240445D03*
X343622Y240445D03*
X351622Y240445D03*
X359622Y240445D03*
D11*
X373422Y254245D03*
X373422Y262245D03*
X373422Y270245D03*
X373422Y278245D03*
X373422Y286245D03*
X373422Y294245D03*
X373422Y302245D03*
X373422Y310245D03*
D10*
X359622Y324045D03*
X351622Y324045D03*
X343622Y324045D03*
X335622Y324045D03*
X327622Y324045D03*
X319622Y324045D03*
X311622Y324045D03*
X303622Y324045D03*
D11*
X289822Y310245D03*
X289822Y302245D03*
X289822Y294245D03*
X289822Y286245D03*
X289822Y278245D03*
X289822Y270245D03*
X289822Y262245D03*
X289822Y254245D03*
D12*
X509622Y402245D03*
X514622Y402245D03*
X519622Y402245D03*
X524622Y402245D03*
X529622Y402245D03*
X534622Y402245D03*
D13*
X541822Y409445D03*
X541822Y414445D03*
X541822Y419445D03*
X541822Y424445D03*
X541822Y429445D03*
X541822Y434445D03*
D12*
X534622Y441645D03*
X529622Y441645D03*
X524622Y441645D03*
X519622Y441645D03*
X514622Y441645D03*
X509622Y441645D03*
D13*
X502422Y434445D03*
X502422Y429445D03*
X502422Y424445D03*
X502422Y419445D03*
X502422Y414445D03*
X502422Y409445D03*
D14*
X437257Y265360D02*
X422587Y265360D01*
X422587Y268430D01*
X437257Y268430D01*
X437257Y265360D01*
X437257Y267304D02*
X422587Y267304D01*
X422587Y258860D02*
X437257Y258860D01*
X422587Y258860D02*
X422587Y261930D01*
X437257Y261930D01*
X437257Y258860D01*
X437257Y260804D02*
X422587Y260804D01*
X422587Y252360D02*
X437257Y252360D01*
X422587Y252360D02*
X422587Y255430D01*
X437257Y255430D01*
X437257Y252360D01*
X437257Y254304D02*
X422587Y254304D01*
X422587Y245860D02*
X437257Y245860D01*
X422587Y245860D02*
X422587Y248930D01*
X437257Y248930D01*
X437257Y245860D01*
X437257Y247804D02*
X422587Y247804D01*
X422587Y239360D02*
X437257Y239360D01*
X422587Y239360D02*
X422587Y242430D01*
X437257Y242430D01*
X437257Y239360D01*
X437257Y241304D02*
X422587Y241304D01*
X422587Y232860D02*
X437257Y232860D01*
X422587Y232860D02*
X422587Y235930D01*
X437257Y235930D01*
X437257Y232860D01*
X437257Y234804D02*
X422587Y234804D01*
X422587Y226360D02*
X437257Y226360D01*
X422587Y226360D02*
X422587Y229430D01*
X437257Y229430D01*
X437257Y226360D01*
X437257Y228304D02*
X422587Y228304D01*
X422587Y219860D02*
X437257Y219860D01*
X422587Y219860D02*
X422587Y222930D01*
X437257Y222930D01*
X437257Y219860D01*
X437257Y221804D02*
X422587Y221804D01*
X479987Y219860D02*
X494657Y219860D01*
X479987Y219860D02*
X479987Y222930D01*
X494657Y222930D01*
X494657Y219860D01*
X494657Y221804D02*
X479987Y221804D01*
X479987Y226360D02*
X494657Y226360D01*
X479987Y226360D02*
X479987Y229430D01*
X494657Y229430D01*
X494657Y226360D01*
X494657Y228304D02*
X479987Y228304D01*
X479987Y232860D02*
X494657Y232860D01*
X479987Y232860D02*
X479987Y235930D01*
X494657Y235930D01*
X494657Y232860D01*
X494657Y234804D02*
X479987Y234804D01*
X479987Y239360D02*
X494657Y239360D01*
X479987Y239360D02*
X479987Y242430D01*
X494657Y242430D01*
X494657Y239360D01*
X494657Y241304D02*
X479987Y241304D01*
X479987Y245860D02*
X494657Y245860D01*
X479987Y245860D02*
X479987Y248930D01*
X494657Y248930D01*
X494657Y245860D01*
X494657Y247804D02*
X479987Y247804D01*
X479987Y252360D02*
X494657Y252360D01*
X479987Y252360D02*
X479987Y255430D01*
X494657Y255430D01*
X494657Y252360D01*
X494657Y254304D02*
X479987Y254304D01*
X479987Y258860D02*
X494657Y258860D01*
X479987Y258860D02*
X479987Y261930D01*
X494657Y261930D01*
X494657Y258860D01*
X494657Y260804D02*
X479987Y260804D01*
X479987Y265360D02*
X494657Y265360D01*
X479987Y265360D02*
X479987Y268430D01*
X494657Y268430D01*
X494657Y265360D01*
X494657Y267304D02*
X479987Y267304D01*
D15*
X144322Y144245D03*
X163322Y144245D03*
X153822Y166245D03*
D16*
X369722Y447345D03*
X395122Y447345D03*
X395122Y472745D03*
X369722Y472745D03*
X369722Y421945D03*
X395122Y421945D03*
D17*
X112922Y263345D03*
X112922Y495845D03*
D18*
X113622Y376945D03*
D19*
X569722Y369164D03*
X550722Y369164D03*
D20*
X335636Y365099D03*
X335636Y384099D03*
D19*
X469189Y429260D03*
X450189Y429260D03*
D21*
X204622Y38745D03*
X204622Y17745D03*
X255422Y38745D03*
X255422Y17745D03*
X306222Y38745D03*
X306222Y17745D03*
X357022Y38745D03*
X357022Y17745D03*
X407822Y38745D03*
X407822Y17745D03*
X458622Y38745D03*
X458622Y17745D03*
X509422Y38745D03*
X509422Y17745D03*
X560222Y38745D03*
X560222Y17745D03*
D19*
X328016Y206705D03*
X309016Y206705D03*
D21*
X154127Y38440D03*
X154127Y17440D03*
D20*
X115722Y18745D03*
X115722Y37745D03*
X241910Y348284D03*
X241910Y367284D03*
X298653Y347980D03*
X298653Y366980D03*
X306222Y422047D03*
X306222Y403047D03*
X268529Y402997D03*
X268529Y383997D03*
X560222Y437845D03*
X560222Y456845D03*
D19*
X534670Y472592D03*
X515670Y472592D03*
M02*
