G04 EAGLE Gerber RS-274X export*
G75*
%MOMM*%
%FSLAX34Y34*%
%LPD*%
%INSolderpaste Top*%
%IPPOS*%
%AMOC8*
5,1,8,0,0,1.08239X$1,22.5*%
G01*
%ADD10R,0.550000X1.600000*%
%ADD11R,1.600000X0.550000*%
%ADD12R,0.260000X0.790000*%
%ADD13R,0.790000X0.260000*%
%ADD14C,0.102500*%
%ADD15R,0.600000X1.100000*%
%ADD16R,5.050000X2.100000*%
%ADD17R,4.000000X4.000000*%
%ADD18R,1.300000X1.500000*%
%ADD19R,1.500000X1.300000*%
%ADD20R,1.200000X1.200000*%


D10*
X303622Y240445D03*
X311622Y240445D03*
X319622Y240445D03*
X327622Y240445D03*
X335622Y240445D03*
X343622Y240445D03*
X351622Y240445D03*
X359622Y240445D03*
D11*
X373422Y254245D03*
X373422Y262245D03*
X373422Y270245D03*
X373422Y278245D03*
X373422Y286245D03*
X373422Y294245D03*
X373422Y302245D03*
X373422Y310245D03*
D10*
X359622Y324045D03*
X351622Y324045D03*
X343622Y324045D03*
X335622Y324045D03*
X327622Y324045D03*
X319622Y324045D03*
X311622Y324045D03*
X303622Y324045D03*
D11*
X289822Y310245D03*
X289822Y302245D03*
X289822Y294245D03*
X289822Y286245D03*
X289822Y278245D03*
X289822Y270245D03*
X289822Y262245D03*
X289822Y254245D03*
D12*
X509622Y402245D03*
X514622Y402245D03*
X519622Y402245D03*
X524622Y402245D03*
X529622Y402245D03*
X534622Y402245D03*
D13*
X541822Y409445D03*
X541822Y414445D03*
X541822Y419445D03*
X541822Y424445D03*
X541822Y429445D03*
X541822Y434445D03*
D12*
X534622Y441645D03*
X529622Y441645D03*
X524622Y441645D03*
X519622Y441645D03*
X514622Y441645D03*
X509622Y441645D03*
D13*
X502422Y434445D03*
X502422Y429445D03*
X502422Y424445D03*
X502422Y419445D03*
X502422Y414445D03*
X502422Y409445D03*
D14*
X437260Y265357D02*
X422584Y265357D01*
X422584Y268433D01*
X437260Y268433D01*
X437260Y265357D01*
X437260Y266331D02*
X422584Y266331D01*
X422584Y267305D02*
X437260Y267305D01*
X437260Y268279D02*
X422584Y268279D01*
X422584Y258857D02*
X437260Y258857D01*
X422584Y258857D02*
X422584Y261933D01*
X437260Y261933D01*
X437260Y258857D01*
X437260Y259831D02*
X422584Y259831D01*
X422584Y260805D02*
X437260Y260805D01*
X437260Y261779D02*
X422584Y261779D01*
X422584Y252357D02*
X437260Y252357D01*
X422584Y252357D02*
X422584Y255433D01*
X437260Y255433D01*
X437260Y252357D01*
X437260Y253331D02*
X422584Y253331D01*
X422584Y254305D02*
X437260Y254305D01*
X437260Y255279D02*
X422584Y255279D01*
X422584Y245857D02*
X437260Y245857D01*
X422584Y245857D02*
X422584Y248933D01*
X437260Y248933D01*
X437260Y245857D01*
X437260Y246831D02*
X422584Y246831D01*
X422584Y247805D02*
X437260Y247805D01*
X437260Y248779D02*
X422584Y248779D01*
X422584Y239357D02*
X437260Y239357D01*
X422584Y239357D02*
X422584Y242433D01*
X437260Y242433D01*
X437260Y239357D01*
X437260Y240331D02*
X422584Y240331D01*
X422584Y241305D02*
X437260Y241305D01*
X437260Y242279D02*
X422584Y242279D01*
X422584Y232857D02*
X437260Y232857D01*
X422584Y232857D02*
X422584Y235933D01*
X437260Y235933D01*
X437260Y232857D01*
X437260Y233831D02*
X422584Y233831D01*
X422584Y234805D02*
X437260Y234805D01*
X437260Y235779D02*
X422584Y235779D01*
X422584Y226357D02*
X437260Y226357D01*
X422584Y226357D02*
X422584Y229433D01*
X437260Y229433D01*
X437260Y226357D01*
X437260Y227331D02*
X422584Y227331D01*
X422584Y228305D02*
X437260Y228305D01*
X437260Y229279D02*
X422584Y229279D01*
X422584Y219857D02*
X437260Y219857D01*
X422584Y219857D02*
X422584Y222933D01*
X437260Y222933D01*
X437260Y219857D01*
X437260Y220831D02*
X422584Y220831D01*
X422584Y221805D02*
X437260Y221805D01*
X437260Y222779D02*
X422584Y222779D01*
X479984Y219857D02*
X494660Y219857D01*
X479984Y219857D02*
X479984Y222933D01*
X494660Y222933D01*
X494660Y219857D01*
X494660Y220831D02*
X479984Y220831D01*
X479984Y221805D02*
X494660Y221805D01*
X494660Y222779D02*
X479984Y222779D01*
X479984Y226357D02*
X494660Y226357D01*
X479984Y226357D02*
X479984Y229433D01*
X494660Y229433D01*
X494660Y226357D01*
X494660Y227331D02*
X479984Y227331D01*
X479984Y228305D02*
X494660Y228305D01*
X494660Y229279D02*
X479984Y229279D01*
X479984Y232857D02*
X494660Y232857D01*
X479984Y232857D02*
X479984Y235933D01*
X494660Y235933D01*
X494660Y232857D01*
X494660Y233831D02*
X479984Y233831D01*
X479984Y234805D02*
X494660Y234805D01*
X494660Y235779D02*
X479984Y235779D01*
X479984Y239357D02*
X494660Y239357D01*
X479984Y239357D02*
X479984Y242433D01*
X494660Y242433D01*
X494660Y239357D01*
X494660Y240331D02*
X479984Y240331D01*
X479984Y241305D02*
X494660Y241305D01*
X494660Y242279D02*
X479984Y242279D01*
X479984Y245857D02*
X494660Y245857D01*
X479984Y245857D02*
X479984Y248933D01*
X494660Y248933D01*
X494660Y245857D01*
X494660Y246831D02*
X479984Y246831D01*
X479984Y247805D02*
X494660Y247805D01*
X494660Y248779D02*
X479984Y248779D01*
X479984Y252357D02*
X494660Y252357D01*
X479984Y252357D02*
X479984Y255433D01*
X494660Y255433D01*
X494660Y252357D01*
X494660Y253331D02*
X479984Y253331D01*
X479984Y254305D02*
X494660Y254305D01*
X494660Y255279D02*
X479984Y255279D01*
X479984Y258857D02*
X494660Y258857D01*
X479984Y258857D02*
X479984Y261933D01*
X494660Y261933D01*
X494660Y258857D01*
X494660Y259831D02*
X479984Y259831D01*
X479984Y260805D02*
X494660Y260805D01*
X494660Y261779D02*
X479984Y261779D01*
X479984Y265357D02*
X494660Y265357D01*
X479984Y265357D02*
X479984Y268433D01*
X494660Y268433D01*
X494660Y265357D01*
X494660Y266331D02*
X479984Y266331D01*
X479984Y267305D02*
X494660Y267305D01*
X494660Y268279D02*
X479984Y268279D01*
D15*
X144322Y144245D03*
X163322Y144245D03*
X153822Y166245D03*
D16*
X112922Y263345D03*
X112922Y495845D03*
D17*
X113622Y376945D03*
D18*
X569722Y369164D03*
X550722Y369164D03*
D19*
X335636Y365099D03*
X335636Y384099D03*
D18*
X469189Y429260D03*
X450189Y429260D03*
D20*
X204622Y38745D03*
X204622Y17745D03*
X255422Y38745D03*
X255422Y17745D03*
X306222Y38745D03*
X306222Y17745D03*
X357022Y38745D03*
X357022Y17745D03*
X407822Y38745D03*
X407822Y17745D03*
X458622Y38745D03*
X458622Y17745D03*
X509422Y38745D03*
X509422Y17745D03*
X560222Y38745D03*
X560222Y17745D03*
D18*
X328016Y206705D03*
X309016Y206705D03*
D20*
X154127Y38440D03*
X154127Y17440D03*
D19*
X115722Y18745D03*
X115722Y37745D03*
X241910Y348284D03*
X241910Y367284D03*
X298653Y347980D03*
X298653Y366980D03*
X306222Y422047D03*
X306222Y403047D03*
X268529Y402997D03*
X268529Y383997D03*
X560222Y437845D03*
X560222Y456845D03*
D18*
X534670Y472592D03*
X515670Y472592D03*
M02*
