G04 EAGLE Gerber RS-274X export*
G75*
%MOMM*%
%FSLAX34Y34*%
%LPD*%
%INBottom Copper*%
%IPPOS*%
%AMOC8*
5,1,8,0,0,1.08239X$1,22.5*%
G01*
%ADD10C,1.625600*%
%ADD11C,0.685800*%
%ADD12C,0.203200*%
%ADD13C,0.330200*%

G36*
X607131Y8245D02*
X607131Y8245D01*
X607249Y8253D01*
X607288Y8265D01*
X607328Y8270D01*
X607439Y8314D01*
X607552Y8351D01*
X607586Y8372D01*
X607624Y8387D01*
X607720Y8457D01*
X607821Y8521D01*
X607848Y8550D01*
X607881Y8574D01*
X607957Y8666D01*
X608038Y8752D01*
X608058Y8788D01*
X608084Y8819D01*
X608135Y8927D01*
X608192Y9031D01*
X608202Y9070D01*
X608219Y9107D01*
X608242Y9224D01*
X608271Y9339D01*
X608275Y9399D01*
X608279Y9419D01*
X608278Y9439D01*
X608282Y9500D01*
X608282Y513690D01*
X608267Y513808D01*
X608259Y513927D01*
X608247Y513965D01*
X608242Y514005D01*
X608198Y514116D01*
X608161Y514229D01*
X608140Y514263D01*
X608125Y514301D01*
X608055Y514397D01*
X607991Y514498D01*
X607962Y514525D01*
X607938Y514558D01*
X607846Y514634D01*
X607760Y514716D01*
X607724Y514735D01*
X607693Y514761D01*
X607585Y514812D01*
X607481Y514869D01*
X607442Y514879D01*
X607405Y514897D01*
X607288Y514919D01*
X607173Y514949D01*
X607113Y514952D01*
X607093Y514956D01*
X607073Y514955D01*
X607012Y514959D01*
X5232Y514959D01*
X5114Y514944D01*
X4995Y514937D01*
X4957Y514924D01*
X4917Y514919D01*
X4806Y514875D01*
X4693Y514839D01*
X4659Y514817D01*
X4621Y514802D01*
X4525Y514732D01*
X4424Y514668D01*
X4397Y514639D01*
X4364Y514615D01*
X4288Y514523D01*
X4206Y514437D01*
X4187Y514401D01*
X4161Y514370D01*
X4110Y514263D01*
X4053Y514158D01*
X4043Y514119D01*
X4025Y514082D01*
X4003Y513966D01*
X3973Y513850D01*
X3970Y513790D01*
X3966Y513770D01*
X3967Y513750D01*
X3963Y513690D01*
X3963Y9500D01*
X3978Y9381D01*
X3985Y9263D01*
X3998Y9224D01*
X4003Y9184D01*
X4047Y9073D01*
X4083Y8960D01*
X4105Y8926D01*
X4120Y8888D01*
X4190Y8792D01*
X4254Y8691D01*
X4283Y8664D01*
X4307Y8631D01*
X4399Y8555D01*
X4485Y8474D01*
X4521Y8454D01*
X4552Y8428D01*
X4659Y8377D01*
X4764Y8320D01*
X4803Y8310D01*
X4840Y8293D01*
X4956Y8270D01*
X5072Y8241D01*
X5132Y8237D01*
X5152Y8233D01*
X5172Y8234D01*
X5232Y8230D01*
X607012Y8230D01*
X607131Y8245D01*
G37*
%LPC*%
G36*
X318852Y345211D02*
X318852Y345211D01*
X316845Y346042D01*
X315308Y347579D01*
X314477Y349586D01*
X314477Y351759D01*
X315308Y353766D01*
X316845Y355303D01*
X318043Y355799D01*
X318104Y355834D01*
X318168Y355859D01*
X318241Y355912D01*
X318319Y355957D01*
X318369Y356005D01*
X318426Y356046D01*
X318483Y356115D01*
X318548Y356178D01*
X318584Y356237D01*
X318629Y356291D01*
X318667Y356372D01*
X318714Y356449D01*
X318734Y356516D01*
X318764Y356579D01*
X318781Y356667D01*
X318807Y356753D01*
X318811Y356823D01*
X318824Y356891D01*
X318818Y356981D01*
X318823Y357071D01*
X318808Y357139D01*
X318804Y357209D01*
X318777Y357294D01*
X318758Y357382D01*
X318728Y357445D01*
X318706Y357511D01*
X318658Y357587D01*
X318619Y357668D01*
X318573Y357721D01*
X318536Y357780D01*
X318470Y357841D01*
X318412Y357910D01*
X318355Y357950D01*
X318304Y357998D01*
X318226Y358041D01*
X318152Y358093D01*
X318087Y358118D01*
X318026Y358151D01*
X317939Y358174D01*
X317855Y358205D01*
X317785Y358213D01*
X317718Y358231D01*
X317557Y358241D01*
X273323Y358241D01*
X273225Y358228D01*
X273126Y358225D01*
X273068Y358209D01*
X273008Y358201D01*
X272916Y358165D01*
X272821Y358137D01*
X272769Y358106D01*
X272712Y358084D01*
X272632Y358026D01*
X272547Y357976D01*
X272471Y357909D01*
X272455Y357897D01*
X272447Y357888D01*
X272426Y357869D01*
X271216Y356659D01*
X269209Y355828D01*
X267036Y355828D01*
X265029Y356659D01*
X263492Y358196D01*
X262661Y360203D01*
X262661Y362376D01*
X263492Y364383D01*
X265029Y365920D01*
X267036Y366751D01*
X269209Y366751D01*
X271216Y365920D01*
X272426Y364710D01*
X272504Y364649D01*
X272576Y364582D01*
X272629Y364552D01*
X272677Y364515D01*
X272768Y364476D01*
X272855Y364428D01*
X272913Y364413D01*
X272969Y364389D01*
X273067Y364373D01*
X273163Y364349D01*
X273263Y364342D01*
X273283Y364339D01*
X273295Y364340D01*
X273323Y364338D01*
X367934Y364338D01*
X368032Y364351D01*
X368131Y364354D01*
X368189Y364371D01*
X368249Y364378D01*
X368341Y364415D01*
X368437Y364442D01*
X368489Y364473D01*
X368545Y364495D01*
X368625Y364553D01*
X368710Y364604D01*
X368786Y364670D01*
X368802Y364682D01*
X368810Y364691D01*
X368831Y364710D01*
X397660Y393539D01*
X397746Y393649D01*
X397834Y393756D01*
X397843Y393774D01*
X397855Y393790D01*
X397911Y393918D01*
X397970Y394044D01*
X397974Y394064D01*
X397982Y394082D01*
X398004Y394220D01*
X398030Y394356D01*
X398028Y394376D01*
X398032Y394396D01*
X398018Y394535D01*
X398010Y394674D01*
X398004Y394693D01*
X398002Y394713D01*
X397955Y394844D01*
X397912Y394976D01*
X397901Y394993D01*
X397894Y395012D01*
X397816Y395127D01*
X397742Y395245D01*
X397727Y395259D01*
X397716Y395275D01*
X397611Y395367D01*
X397510Y395463D01*
X397492Y395472D01*
X397477Y395486D01*
X397353Y395549D01*
X397232Y395616D01*
X397212Y395621D01*
X397194Y395630D01*
X397058Y395661D01*
X396924Y395696D01*
X396896Y395697D01*
X396884Y395700D01*
X396863Y395699D01*
X396763Y395706D01*
X374288Y395706D01*
X374190Y395693D01*
X374091Y395690D01*
X374033Y395674D01*
X373973Y395666D01*
X373881Y395630D01*
X373786Y395602D01*
X373734Y395571D01*
X373677Y395549D01*
X373597Y395491D01*
X373512Y395441D01*
X373436Y395374D01*
X373420Y395362D01*
X373412Y395353D01*
X373391Y395334D01*
X372816Y394759D01*
X370809Y393928D01*
X368636Y393928D01*
X366629Y394759D01*
X365092Y396296D01*
X364261Y398303D01*
X364261Y400476D01*
X365092Y402483D01*
X366629Y404020D01*
X368636Y404851D01*
X370809Y404851D01*
X372816Y404020D01*
X373391Y403445D01*
X373469Y403384D01*
X373541Y403317D01*
X373594Y403287D01*
X373642Y403250D01*
X373733Y403211D01*
X373820Y403163D01*
X373878Y403148D01*
X373934Y403124D01*
X374032Y403108D01*
X374128Y403084D01*
X374228Y403077D01*
X374248Y403074D01*
X374260Y403075D01*
X374288Y403073D01*
X393071Y403073D01*
X393169Y403086D01*
X393268Y403089D01*
X393326Y403106D01*
X393386Y403113D01*
X393478Y403150D01*
X393574Y403177D01*
X393626Y403208D01*
X393682Y403230D01*
X393762Y403288D01*
X393847Y403339D01*
X393923Y403405D01*
X393939Y403417D01*
X393947Y403426D01*
X393968Y403445D01*
X427389Y436866D01*
X427450Y436944D01*
X427517Y437016D01*
X427547Y437069D01*
X427584Y437117D01*
X427623Y437208D01*
X427671Y437295D01*
X427686Y437353D01*
X427710Y437409D01*
X427726Y437507D01*
X427750Y437603D01*
X427757Y437703D01*
X427760Y437723D01*
X427759Y437735D01*
X427761Y437763D01*
X427761Y438576D01*
X428592Y440583D01*
X430129Y442120D01*
X432136Y442951D01*
X434309Y442951D01*
X436316Y442120D01*
X437853Y440583D01*
X438684Y438576D01*
X438684Y436403D01*
X437853Y434396D01*
X436316Y432859D01*
X434995Y432312D01*
X434875Y432243D01*
X434752Y432178D01*
X434737Y432165D01*
X434719Y432155D01*
X434619Y432058D01*
X434516Y431964D01*
X434505Y431947D01*
X434491Y431933D01*
X434418Y431815D01*
X434342Y431699D01*
X434335Y431680D01*
X434324Y431662D01*
X434283Y431529D01*
X434238Y431398D01*
X434237Y431378D01*
X434231Y431358D01*
X434224Y431220D01*
X434213Y431081D01*
X434217Y431061D01*
X434216Y431041D01*
X434244Y430904D01*
X434268Y430768D01*
X434276Y430749D01*
X434280Y430729D01*
X434341Y430604D01*
X434398Y430478D01*
X434411Y430462D01*
X434420Y430444D01*
X434510Y430338D01*
X434597Y430229D01*
X434613Y430217D01*
X434626Y430202D01*
X434740Y430122D01*
X434851Y430038D01*
X434876Y430026D01*
X434886Y430018D01*
X434905Y430011D01*
X434995Y429967D01*
X436316Y429420D01*
X437853Y427883D01*
X438684Y425876D01*
X438684Y423703D01*
X437853Y421696D01*
X436316Y420159D01*
X434995Y419612D01*
X434874Y419543D01*
X434752Y419478D01*
X434737Y419465D01*
X434719Y419455D01*
X434619Y419358D01*
X434516Y419264D01*
X434505Y419248D01*
X434491Y419233D01*
X434418Y419114D01*
X434342Y418999D01*
X434335Y418980D01*
X434324Y418962D01*
X434283Y418829D01*
X434238Y418698D01*
X434237Y418678D01*
X434231Y418658D01*
X434224Y418519D01*
X434213Y418381D01*
X434217Y418361D01*
X434216Y418341D01*
X434244Y418205D01*
X434268Y418068D01*
X434276Y418049D01*
X434280Y418029D01*
X434341Y417904D01*
X434398Y417778D01*
X434411Y417762D01*
X434420Y417744D01*
X434510Y417638D01*
X434597Y417529D01*
X434613Y417517D01*
X434626Y417502D01*
X434740Y417421D01*
X434851Y417338D01*
X434876Y417325D01*
X434886Y417318D01*
X434905Y417311D01*
X434995Y417267D01*
X436316Y416720D01*
X437853Y415183D01*
X438684Y413176D01*
X438684Y411003D01*
X437853Y408996D01*
X436316Y407459D01*
X434309Y406628D01*
X432598Y406628D01*
X432500Y406615D01*
X432401Y406612D01*
X432343Y406596D01*
X432282Y406588D01*
X432190Y406552D01*
X432095Y406524D01*
X432043Y406493D01*
X431987Y406471D01*
X431907Y406413D01*
X431821Y406363D01*
X431746Y406296D01*
X431729Y406284D01*
X431722Y406275D01*
X431700Y406256D01*
X373170Y347725D01*
X325241Y347725D01*
X325143Y347713D01*
X325044Y347710D01*
X324986Y347693D01*
X324926Y347685D01*
X324833Y347649D01*
X324738Y347621D01*
X324686Y347591D01*
X324630Y347568D01*
X324550Y347510D01*
X324464Y347460D01*
X324389Y347394D01*
X324373Y347382D01*
X324365Y347372D01*
X324344Y347353D01*
X323032Y346042D01*
X321025Y345211D01*
X318852Y345211D01*
G37*
%LPD*%
%LPC*%
G36*
X393101Y465429D02*
X393101Y465429D01*
X389367Y466976D01*
X386509Y469834D01*
X384962Y473568D01*
X384962Y477611D01*
X386509Y481345D01*
X389367Y484203D01*
X393101Y485750D01*
X397144Y485750D01*
X400878Y484203D01*
X403736Y481345D01*
X405283Y477611D01*
X405283Y473568D01*
X403736Y469834D01*
X400878Y466976D01*
X397144Y465429D01*
X393101Y465429D01*
G37*
%LPD*%
%LPC*%
G36*
X367701Y465429D02*
X367701Y465429D01*
X363967Y466976D01*
X361109Y469834D01*
X359562Y473568D01*
X359562Y477611D01*
X361109Y481345D01*
X363967Y484203D01*
X367701Y485750D01*
X371744Y485750D01*
X375478Y484203D01*
X378336Y481345D01*
X379883Y477611D01*
X379883Y473568D01*
X378336Y469834D01*
X375478Y466976D01*
X371744Y465429D01*
X367701Y465429D01*
G37*
%LPD*%
%LPC*%
G36*
X393101Y440029D02*
X393101Y440029D01*
X389367Y441576D01*
X386509Y444434D01*
X384962Y448168D01*
X384962Y452211D01*
X386509Y455945D01*
X389367Y458803D01*
X393101Y460350D01*
X397144Y460350D01*
X400878Y458803D01*
X403736Y455945D01*
X405283Y452211D01*
X405283Y448168D01*
X403736Y444434D01*
X400878Y441576D01*
X397144Y440029D01*
X393101Y440029D01*
G37*
%LPD*%
%LPC*%
G36*
X367701Y440029D02*
X367701Y440029D01*
X363967Y441576D01*
X361109Y444434D01*
X359562Y448168D01*
X359562Y452211D01*
X361109Y455945D01*
X363967Y458803D01*
X367701Y460350D01*
X371744Y460350D01*
X375478Y458803D01*
X378336Y455945D01*
X379883Y452211D01*
X379883Y448168D01*
X378336Y444434D01*
X375478Y441576D01*
X371744Y440029D01*
X367701Y440029D01*
G37*
%LPD*%
%LPC*%
G36*
X367701Y414629D02*
X367701Y414629D01*
X363967Y416176D01*
X361109Y419034D01*
X359562Y422768D01*
X359562Y426811D01*
X361109Y430545D01*
X363967Y433403D01*
X367701Y434950D01*
X371744Y434950D01*
X375478Y433403D01*
X378336Y430545D01*
X379883Y426811D01*
X379883Y422768D01*
X378336Y419034D01*
X375478Y416176D01*
X371744Y414629D01*
X367701Y414629D01*
G37*
%LPD*%
%LPC*%
G36*
X397372Y427039D02*
X397372Y427039D01*
X397372Y435235D01*
X397621Y435196D01*
X399218Y434677D01*
X400714Y433914D01*
X402073Y432927D01*
X403260Y431740D01*
X404247Y430381D01*
X405010Y428885D01*
X405528Y427288D01*
X405568Y427039D01*
X397372Y427039D01*
G37*
%LPD*%
%LPC*%
G36*
X384677Y427039D02*
X384677Y427039D01*
X384716Y427288D01*
X385235Y428885D01*
X385998Y430381D01*
X386985Y431740D01*
X388172Y432927D01*
X389531Y433914D01*
X391027Y434677D01*
X392624Y435196D01*
X392873Y435235D01*
X392873Y427039D01*
X384677Y427039D01*
G37*
%LPD*%
%LPC*%
G36*
X397372Y422540D02*
X397372Y422540D01*
X405568Y422540D01*
X405528Y422291D01*
X405010Y420694D01*
X404247Y419198D01*
X403260Y417839D01*
X402073Y416652D01*
X400714Y415665D01*
X399218Y414902D01*
X397621Y414384D01*
X397372Y414344D01*
X397372Y422540D01*
G37*
%LPD*%
%LPC*%
G36*
X392624Y414384D02*
X392624Y414384D01*
X391027Y414902D01*
X389531Y415665D01*
X388172Y416652D01*
X386985Y417839D01*
X385998Y419198D01*
X385235Y420694D01*
X384716Y422291D01*
X384677Y422540D01*
X392873Y422540D01*
X392873Y414344D01*
X392624Y414384D01*
G37*
%LPD*%
%LPC*%
G36*
X472592Y476859D02*
X472592Y476859D01*
X472592Y481424D01*
X473064Y481330D01*
X474150Y480880D01*
X475128Y480227D01*
X475959Y479395D01*
X476613Y478417D01*
X477063Y477331D01*
X477157Y476859D01*
X472592Y476859D01*
G37*
%LPD*%
%LPC*%
G36*
X307492Y387959D02*
X307492Y387959D01*
X307492Y392524D01*
X307964Y392430D01*
X309050Y391980D01*
X310028Y391327D01*
X310859Y390495D01*
X311513Y389517D01*
X311963Y388431D01*
X312057Y387959D01*
X307492Y387959D01*
G37*
%LPD*%
%LPC*%
G36*
X269392Y324459D02*
X269392Y324459D01*
X269392Y329024D01*
X269864Y328930D01*
X270950Y328480D01*
X271928Y327827D01*
X272759Y326995D01*
X273413Y326017D01*
X273863Y324931D01*
X273957Y324459D01*
X269392Y324459D01*
G37*
%LPD*%
%LPC*%
G36*
X345592Y222859D02*
X345592Y222859D01*
X345592Y227424D01*
X346064Y227330D01*
X347150Y226880D01*
X348128Y226227D01*
X348959Y225395D01*
X349613Y224417D01*
X350063Y223331D01*
X350157Y222859D01*
X345592Y222859D01*
G37*
%LPD*%
%LPC*%
G36*
X465488Y476859D02*
X465488Y476859D01*
X465582Y477331D01*
X466032Y478417D01*
X466685Y479395D01*
X467517Y480227D01*
X468495Y480880D01*
X469581Y481330D01*
X470053Y481424D01*
X470053Y476859D01*
X465488Y476859D01*
G37*
%LPD*%
%LPC*%
G36*
X472592Y474320D02*
X472592Y474320D01*
X477157Y474320D01*
X477063Y473848D01*
X476613Y472762D01*
X475959Y471784D01*
X475128Y470953D01*
X474150Y470299D01*
X473064Y469849D01*
X472592Y469755D01*
X472592Y474320D01*
G37*
%LPD*%
%LPC*%
G36*
X300388Y387959D02*
X300388Y387959D01*
X300482Y388431D01*
X300932Y389517D01*
X301585Y390495D01*
X302417Y391327D01*
X303395Y391980D01*
X304481Y392430D01*
X304953Y392524D01*
X304953Y387959D01*
X300388Y387959D01*
G37*
%LPD*%
%LPC*%
G36*
X307492Y385420D02*
X307492Y385420D01*
X312057Y385420D01*
X311963Y384948D01*
X311513Y383862D01*
X310859Y382884D01*
X310028Y382053D01*
X309050Y381399D01*
X307964Y380949D01*
X307492Y380855D01*
X307492Y385420D01*
G37*
%LPD*%
%LPC*%
G36*
X262288Y324459D02*
X262288Y324459D01*
X262382Y324931D01*
X262832Y326017D01*
X263485Y326995D01*
X264317Y327827D01*
X265295Y328480D01*
X266381Y328930D01*
X266853Y329024D01*
X266853Y324459D01*
X262288Y324459D01*
G37*
%LPD*%
%LPC*%
G36*
X269392Y321920D02*
X269392Y321920D01*
X273957Y321920D01*
X273863Y321448D01*
X273413Y320362D01*
X272759Y319384D01*
X271928Y318553D01*
X270950Y317899D01*
X269864Y317449D01*
X269392Y317355D01*
X269392Y321920D01*
G37*
%LPD*%
%LPC*%
G36*
X338488Y222859D02*
X338488Y222859D01*
X338582Y223331D01*
X339032Y224417D01*
X339685Y225395D01*
X340517Y226227D01*
X341495Y226880D01*
X342581Y227330D01*
X343053Y227424D01*
X343053Y222859D01*
X338488Y222859D01*
G37*
%LPD*%
%LPC*%
G36*
X345592Y220320D02*
X345592Y220320D01*
X350157Y220320D01*
X350063Y219848D01*
X349613Y218762D01*
X348959Y217784D01*
X348128Y216953D01*
X347150Y216299D01*
X346064Y215849D01*
X345592Y215755D01*
X345592Y220320D01*
G37*
%LPD*%
%LPC*%
G36*
X469581Y469849D02*
X469581Y469849D01*
X468495Y470299D01*
X467517Y470953D01*
X466685Y471784D01*
X466032Y472762D01*
X465582Y473848D01*
X465488Y474320D01*
X470053Y474320D01*
X470053Y469755D01*
X469581Y469849D01*
G37*
%LPD*%
%LPC*%
G36*
X304481Y380949D02*
X304481Y380949D01*
X303395Y381399D01*
X302417Y382053D01*
X301585Y382884D01*
X300932Y383862D01*
X300482Y384948D01*
X300388Y385420D01*
X304953Y385420D01*
X304953Y380855D01*
X304481Y380949D01*
G37*
%LPD*%
%LPC*%
G36*
X266381Y317449D02*
X266381Y317449D01*
X265295Y317899D01*
X264317Y318553D01*
X263485Y319384D01*
X262832Y320362D01*
X262382Y321448D01*
X262288Y321920D01*
X266853Y321920D01*
X266853Y317355D01*
X266381Y317449D01*
G37*
%LPD*%
%LPC*%
G36*
X342581Y215849D02*
X342581Y215849D01*
X341495Y216299D01*
X340517Y216953D01*
X339685Y217784D01*
X339032Y218762D01*
X338582Y219848D01*
X338488Y220320D01*
X343053Y220320D01*
X343053Y215755D01*
X342581Y215849D01*
G37*
%LPD*%
D10*
X369722Y450190D03*
X395122Y450190D03*
X395122Y475590D03*
X369722Y475590D03*
X369722Y424790D03*
X395122Y424790D03*
D11*
X433222Y412090D03*
D12*
X371907Y350774D01*
X320040Y350774D01*
X319938Y350672D01*
D11*
X319938Y350672D03*
X433222Y424790D03*
D12*
X369722Y361290D01*
X268122Y361290D01*
D11*
X268122Y361290D03*
X471322Y475590D03*
X344322Y221590D03*
X268122Y323190D03*
X306222Y386690D03*
X369722Y399390D03*
D13*
X395122Y399390D02*
X433222Y437490D01*
X395122Y399390D02*
X369722Y399390D01*
D11*
X433222Y437490D03*
M02*
