G04 EAGLE Gerber RS-274X export*
G75*
%MOMM*%
%FSLAX34Y34*%
%LPD*%
%INSilkscreen Top*%
%IPPOS*%
%AMOC8*
5,1,8,0,0,1.08239X$1,22.5*%
G01*
%ADD10C,0.508000*%
%ADD11C,0.152400*%
%ADD12C,0.127000*%
%ADD13C,0.200000*%
%ADD14C,0.101600*%
%ADD15C,0.076200*%
%ADD16R,0.150000X0.300000*%
%ADD17R,0.300000X0.300000*%
%ADD18R,0.200000X0.200000*%
%ADD19R,7.000000X21.200000*%
%ADD20R,3.100000X6.800000*%
%ADD21R,1.500000X1.300000*%


D10*
X378400Y225510D03*
D11*
X373900Y243900D02*
X370900Y243900D01*
X370900Y246900D01*
X370900Y311900D02*
X370900Y314900D01*
X373900Y314900D01*
X441900Y314900D02*
X441900Y311900D01*
X441900Y314900D02*
X438900Y314900D01*
X438900Y243900D02*
X441900Y243900D01*
X441900Y246900D01*
D12*
X563700Y434700D02*
X563700Y439600D01*
X568600Y439600D01*
X604700Y403500D02*
X604700Y398600D01*
X599800Y398600D01*
X599800Y439600D02*
X604700Y439600D01*
X604700Y434700D01*
D13*
X570200Y389100D02*
X570202Y389163D01*
X570208Y389225D01*
X570218Y389287D01*
X570231Y389349D01*
X570249Y389409D01*
X570270Y389468D01*
X570295Y389526D01*
X570324Y389582D01*
X570356Y389636D01*
X570391Y389688D01*
X570429Y389737D01*
X570471Y389785D01*
X570515Y389829D01*
X570563Y389871D01*
X570612Y389909D01*
X570664Y389944D01*
X570718Y389976D01*
X570774Y390005D01*
X570832Y390030D01*
X570891Y390051D01*
X570951Y390069D01*
X571013Y390082D01*
X571075Y390092D01*
X571137Y390098D01*
X571200Y390100D01*
X571263Y390098D01*
X571325Y390092D01*
X571387Y390082D01*
X571449Y390069D01*
X571509Y390051D01*
X571568Y390030D01*
X571626Y390005D01*
X571682Y389976D01*
X571736Y389944D01*
X571788Y389909D01*
X571837Y389871D01*
X571885Y389829D01*
X571929Y389785D01*
X571971Y389737D01*
X572009Y389688D01*
X572044Y389636D01*
X572076Y389582D01*
X572105Y389526D01*
X572130Y389468D01*
X572151Y389409D01*
X572169Y389349D01*
X572182Y389287D01*
X572192Y389225D01*
X572198Y389163D01*
X572200Y389100D01*
X572198Y389037D01*
X572192Y388975D01*
X572182Y388913D01*
X572169Y388851D01*
X572151Y388791D01*
X572130Y388732D01*
X572105Y388674D01*
X572076Y388618D01*
X572044Y388564D01*
X572009Y388512D01*
X571971Y388463D01*
X571929Y388415D01*
X571885Y388371D01*
X571837Y388329D01*
X571788Y388291D01*
X571736Y388256D01*
X571682Y388224D01*
X571626Y388195D01*
X571568Y388170D01*
X571509Y388149D01*
X571449Y388131D01*
X571387Y388118D01*
X571325Y388108D01*
X571263Y388102D01*
X571200Y388100D01*
X571137Y388102D01*
X571075Y388108D01*
X571013Y388118D01*
X570951Y388131D01*
X570891Y388149D01*
X570832Y388170D01*
X570774Y388195D01*
X570718Y388224D01*
X570664Y388256D01*
X570612Y388291D01*
X570563Y388329D01*
X570515Y388371D01*
X570471Y388415D01*
X570429Y388463D01*
X570391Y388512D01*
X570356Y388564D01*
X570324Y388618D01*
X570295Y388674D01*
X570270Y388732D01*
X570249Y388791D01*
X570231Y388851D01*
X570218Y388913D01*
X570208Y388975D01*
X570202Y389037D01*
X570200Y389100D01*
D12*
X568600Y398600D02*
X563700Y398600D01*
X563700Y403500D01*
D14*
X550373Y399564D02*
X541914Y399564D01*
X550373Y399564D02*
X550485Y399566D01*
X550597Y399572D01*
X550709Y399581D01*
X550821Y399595D01*
X550932Y399612D01*
X551042Y399634D01*
X551151Y399659D01*
X551260Y399687D01*
X551368Y399720D01*
X551474Y399756D01*
X551579Y399796D01*
X551682Y399839D01*
X551784Y399886D01*
X551885Y399937D01*
X551983Y399991D01*
X552080Y400048D01*
X552174Y400108D01*
X552267Y400172D01*
X552357Y400239D01*
X552445Y400309D01*
X552530Y400382D01*
X552613Y400458D01*
X552693Y400537D01*
X552770Y400618D01*
X552845Y400702D01*
X552916Y400789D01*
X552985Y400878D01*
X553050Y400969D01*
X553112Y401063D01*
X553171Y401158D01*
X553227Y401256D01*
X553279Y401355D01*
X553328Y401456D01*
X553373Y401559D01*
X553415Y401663D01*
X553453Y401769D01*
X553487Y401876D01*
X553518Y401984D01*
X553544Y402093D01*
X553568Y402203D01*
X553587Y402314D01*
X553602Y402425D01*
X553614Y402537D01*
X553622Y402649D01*
X553626Y402761D01*
X553626Y402873D01*
X553622Y402985D01*
X553614Y403097D01*
X553602Y403209D01*
X553587Y403320D01*
X553568Y403431D01*
X553544Y403541D01*
X553518Y403650D01*
X553487Y403758D01*
X553453Y403865D01*
X553415Y403971D01*
X553373Y404075D01*
X553328Y404178D01*
X553279Y404279D01*
X553227Y404378D01*
X553171Y404476D01*
X553112Y404571D01*
X553050Y404665D01*
X552985Y404756D01*
X552916Y404845D01*
X552845Y404932D01*
X552770Y405016D01*
X552693Y405097D01*
X552613Y405176D01*
X552530Y405252D01*
X552445Y405325D01*
X552357Y405395D01*
X552267Y405462D01*
X552174Y405526D01*
X552080Y405586D01*
X551983Y405643D01*
X551885Y405697D01*
X551784Y405748D01*
X551682Y405795D01*
X551579Y405838D01*
X551474Y405878D01*
X551368Y405914D01*
X551260Y405947D01*
X551151Y405975D01*
X551042Y406000D01*
X550932Y406022D01*
X550821Y406039D01*
X550709Y406053D01*
X550597Y406062D01*
X550485Y406068D01*
X550373Y406070D01*
X550373Y406071D02*
X541914Y406071D01*
X541914Y414979D02*
X541916Y415086D01*
X541922Y415193D01*
X541932Y415299D01*
X541945Y415405D01*
X541963Y415511D01*
X541984Y415616D01*
X542009Y415720D01*
X542038Y415823D01*
X542071Y415924D01*
X542107Y416025D01*
X542147Y416124D01*
X542191Y416222D01*
X542238Y416318D01*
X542289Y416412D01*
X542343Y416504D01*
X542400Y416595D01*
X542461Y416683D01*
X542525Y416769D01*
X542591Y416852D01*
X542661Y416933D01*
X542734Y417011D01*
X542810Y417087D01*
X542888Y417160D01*
X542969Y417230D01*
X543052Y417297D01*
X543138Y417360D01*
X543226Y417421D01*
X543317Y417478D01*
X543409Y417532D01*
X543503Y417583D01*
X543599Y417630D01*
X543697Y417674D01*
X543796Y417714D01*
X543897Y417750D01*
X543998Y417783D01*
X544101Y417812D01*
X544205Y417837D01*
X544310Y417858D01*
X544416Y417876D01*
X544522Y417889D01*
X544628Y417899D01*
X544735Y417905D01*
X544842Y417907D01*
X541914Y414979D02*
X541916Y414858D01*
X541922Y414737D01*
X541932Y414616D01*
X541945Y414495D01*
X541963Y414375D01*
X541984Y414256D01*
X542009Y414137D01*
X542038Y414019D01*
X542071Y413902D01*
X542108Y413787D01*
X542148Y413672D01*
X542192Y413559D01*
X542240Y413448D01*
X542291Y413338D01*
X542346Y413229D01*
X542404Y413123D01*
X542465Y413018D01*
X542530Y412916D01*
X542598Y412816D01*
X542670Y412718D01*
X542744Y412622D01*
X542822Y412528D01*
X542902Y412438D01*
X542985Y412350D01*
X543072Y412264D01*
X543161Y412182D01*
X543252Y412102D01*
X543346Y412025D01*
X543442Y411952D01*
X543541Y411881D01*
X543642Y411814D01*
X543745Y411750D01*
X543850Y411690D01*
X543957Y411632D01*
X544066Y411579D01*
X544177Y411529D01*
X544289Y411482D01*
X544402Y411439D01*
X544517Y411400D01*
X547119Y416932D02*
X547042Y417011D01*
X546961Y417087D01*
X546878Y417160D01*
X546792Y417230D01*
X546704Y417297D01*
X546614Y417361D01*
X546521Y417422D01*
X546427Y417479D01*
X546330Y417534D01*
X546232Y417584D01*
X546132Y417631D01*
X546030Y417675D01*
X545927Y417715D01*
X545822Y417751D01*
X545716Y417784D01*
X545609Y417813D01*
X545501Y417838D01*
X545393Y417859D01*
X545283Y417877D01*
X545174Y417890D01*
X545063Y417900D01*
X544953Y417906D01*
X544842Y417908D01*
X547120Y416931D02*
X553626Y411401D01*
X553626Y417907D01*
D15*
X247946Y67536D02*
X241681Y67536D01*
X244814Y64403D02*
X244814Y70668D01*
D16*
X248000Y90400D03*
X260000Y90400D03*
D17*
X254000Y90400D03*
D14*
X240792Y76708D02*
X229108Y76708D01*
X240792Y76708D02*
X240792Y81901D01*
X240792Y86614D02*
X240792Y91807D01*
X240792Y86614D02*
X229108Y86614D01*
X229108Y91807D01*
X234301Y90509D02*
X234301Y86614D01*
X229108Y96497D02*
X240792Y96497D01*
X229108Y96497D02*
X229108Y99743D01*
X229110Y99856D01*
X229116Y99969D01*
X229126Y100082D01*
X229140Y100195D01*
X229157Y100307D01*
X229179Y100418D01*
X229204Y100528D01*
X229234Y100638D01*
X229267Y100746D01*
X229304Y100853D01*
X229344Y100959D01*
X229389Y101063D01*
X229437Y101166D01*
X229488Y101267D01*
X229543Y101366D01*
X229601Y101463D01*
X229663Y101558D01*
X229728Y101651D01*
X229796Y101741D01*
X229867Y101829D01*
X229942Y101915D01*
X230019Y101998D01*
X230099Y102078D01*
X230182Y102155D01*
X230268Y102230D01*
X230356Y102301D01*
X230446Y102369D01*
X230539Y102434D01*
X230634Y102496D01*
X230731Y102554D01*
X230830Y102609D01*
X230931Y102660D01*
X231034Y102708D01*
X231138Y102753D01*
X231244Y102793D01*
X231351Y102830D01*
X231459Y102863D01*
X231569Y102893D01*
X231679Y102918D01*
X231790Y102940D01*
X231902Y102957D01*
X232015Y102971D01*
X232128Y102981D01*
X232241Y102987D01*
X232354Y102989D01*
X237546Y102989D01*
X237659Y102987D01*
X237772Y102981D01*
X237885Y102971D01*
X237998Y102957D01*
X238110Y102940D01*
X238221Y102918D01*
X238331Y102893D01*
X238441Y102863D01*
X238549Y102830D01*
X238656Y102793D01*
X238762Y102753D01*
X238866Y102708D01*
X238969Y102660D01*
X239070Y102609D01*
X239169Y102554D01*
X239266Y102496D01*
X239361Y102434D01*
X239454Y102369D01*
X239544Y102301D01*
X239632Y102230D01*
X239718Y102155D01*
X239801Y102078D01*
X239881Y101998D01*
X239958Y101915D01*
X240033Y101829D01*
X240104Y101741D01*
X240172Y101651D01*
X240237Y101558D01*
X240299Y101463D01*
X240357Y101366D01*
X240412Y101267D01*
X240463Y101166D01*
X240511Y101063D01*
X240556Y100959D01*
X240596Y100853D01*
X240633Y100746D01*
X240666Y100638D01*
X240696Y100528D01*
X240721Y100418D01*
X240743Y100307D01*
X240760Y100195D01*
X240774Y100082D01*
X240784Y99969D01*
X240790Y99856D01*
X240792Y99743D01*
X240792Y96497D01*
X229108Y111878D02*
X229110Y111985D01*
X229116Y112091D01*
X229126Y112197D01*
X229139Y112303D01*
X229157Y112409D01*
X229178Y112513D01*
X229203Y112617D01*
X229232Y112720D01*
X229264Y112821D01*
X229301Y112921D01*
X229341Y113020D01*
X229384Y113118D01*
X229431Y113214D01*
X229482Y113308D01*
X229536Y113400D01*
X229593Y113490D01*
X229653Y113578D01*
X229717Y113663D01*
X229784Y113746D01*
X229854Y113827D01*
X229926Y113905D01*
X230002Y113981D01*
X230080Y114053D01*
X230161Y114123D01*
X230244Y114190D01*
X230329Y114254D01*
X230417Y114314D01*
X230507Y114371D01*
X230599Y114425D01*
X230693Y114476D01*
X230789Y114523D01*
X230887Y114566D01*
X230986Y114606D01*
X231086Y114643D01*
X231187Y114675D01*
X231290Y114704D01*
X231394Y114729D01*
X231498Y114750D01*
X231604Y114768D01*
X231710Y114781D01*
X231816Y114791D01*
X231922Y114797D01*
X232029Y114799D01*
X229108Y111878D02*
X229110Y111757D01*
X229116Y111636D01*
X229126Y111516D01*
X229139Y111395D01*
X229157Y111276D01*
X229178Y111156D01*
X229203Y111038D01*
X229232Y110921D01*
X229265Y110804D01*
X229301Y110689D01*
X229342Y110575D01*
X229385Y110462D01*
X229433Y110350D01*
X229484Y110241D01*
X229539Y110133D01*
X229597Y110026D01*
X229658Y109922D01*
X229723Y109820D01*
X229791Y109720D01*
X229862Y109622D01*
X229936Y109526D01*
X230013Y109433D01*
X230094Y109343D01*
X230177Y109255D01*
X230263Y109170D01*
X230352Y109087D01*
X230443Y109008D01*
X230537Y108931D01*
X230633Y108858D01*
X230731Y108788D01*
X230832Y108721D01*
X230935Y108657D01*
X231040Y108597D01*
X231147Y108539D01*
X231255Y108486D01*
X231365Y108436D01*
X231477Y108390D01*
X231590Y108347D01*
X231705Y108308D01*
X234301Y113825D02*
X234223Y113904D01*
X234143Y113980D01*
X234060Y114053D01*
X233974Y114123D01*
X233887Y114190D01*
X233796Y114254D01*
X233704Y114314D01*
X233610Y114372D01*
X233513Y114426D01*
X233415Y114476D01*
X233315Y114523D01*
X233214Y114567D01*
X233111Y114607D01*
X233006Y114643D01*
X232901Y114675D01*
X232794Y114704D01*
X232687Y114729D01*
X232578Y114751D01*
X232469Y114768D01*
X232360Y114782D01*
X232250Y114791D01*
X232139Y114797D01*
X232029Y114799D01*
X234301Y113826D02*
X240792Y108308D01*
X240792Y114799D01*
D15*
X292481Y67536D02*
X298746Y67536D01*
X295614Y70668D02*
X295614Y64403D01*
D16*
X298800Y90400D03*
X310800Y90400D03*
D17*
X304800Y90400D03*
D14*
X291592Y76708D02*
X279908Y76708D01*
X291592Y76708D02*
X291592Y81901D01*
X291592Y86614D02*
X291592Y91807D01*
X291592Y86614D02*
X279908Y86614D01*
X279908Y91807D01*
X285101Y90509D02*
X285101Y86614D01*
X279908Y96497D02*
X291592Y96497D01*
X279908Y96497D02*
X279908Y99743D01*
X279910Y99856D01*
X279916Y99969D01*
X279926Y100082D01*
X279940Y100195D01*
X279957Y100307D01*
X279979Y100418D01*
X280004Y100528D01*
X280034Y100638D01*
X280067Y100746D01*
X280104Y100853D01*
X280144Y100959D01*
X280189Y101063D01*
X280237Y101166D01*
X280288Y101267D01*
X280343Y101366D01*
X280401Y101463D01*
X280463Y101558D01*
X280528Y101651D01*
X280596Y101741D01*
X280667Y101829D01*
X280742Y101915D01*
X280819Y101998D01*
X280899Y102078D01*
X280982Y102155D01*
X281068Y102230D01*
X281156Y102301D01*
X281246Y102369D01*
X281339Y102434D01*
X281434Y102496D01*
X281531Y102554D01*
X281630Y102609D01*
X281731Y102660D01*
X281834Y102708D01*
X281938Y102753D01*
X282044Y102793D01*
X282151Y102830D01*
X282259Y102863D01*
X282369Y102893D01*
X282479Y102918D01*
X282590Y102940D01*
X282702Y102957D01*
X282815Y102971D01*
X282928Y102981D01*
X283041Y102987D01*
X283154Y102989D01*
X288346Y102989D01*
X288459Y102987D01*
X288572Y102981D01*
X288685Y102971D01*
X288798Y102957D01*
X288910Y102940D01*
X289021Y102918D01*
X289131Y102893D01*
X289241Y102863D01*
X289349Y102830D01*
X289456Y102793D01*
X289562Y102753D01*
X289666Y102708D01*
X289769Y102660D01*
X289870Y102609D01*
X289969Y102554D01*
X290066Y102496D01*
X290161Y102434D01*
X290254Y102369D01*
X290344Y102301D01*
X290432Y102230D01*
X290518Y102155D01*
X290601Y102078D01*
X290681Y101998D01*
X290758Y101915D01*
X290833Y101829D01*
X290904Y101741D01*
X290972Y101651D01*
X291037Y101558D01*
X291099Y101463D01*
X291157Y101366D01*
X291212Y101267D01*
X291263Y101166D01*
X291311Y101063D01*
X291356Y100959D01*
X291396Y100853D01*
X291433Y100746D01*
X291466Y100638D01*
X291496Y100528D01*
X291521Y100418D01*
X291543Y100307D01*
X291560Y100195D01*
X291574Y100082D01*
X291584Y99969D01*
X291590Y99856D01*
X291592Y99743D01*
X291592Y96497D01*
X291592Y108308D02*
X291592Y111554D01*
X291590Y111667D01*
X291584Y111780D01*
X291574Y111893D01*
X291560Y112006D01*
X291543Y112118D01*
X291521Y112229D01*
X291496Y112339D01*
X291466Y112449D01*
X291433Y112557D01*
X291396Y112664D01*
X291356Y112770D01*
X291311Y112874D01*
X291263Y112977D01*
X291212Y113078D01*
X291157Y113177D01*
X291099Y113274D01*
X291037Y113369D01*
X290972Y113462D01*
X290904Y113552D01*
X290833Y113640D01*
X290758Y113726D01*
X290681Y113809D01*
X290601Y113889D01*
X290518Y113966D01*
X290432Y114041D01*
X290344Y114112D01*
X290254Y114180D01*
X290161Y114245D01*
X290066Y114307D01*
X289969Y114365D01*
X289870Y114420D01*
X289769Y114471D01*
X289666Y114519D01*
X289562Y114564D01*
X289456Y114604D01*
X289349Y114641D01*
X289241Y114674D01*
X289131Y114704D01*
X289021Y114729D01*
X288910Y114751D01*
X288798Y114768D01*
X288685Y114782D01*
X288572Y114792D01*
X288459Y114798D01*
X288346Y114800D01*
X288233Y114798D01*
X288120Y114792D01*
X288007Y114782D01*
X287894Y114768D01*
X287782Y114751D01*
X287671Y114729D01*
X287561Y114704D01*
X287451Y114674D01*
X287343Y114641D01*
X287236Y114604D01*
X287130Y114564D01*
X287026Y114519D01*
X286923Y114471D01*
X286822Y114420D01*
X286723Y114365D01*
X286626Y114307D01*
X286531Y114245D01*
X286438Y114180D01*
X286348Y114112D01*
X286260Y114041D01*
X286174Y113966D01*
X286091Y113889D01*
X286011Y113809D01*
X285934Y113726D01*
X285859Y113640D01*
X285788Y113552D01*
X285720Y113462D01*
X285655Y113369D01*
X285593Y113274D01*
X285535Y113177D01*
X285480Y113078D01*
X285429Y112977D01*
X285381Y112874D01*
X285336Y112770D01*
X285296Y112664D01*
X285259Y112557D01*
X285226Y112449D01*
X285196Y112339D01*
X285171Y112229D01*
X285149Y112118D01*
X285132Y112006D01*
X285118Y111893D01*
X285108Y111780D01*
X285102Y111667D01*
X285100Y111554D01*
X279908Y112203D02*
X279908Y108308D01*
X279908Y112203D02*
X279910Y112304D01*
X279916Y112404D01*
X279926Y112504D01*
X279939Y112604D01*
X279957Y112703D01*
X279978Y112802D01*
X280003Y112899D01*
X280032Y112996D01*
X280065Y113091D01*
X280101Y113185D01*
X280141Y113277D01*
X280184Y113368D01*
X280231Y113457D01*
X280281Y113544D01*
X280335Y113630D01*
X280392Y113713D01*
X280452Y113793D01*
X280515Y113872D01*
X280582Y113948D01*
X280651Y114021D01*
X280723Y114091D01*
X280797Y114159D01*
X280874Y114224D01*
X280954Y114285D01*
X281036Y114344D01*
X281120Y114399D01*
X281206Y114451D01*
X281294Y114500D01*
X281384Y114545D01*
X281476Y114587D01*
X281569Y114625D01*
X281664Y114659D01*
X281759Y114690D01*
X281856Y114717D01*
X281954Y114740D01*
X282053Y114760D01*
X282153Y114775D01*
X282253Y114787D01*
X282353Y114795D01*
X282454Y114799D01*
X282554Y114799D01*
X282655Y114795D01*
X282755Y114787D01*
X282855Y114775D01*
X282955Y114760D01*
X283054Y114740D01*
X283152Y114717D01*
X283249Y114690D01*
X283344Y114659D01*
X283439Y114625D01*
X283532Y114587D01*
X283624Y114545D01*
X283714Y114500D01*
X283802Y114451D01*
X283888Y114399D01*
X283972Y114344D01*
X284054Y114285D01*
X284134Y114224D01*
X284211Y114159D01*
X284285Y114091D01*
X284357Y114021D01*
X284426Y113948D01*
X284493Y113872D01*
X284556Y113793D01*
X284616Y113713D01*
X284673Y113630D01*
X284727Y113544D01*
X284777Y113457D01*
X284824Y113368D01*
X284867Y113277D01*
X284907Y113185D01*
X284943Y113091D01*
X284976Y112996D01*
X285005Y112899D01*
X285030Y112802D01*
X285051Y112703D01*
X285069Y112604D01*
X285082Y112504D01*
X285092Y112404D01*
X285098Y112304D01*
X285100Y112203D01*
X285101Y112203D02*
X285101Y109607D01*
D15*
X343281Y67536D02*
X349546Y67536D01*
X346414Y70668D02*
X346414Y64403D01*
D16*
X349600Y90400D03*
X361600Y90400D03*
D17*
X355600Y90400D03*
D14*
X342392Y76708D02*
X330708Y76708D01*
X342392Y76708D02*
X342392Y81901D01*
X342392Y86614D02*
X342392Y91807D01*
X342392Y86614D02*
X330708Y86614D01*
X330708Y91807D01*
X335901Y90509D02*
X335901Y86614D01*
X330708Y96497D02*
X342392Y96497D01*
X330708Y96497D02*
X330708Y99743D01*
X330710Y99856D01*
X330716Y99969D01*
X330726Y100082D01*
X330740Y100195D01*
X330757Y100307D01*
X330779Y100418D01*
X330804Y100528D01*
X330834Y100638D01*
X330867Y100746D01*
X330904Y100853D01*
X330944Y100959D01*
X330989Y101063D01*
X331037Y101166D01*
X331088Y101267D01*
X331143Y101366D01*
X331201Y101463D01*
X331263Y101558D01*
X331328Y101651D01*
X331396Y101741D01*
X331467Y101829D01*
X331542Y101915D01*
X331619Y101998D01*
X331699Y102078D01*
X331782Y102155D01*
X331868Y102230D01*
X331956Y102301D01*
X332046Y102369D01*
X332139Y102434D01*
X332234Y102496D01*
X332331Y102554D01*
X332430Y102609D01*
X332531Y102660D01*
X332634Y102708D01*
X332738Y102753D01*
X332844Y102793D01*
X332951Y102830D01*
X333059Y102863D01*
X333169Y102893D01*
X333279Y102918D01*
X333390Y102940D01*
X333502Y102957D01*
X333615Y102971D01*
X333728Y102981D01*
X333841Y102987D01*
X333954Y102989D01*
X339146Y102989D01*
X339259Y102987D01*
X339372Y102981D01*
X339485Y102971D01*
X339598Y102957D01*
X339710Y102940D01*
X339821Y102918D01*
X339931Y102893D01*
X340041Y102863D01*
X340149Y102830D01*
X340256Y102793D01*
X340362Y102753D01*
X340466Y102708D01*
X340569Y102660D01*
X340670Y102609D01*
X340769Y102554D01*
X340866Y102496D01*
X340961Y102434D01*
X341054Y102369D01*
X341144Y102301D01*
X341232Y102230D01*
X341318Y102155D01*
X341401Y102078D01*
X341481Y101998D01*
X341558Y101915D01*
X341633Y101829D01*
X341704Y101741D01*
X341772Y101651D01*
X341837Y101558D01*
X341899Y101463D01*
X341957Y101366D01*
X342012Y101267D01*
X342063Y101166D01*
X342111Y101063D01*
X342156Y100959D01*
X342196Y100853D01*
X342233Y100746D01*
X342266Y100638D01*
X342296Y100528D01*
X342321Y100418D01*
X342343Y100307D01*
X342360Y100195D01*
X342374Y100082D01*
X342384Y99969D01*
X342390Y99856D01*
X342392Y99743D01*
X342392Y96497D01*
X339796Y108308D02*
X330708Y110905D01*
X339796Y108308D02*
X339796Y114799D01*
X337199Y112852D02*
X342392Y112852D01*
D18*
X406400Y89900D03*
D14*
X393192Y76708D02*
X381508Y76708D01*
X393192Y76708D02*
X393192Y81901D01*
X393192Y86614D02*
X393192Y91807D01*
X393192Y86614D02*
X381508Y86614D01*
X381508Y91807D01*
X386701Y90509D02*
X386701Y86614D01*
X381508Y96497D02*
X393192Y96497D01*
X381508Y96497D02*
X381508Y99743D01*
X381510Y99856D01*
X381516Y99969D01*
X381526Y100082D01*
X381540Y100195D01*
X381557Y100307D01*
X381579Y100418D01*
X381604Y100528D01*
X381634Y100638D01*
X381667Y100746D01*
X381704Y100853D01*
X381744Y100959D01*
X381789Y101063D01*
X381837Y101166D01*
X381888Y101267D01*
X381943Y101366D01*
X382001Y101463D01*
X382063Y101558D01*
X382128Y101651D01*
X382196Y101741D01*
X382267Y101829D01*
X382342Y101915D01*
X382419Y101998D01*
X382499Y102078D01*
X382582Y102155D01*
X382668Y102230D01*
X382756Y102301D01*
X382846Y102369D01*
X382939Y102434D01*
X383034Y102496D01*
X383131Y102554D01*
X383230Y102609D01*
X383331Y102660D01*
X383434Y102708D01*
X383538Y102753D01*
X383644Y102793D01*
X383751Y102830D01*
X383859Y102863D01*
X383969Y102893D01*
X384079Y102918D01*
X384190Y102940D01*
X384302Y102957D01*
X384415Y102971D01*
X384528Y102981D01*
X384641Y102987D01*
X384754Y102989D01*
X389946Y102989D01*
X390059Y102987D01*
X390172Y102981D01*
X390285Y102971D01*
X390398Y102957D01*
X390510Y102940D01*
X390621Y102918D01*
X390731Y102893D01*
X390841Y102863D01*
X390949Y102830D01*
X391056Y102793D01*
X391162Y102753D01*
X391266Y102708D01*
X391369Y102660D01*
X391470Y102609D01*
X391569Y102554D01*
X391666Y102496D01*
X391761Y102434D01*
X391854Y102369D01*
X391944Y102301D01*
X392032Y102230D01*
X392118Y102155D01*
X392201Y102078D01*
X392281Y101998D01*
X392358Y101915D01*
X392433Y101829D01*
X392504Y101741D01*
X392572Y101651D01*
X392637Y101558D01*
X392699Y101463D01*
X392757Y101366D01*
X392812Y101267D01*
X392863Y101166D01*
X392911Y101063D01*
X392956Y100959D01*
X392996Y100853D01*
X393033Y100746D01*
X393066Y100638D01*
X393096Y100528D01*
X393121Y100418D01*
X393143Y100307D01*
X393160Y100195D01*
X393174Y100082D01*
X393184Y99969D01*
X393190Y99856D01*
X393192Y99743D01*
X393192Y96497D01*
X387999Y110905D02*
X387999Y114799D01*
X387999Y110905D02*
X387997Y110806D01*
X387991Y110706D01*
X387982Y110607D01*
X387969Y110509D01*
X387952Y110411D01*
X387931Y110313D01*
X387906Y110217D01*
X387878Y110122D01*
X387846Y110028D01*
X387811Y109935D01*
X387772Y109843D01*
X387729Y109753D01*
X387684Y109665D01*
X387634Y109578D01*
X387582Y109494D01*
X387526Y109411D01*
X387468Y109331D01*
X387406Y109253D01*
X387341Y109178D01*
X387273Y109105D01*
X387203Y109035D01*
X387130Y108967D01*
X387055Y108902D01*
X386977Y108840D01*
X386897Y108782D01*
X386814Y108726D01*
X386730Y108674D01*
X386643Y108624D01*
X386555Y108579D01*
X386465Y108536D01*
X386373Y108497D01*
X386280Y108462D01*
X386186Y108430D01*
X386091Y108402D01*
X385995Y108377D01*
X385897Y108356D01*
X385799Y108339D01*
X385701Y108326D01*
X385602Y108317D01*
X385502Y108311D01*
X385403Y108309D01*
X385403Y108308D02*
X384754Y108308D01*
X384641Y108310D01*
X384528Y108316D01*
X384415Y108326D01*
X384302Y108340D01*
X384190Y108357D01*
X384079Y108379D01*
X383969Y108404D01*
X383859Y108434D01*
X383751Y108467D01*
X383644Y108504D01*
X383538Y108544D01*
X383434Y108589D01*
X383331Y108637D01*
X383230Y108688D01*
X383131Y108743D01*
X383034Y108801D01*
X382939Y108863D01*
X382846Y108928D01*
X382756Y108996D01*
X382668Y109067D01*
X382582Y109142D01*
X382499Y109219D01*
X382419Y109299D01*
X382342Y109382D01*
X382267Y109468D01*
X382196Y109556D01*
X382128Y109646D01*
X382063Y109739D01*
X382001Y109834D01*
X381943Y109931D01*
X381888Y110030D01*
X381837Y110131D01*
X381789Y110234D01*
X381744Y110338D01*
X381704Y110444D01*
X381667Y110551D01*
X381634Y110659D01*
X381604Y110769D01*
X381579Y110879D01*
X381557Y110990D01*
X381540Y111102D01*
X381526Y111215D01*
X381516Y111328D01*
X381510Y111441D01*
X381508Y111554D01*
X381510Y111667D01*
X381516Y111780D01*
X381526Y111893D01*
X381540Y112006D01*
X381557Y112118D01*
X381579Y112229D01*
X381604Y112339D01*
X381634Y112449D01*
X381667Y112557D01*
X381704Y112664D01*
X381744Y112770D01*
X381789Y112874D01*
X381837Y112977D01*
X381888Y113078D01*
X381943Y113177D01*
X382001Y113274D01*
X382063Y113369D01*
X382128Y113462D01*
X382196Y113552D01*
X382267Y113640D01*
X382342Y113726D01*
X382419Y113809D01*
X382499Y113889D01*
X382582Y113966D01*
X382668Y114041D01*
X382756Y114112D01*
X382846Y114180D01*
X382939Y114245D01*
X383034Y114307D01*
X383131Y114365D01*
X383230Y114420D01*
X383331Y114471D01*
X383434Y114519D01*
X383538Y114564D01*
X383644Y114604D01*
X383751Y114641D01*
X383859Y114674D01*
X383969Y114704D01*
X384079Y114729D01*
X384190Y114751D01*
X384302Y114768D01*
X384415Y114782D01*
X384528Y114792D01*
X384641Y114798D01*
X384754Y114800D01*
X384754Y114799D02*
X387999Y114799D01*
X387999Y114800D02*
X388142Y114798D01*
X388285Y114792D01*
X388428Y114782D01*
X388570Y114768D01*
X388712Y114751D01*
X388854Y114729D01*
X388995Y114704D01*
X389135Y114674D01*
X389274Y114641D01*
X389412Y114604D01*
X389549Y114563D01*
X389685Y114519D01*
X389820Y114470D01*
X389953Y114418D01*
X390085Y114363D01*
X390215Y114303D01*
X390344Y114240D01*
X390471Y114174D01*
X390596Y114104D01*
X390718Y114031D01*
X390839Y113954D01*
X390958Y113874D01*
X391074Y113791D01*
X391189Y113705D01*
X391300Y113616D01*
X391410Y113523D01*
X391516Y113428D01*
X391620Y113329D01*
X391721Y113228D01*
X391820Y113124D01*
X391915Y113018D01*
X392008Y112908D01*
X392097Y112797D01*
X392183Y112682D01*
X392266Y112566D01*
X392346Y112447D01*
X392423Y112326D01*
X392496Y112204D01*
X392566Y112079D01*
X392632Y111952D01*
X392695Y111823D01*
X392755Y111693D01*
X392810Y111561D01*
X392862Y111428D01*
X392911Y111293D01*
X392955Y111157D01*
X392996Y111020D01*
X393033Y110882D01*
X393066Y110743D01*
X393096Y110603D01*
X393121Y110462D01*
X393143Y110320D01*
X393160Y110178D01*
X393174Y110036D01*
X393184Y109893D01*
X393190Y109750D01*
X393192Y109607D01*
D15*
X444881Y67536D02*
X451146Y67536D01*
X448014Y70668D02*
X448014Y64403D01*
D16*
X451200Y90400D03*
X463200Y90400D03*
D17*
X457200Y90400D03*
D14*
X443992Y76708D02*
X432308Y76708D01*
X443992Y76708D02*
X443992Y81901D01*
X443992Y86614D02*
X443992Y91807D01*
X443992Y86614D02*
X432308Y86614D01*
X432308Y91807D01*
X437501Y90509D02*
X437501Y86614D01*
X432308Y96497D02*
X443992Y96497D01*
X432308Y96497D02*
X432308Y99743D01*
X432310Y99856D01*
X432316Y99969D01*
X432326Y100082D01*
X432340Y100195D01*
X432357Y100307D01*
X432379Y100418D01*
X432404Y100528D01*
X432434Y100638D01*
X432467Y100746D01*
X432504Y100853D01*
X432544Y100959D01*
X432589Y101063D01*
X432637Y101166D01*
X432688Y101267D01*
X432743Y101366D01*
X432801Y101463D01*
X432863Y101558D01*
X432928Y101651D01*
X432996Y101741D01*
X433067Y101829D01*
X433142Y101915D01*
X433219Y101998D01*
X433299Y102078D01*
X433382Y102155D01*
X433468Y102230D01*
X433556Y102301D01*
X433646Y102369D01*
X433739Y102434D01*
X433834Y102496D01*
X433931Y102554D01*
X434030Y102609D01*
X434131Y102660D01*
X434234Y102708D01*
X434338Y102753D01*
X434444Y102793D01*
X434551Y102830D01*
X434659Y102863D01*
X434769Y102893D01*
X434879Y102918D01*
X434990Y102940D01*
X435102Y102957D01*
X435215Y102971D01*
X435328Y102981D01*
X435441Y102987D01*
X435554Y102989D01*
X440746Y102989D01*
X440859Y102987D01*
X440972Y102981D01*
X441085Y102971D01*
X441198Y102957D01*
X441310Y102940D01*
X441421Y102918D01*
X441531Y102893D01*
X441641Y102863D01*
X441749Y102830D01*
X441856Y102793D01*
X441962Y102753D01*
X442066Y102708D01*
X442169Y102660D01*
X442270Y102609D01*
X442369Y102554D01*
X442466Y102496D01*
X442561Y102434D01*
X442654Y102369D01*
X442744Y102301D01*
X442832Y102230D01*
X442918Y102155D01*
X443001Y102078D01*
X443081Y101998D01*
X443158Y101915D01*
X443233Y101829D01*
X443304Y101741D01*
X443372Y101651D01*
X443437Y101558D01*
X443499Y101463D01*
X443557Y101366D01*
X443612Y101267D01*
X443663Y101166D01*
X443711Y101063D01*
X443756Y100959D01*
X443796Y100853D01*
X443833Y100746D01*
X443866Y100638D01*
X443896Y100528D01*
X443921Y100418D01*
X443943Y100307D01*
X443960Y100195D01*
X443974Y100082D01*
X443984Y99969D01*
X443990Y99856D01*
X443992Y99743D01*
X443992Y96497D01*
X443992Y108308D02*
X443992Y112203D01*
X443990Y112302D01*
X443984Y112402D01*
X443975Y112501D01*
X443962Y112599D01*
X443945Y112697D01*
X443924Y112795D01*
X443899Y112891D01*
X443871Y112986D01*
X443839Y113080D01*
X443804Y113173D01*
X443765Y113265D01*
X443722Y113355D01*
X443677Y113443D01*
X443627Y113530D01*
X443575Y113614D01*
X443519Y113697D01*
X443461Y113777D01*
X443399Y113855D01*
X443334Y113930D01*
X443266Y114003D01*
X443196Y114073D01*
X443123Y114141D01*
X443048Y114206D01*
X442970Y114268D01*
X442890Y114326D01*
X442807Y114382D01*
X442723Y114434D01*
X442636Y114484D01*
X442548Y114529D01*
X442458Y114572D01*
X442366Y114611D01*
X442273Y114646D01*
X442179Y114678D01*
X442084Y114706D01*
X441988Y114731D01*
X441890Y114752D01*
X441792Y114769D01*
X441694Y114782D01*
X441595Y114791D01*
X441495Y114797D01*
X441396Y114799D01*
X440097Y114799D01*
X439998Y114797D01*
X439898Y114791D01*
X439799Y114782D01*
X439701Y114769D01*
X439603Y114752D01*
X439505Y114731D01*
X439409Y114706D01*
X439314Y114678D01*
X439220Y114646D01*
X439127Y114611D01*
X439035Y114572D01*
X438945Y114529D01*
X438857Y114484D01*
X438770Y114434D01*
X438686Y114382D01*
X438603Y114326D01*
X438523Y114268D01*
X438445Y114206D01*
X438370Y114141D01*
X438297Y114073D01*
X438227Y114003D01*
X438159Y113930D01*
X438094Y113855D01*
X438032Y113777D01*
X437974Y113697D01*
X437918Y113614D01*
X437866Y113530D01*
X437816Y113443D01*
X437771Y113355D01*
X437728Y113265D01*
X437689Y113173D01*
X437654Y113080D01*
X437622Y112986D01*
X437594Y112891D01*
X437569Y112795D01*
X437548Y112697D01*
X437531Y112599D01*
X437518Y112501D01*
X437509Y112402D01*
X437503Y112302D01*
X437501Y112203D01*
X437501Y108308D01*
X432308Y108308D01*
X432308Y114799D01*
D15*
X495681Y67536D02*
X501946Y67536D01*
X498814Y70668D02*
X498814Y64403D01*
D16*
X502000Y90400D03*
X514000Y90400D03*
D17*
X508000Y90400D03*
D14*
X494792Y76708D02*
X483108Y76708D01*
X494792Y76708D02*
X494792Y81901D01*
X494792Y86614D02*
X494792Y91807D01*
X494792Y86614D02*
X483108Y86614D01*
X483108Y91807D01*
X488301Y90509D02*
X488301Y86614D01*
X483108Y96497D02*
X494792Y96497D01*
X483108Y96497D02*
X483108Y99743D01*
X483110Y99856D01*
X483116Y99969D01*
X483126Y100082D01*
X483140Y100195D01*
X483157Y100307D01*
X483179Y100418D01*
X483204Y100528D01*
X483234Y100638D01*
X483267Y100746D01*
X483304Y100853D01*
X483344Y100959D01*
X483389Y101063D01*
X483437Y101166D01*
X483488Y101267D01*
X483543Y101366D01*
X483601Y101463D01*
X483663Y101558D01*
X483728Y101651D01*
X483796Y101741D01*
X483867Y101829D01*
X483942Y101915D01*
X484019Y101998D01*
X484099Y102078D01*
X484182Y102155D01*
X484268Y102230D01*
X484356Y102301D01*
X484446Y102369D01*
X484539Y102434D01*
X484634Y102496D01*
X484731Y102554D01*
X484830Y102609D01*
X484931Y102660D01*
X485034Y102708D01*
X485138Y102753D01*
X485244Y102793D01*
X485351Y102830D01*
X485459Y102863D01*
X485569Y102893D01*
X485679Y102918D01*
X485790Y102940D01*
X485902Y102957D01*
X486015Y102971D01*
X486128Y102981D01*
X486241Y102987D01*
X486354Y102989D01*
X491546Y102989D01*
X491659Y102987D01*
X491772Y102981D01*
X491885Y102971D01*
X491998Y102957D01*
X492110Y102940D01*
X492221Y102918D01*
X492331Y102893D01*
X492441Y102863D01*
X492549Y102830D01*
X492656Y102793D01*
X492762Y102753D01*
X492866Y102708D01*
X492969Y102660D01*
X493070Y102609D01*
X493169Y102554D01*
X493266Y102496D01*
X493361Y102434D01*
X493454Y102369D01*
X493544Y102301D01*
X493632Y102230D01*
X493718Y102155D01*
X493801Y102078D01*
X493881Y101998D01*
X493958Y101915D01*
X494033Y101829D01*
X494104Y101741D01*
X494172Y101651D01*
X494237Y101558D01*
X494299Y101463D01*
X494357Y101366D01*
X494412Y101267D01*
X494463Y101166D01*
X494511Y101063D01*
X494556Y100959D01*
X494596Y100853D01*
X494633Y100746D01*
X494666Y100638D01*
X494696Y100528D01*
X494721Y100418D01*
X494743Y100307D01*
X494760Y100195D01*
X494774Y100082D01*
X494784Y99969D01*
X494790Y99856D01*
X494792Y99743D01*
X494792Y96497D01*
X488301Y108308D02*
X488301Y112203D01*
X488303Y112302D01*
X488309Y112402D01*
X488318Y112501D01*
X488331Y112599D01*
X488348Y112697D01*
X488369Y112795D01*
X488394Y112891D01*
X488422Y112986D01*
X488454Y113080D01*
X488489Y113173D01*
X488528Y113265D01*
X488571Y113355D01*
X488616Y113443D01*
X488666Y113530D01*
X488718Y113614D01*
X488774Y113697D01*
X488832Y113777D01*
X488894Y113855D01*
X488959Y113930D01*
X489027Y114003D01*
X489097Y114073D01*
X489170Y114141D01*
X489245Y114206D01*
X489323Y114268D01*
X489403Y114326D01*
X489486Y114382D01*
X489570Y114434D01*
X489657Y114484D01*
X489745Y114529D01*
X489835Y114572D01*
X489927Y114611D01*
X490020Y114646D01*
X490114Y114678D01*
X490209Y114706D01*
X490305Y114731D01*
X490403Y114752D01*
X490501Y114769D01*
X490599Y114782D01*
X490698Y114791D01*
X490798Y114797D01*
X490897Y114799D01*
X491546Y114799D01*
X491546Y114800D02*
X491659Y114798D01*
X491772Y114792D01*
X491885Y114782D01*
X491998Y114768D01*
X492110Y114751D01*
X492221Y114729D01*
X492331Y114704D01*
X492441Y114674D01*
X492549Y114641D01*
X492656Y114604D01*
X492762Y114564D01*
X492866Y114519D01*
X492969Y114471D01*
X493070Y114420D01*
X493169Y114365D01*
X493266Y114307D01*
X493361Y114245D01*
X493454Y114180D01*
X493544Y114112D01*
X493632Y114041D01*
X493718Y113966D01*
X493801Y113889D01*
X493881Y113809D01*
X493958Y113726D01*
X494033Y113640D01*
X494104Y113552D01*
X494172Y113462D01*
X494237Y113369D01*
X494299Y113274D01*
X494357Y113177D01*
X494412Y113078D01*
X494463Y112977D01*
X494511Y112874D01*
X494556Y112770D01*
X494596Y112664D01*
X494633Y112557D01*
X494666Y112449D01*
X494696Y112339D01*
X494721Y112229D01*
X494743Y112118D01*
X494760Y112006D01*
X494774Y111893D01*
X494784Y111780D01*
X494790Y111667D01*
X494792Y111554D01*
X494790Y111441D01*
X494784Y111328D01*
X494774Y111215D01*
X494760Y111102D01*
X494743Y110990D01*
X494721Y110879D01*
X494696Y110769D01*
X494666Y110659D01*
X494633Y110551D01*
X494596Y110444D01*
X494556Y110338D01*
X494511Y110234D01*
X494463Y110131D01*
X494412Y110030D01*
X494357Y109931D01*
X494299Y109834D01*
X494237Y109739D01*
X494172Y109646D01*
X494104Y109556D01*
X494033Y109468D01*
X493958Y109382D01*
X493881Y109299D01*
X493801Y109219D01*
X493718Y109142D01*
X493632Y109067D01*
X493544Y108996D01*
X493454Y108928D01*
X493361Y108863D01*
X493266Y108801D01*
X493169Y108743D01*
X493070Y108688D01*
X492969Y108637D01*
X492866Y108589D01*
X492762Y108544D01*
X492656Y108504D01*
X492549Y108467D01*
X492441Y108434D01*
X492331Y108404D01*
X492221Y108379D01*
X492110Y108357D01*
X491998Y108340D01*
X491885Y108326D01*
X491772Y108316D01*
X491659Y108310D01*
X491546Y108308D01*
X488301Y108308D01*
X488158Y108310D01*
X488015Y108316D01*
X487872Y108326D01*
X487730Y108340D01*
X487588Y108357D01*
X487446Y108379D01*
X487305Y108404D01*
X487165Y108434D01*
X487026Y108467D01*
X486888Y108504D01*
X486751Y108545D01*
X486615Y108589D01*
X486480Y108638D01*
X486347Y108690D01*
X486215Y108745D01*
X486085Y108805D01*
X485956Y108868D01*
X485829Y108934D01*
X485705Y109004D01*
X485582Y109077D01*
X485461Y109154D01*
X485342Y109233D01*
X485226Y109317D01*
X485111Y109403D01*
X485000Y109492D01*
X484891Y109585D01*
X484784Y109680D01*
X484680Y109779D01*
X484579Y109880D01*
X484480Y109984D01*
X484385Y110090D01*
X484292Y110200D01*
X484203Y110311D01*
X484117Y110425D01*
X484034Y110542D01*
X483954Y110661D01*
X483877Y110782D01*
X483804Y110904D01*
X483734Y111029D01*
X483668Y111156D01*
X483605Y111285D01*
X483545Y111415D01*
X483490Y111547D01*
X483438Y111680D01*
X483389Y111815D01*
X483345Y111951D01*
X483304Y112088D01*
X483267Y112226D01*
X483234Y112365D01*
X483204Y112505D01*
X483179Y112646D01*
X483157Y112788D01*
X483140Y112930D01*
X483126Y113072D01*
X483116Y113215D01*
X483110Y113358D01*
X483108Y113501D01*
D15*
X546481Y67536D02*
X552746Y67536D01*
X549614Y70668D02*
X549614Y64403D01*
D16*
X552800Y90400D03*
X564800Y90400D03*
D17*
X558800Y90400D03*
D14*
X545592Y76708D02*
X533908Y76708D01*
X545592Y76708D02*
X545592Y81901D01*
X545592Y86614D02*
X545592Y91807D01*
X545592Y86614D02*
X533908Y86614D01*
X533908Y91807D01*
X539101Y90509D02*
X539101Y86614D01*
X533908Y96497D02*
X545592Y96497D01*
X533908Y96497D02*
X533908Y99743D01*
X533910Y99856D01*
X533916Y99969D01*
X533926Y100082D01*
X533940Y100195D01*
X533957Y100307D01*
X533979Y100418D01*
X534004Y100528D01*
X534034Y100638D01*
X534067Y100746D01*
X534104Y100853D01*
X534144Y100959D01*
X534189Y101063D01*
X534237Y101166D01*
X534288Y101267D01*
X534343Y101366D01*
X534401Y101463D01*
X534463Y101558D01*
X534528Y101651D01*
X534596Y101741D01*
X534667Y101829D01*
X534742Y101915D01*
X534819Y101998D01*
X534899Y102078D01*
X534982Y102155D01*
X535068Y102230D01*
X535156Y102301D01*
X535246Y102369D01*
X535339Y102434D01*
X535434Y102496D01*
X535531Y102554D01*
X535630Y102609D01*
X535731Y102660D01*
X535834Y102708D01*
X535938Y102753D01*
X536044Y102793D01*
X536151Y102830D01*
X536259Y102863D01*
X536369Y102893D01*
X536479Y102918D01*
X536590Y102940D01*
X536702Y102957D01*
X536815Y102971D01*
X536928Y102981D01*
X537041Y102987D01*
X537154Y102989D01*
X542346Y102989D01*
X542459Y102987D01*
X542572Y102981D01*
X542685Y102971D01*
X542798Y102957D01*
X542910Y102940D01*
X543021Y102918D01*
X543131Y102893D01*
X543241Y102863D01*
X543349Y102830D01*
X543456Y102793D01*
X543562Y102753D01*
X543666Y102708D01*
X543769Y102660D01*
X543870Y102609D01*
X543969Y102554D01*
X544066Y102496D01*
X544161Y102434D01*
X544254Y102369D01*
X544344Y102301D01*
X544432Y102230D01*
X544518Y102155D01*
X544601Y102078D01*
X544681Y101998D01*
X544758Y101915D01*
X544833Y101829D01*
X544904Y101741D01*
X544972Y101651D01*
X545037Y101558D01*
X545099Y101463D01*
X545157Y101366D01*
X545212Y101267D01*
X545263Y101166D01*
X545311Y101063D01*
X545356Y100959D01*
X545396Y100853D01*
X545433Y100746D01*
X545466Y100638D01*
X545496Y100528D01*
X545521Y100418D01*
X545543Y100307D01*
X545560Y100195D01*
X545574Y100082D01*
X545584Y99969D01*
X545590Y99856D01*
X545592Y99743D01*
X545592Y96497D01*
X535206Y108308D02*
X533908Y108308D01*
X533908Y114799D01*
X545592Y111554D01*
D15*
X597281Y67536D02*
X603546Y67536D01*
X600414Y70668D02*
X600414Y64403D01*
D16*
X603600Y90400D03*
X615600Y90400D03*
D17*
X609600Y90400D03*
D14*
X596392Y76708D02*
X584708Y76708D01*
X596392Y76708D02*
X596392Y81901D01*
X596392Y86614D02*
X596392Y91807D01*
X596392Y86614D02*
X584708Y86614D01*
X584708Y91807D01*
X589901Y90509D02*
X589901Y86614D01*
X584708Y96497D02*
X596392Y96497D01*
X584708Y96497D02*
X584708Y99743D01*
X584710Y99856D01*
X584716Y99969D01*
X584726Y100082D01*
X584740Y100195D01*
X584757Y100307D01*
X584779Y100418D01*
X584804Y100528D01*
X584834Y100638D01*
X584867Y100746D01*
X584904Y100853D01*
X584944Y100959D01*
X584989Y101063D01*
X585037Y101166D01*
X585088Y101267D01*
X585143Y101366D01*
X585201Y101463D01*
X585263Y101558D01*
X585328Y101651D01*
X585396Y101741D01*
X585467Y101829D01*
X585542Y101915D01*
X585619Y101998D01*
X585699Y102078D01*
X585782Y102155D01*
X585868Y102230D01*
X585956Y102301D01*
X586046Y102369D01*
X586139Y102434D01*
X586234Y102496D01*
X586331Y102554D01*
X586430Y102609D01*
X586531Y102660D01*
X586634Y102708D01*
X586738Y102753D01*
X586844Y102793D01*
X586951Y102830D01*
X587059Y102863D01*
X587169Y102893D01*
X587279Y102918D01*
X587390Y102940D01*
X587502Y102957D01*
X587615Y102971D01*
X587728Y102981D01*
X587841Y102987D01*
X587954Y102989D01*
X593146Y102989D01*
X593259Y102987D01*
X593372Y102981D01*
X593485Y102971D01*
X593598Y102957D01*
X593710Y102940D01*
X593821Y102918D01*
X593931Y102893D01*
X594041Y102863D01*
X594149Y102830D01*
X594256Y102793D01*
X594362Y102753D01*
X594466Y102708D01*
X594569Y102660D01*
X594670Y102609D01*
X594769Y102554D01*
X594866Y102496D01*
X594961Y102434D01*
X595054Y102369D01*
X595144Y102301D01*
X595232Y102230D01*
X595318Y102155D01*
X595401Y102078D01*
X595481Y101998D01*
X595558Y101915D01*
X595633Y101829D01*
X595704Y101741D01*
X595772Y101651D01*
X595837Y101558D01*
X595899Y101463D01*
X595957Y101366D01*
X596012Y101267D01*
X596063Y101166D01*
X596111Y101063D01*
X596156Y100959D01*
X596196Y100853D01*
X596233Y100746D01*
X596266Y100638D01*
X596296Y100528D01*
X596321Y100418D01*
X596343Y100307D01*
X596360Y100195D01*
X596374Y100082D01*
X596384Y99969D01*
X596390Y99856D01*
X596392Y99743D01*
X596392Y96497D01*
X593146Y108308D02*
X593033Y108310D01*
X592920Y108316D01*
X592807Y108326D01*
X592694Y108340D01*
X592582Y108357D01*
X592471Y108379D01*
X592361Y108404D01*
X592251Y108434D01*
X592143Y108467D01*
X592036Y108504D01*
X591930Y108544D01*
X591826Y108589D01*
X591723Y108637D01*
X591622Y108688D01*
X591523Y108743D01*
X591426Y108801D01*
X591331Y108863D01*
X591238Y108928D01*
X591148Y108996D01*
X591060Y109067D01*
X590974Y109142D01*
X590891Y109219D01*
X590811Y109299D01*
X590734Y109382D01*
X590659Y109468D01*
X590588Y109556D01*
X590520Y109646D01*
X590455Y109739D01*
X590393Y109834D01*
X590335Y109931D01*
X590280Y110030D01*
X590229Y110131D01*
X590181Y110234D01*
X590136Y110338D01*
X590096Y110444D01*
X590059Y110551D01*
X590026Y110659D01*
X589996Y110769D01*
X589971Y110879D01*
X589949Y110990D01*
X589932Y111102D01*
X589918Y111215D01*
X589908Y111328D01*
X589902Y111441D01*
X589900Y111554D01*
X589902Y111667D01*
X589908Y111780D01*
X589918Y111893D01*
X589932Y112006D01*
X589949Y112118D01*
X589971Y112229D01*
X589996Y112339D01*
X590026Y112449D01*
X590059Y112557D01*
X590096Y112664D01*
X590136Y112770D01*
X590181Y112874D01*
X590229Y112977D01*
X590280Y113078D01*
X590335Y113177D01*
X590393Y113274D01*
X590455Y113369D01*
X590520Y113462D01*
X590588Y113552D01*
X590659Y113640D01*
X590734Y113726D01*
X590811Y113809D01*
X590891Y113889D01*
X590974Y113966D01*
X591060Y114041D01*
X591148Y114112D01*
X591238Y114180D01*
X591331Y114245D01*
X591426Y114307D01*
X591523Y114365D01*
X591622Y114420D01*
X591723Y114471D01*
X591826Y114519D01*
X591930Y114564D01*
X592036Y114604D01*
X592143Y114641D01*
X592251Y114674D01*
X592361Y114704D01*
X592471Y114729D01*
X592582Y114751D01*
X592694Y114768D01*
X592807Y114782D01*
X592920Y114792D01*
X593033Y114798D01*
X593146Y114800D01*
X593259Y114798D01*
X593372Y114792D01*
X593485Y114782D01*
X593598Y114768D01*
X593710Y114751D01*
X593821Y114729D01*
X593931Y114704D01*
X594041Y114674D01*
X594149Y114641D01*
X594256Y114604D01*
X594362Y114564D01*
X594466Y114519D01*
X594569Y114471D01*
X594670Y114420D01*
X594769Y114365D01*
X594866Y114307D01*
X594961Y114245D01*
X595054Y114180D01*
X595144Y114112D01*
X595232Y114041D01*
X595318Y113966D01*
X595401Y113889D01*
X595481Y113809D01*
X595558Y113726D01*
X595633Y113640D01*
X595704Y113552D01*
X595772Y113462D01*
X595837Y113369D01*
X595899Y113274D01*
X595957Y113177D01*
X596012Y113078D01*
X596063Y112977D01*
X596111Y112874D01*
X596156Y112770D01*
X596196Y112664D01*
X596233Y112557D01*
X596266Y112449D01*
X596296Y112339D01*
X596321Y112229D01*
X596343Y112118D01*
X596360Y112006D01*
X596374Y111893D01*
X596384Y111780D01*
X596390Y111667D01*
X596392Y111554D01*
X596390Y111441D01*
X596384Y111328D01*
X596374Y111215D01*
X596360Y111102D01*
X596343Y110990D01*
X596321Y110879D01*
X596296Y110769D01*
X596266Y110659D01*
X596233Y110551D01*
X596196Y110444D01*
X596156Y110338D01*
X596111Y110234D01*
X596063Y110131D01*
X596012Y110030D01*
X595957Y109931D01*
X595899Y109834D01*
X595837Y109739D01*
X595772Y109646D01*
X595704Y109556D01*
X595633Y109468D01*
X595558Y109382D01*
X595481Y109299D01*
X595401Y109219D01*
X595318Y109142D01*
X595232Y109067D01*
X595144Y108996D01*
X595054Y108928D01*
X594961Y108863D01*
X594866Y108801D01*
X594769Y108743D01*
X594670Y108688D01*
X594569Y108637D01*
X594466Y108589D01*
X594362Y108544D01*
X594256Y108504D01*
X594149Y108467D01*
X594041Y108434D01*
X593931Y108404D01*
X593821Y108379D01*
X593710Y108357D01*
X593598Y108340D01*
X593485Y108326D01*
X593372Y108316D01*
X593259Y108310D01*
X593146Y108308D01*
X587304Y108958D02*
X587203Y108960D01*
X587103Y108966D01*
X587003Y108976D01*
X586903Y108989D01*
X586804Y109007D01*
X586705Y109028D01*
X586608Y109053D01*
X586511Y109082D01*
X586416Y109115D01*
X586322Y109151D01*
X586230Y109191D01*
X586139Y109234D01*
X586050Y109281D01*
X585963Y109331D01*
X585877Y109385D01*
X585794Y109442D01*
X585714Y109502D01*
X585635Y109565D01*
X585559Y109632D01*
X585486Y109701D01*
X585416Y109773D01*
X585348Y109847D01*
X585283Y109924D01*
X585222Y110004D01*
X585163Y110086D01*
X585108Y110170D01*
X585056Y110256D01*
X585007Y110344D01*
X584962Y110434D01*
X584920Y110526D01*
X584882Y110619D01*
X584848Y110714D01*
X584817Y110809D01*
X584790Y110906D01*
X584767Y111004D01*
X584747Y111103D01*
X584732Y111203D01*
X584720Y111303D01*
X584712Y111403D01*
X584708Y111504D01*
X584708Y111604D01*
X584712Y111705D01*
X584720Y111805D01*
X584732Y111905D01*
X584747Y112005D01*
X584767Y112104D01*
X584790Y112202D01*
X584817Y112299D01*
X584848Y112394D01*
X584882Y112489D01*
X584920Y112582D01*
X584962Y112674D01*
X585007Y112764D01*
X585056Y112852D01*
X585108Y112938D01*
X585163Y113022D01*
X585222Y113104D01*
X585283Y113184D01*
X585348Y113261D01*
X585416Y113335D01*
X585486Y113407D01*
X585559Y113476D01*
X585635Y113543D01*
X585714Y113606D01*
X585794Y113666D01*
X585877Y113723D01*
X585963Y113777D01*
X586050Y113827D01*
X586139Y113874D01*
X586230Y113917D01*
X586322Y113957D01*
X586416Y113993D01*
X586511Y114026D01*
X586608Y114055D01*
X586705Y114080D01*
X586804Y114101D01*
X586903Y114119D01*
X587003Y114132D01*
X587103Y114142D01*
X587203Y114148D01*
X587304Y114150D01*
X587405Y114148D01*
X587505Y114142D01*
X587605Y114132D01*
X587705Y114119D01*
X587804Y114101D01*
X587903Y114080D01*
X588000Y114055D01*
X588097Y114026D01*
X588192Y113993D01*
X588286Y113957D01*
X588378Y113917D01*
X588469Y113874D01*
X588558Y113827D01*
X588645Y113777D01*
X588731Y113723D01*
X588814Y113666D01*
X588894Y113606D01*
X588973Y113543D01*
X589049Y113476D01*
X589122Y113407D01*
X589192Y113335D01*
X589260Y113261D01*
X589325Y113184D01*
X589386Y113104D01*
X589445Y113022D01*
X589500Y112938D01*
X589552Y112852D01*
X589601Y112764D01*
X589646Y112674D01*
X589688Y112582D01*
X589726Y112489D01*
X589760Y112394D01*
X589791Y112299D01*
X589818Y112202D01*
X589841Y112104D01*
X589861Y112005D01*
X589876Y111905D01*
X589888Y111805D01*
X589896Y111705D01*
X589900Y111604D01*
X589900Y111504D01*
X589896Y111403D01*
X589888Y111303D01*
X589876Y111203D01*
X589861Y111103D01*
X589841Y111004D01*
X589818Y110906D01*
X589791Y110809D01*
X589760Y110714D01*
X589726Y110619D01*
X589688Y110526D01*
X589646Y110434D01*
X589601Y110344D01*
X589552Y110256D01*
X589500Y110170D01*
X589445Y110086D01*
X589386Y110004D01*
X589325Y109924D01*
X589260Y109847D01*
X589192Y109773D01*
X589122Y109701D01*
X589049Y109632D01*
X588973Y109565D01*
X588894Y109502D01*
X588814Y109442D01*
X588731Y109385D01*
X588645Y109331D01*
X588558Y109281D01*
X588469Y109234D01*
X588378Y109191D01*
X588286Y109151D01*
X588192Y109115D01*
X588097Y109082D01*
X588000Y109053D01*
X587903Y109028D01*
X587804Y109007D01*
X587705Y108989D01*
X587605Y108976D01*
X587505Y108966D01*
X587405Y108960D01*
X587304Y108958D01*
X278892Y26095D02*
X267208Y26095D01*
X267208Y29340D01*
X267210Y29453D01*
X267216Y29566D01*
X267226Y29679D01*
X267240Y29792D01*
X267257Y29904D01*
X267279Y30015D01*
X267304Y30125D01*
X267334Y30235D01*
X267367Y30343D01*
X267404Y30450D01*
X267444Y30556D01*
X267489Y30660D01*
X267537Y30763D01*
X267588Y30864D01*
X267643Y30963D01*
X267701Y31060D01*
X267763Y31155D01*
X267828Y31248D01*
X267896Y31338D01*
X267967Y31426D01*
X268042Y31512D01*
X268119Y31595D01*
X268199Y31675D01*
X268282Y31752D01*
X268368Y31827D01*
X268456Y31898D01*
X268546Y31966D01*
X268639Y32031D01*
X268734Y32093D01*
X268831Y32151D01*
X268930Y32206D01*
X269031Y32257D01*
X269134Y32305D01*
X269238Y32350D01*
X269344Y32390D01*
X269451Y32427D01*
X269559Y32460D01*
X269669Y32490D01*
X269779Y32515D01*
X269890Y32537D01*
X270002Y32554D01*
X270115Y32568D01*
X270228Y32578D01*
X270341Y32584D01*
X270454Y32586D01*
X270567Y32584D01*
X270680Y32578D01*
X270793Y32568D01*
X270906Y32554D01*
X271018Y32537D01*
X271129Y32515D01*
X271239Y32490D01*
X271349Y32460D01*
X271457Y32427D01*
X271564Y32390D01*
X271670Y32350D01*
X271774Y32305D01*
X271877Y32257D01*
X271978Y32206D01*
X272077Y32151D01*
X272174Y32093D01*
X272269Y32031D01*
X272362Y31966D01*
X272452Y31898D01*
X272540Y31827D01*
X272626Y31752D01*
X272709Y31675D01*
X272789Y31595D01*
X272866Y31512D01*
X272941Y31426D01*
X273012Y31338D01*
X273080Y31248D01*
X273145Y31155D01*
X273207Y31060D01*
X273265Y30963D01*
X273320Y30864D01*
X273371Y30763D01*
X273419Y30660D01*
X273464Y30556D01*
X273504Y30450D01*
X273541Y30343D01*
X273574Y30235D01*
X273604Y30125D01*
X273629Y30015D01*
X273651Y29904D01*
X273668Y29792D01*
X273682Y29679D01*
X273692Y29566D01*
X273698Y29453D01*
X273700Y29340D01*
X273699Y29340D02*
X273699Y26095D01*
X273699Y29989D02*
X278892Y32586D01*
X270129Y43942D02*
X270022Y43940D01*
X269916Y43934D01*
X269810Y43924D01*
X269704Y43911D01*
X269598Y43893D01*
X269494Y43872D01*
X269390Y43847D01*
X269287Y43818D01*
X269186Y43786D01*
X269086Y43749D01*
X268987Y43709D01*
X268889Y43666D01*
X268793Y43619D01*
X268699Y43568D01*
X268607Y43514D01*
X268517Y43457D01*
X268429Y43397D01*
X268344Y43333D01*
X268261Y43266D01*
X268180Y43196D01*
X268102Y43124D01*
X268026Y43048D01*
X267954Y42970D01*
X267884Y42889D01*
X267817Y42806D01*
X267753Y42721D01*
X267693Y42633D01*
X267636Y42543D01*
X267582Y42451D01*
X267531Y42357D01*
X267484Y42261D01*
X267441Y42163D01*
X267401Y42064D01*
X267364Y41964D01*
X267332Y41863D01*
X267303Y41760D01*
X267278Y41656D01*
X267257Y41552D01*
X267239Y41446D01*
X267226Y41340D01*
X267216Y41234D01*
X267210Y41128D01*
X267208Y41021D01*
X267210Y40900D01*
X267216Y40779D01*
X267226Y40659D01*
X267239Y40538D01*
X267257Y40419D01*
X267278Y40299D01*
X267303Y40181D01*
X267332Y40064D01*
X267365Y39947D01*
X267401Y39832D01*
X267442Y39718D01*
X267485Y39605D01*
X267533Y39493D01*
X267584Y39384D01*
X267639Y39276D01*
X267697Y39169D01*
X267758Y39065D01*
X267823Y38963D01*
X267891Y38863D01*
X267962Y38765D01*
X268036Y38669D01*
X268113Y38576D01*
X268194Y38486D01*
X268277Y38398D01*
X268363Y38313D01*
X268452Y38230D01*
X268543Y38151D01*
X268637Y38074D01*
X268733Y38001D01*
X268831Y37931D01*
X268932Y37864D01*
X269035Y37800D01*
X269140Y37740D01*
X269247Y37682D01*
X269355Y37629D01*
X269465Y37579D01*
X269577Y37533D01*
X269690Y37490D01*
X269805Y37451D01*
X272401Y42968D02*
X272323Y43047D01*
X272243Y43123D01*
X272160Y43196D01*
X272074Y43266D01*
X271987Y43333D01*
X271896Y43397D01*
X271804Y43457D01*
X271710Y43515D01*
X271613Y43569D01*
X271515Y43619D01*
X271415Y43666D01*
X271314Y43710D01*
X271211Y43750D01*
X271106Y43786D01*
X271001Y43818D01*
X270894Y43847D01*
X270787Y43872D01*
X270678Y43894D01*
X270569Y43911D01*
X270460Y43925D01*
X270350Y43934D01*
X270239Y43940D01*
X270129Y43942D01*
X272401Y42968D02*
X278892Y37451D01*
X278892Y43942D01*
X318008Y26095D02*
X329692Y26095D01*
X318008Y26095D02*
X318008Y29340D01*
X318010Y29453D01*
X318016Y29566D01*
X318026Y29679D01*
X318040Y29792D01*
X318057Y29904D01*
X318079Y30015D01*
X318104Y30125D01*
X318134Y30235D01*
X318167Y30343D01*
X318204Y30450D01*
X318244Y30556D01*
X318289Y30660D01*
X318337Y30763D01*
X318388Y30864D01*
X318443Y30963D01*
X318501Y31060D01*
X318563Y31155D01*
X318628Y31248D01*
X318696Y31338D01*
X318767Y31426D01*
X318842Y31512D01*
X318919Y31595D01*
X318999Y31675D01*
X319082Y31752D01*
X319168Y31827D01*
X319256Y31898D01*
X319346Y31966D01*
X319439Y32031D01*
X319534Y32093D01*
X319631Y32151D01*
X319730Y32206D01*
X319831Y32257D01*
X319934Y32305D01*
X320038Y32350D01*
X320144Y32390D01*
X320251Y32427D01*
X320359Y32460D01*
X320469Y32490D01*
X320579Y32515D01*
X320690Y32537D01*
X320802Y32554D01*
X320915Y32568D01*
X321028Y32578D01*
X321141Y32584D01*
X321254Y32586D01*
X321367Y32584D01*
X321480Y32578D01*
X321593Y32568D01*
X321706Y32554D01*
X321818Y32537D01*
X321929Y32515D01*
X322039Y32490D01*
X322149Y32460D01*
X322257Y32427D01*
X322364Y32390D01*
X322470Y32350D01*
X322574Y32305D01*
X322677Y32257D01*
X322778Y32206D01*
X322877Y32151D01*
X322974Y32093D01*
X323069Y32031D01*
X323162Y31966D01*
X323252Y31898D01*
X323340Y31827D01*
X323426Y31752D01*
X323509Y31675D01*
X323589Y31595D01*
X323666Y31512D01*
X323741Y31426D01*
X323812Y31338D01*
X323880Y31248D01*
X323945Y31155D01*
X324007Y31060D01*
X324065Y30963D01*
X324120Y30864D01*
X324171Y30763D01*
X324219Y30660D01*
X324264Y30556D01*
X324304Y30450D01*
X324341Y30343D01*
X324374Y30235D01*
X324404Y30125D01*
X324429Y30015D01*
X324451Y29904D01*
X324468Y29792D01*
X324482Y29679D01*
X324492Y29566D01*
X324498Y29453D01*
X324500Y29340D01*
X324499Y29340D02*
X324499Y26095D01*
X324499Y29989D02*
X329692Y32586D01*
X329692Y37451D02*
X329692Y40696D01*
X329690Y40809D01*
X329684Y40922D01*
X329674Y41035D01*
X329660Y41148D01*
X329643Y41260D01*
X329621Y41371D01*
X329596Y41481D01*
X329566Y41591D01*
X329533Y41699D01*
X329496Y41806D01*
X329456Y41912D01*
X329411Y42016D01*
X329363Y42119D01*
X329312Y42220D01*
X329257Y42319D01*
X329199Y42416D01*
X329137Y42511D01*
X329072Y42604D01*
X329004Y42694D01*
X328933Y42782D01*
X328858Y42868D01*
X328781Y42951D01*
X328701Y43031D01*
X328618Y43108D01*
X328532Y43183D01*
X328444Y43254D01*
X328354Y43322D01*
X328261Y43387D01*
X328166Y43449D01*
X328069Y43507D01*
X327970Y43562D01*
X327869Y43613D01*
X327766Y43661D01*
X327662Y43706D01*
X327556Y43746D01*
X327449Y43783D01*
X327341Y43816D01*
X327231Y43846D01*
X327121Y43871D01*
X327010Y43893D01*
X326898Y43910D01*
X326785Y43924D01*
X326672Y43934D01*
X326559Y43940D01*
X326446Y43942D01*
X326333Y43940D01*
X326220Y43934D01*
X326107Y43924D01*
X325994Y43910D01*
X325882Y43893D01*
X325771Y43871D01*
X325661Y43846D01*
X325551Y43816D01*
X325443Y43783D01*
X325336Y43746D01*
X325230Y43706D01*
X325126Y43661D01*
X325023Y43613D01*
X324922Y43562D01*
X324823Y43507D01*
X324726Y43449D01*
X324631Y43387D01*
X324538Y43322D01*
X324448Y43254D01*
X324360Y43183D01*
X324274Y43108D01*
X324191Y43031D01*
X324111Y42951D01*
X324034Y42868D01*
X323959Y42782D01*
X323888Y42694D01*
X323820Y42604D01*
X323755Y42511D01*
X323693Y42416D01*
X323635Y42319D01*
X323580Y42220D01*
X323529Y42119D01*
X323481Y42016D01*
X323436Y41912D01*
X323396Y41806D01*
X323359Y41699D01*
X323326Y41591D01*
X323296Y41481D01*
X323271Y41371D01*
X323249Y41260D01*
X323232Y41148D01*
X323218Y41035D01*
X323208Y40922D01*
X323202Y40809D01*
X323200Y40696D01*
X318008Y41346D02*
X318008Y37451D01*
X318008Y41346D02*
X318010Y41447D01*
X318016Y41547D01*
X318026Y41647D01*
X318039Y41747D01*
X318057Y41846D01*
X318078Y41945D01*
X318103Y42042D01*
X318132Y42139D01*
X318165Y42234D01*
X318201Y42328D01*
X318241Y42420D01*
X318284Y42511D01*
X318331Y42600D01*
X318381Y42687D01*
X318435Y42773D01*
X318492Y42856D01*
X318552Y42936D01*
X318615Y43015D01*
X318682Y43091D01*
X318751Y43164D01*
X318823Y43234D01*
X318897Y43302D01*
X318974Y43367D01*
X319054Y43428D01*
X319136Y43487D01*
X319220Y43542D01*
X319306Y43594D01*
X319394Y43643D01*
X319484Y43688D01*
X319576Y43730D01*
X319669Y43768D01*
X319764Y43802D01*
X319859Y43833D01*
X319956Y43860D01*
X320054Y43883D01*
X320153Y43903D01*
X320253Y43918D01*
X320353Y43930D01*
X320453Y43938D01*
X320554Y43942D01*
X320654Y43942D01*
X320755Y43938D01*
X320855Y43930D01*
X320955Y43918D01*
X321055Y43903D01*
X321154Y43883D01*
X321252Y43860D01*
X321349Y43833D01*
X321444Y43802D01*
X321539Y43768D01*
X321632Y43730D01*
X321724Y43688D01*
X321814Y43643D01*
X321902Y43594D01*
X321988Y43542D01*
X322072Y43487D01*
X322154Y43428D01*
X322234Y43367D01*
X322311Y43302D01*
X322385Y43234D01*
X322457Y43164D01*
X322526Y43091D01*
X322593Y43015D01*
X322656Y42936D01*
X322716Y42856D01*
X322773Y42773D01*
X322827Y42687D01*
X322877Y42600D01*
X322924Y42511D01*
X322967Y42420D01*
X323007Y42328D01*
X323043Y42234D01*
X323076Y42139D01*
X323105Y42042D01*
X323130Y41945D01*
X323151Y41846D01*
X323169Y41747D01*
X323182Y41647D01*
X323192Y41547D01*
X323198Y41447D01*
X323200Y41346D01*
X323201Y41346D02*
X323201Y38749D01*
X368808Y26095D02*
X380492Y26095D01*
X368808Y26095D02*
X368808Y29340D01*
X368810Y29453D01*
X368816Y29566D01*
X368826Y29679D01*
X368840Y29792D01*
X368857Y29904D01*
X368879Y30015D01*
X368904Y30125D01*
X368934Y30235D01*
X368967Y30343D01*
X369004Y30450D01*
X369044Y30556D01*
X369089Y30660D01*
X369137Y30763D01*
X369188Y30864D01*
X369243Y30963D01*
X369301Y31060D01*
X369363Y31155D01*
X369428Y31248D01*
X369496Y31338D01*
X369567Y31426D01*
X369642Y31512D01*
X369719Y31595D01*
X369799Y31675D01*
X369882Y31752D01*
X369968Y31827D01*
X370056Y31898D01*
X370146Y31966D01*
X370239Y32031D01*
X370334Y32093D01*
X370431Y32151D01*
X370530Y32206D01*
X370631Y32257D01*
X370734Y32305D01*
X370838Y32350D01*
X370944Y32390D01*
X371051Y32427D01*
X371159Y32460D01*
X371269Y32490D01*
X371379Y32515D01*
X371490Y32537D01*
X371602Y32554D01*
X371715Y32568D01*
X371828Y32578D01*
X371941Y32584D01*
X372054Y32586D01*
X372167Y32584D01*
X372280Y32578D01*
X372393Y32568D01*
X372506Y32554D01*
X372618Y32537D01*
X372729Y32515D01*
X372839Y32490D01*
X372949Y32460D01*
X373057Y32427D01*
X373164Y32390D01*
X373270Y32350D01*
X373374Y32305D01*
X373477Y32257D01*
X373578Y32206D01*
X373677Y32151D01*
X373774Y32093D01*
X373869Y32031D01*
X373962Y31966D01*
X374052Y31898D01*
X374140Y31827D01*
X374226Y31752D01*
X374309Y31675D01*
X374389Y31595D01*
X374466Y31512D01*
X374541Y31426D01*
X374612Y31338D01*
X374680Y31248D01*
X374745Y31155D01*
X374807Y31060D01*
X374865Y30963D01*
X374920Y30864D01*
X374971Y30763D01*
X375019Y30660D01*
X375064Y30556D01*
X375104Y30450D01*
X375141Y30343D01*
X375174Y30235D01*
X375204Y30125D01*
X375229Y30015D01*
X375251Y29904D01*
X375268Y29792D01*
X375282Y29679D01*
X375292Y29566D01*
X375298Y29453D01*
X375300Y29340D01*
X375299Y29340D02*
X375299Y26095D01*
X375299Y29989D02*
X380492Y32586D01*
X377896Y37451D02*
X368808Y40047D01*
X377896Y37451D02*
X377896Y43942D01*
X375299Y41995D02*
X380492Y41995D01*
X419608Y26095D02*
X431292Y26095D01*
X419608Y26095D02*
X419608Y29340D01*
X419610Y29453D01*
X419616Y29566D01*
X419626Y29679D01*
X419640Y29792D01*
X419657Y29904D01*
X419679Y30015D01*
X419704Y30125D01*
X419734Y30235D01*
X419767Y30343D01*
X419804Y30450D01*
X419844Y30556D01*
X419889Y30660D01*
X419937Y30763D01*
X419988Y30864D01*
X420043Y30963D01*
X420101Y31060D01*
X420163Y31155D01*
X420228Y31248D01*
X420296Y31338D01*
X420367Y31426D01*
X420442Y31512D01*
X420519Y31595D01*
X420599Y31675D01*
X420682Y31752D01*
X420768Y31827D01*
X420856Y31898D01*
X420946Y31966D01*
X421039Y32031D01*
X421134Y32093D01*
X421231Y32151D01*
X421330Y32206D01*
X421431Y32257D01*
X421534Y32305D01*
X421638Y32350D01*
X421744Y32390D01*
X421851Y32427D01*
X421959Y32460D01*
X422069Y32490D01*
X422179Y32515D01*
X422290Y32537D01*
X422402Y32554D01*
X422515Y32568D01*
X422628Y32578D01*
X422741Y32584D01*
X422854Y32586D01*
X422967Y32584D01*
X423080Y32578D01*
X423193Y32568D01*
X423306Y32554D01*
X423418Y32537D01*
X423529Y32515D01*
X423639Y32490D01*
X423749Y32460D01*
X423857Y32427D01*
X423964Y32390D01*
X424070Y32350D01*
X424174Y32305D01*
X424277Y32257D01*
X424378Y32206D01*
X424477Y32151D01*
X424574Y32093D01*
X424669Y32031D01*
X424762Y31966D01*
X424852Y31898D01*
X424940Y31827D01*
X425026Y31752D01*
X425109Y31675D01*
X425189Y31595D01*
X425266Y31512D01*
X425341Y31426D01*
X425412Y31338D01*
X425480Y31248D01*
X425545Y31155D01*
X425607Y31060D01*
X425665Y30963D01*
X425720Y30864D01*
X425771Y30763D01*
X425819Y30660D01*
X425864Y30556D01*
X425904Y30450D01*
X425941Y30343D01*
X425974Y30235D01*
X426004Y30125D01*
X426029Y30015D01*
X426051Y29904D01*
X426068Y29792D01*
X426082Y29679D01*
X426092Y29566D01*
X426098Y29453D01*
X426100Y29340D01*
X426099Y29340D02*
X426099Y26095D01*
X426099Y29989D02*
X431292Y32586D01*
X426099Y40047D02*
X426099Y43942D01*
X426099Y40047D02*
X426097Y39948D01*
X426091Y39848D01*
X426082Y39749D01*
X426069Y39651D01*
X426052Y39553D01*
X426031Y39455D01*
X426006Y39359D01*
X425978Y39264D01*
X425946Y39170D01*
X425911Y39077D01*
X425872Y38985D01*
X425829Y38895D01*
X425784Y38807D01*
X425734Y38720D01*
X425682Y38636D01*
X425626Y38553D01*
X425568Y38473D01*
X425506Y38395D01*
X425441Y38320D01*
X425373Y38247D01*
X425303Y38177D01*
X425230Y38109D01*
X425155Y38044D01*
X425077Y37982D01*
X424997Y37924D01*
X424914Y37868D01*
X424830Y37816D01*
X424743Y37766D01*
X424655Y37721D01*
X424565Y37678D01*
X424473Y37639D01*
X424380Y37604D01*
X424286Y37572D01*
X424191Y37544D01*
X424095Y37519D01*
X423997Y37498D01*
X423899Y37481D01*
X423801Y37468D01*
X423702Y37459D01*
X423602Y37453D01*
X423503Y37451D01*
X422854Y37451D01*
X422854Y37450D02*
X422741Y37452D01*
X422628Y37458D01*
X422515Y37468D01*
X422402Y37482D01*
X422290Y37499D01*
X422179Y37521D01*
X422069Y37546D01*
X421959Y37576D01*
X421851Y37609D01*
X421744Y37646D01*
X421638Y37686D01*
X421534Y37731D01*
X421431Y37779D01*
X421330Y37830D01*
X421231Y37885D01*
X421134Y37943D01*
X421039Y38005D01*
X420946Y38070D01*
X420856Y38138D01*
X420768Y38209D01*
X420682Y38284D01*
X420599Y38361D01*
X420519Y38441D01*
X420442Y38524D01*
X420367Y38610D01*
X420296Y38698D01*
X420228Y38788D01*
X420163Y38881D01*
X420101Y38976D01*
X420043Y39073D01*
X419988Y39172D01*
X419937Y39273D01*
X419889Y39376D01*
X419844Y39480D01*
X419804Y39586D01*
X419767Y39693D01*
X419734Y39801D01*
X419704Y39911D01*
X419679Y40021D01*
X419657Y40132D01*
X419640Y40244D01*
X419626Y40357D01*
X419616Y40470D01*
X419610Y40583D01*
X419608Y40696D01*
X419610Y40809D01*
X419616Y40922D01*
X419626Y41035D01*
X419640Y41148D01*
X419657Y41260D01*
X419679Y41371D01*
X419704Y41481D01*
X419734Y41591D01*
X419767Y41699D01*
X419804Y41806D01*
X419844Y41912D01*
X419889Y42016D01*
X419937Y42119D01*
X419988Y42220D01*
X420043Y42319D01*
X420101Y42416D01*
X420163Y42511D01*
X420228Y42604D01*
X420296Y42694D01*
X420367Y42782D01*
X420442Y42868D01*
X420519Y42951D01*
X420599Y43031D01*
X420682Y43108D01*
X420768Y43183D01*
X420856Y43254D01*
X420946Y43322D01*
X421039Y43387D01*
X421134Y43449D01*
X421231Y43507D01*
X421330Y43562D01*
X421431Y43613D01*
X421534Y43661D01*
X421638Y43706D01*
X421744Y43746D01*
X421851Y43783D01*
X421959Y43816D01*
X422069Y43846D01*
X422179Y43871D01*
X422290Y43893D01*
X422402Y43910D01*
X422515Y43924D01*
X422628Y43934D01*
X422741Y43940D01*
X422854Y43942D01*
X426099Y43942D01*
X426242Y43940D01*
X426385Y43934D01*
X426528Y43924D01*
X426670Y43910D01*
X426812Y43893D01*
X426954Y43871D01*
X427095Y43846D01*
X427235Y43816D01*
X427374Y43783D01*
X427512Y43746D01*
X427649Y43705D01*
X427785Y43661D01*
X427920Y43612D01*
X428053Y43560D01*
X428185Y43505D01*
X428315Y43445D01*
X428444Y43382D01*
X428571Y43316D01*
X428696Y43246D01*
X428818Y43173D01*
X428939Y43096D01*
X429058Y43016D01*
X429174Y42933D01*
X429289Y42847D01*
X429400Y42758D01*
X429510Y42665D01*
X429616Y42570D01*
X429720Y42471D01*
X429821Y42370D01*
X429920Y42266D01*
X430015Y42160D01*
X430108Y42050D01*
X430197Y41939D01*
X430283Y41824D01*
X430366Y41708D01*
X430446Y41589D01*
X430523Y41468D01*
X430596Y41346D01*
X430666Y41221D01*
X430732Y41094D01*
X430795Y40965D01*
X430855Y40835D01*
X430910Y40703D01*
X430962Y40570D01*
X431011Y40435D01*
X431055Y40299D01*
X431096Y40162D01*
X431133Y40024D01*
X431166Y39885D01*
X431196Y39745D01*
X431221Y39604D01*
X431243Y39462D01*
X431260Y39320D01*
X431274Y39178D01*
X431284Y39035D01*
X431290Y38892D01*
X431292Y38749D01*
X521208Y26095D02*
X532892Y26095D01*
X521208Y26095D02*
X521208Y29340D01*
X521210Y29453D01*
X521216Y29566D01*
X521226Y29679D01*
X521240Y29792D01*
X521257Y29904D01*
X521279Y30015D01*
X521304Y30125D01*
X521334Y30235D01*
X521367Y30343D01*
X521404Y30450D01*
X521444Y30556D01*
X521489Y30660D01*
X521537Y30763D01*
X521588Y30864D01*
X521643Y30963D01*
X521701Y31060D01*
X521763Y31155D01*
X521828Y31248D01*
X521896Y31338D01*
X521967Y31426D01*
X522042Y31512D01*
X522119Y31595D01*
X522199Y31675D01*
X522282Y31752D01*
X522368Y31827D01*
X522456Y31898D01*
X522546Y31966D01*
X522639Y32031D01*
X522734Y32093D01*
X522831Y32151D01*
X522930Y32206D01*
X523031Y32257D01*
X523134Y32305D01*
X523238Y32350D01*
X523344Y32390D01*
X523451Y32427D01*
X523559Y32460D01*
X523669Y32490D01*
X523779Y32515D01*
X523890Y32537D01*
X524002Y32554D01*
X524115Y32568D01*
X524228Y32578D01*
X524341Y32584D01*
X524454Y32586D01*
X524567Y32584D01*
X524680Y32578D01*
X524793Y32568D01*
X524906Y32554D01*
X525018Y32537D01*
X525129Y32515D01*
X525239Y32490D01*
X525349Y32460D01*
X525457Y32427D01*
X525564Y32390D01*
X525670Y32350D01*
X525774Y32305D01*
X525877Y32257D01*
X525978Y32206D01*
X526077Y32151D01*
X526174Y32093D01*
X526269Y32031D01*
X526362Y31966D01*
X526452Y31898D01*
X526540Y31827D01*
X526626Y31752D01*
X526709Y31675D01*
X526789Y31595D01*
X526866Y31512D01*
X526941Y31426D01*
X527012Y31338D01*
X527080Y31248D01*
X527145Y31155D01*
X527207Y31060D01*
X527265Y30963D01*
X527320Y30864D01*
X527371Y30763D01*
X527419Y30660D01*
X527464Y30556D01*
X527504Y30450D01*
X527541Y30343D01*
X527574Y30235D01*
X527604Y30125D01*
X527629Y30015D01*
X527651Y29904D01*
X527668Y29792D01*
X527682Y29679D01*
X527692Y29566D01*
X527698Y29453D01*
X527700Y29340D01*
X527699Y29340D02*
X527699Y26095D01*
X527699Y29989D02*
X532892Y32586D01*
X526401Y37451D02*
X526401Y41346D01*
X526403Y41445D01*
X526409Y41545D01*
X526418Y41644D01*
X526431Y41742D01*
X526448Y41840D01*
X526469Y41938D01*
X526494Y42034D01*
X526522Y42129D01*
X526554Y42223D01*
X526589Y42316D01*
X526628Y42408D01*
X526671Y42498D01*
X526716Y42586D01*
X526766Y42673D01*
X526818Y42757D01*
X526874Y42840D01*
X526932Y42920D01*
X526994Y42998D01*
X527059Y43073D01*
X527127Y43146D01*
X527197Y43216D01*
X527270Y43284D01*
X527345Y43349D01*
X527423Y43411D01*
X527503Y43469D01*
X527586Y43525D01*
X527670Y43577D01*
X527757Y43627D01*
X527845Y43672D01*
X527935Y43715D01*
X528027Y43754D01*
X528120Y43789D01*
X528214Y43821D01*
X528309Y43849D01*
X528405Y43874D01*
X528503Y43895D01*
X528601Y43912D01*
X528699Y43925D01*
X528798Y43934D01*
X528898Y43940D01*
X528997Y43942D01*
X529646Y43942D01*
X529759Y43940D01*
X529872Y43934D01*
X529985Y43924D01*
X530098Y43910D01*
X530210Y43893D01*
X530321Y43871D01*
X530431Y43846D01*
X530541Y43816D01*
X530649Y43783D01*
X530756Y43746D01*
X530862Y43706D01*
X530966Y43661D01*
X531069Y43613D01*
X531170Y43562D01*
X531269Y43507D01*
X531366Y43449D01*
X531461Y43387D01*
X531554Y43322D01*
X531644Y43254D01*
X531732Y43183D01*
X531818Y43108D01*
X531901Y43031D01*
X531981Y42951D01*
X532058Y42868D01*
X532133Y42782D01*
X532204Y42694D01*
X532272Y42604D01*
X532337Y42511D01*
X532399Y42416D01*
X532457Y42319D01*
X532512Y42220D01*
X532563Y42119D01*
X532611Y42016D01*
X532656Y41912D01*
X532696Y41806D01*
X532733Y41699D01*
X532766Y41591D01*
X532796Y41481D01*
X532821Y41371D01*
X532843Y41260D01*
X532860Y41148D01*
X532874Y41035D01*
X532884Y40922D01*
X532890Y40809D01*
X532892Y40696D01*
X532890Y40583D01*
X532884Y40470D01*
X532874Y40357D01*
X532860Y40244D01*
X532843Y40132D01*
X532821Y40021D01*
X532796Y39911D01*
X532766Y39801D01*
X532733Y39693D01*
X532696Y39586D01*
X532656Y39480D01*
X532611Y39376D01*
X532563Y39273D01*
X532512Y39172D01*
X532457Y39073D01*
X532399Y38976D01*
X532337Y38881D01*
X532272Y38788D01*
X532204Y38698D01*
X532133Y38610D01*
X532058Y38524D01*
X531981Y38441D01*
X531901Y38361D01*
X531818Y38284D01*
X531732Y38209D01*
X531644Y38138D01*
X531554Y38070D01*
X531461Y38005D01*
X531366Y37943D01*
X531269Y37885D01*
X531170Y37830D01*
X531069Y37779D01*
X530966Y37731D01*
X530862Y37686D01*
X530756Y37646D01*
X530649Y37609D01*
X530541Y37576D01*
X530431Y37546D01*
X530321Y37521D01*
X530210Y37499D01*
X530098Y37482D01*
X529985Y37468D01*
X529872Y37458D01*
X529759Y37452D01*
X529646Y37450D01*
X529646Y37451D02*
X526401Y37451D01*
X526258Y37453D01*
X526115Y37459D01*
X525972Y37469D01*
X525830Y37483D01*
X525688Y37500D01*
X525546Y37522D01*
X525405Y37547D01*
X525265Y37577D01*
X525126Y37610D01*
X524988Y37647D01*
X524851Y37688D01*
X524715Y37732D01*
X524580Y37781D01*
X524447Y37833D01*
X524315Y37888D01*
X524185Y37948D01*
X524056Y38011D01*
X523929Y38077D01*
X523805Y38147D01*
X523682Y38220D01*
X523561Y38297D01*
X523442Y38376D01*
X523326Y38460D01*
X523211Y38546D01*
X523100Y38635D01*
X522991Y38728D01*
X522884Y38823D01*
X522780Y38922D01*
X522679Y39023D01*
X522580Y39127D01*
X522485Y39233D01*
X522392Y39343D01*
X522303Y39454D01*
X522217Y39568D01*
X522134Y39685D01*
X522054Y39804D01*
X521977Y39925D01*
X521904Y40047D01*
X521834Y40172D01*
X521768Y40299D01*
X521705Y40428D01*
X521645Y40558D01*
X521590Y40690D01*
X521538Y40823D01*
X521489Y40958D01*
X521445Y41094D01*
X521404Y41231D01*
X521367Y41369D01*
X521334Y41508D01*
X521304Y41648D01*
X521279Y41789D01*
X521257Y41931D01*
X521240Y42073D01*
X521226Y42215D01*
X521216Y42358D01*
X521210Y42501D01*
X521208Y42644D01*
X572008Y26095D02*
X583692Y26095D01*
X572008Y26095D02*
X572008Y29340D01*
X572010Y29453D01*
X572016Y29566D01*
X572026Y29679D01*
X572040Y29792D01*
X572057Y29904D01*
X572079Y30015D01*
X572104Y30125D01*
X572134Y30235D01*
X572167Y30343D01*
X572204Y30450D01*
X572244Y30556D01*
X572289Y30660D01*
X572337Y30763D01*
X572388Y30864D01*
X572443Y30963D01*
X572501Y31060D01*
X572563Y31155D01*
X572628Y31248D01*
X572696Y31338D01*
X572767Y31426D01*
X572842Y31512D01*
X572919Y31595D01*
X572999Y31675D01*
X573082Y31752D01*
X573168Y31827D01*
X573256Y31898D01*
X573346Y31966D01*
X573439Y32031D01*
X573534Y32093D01*
X573631Y32151D01*
X573730Y32206D01*
X573831Y32257D01*
X573934Y32305D01*
X574038Y32350D01*
X574144Y32390D01*
X574251Y32427D01*
X574359Y32460D01*
X574469Y32490D01*
X574579Y32515D01*
X574690Y32537D01*
X574802Y32554D01*
X574915Y32568D01*
X575028Y32578D01*
X575141Y32584D01*
X575254Y32586D01*
X575367Y32584D01*
X575480Y32578D01*
X575593Y32568D01*
X575706Y32554D01*
X575818Y32537D01*
X575929Y32515D01*
X576039Y32490D01*
X576149Y32460D01*
X576257Y32427D01*
X576364Y32390D01*
X576470Y32350D01*
X576574Y32305D01*
X576677Y32257D01*
X576778Y32206D01*
X576877Y32151D01*
X576974Y32093D01*
X577069Y32031D01*
X577162Y31966D01*
X577252Y31898D01*
X577340Y31827D01*
X577426Y31752D01*
X577509Y31675D01*
X577589Y31595D01*
X577666Y31512D01*
X577741Y31426D01*
X577812Y31338D01*
X577880Y31248D01*
X577945Y31155D01*
X578007Y31060D01*
X578065Y30963D01*
X578120Y30864D01*
X578171Y30763D01*
X578219Y30660D01*
X578264Y30556D01*
X578304Y30450D01*
X578341Y30343D01*
X578374Y30235D01*
X578404Y30125D01*
X578429Y30015D01*
X578451Y29904D01*
X578468Y29792D01*
X578482Y29679D01*
X578492Y29566D01*
X578498Y29453D01*
X578500Y29340D01*
X578499Y29340D02*
X578499Y26095D01*
X578499Y29989D02*
X583692Y32586D01*
X573306Y37451D02*
X572008Y37451D01*
X572008Y43942D01*
X583692Y40696D01*
X622808Y26095D02*
X634492Y26095D01*
X622808Y26095D02*
X622808Y29340D01*
X622810Y29453D01*
X622816Y29566D01*
X622826Y29679D01*
X622840Y29792D01*
X622857Y29904D01*
X622879Y30015D01*
X622904Y30125D01*
X622934Y30235D01*
X622967Y30343D01*
X623004Y30450D01*
X623044Y30556D01*
X623089Y30660D01*
X623137Y30763D01*
X623188Y30864D01*
X623243Y30963D01*
X623301Y31060D01*
X623363Y31155D01*
X623428Y31248D01*
X623496Y31338D01*
X623567Y31426D01*
X623642Y31512D01*
X623719Y31595D01*
X623799Y31675D01*
X623882Y31752D01*
X623968Y31827D01*
X624056Y31898D01*
X624146Y31966D01*
X624239Y32031D01*
X624334Y32093D01*
X624431Y32151D01*
X624530Y32206D01*
X624631Y32257D01*
X624734Y32305D01*
X624838Y32350D01*
X624944Y32390D01*
X625051Y32427D01*
X625159Y32460D01*
X625269Y32490D01*
X625379Y32515D01*
X625490Y32537D01*
X625602Y32554D01*
X625715Y32568D01*
X625828Y32578D01*
X625941Y32584D01*
X626054Y32586D01*
X626167Y32584D01*
X626280Y32578D01*
X626393Y32568D01*
X626506Y32554D01*
X626618Y32537D01*
X626729Y32515D01*
X626839Y32490D01*
X626949Y32460D01*
X627057Y32427D01*
X627164Y32390D01*
X627270Y32350D01*
X627374Y32305D01*
X627477Y32257D01*
X627578Y32206D01*
X627677Y32151D01*
X627774Y32093D01*
X627869Y32031D01*
X627962Y31966D01*
X628052Y31898D01*
X628140Y31827D01*
X628226Y31752D01*
X628309Y31675D01*
X628389Y31595D01*
X628466Y31512D01*
X628541Y31426D01*
X628612Y31338D01*
X628680Y31248D01*
X628745Y31155D01*
X628807Y31060D01*
X628865Y30963D01*
X628920Y30864D01*
X628971Y30763D01*
X629019Y30660D01*
X629064Y30556D01*
X629104Y30450D01*
X629141Y30343D01*
X629174Y30235D01*
X629204Y30125D01*
X629229Y30015D01*
X629251Y29904D01*
X629268Y29792D01*
X629282Y29679D01*
X629292Y29566D01*
X629298Y29453D01*
X629300Y29340D01*
X629299Y29340D02*
X629299Y26095D01*
X629299Y29989D02*
X634492Y32586D01*
X631246Y37450D02*
X631133Y37452D01*
X631020Y37458D01*
X630907Y37468D01*
X630794Y37482D01*
X630682Y37499D01*
X630571Y37521D01*
X630461Y37546D01*
X630351Y37576D01*
X630243Y37609D01*
X630136Y37646D01*
X630030Y37686D01*
X629926Y37731D01*
X629823Y37779D01*
X629722Y37830D01*
X629623Y37885D01*
X629526Y37943D01*
X629431Y38005D01*
X629338Y38070D01*
X629248Y38138D01*
X629160Y38209D01*
X629074Y38284D01*
X628991Y38361D01*
X628911Y38441D01*
X628834Y38524D01*
X628759Y38610D01*
X628688Y38698D01*
X628620Y38788D01*
X628555Y38881D01*
X628493Y38976D01*
X628435Y39073D01*
X628380Y39172D01*
X628329Y39273D01*
X628281Y39376D01*
X628236Y39480D01*
X628196Y39586D01*
X628159Y39693D01*
X628126Y39801D01*
X628096Y39911D01*
X628071Y40021D01*
X628049Y40132D01*
X628032Y40244D01*
X628018Y40357D01*
X628008Y40470D01*
X628002Y40583D01*
X628000Y40696D01*
X628002Y40809D01*
X628008Y40922D01*
X628018Y41035D01*
X628032Y41148D01*
X628049Y41260D01*
X628071Y41371D01*
X628096Y41481D01*
X628126Y41591D01*
X628159Y41699D01*
X628196Y41806D01*
X628236Y41912D01*
X628281Y42016D01*
X628329Y42119D01*
X628380Y42220D01*
X628435Y42319D01*
X628493Y42416D01*
X628555Y42511D01*
X628620Y42604D01*
X628688Y42694D01*
X628759Y42782D01*
X628834Y42868D01*
X628911Y42951D01*
X628991Y43031D01*
X629074Y43108D01*
X629160Y43183D01*
X629248Y43254D01*
X629338Y43322D01*
X629431Y43387D01*
X629526Y43449D01*
X629623Y43507D01*
X629722Y43562D01*
X629823Y43613D01*
X629926Y43661D01*
X630030Y43706D01*
X630136Y43746D01*
X630243Y43783D01*
X630351Y43816D01*
X630461Y43846D01*
X630571Y43871D01*
X630682Y43893D01*
X630794Y43910D01*
X630907Y43924D01*
X631020Y43934D01*
X631133Y43940D01*
X631246Y43942D01*
X631359Y43940D01*
X631472Y43934D01*
X631585Y43924D01*
X631698Y43910D01*
X631810Y43893D01*
X631921Y43871D01*
X632031Y43846D01*
X632141Y43816D01*
X632249Y43783D01*
X632356Y43746D01*
X632462Y43706D01*
X632566Y43661D01*
X632669Y43613D01*
X632770Y43562D01*
X632869Y43507D01*
X632966Y43449D01*
X633061Y43387D01*
X633154Y43322D01*
X633244Y43254D01*
X633332Y43183D01*
X633418Y43108D01*
X633501Y43031D01*
X633581Y42951D01*
X633658Y42868D01*
X633733Y42782D01*
X633804Y42694D01*
X633872Y42604D01*
X633937Y42511D01*
X633999Y42416D01*
X634057Y42319D01*
X634112Y42220D01*
X634163Y42119D01*
X634211Y42016D01*
X634256Y41912D01*
X634296Y41806D01*
X634333Y41699D01*
X634366Y41591D01*
X634396Y41481D01*
X634421Y41371D01*
X634443Y41260D01*
X634460Y41148D01*
X634474Y41035D01*
X634484Y40922D01*
X634490Y40809D01*
X634492Y40696D01*
X634490Y40583D01*
X634484Y40470D01*
X634474Y40357D01*
X634460Y40244D01*
X634443Y40132D01*
X634421Y40021D01*
X634396Y39911D01*
X634366Y39801D01*
X634333Y39693D01*
X634296Y39586D01*
X634256Y39480D01*
X634211Y39376D01*
X634163Y39273D01*
X634112Y39172D01*
X634057Y39073D01*
X633999Y38976D01*
X633937Y38881D01*
X633872Y38788D01*
X633804Y38698D01*
X633733Y38610D01*
X633658Y38524D01*
X633581Y38441D01*
X633501Y38361D01*
X633418Y38284D01*
X633332Y38209D01*
X633244Y38138D01*
X633154Y38070D01*
X633061Y38005D01*
X632966Y37943D01*
X632869Y37885D01*
X632770Y37830D01*
X632669Y37779D01*
X632566Y37731D01*
X632462Y37686D01*
X632356Y37646D01*
X632249Y37609D01*
X632141Y37576D01*
X632031Y37546D01*
X631921Y37521D01*
X631810Y37499D01*
X631698Y37482D01*
X631585Y37468D01*
X631472Y37458D01*
X631359Y37452D01*
X631246Y37450D01*
X625404Y38100D02*
X625303Y38102D01*
X625203Y38108D01*
X625103Y38118D01*
X625003Y38131D01*
X624904Y38149D01*
X624805Y38170D01*
X624708Y38195D01*
X624611Y38224D01*
X624516Y38257D01*
X624422Y38293D01*
X624330Y38333D01*
X624239Y38376D01*
X624150Y38423D01*
X624063Y38473D01*
X623977Y38527D01*
X623894Y38584D01*
X623814Y38644D01*
X623735Y38707D01*
X623659Y38774D01*
X623586Y38843D01*
X623516Y38915D01*
X623448Y38989D01*
X623383Y39066D01*
X623322Y39146D01*
X623263Y39228D01*
X623208Y39312D01*
X623156Y39398D01*
X623107Y39486D01*
X623062Y39576D01*
X623020Y39668D01*
X622982Y39761D01*
X622948Y39856D01*
X622917Y39951D01*
X622890Y40048D01*
X622867Y40146D01*
X622847Y40245D01*
X622832Y40345D01*
X622820Y40445D01*
X622812Y40545D01*
X622808Y40646D01*
X622808Y40746D01*
X622812Y40847D01*
X622820Y40947D01*
X622832Y41047D01*
X622847Y41147D01*
X622867Y41246D01*
X622890Y41344D01*
X622917Y41441D01*
X622948Y41536D01*
X622982Y41631D01*
X623020Y41724D01*
X623062Y41816D01*
X623107Y41906D01*
X623156Y41994D01*
X623208Y42080D01*
X623263Y42164D01*
X623322Y42246D01*
X623383Y42326D01*
X623448Y42403D01*
X623516Y42477D01*
X623586Y42549D01*
X623659Y42618D01*
X623735Y42685D01*
X623814Y42748D01*
X623894Y42808D01*
X623977Y42865D01*
X624063Y42919D01*
X624150Y42969D01*
X624239Y43016D01*
X624330Y43059D01*
X624422Y43099D01*
X624516Y43135D01*
X624611Y43168D01*
X624708Y43197D01*
X624805Y43222D01*
X624904Y43243D01*
X625003Y43261D01*
X625103Y43274D01*
X625203Y43284D01*
X625303Y43290D01*
X625404Y43292D01*
X625505Y43290D01*
X625605Y43284D01*
X625705Y43274D01*
X625805Y43261D01*
X625904Y43243D01*
X626003Y43222D01*
X626100Y43197D01*
X626197Y43168D01*
X626292Y43135D01*
X626386Y43099D01*
X626478Y43059D01*
X626569Y43016D01*
X626658Y42969D01*
X626745Y42919D01*
X626831Y42865D01*
X626914Y42808D01*
X626994Y42748D01*
X627073Y42685D01*
X627149Y42618D01*
X627222Y42549D01*
X627292Y42477D01*
X627360Y42403D01*
X627425Y42326D01*
X627486Y42246D01*
X627545Y42164D01*
X627600Y42080D01*
X627652Y41994D01*
X627701Y41906D01*
X627746Y41816D01*
X627788Y41724D01*
X627826Y41631D01*
X627860Y41536D01*
X627891Y41441D01*
X627918Y41344D01*
X627941Y41246D01*
X627961Y41147D01*
X627976Y41047D01*
X627988Y40947D01*
X627996Y40847D01*
X628000Y40746D01*
X628000Y40646D01*
X627996Y40545D01*
X627988Y40445D01*
X627976Y40345D01*
X627961Y40245D01*
X627941Y40146D01*
X627918Y40048D01*
X627891Y39951D01*
X627860Y39856D01*
X627826Y39761D01*
X627788Y39668D01*
X627746Y39576D01*
X627701Y39486D01*
X627652Y39398D01*
X627600Y39312D01*
X627545Y39228D01*
X627486Y39146D01*
X627425Y39066D01*
X627360Y38989D01*
X627292Y38915D01*
X627222Y38843D01*
X627149Y38774D01*
X627073Y38707D01*
X626994Y38644D01*
X626914Y38584D01*
X626831Y38527D01*
X626745Y38473D01*
X626658Y38423D01*
X626569Y38376D01*
X626478Y38333D01*
X626386Y38293D01*
X626292Y38257D01*
X626197Y38224D01*
X626100Y38195D01*
X626003Y38170D01*
X625904Y38149D01*
X625805Y38131D01*
X625705Y38118D01*
X625605Y38108D01*
X625505Y38102D01*
X625404Y38100D01*
X482092Y26095D02*
X470408Y26095D01*
X470408Y29340D01*
X470410Y29453D01*
X470416Y29566D01*
X470426Y29679D01*
X470440Y29792D01*
X470457Y29904D01*
X470479Y30015D01*
X470504Y30125D01*
X470534Y30235D01*
X470567Y30343D01*
X470604Y30450D01*
X470644Y30556D01*
X470689Y30660D01*
X470737Y30763D01*
X470788Y30864D01*
X470843Y30963D01*
X470901Y31060D01*
X470963Y31155D01*
X471028Y31248D01*
X471096Y31338D01*
X471167Y31426D01*
X471242Y31512D01*
X471319Y31595D01*
X471399Y31675D01*
X471482Y31752D01*
X471568Y31827D01*
X471656Y31898D01*
X471746Y31966D01*
X471839Y32031D01*
X471934Y32093D01*
X472031Y32151D01*
X472130Y32206D01*
X472231Y32257D01*
X472334Y32305D01*
X472438Y32350D01*
X472544Y32390D01*
X472651Y32427D01*
X472759Y32460D01*
X472869Y32490D01*
X472979Y32515D01*
X473090Y32537D01*
X473202Y32554D01*
X473315Y32568D01*
X473428Y32578D01*
X473541Y32584D01*
X473654Y32586D01*
X473767Y32584D01*
X473880Y32578D01*
X473993Y32568D01*
X474106Y32554D01*
X474218Y32537D01*
X474329Y32515D01*
X474439Y32490D01*
X474549Y32460D01*
X474657Y32427D01*
X474764Y32390D01*
X474870Y32350D01*
X474974Y32305D01*
X475077Y32257D01*
X475178Y32206D01*
X475277Y32151D01*
X475374Y32093D01*
X475469Y32031D01*
X475562Y31966D01*
X475652Y31898D01*
X475740Y31827D01*
X475826Y31752D01*
X475909Y31675D01*
X475989Y31595D01*
X476066Y31512D01*
X476141Y31426D01*
X476212Y31338D01*
X476280Y31248D01*
X476345Y31155D01*
X476407Y31060D01*
X476465Y30963D01*
X476520Y30864D01*
X476571Y30763D01*
X476619Y30660D01*
X476664Y30556D01*
X476704Y30450D01*
X476741Y30343D01*
X476774Y30235D01*
X476804Y30125D01*
X476829Y30015D01*
X476851Y29904D01*
X476868Y29792D01*
X476882Y29679D01*
X476892Y29566D01*
X476898Y29453D01*
X476900Y29340D01*
X476899Y29340D02*
X476899Y26095D01*
X476899Y29989D02*
X482092Y32586D01*
X482092Y37451D02*
X482092Y41346D01*
X482090Y41445D01*
X482084Y41545D01*
X482075Y41644D01*
X482062Y41742D01*
X482045Y41840D01*
X482024Y41938D01*
X481999Y42034D01*
X481971Y42129D01*
X481939Y42223D01*
X481904Y42316D01*
X481865Y42408D01*
X481822Y42498D01*
X481777Y42586D01*
X481727Y42673D01*
X481675Y42757D01*
X481619Y42840D01*
X481561Y42920D01*
X481499Y42998D01*
X481434Y43073D01*
X481366Y43146D01*
X481296Y43216D01*
X481223Y43284D01*
X481148Y43349D01*
X481070Y43411D01*
X480990Y43469D01*
X480907Y43525D01*
X480823Y43577D01*
X480736Y43627D01*
X480648Y43672D01*
X480558Y43715D01*
X480466Y43754D01*
X480373Y43789D01*
X480279Y43821D01*
X480184Y43849D01*
X480088Y43874D01*
X479990Y43895D01*
X479892Y43912D01*
X479794Y43925D01*
X479695Y43934D01*
X479595Y43940D01*
X479496Y43942D01*
X478197Y43942D01*
X478098Y43940D01*
X477998Y43934D01*
X477899Y43925D01*
X477801Y43912D01*
X477703Y43895D01*
X477605Y43874D01*
X477509Y43849D01*
X477414Y43821D01*
X477320Y43789D01*
X477227Y43754D01*
X477135Y43715D01*
X477045Y43672D01*
X476957Y43627D01*
X476870Y43577D01*
X476786Y43525D01*
X476703Y43469D01*
X476623Y43411D01*
X476545Y43349D01*
X476470Y43284D01*
X476397Y43216D01*
X476327Y43146D01*
X476259Y43073D01*
X476194Y42998D01*
X476132Y42920D01*
X476074Y42840D01*
X476018Y42757D01*
X475966Y42673D01*
X475916Y42586D01*
X475871Y42498D01*
X475828Y42408D01*
X475789Y42316D01*
X475754Y42223D01*
X475722Y42129D01*
X475694Y42034D01*
X475669Y41938D01*
X475648Y41840D01*
X475631Y41742D01*
X475618Y41644D01*
X475609Y41545D01*
X475603Y41445D01*
X475601Y41346D01*
X475601Y37451D01*
X470408Y37451D01*
X470408Y43942D01*
X189992Y32258D02*
X178308Y32258D01*
X178308Y35504D01*
X178310Y35617D01*
X178316Y35730D01*
X178326Y35843D01*
X178340Y35956D01*
X178357Y36068D01*
X178379Y36179D01*
X178404Y36289D01*
X178434Y36399D01*
X178467Y36507D01*
X178504Y36614D01*
X178544Y36720D01*
X178589Y36824D01*
X178637Y36927D01*
X178688Y37028D01*
X178743Y37127D01*
X178801Y37224D01*
X178863Y37319D01*
X178928Y37412D01*
X178996Y37502D01*
X179067Y37590D01*
X179142Y37676D01*
X179219Y37759D01*
X179299Y37839D01*
X179382Y37916D01*
X179468Y37991D01*
X179556Y38062D01*
X179646Y38130D01*
X179739Y38195D01*
X179834Y38257D01*
X179931Y38315D01*
X180030Y38370D01*
X180131Y38421D01*
X180234Y38469D01*
X180338Y38514D01*
X180444Y38554D01*
X180551Y38591D01*
X180659Y38624D01*
X180769Y38654D01*
X180879Y38679D01*
X180990Y38701D01*
X181102Y38718D01*
X181215Y38732D01*
X181328Y38742D01*
X181441Y38748D01*
X181554Y38750D01*
X181667Y38748D01*
X181780Y38742D01*
X181893Y38732D01*
X182006Y38718D01*
X182118Y38701D01*
X182229Y38679D01*
X182339Y38654D01*
X182449Y38624D01*
X182557Y38591D01*
X182664Y38554D01*
X182770Y38514D01*
X182874Y38469D01*
X182977Y38421D01*
X183078Y38370D01*
X183177Y38315D01*
X183274Y38257D01*
X183369Y38195D01*
X183462Y38130D01*
X183552Y38062D01*
X183640Y37991D01*
X183726Y37916D01*
X183809Y37839D01*
X183889Y37759D01*
X183966Y37676D01*
X184041Y37590D01*
X184112Y37502D01*
X184180Y37412D01*
X184245Y37319D01*
X184307Y37224D01*
X184365Y37127D01*
X184420Y37028D01*
X184471Y36927D01*
X184519Y36824D01*
X184564Y36720D01*
X184604Y36614D01*
X184641Y36507D01*
X184674Y36399D01*
X184704Y36289D01*
X184729Y36179D01*
X184751Y36068D01*
X184768Y35956D01*
X184782Y35843D01*
X184792Y35730D01*
X184798Y35617D01*
X184800Y35504D01*
X184799Y35504D02*
X184799Y32258D01*
X184799Y36153D02*
X189992Y38749D01*
X180904Y43614D02*
X178308Y46860D01*
X189992Y46860D01*
X189992Y50105D02*
X189992Y43614D01*
D15*
X209254Y108176D02*
X215519Y108176D01*
X212386Y105043D02*
X212386Y111308D01*
D16*
X209200Y87400D03*
X197200Y87400D03*
D17*
X203200Y87400D03*
D14*
X216408Y63001D02*
X228092Y63001D01*
X228092Y68193D01*
X228092Y72907D02*
X228092Y78099D01*
X228092Y72907D02*
X216408Y72907D01*
X216408Y78099D01*
X221601Y76801D02*
X221601Y72907D01*
X216408Y82790D02*
X228092Y82790D01*
X216408Y82790D02*
X216408Y86035D01*
X216410Y86148D01*
X216416Y86261D01*
X216426Y86374D01*
X216440Y86487D01*
X216457Y86599D01*
X216479Y86710D01*
X216504Y86820D01*
X216534Y86930D01*
X216567Y87038D01*
X216604Y87145D01*
X216644Y87251D01*
X216689Y87355D01*
X216737Y87458D01*
X216788Y87559D01*
X216843Y87658D01*
X216901Y87755D01*
X216963Y87850D01*
X217028Y87943D01*
X217096Y88033D01*
X217167Y88121D01*
X217242Y88207D01*
X217319Y88290D01*
X217399Y88370D01*
X217482Y88447D01*
X217568Y88522D01*
X217656Y88593D01*
X217746Y88661D01*
X217839Y88726D01*
X217934Y88788D01*
X218031Y88846D01*
X218130Y88901D01*
X218231Y88952D01*
X218334Y89000D01*
X218438Y89045D01*
X218544Y89085D01*
X218651Y89122D01*
X218759Y89155D01*
X218869Y89185D01*
X218979Y89210D01*
X219090Y89232D01*
X219202Y89249D01*
X219315Y89263D01*
X219428Y89273D01*
X219541Y89279D01*
X219654Y89281D01*
X224846Y89281D01*
X224846Y89282D02*
X224959Y89280D01*
X225072Y89274D01*
X225185Y89264D01*
X225298Y89250D01*
X225410Y89233D01*
X225521Y89211D01*
X225631Y89186D01*
X225741Y89156D01*
X225849Y89123D01*
X225956Y89086D01*
X226062Y89046D01*
X226166Y89001D01*
X226269Y88953D01*
X226370Y88902D01*
X226469Y88847D01*
X226566Y88789D01*
X226661Y88727D01*
X226754Y88662D01*
X226844Y88594D01*
X226932Y88523D01*
X227018Y88448D01*
X227101Y88371D01*
X227181Y88291D01*
X227258Y88208D01*
X227333Y88122D01*
X227404Y88034D01*
X227472Y87944D01*
X227537Y87851D01*
X227599Y87756D01*
X227657Y87659D01*
X227712Y87560D01*
X227763Y87459D01*
X227811Y87356D01*
X227856Y87252D01*
X227896Y87146D01*
X227933Y87039D01*
X227966Y86931D01*
X227996Y86821D01*
X228021Y86711D01*
X228043Y86600D01*
X228060Y86488D01*
X228074Y86375D01*
X228084Y86262D01*
X228090Y86149D01*
X228092Y86036D01*
X228092Y86035D02*
X228092Y82790D01*
X219004Y94601D02*
X216408Y97846D01*
X228092Y97846D01*
X228092Y94601D02*
X228092Y101092D01*
D13*
X490500Y264050D02*
X490502Y264113D01*
X490508Y264175D01*
X490518Y264237D01*
X490531Y264299D01*
X490549Y264359D01*
X490570Y264418D01*
X490595Y264476D01*
X490624Y264532D01*
X490656Y264586D01*
X490691Y264638D01*
X490729Y264687D01*
X490771Y264735D01*
X490815Y264779D01*
X490863Y264821D01*
X490912Y264859D01*
X490964Y264894D01*
X491018Y264926D01*
X491074Y264955D01*
X491132Y264980D01*
X491191Y265001D01*
X491251Y265019D01*
X491313Y265032D01*
X491375Y265042D01*
X491437Y265048D01*
X491500Y265050D01*
X491563Y265048D01*
X491625Y265042D01*
X491687Y265032D01*
X491749Y265019D01*
X491809Y265001D01*
X491868Y264980D01*
X491926Y264955D01*
X491982Y264926D01*
X492036Y264894D01*
X492088Y264859D01*
X492137Y264821D01*
X492185Y264779D01*
X492229Y264735D01*
X492271Y264687D01*
X492309Y264638D01*
X492344Y264586D01*
X492376Y264532D01*
X492405Y264476D01*
X492430Y264418D01*
X492451Y264359D01*
X492469Y264299D01*
X492482Y264237D01*
X492492Y264175D01*
X492498Y264113D01*
X492500Y264050D01*
X492498Y263987D01*
X492492Y263925D01*
X492482Y263863D01*
X492469Y263801D01*
X492451Y263741D01*
X492430Y263682D01*
X492405Y263624D01*
X492376Y263568D01*
X492344Y263514D01*
X492309Y263462D01*
X492271Y263413D01*
X492229Y263365D01*
X492185Y263321D01*
X492137Y263279D01*
X492088Y263241D01*
X492036Y263206D01*
X491982Y263174D01*
X491926Y263145D01*
X491868Y263120D01*
X491809Y263099D01*
X491749Y263081D01*
X491687Y263068D01*
X491625Y263058D01*
X491563Y263052D01*
X491500Y263050D01*
X491437Y263052D01*
X491375Y263058D01*
X491313Y263068D01*
X491251Y263081D01*
X491191Y263099D01*
X491132Y263120D01*
X491074Y263145D01*
X491018Y263174D01*
X490964Y263206D01*
X490912Y263241D01*
X490863Y263279D01*
X490815Y263321D01*
X490771Y263365D01*
X490729Y263413D01*
X490691Y263462D01*
X490656Y263514D01*
X490624Y263568D01*
X490595Y263624D01*
X490570Y263682D01*
X490549Y263741D01*
X490531Y263801D01*
X490518Y263863D01*
X490508Y263925D01*
X490502Y263987D01*
X490500Y264050D01*
D12*
X515750Y266300D02*
X551050Y266300D01*
X551050Y216300D02*
X515750Y216300D01*
D14*
X498908Y275054D02*
X498908Y283492D01*
X498908Y275054D02*
X498910Y274941D01*
X498916Y274828D01*
X498926Y274715D01*
X498940Y274602D01*
X498957Y274490D01*
X498979Y274379D01*
X499004Y274269D01*
X499034Y274159D01*
X499067Y274051D01*
X499104Y273944D01*
X499144Y273838D01*
X499189Y273734D01*
X499237Y273631D01*
X499288Y273530D01*
X499343Y273431D01*
X499401Y273334D01*
X499463Y273239D01*
X499528Y273146D01*
X499596Y273056D01*
X499667Y272968D01*
X499742Y272882D01*
X499819Y272799D01*
X499899Y272719D01*
X499982Y272642D01*
X500068Y272567D01*
X500156Y272496D01*
X500246Y272428D01*
X500339Y272363D01*
X500434Y272301D01*
X500531Y272243D01*
X500630Y272188D01*
X500731Y272137D01*
X500834Y272089D01*
X500938Y272044D01*
X501044Y272004D01*
X501151Y271967D01*
X501259Y271934D01*
X501369Y271904D01*
X501479Y271879D01*
X501590Y271857D01*
X501702Y271840D01*
X501815Y271826D01*
X501928Y271816D01*
X502041Y271810D01*
X502154Y271808D01*
X502267Y271810D01*
X502380Y271816D01*
X502493Y271826D01*
X502606Y271840D01*
X502718Y271857D01*
X502829Y271879D01*
X502939Y271904D01*
X503049Y271934D01*
X503157Y271967D01*
X503264Y272004D01*
X503370Y272044D01*
X503474Y272089D01*
X503577Y272137D01*
X503678Y272188D01*
X503777Y272243D01*
X503874Y272301D01*
X503969Y272363D01*
X504062Y272428D01*
X504152Y272496D01*
X504240Y272567D01*
X504326Y272642D01*
X504409Y272719D01*
X504489Y272799D01*
X504566Y272882D01*
X504641Y272968D01*
X504712Y273056D01*
X504780Y273146D01*
X504845Y273239D01*
X504907Y273334D01*
X504965Y273431D01*
X505020Y273530D01*
X505071Y273631D01*
X505119Y273734D01*
X505164Y273838D01*
X505204Y273944D01*
X505241Y274051D01*
X505274Y274159D01*
X505304Y274269D01*
X505329Y274379D01*
X505351Y274490D01*
X505368Y274602D01*
X505382Y274715D01*
X505392Y274828D01*
X505398Y274941D01*
X505400Y275054D01*
X505399Y275054D02*
X505399Y283492D01*
X510719Y271808D02*
X513965Y271808D01*
X514078Y271810D01*
X514191Y271816D01*
X514304Y271826D01*
X514417Y271840D01*
X514529Y271857D01*
X514640Y271879D01*
X514750Y271904D01*
X514860Y271934D01*
X514968Y271967D01*
X515075Y272004D01*
X515181Y272044D01*
X515285Y272089D01*
X515388Y272137D01*
X515489Y272188D01*
X515588Y272243D01*
X515685Y272301D01*
X515780Y272363D01*
X515873Y272428D01*
X515963Y272496D01*
X516051Y272567D01*
X516137Y272642D01*
X516220Y272719D01*
X516300Y272799D01*
X516377Y272882D01*
X516452Y272968D01*
X516523Y273056D01*
X516591Y273146D01*
X516656Y273239D01*
X516718Y273334D01*
X516776Y273431D01*
X516831Y273530D01*
X516882Y273631D01*
X516930Y273734D01*
X516975Y273838D01*
X517015Y273944D01*
X517052Y274051D01*
X517085Y274159D01*
X517115Y274269D01*
X517140Y274379D01*
X517162Y274490D01*
X517179Y274602D01*
X517193Y274715D01*
X517203Y274828D01*
X517209Y274941D01*
X517211Y275054D01*
X517209Y275167D01*
X517203Y275280D01*
X517193Y275393D01*
X517179Y275506D01*
X517162Y275618D01*
X517140Y275729D01*
X517115Y275839D01*
X517085Y275949D01*
X517052Y276057D01*
X517015Y276164D01*
X516975Y276270D01*
X516930Y276374D01*
X516882Y276477D01*
X516831Y276578D01*
X516776Y276677D01*
X516718Y276774D01*
X516656Y276869D01*
X516591Y276962D01*
X516523Y277052D01*
X516452Y277140D01*
X516377Y277226D01*
X516300Y277309D01*
X516220Y277389D01*
X516137Y277466D01*
X516051Y277541D01*
X515963Y277612D01*
X515873Y277680D01*
X515780Y277745D01*
X515685Y277807D01*
X515588Y277865D01*
X515489Y277920D01*
X515388Y277971D01*
X515285Y278019D01*
X515181Y278064D01*
X515075Y278104D01*
X514968Y278141D01*
X514860Y278174D01*
X514750Y278204D01*
X514640Y278229D01*
X514529Y278251D01*
X514417Y278268D01*
X514304Y278282D01*
X514191Y278292D01*
X514078Y278298D01*
X513965Y278300D01*
X514614Y283492D02*
X510719Y283492D01*
X514614Y283492D02*
X514715Y283490D01*
X514815Y283484D01*
X514915Y283474D01*
X515015Y283461D01*
X515114Y283443D01*
X515213Y283422D01*
X515310Y283397D01*
X515407Y283368D01*
X515502Y283335D01*
X515596Y283299D01*
X515688Y283259D01*
X515779Y283216D01*
X515868Y283169D01*
X515955Y283119D01*
X516041Y283065D01*
X516124Y283008D01*
X516204Y282948D01*
X516283Y282885D01*
X516359Y282818D01*
X516432Y282749D01*
X516502Y282677D01*
X516570Y282603D01*
X516635Y282526D01*
X516696Y282446D01*
X516755Y282364D01*
X516810Y282280D01*
X516862Y282194D01*
X516911Y282106D01*
X516956Y282016D01*
X516998Y281924D01*
X517036Y281831D01*
X517070Y281736D01*
X517101Y281641D01*
X517128Y281544D01*
X517151Y281446D01*
X517171Y281347D01*
X517186Y281247D01*
X517198Y281147D01*
X517206Y281047D01*
X517210Y280946D01*
X517210Y280846D01*
X517206Y280745D01*
X517198Y280645D01*
X517186Y280545D01*
X517171Y280445D01*
X517151Y280346D01*
X517128Y280248D01*
X517101Y280151D01*
X517070Y280056D01*
X517036Y279961D01*
X516998Y279868D01*
X516956Y279776D01*
X516911Y279686D01*
X516862Y279598D01*
X516810Y279512D01*
X516755Y279428D01*
X516696Y279346D01*
X516635Y279266D01*
X516570Y279189D01*
X516502Y279115D01*
X516432Y279043D01*
X516359Y278974D01*
X516283Y278907D01*
X516204Y278844D01*
X516124Y278784D01*
X516041Y278727D01*
X515955Y278673D01*
X515868Y278623D01*
X515779Y278576D01*
X515688Y278533D01*
X515596Y278493D01*
X515502Y278457D01*
X515407Y278424D01*
X515310Y278395D01*
X515213Y278370D01*
X515114Y278349D01*
X515015Y278331D01*
X514915Y278318D01*
X514815Y278308D01*
X514715Y278302D01*
X514614Y278300D01*
X514614Y278299D02*
X512017Y278299D01*
D19*
X111200Y376600D03*
D13*
X36300Y192500D02*
X36300Y188500D01*
X36300Y192500D02*
X65300Y192500D01*
X65300Y188500D01*
X36300Y188500D01*
X35800Y185000D02*
X35800Y174000D01*
D14*
X3883Y175204D02*
X3883Y180396D01*
X3882Y180396D02*
X3884Y180509D01*
X3890Y180622D01*
X3900Y180735D01*
X3914Y180848D01*
X3931Y180960D01*
X3953Y181071D01*
X3978Y181181D01*
X4008Y181291D01*
X4041Y181399D01*
X4078Y181506D01*
X4118Y181612D01*
X4163Y181716D01*
X4211Y181819D01*
X4262Y181920D01*
X4317Y182019D01*
X4375Y182116D01*
X4437Y182211D01*
X4502Y182304D01*
X4570Y182394D01*
X4641Y182482D01*
X4716Y182568D01*
X4793Y182651D01*
X4873Y182731D01*
X4956Y182808D01*
X5042Y182883D01*
X5130Y182954D01*
X5220Y183022D01*
X5313Y183087D01*
X5408Y183149D01*
X5505Y183207D01*
X5604Y183262D01*
X5705Y183313D01*
X5808Y183361D01*
X5912Y183406D01*
X6018Y183446D01*
X6125Y183483D01*
X6233Y183516D01*
X6343Y183546D01*
X6453Y183571D01*
X6564Y183593D01*
X6676Y183610D01*
X6789Y183624D01*
X6902Y183634D01*
X7015Y183640D01*
X7128Y183642D01*
X7241Y183640D01*
X7354Y183634D01*
X7467Y183624D01*
X7580Y183610D01*
X7692Y183593D01*
X7803Y183571D01*
X7913Y183546D01*
X8023Y183516D01*
X8131Y183483D01*
X8238Y183446D01*
X8344Y183406D01*
X8448Y183361D01*
X8551Y183313D01*
X8652Y183262D01*
X8751Y183207D01*
X8848Y183149D01*
X8943Y183087D01*
X9036Y183022D01*
X9126Y182954D01*
X9214Y182883D01*
X9300Y182808D01*
X9383Y182731D01*
X9463Y182651D01*
X9540Y182568D01*
X9615Y182482D01*
X9686Y182394D01*
X9754Y182304D01*
X9819Y182211D01*
X9881Y182116D01*
X9939Y182019D01*
X9994Y181920D01*
X10045Y181819D01*
X10093Y181716D01*
X10138Y181612D01*
X10178Y181506D01*
X10215Y181399D01*
X10248Y181291D01*
X10278Y181181D01*
X10303Y181071D01*
X10325Y180960D01*
X10342Y180848D01*
X10356Y180735D01*
X10366Y180622D01*
X10372Y180509D01*
X10374Y180396D01*
X10374Y175204D01*
X10372Y175091D01*
X10366Y174978D01*
X10356Y174865D01*
X10342Y174752D01*
X10325Y174640D01*
X10303Y174529D01*
X10278Y174419D01*
X10248Y174309D01*
X10215Y174201D01*
X10178Y174094D01*
X10138Y173988D01*
X10093Y173884D01*
X10045Y173781D01*
X9994Y173680D01*
X9939Y173581D01*
X9881Y173484D01*
X9819Y173389D01*
X9754Y173296D01*
X9686Y173206D01*
X9615Y173118D01*
X9540Y173032D01*
X9463Y172949D01*
X9383Y172869D01*
X9300Y172792D01*
X9214Y172717D01*
X9126Y172646D01*
X9036Y172578D01*
X8943Y172513D01*
X8848Y172451D01*
X8751Y172393D01*
X8652Y172338D01*
X8551Y172287D01*
X8448Y172239D01*
X8344Y172194D01*
X8238Y172154D01*
X8131Y172117D01*
X8023Y172084D01*
X7913Y172054D01*
X7803Y172029D01*
X7692Y172007D01*
X7580Y171990D01*
X7467Y171976D01*
X7354Y171966D01*
X7241Y171960D01*
X7128Y171958D01*
X7015Y171960D01*
X6902Y171966D01*
X6789Y171976D01*
X6676Y171990D01*
X6564Y172007D01*
X6453Y172029D01*
X6343Y172054D01*
X6233Y172084D01*
X6125Y172117D01*
X6018Y172154D01*
X5912Y172194D01*
X5808Y172239D01*
X5705Y172287D01*
X5604Y172338D01*
X5505Y172393D01*
X5408Y172451D01*
X5313Y172513D01*
X5220Y172578D01*
X5130Y172646D01*
X5042Y172717D01*
X4956Y172792D01*
X4873Y172869D01*
X4793Y172949D01*
X4716Y173032D01*
X4641Y173118D01*
X4570Y173206D01*
X4502Y173296D01*
X4437Y173389D01*
X4375Y173484D01*
X4317Y173581D01*
X4262Y173680D01*
X4211Y173781D01*
X4163Y173884D01*
X4118Y173988D01*
X4078Y174094D01*
X4041Y174201D01*
X4008Y174309D01*
X3978Y174419D01*
X3953Y174529D01*
X3931Y174640D01*
X3914Y174752D01*
X3900Y174865D01*
X3890Y174978D01*
X3884Y175091D01*
X3882Y175204D01*
X9075Y174554D02*
X11672Y171958D01*
X15026Y181046D02*
X18272Y183642D01*
X18272Y171958D01*
X21517Y171958D02*
X15026Y171958D01*
D20*
X22600Y93000D03*
D21*
X-400Y90500D03*
D12*
X431800Y487680D02*
X439420Y495300D01*
X474980Y495300D01*
X482600Y487680D01*
X482600Y474980D01*
X477520Y469900D01*
X482600Y464820D01*
X482600Y449580D01*
X477520Y444500D01*
X482600Y439420D01*
X482600Y426720D01*
X474980Y419100D01*
X439420Y419100D01*
X431800Y426720D01*
X431800Y439420D01*
X436880Y444500D01*
X431800Y449580D01*
X431800Y464820D01*
X436880Y469900D01*
X431800Y474980D01*
X431800Y487680D01*
D15*
X427101Y500451D02*
X429712Y502539D01*
X429712Y493141D01*
X432322Y493141D02*
X427101Y493141D01*
D14*
X426212Y428526D02*
X414528Y428526D01*
X426212Y427228D02*
X426212Y429824D01*
X414528Y429824D02*
X414528Y427228D01*
X426212Y437938D02*
X426210Y438037D01*
X426204Y438137D01*
X426195Y438236D01*
X426182Y438334D01*
X426165Y438432D01*
X426144Y438530D01*
X426119Y438626D01*
X426091Y438721D01*
X426059Y438815D01*
X426024Y438908D01*
X425985Y439000D01*
X425942Y439090D01*
X425897Y439178D01*
X425847Y439265D01*
X425795Y439349D01*
X425739Y439432D01*
X425681Y439512D01*
X425619Y439590D01*
X425554Y439665D01*
X425486Y439738D01*
X425416Y439808D01*
X425343Y439876D01*
X425268Y439941D01*
X425190Y440003D01*
X425110Y440061D01*
X425027Y440117D01*
X424943Y440169D01*
X424856Y440219D01*
X424768Y440264D01*
X424678Y440307D01*
X424586Y440346D01*
X424493Y440381D01*
X424399Y440413D01*
X424304Y440441D01*
X424208Y440466D01*
X424110Y440487D01*
X424012Y440504D01*
X423914Y440517D01*
X423815Y440526D01*
X423715Y440532D01*
X423616Y440534D01*
X426212Y437938D02*
X426210Y437794D01*
X426204Y437649D01*
X426195Y437505D01*
X426182Y437362D01*
X426165Y437218D01*
X426144Y437075D01*
X426119Y436933D01*
X426091Y436792D01*
X426059Y436651D01*
X426023Y436511D01*
X425984Y436372D01*
X425941Y436234D01*
X425894Y436098D01*
X425844Y435962D01*
X425790Y435828D01*
X425733Y435696D01*
X425672Y435565D01*
X425608Y435436D01*
X425540Y435308D01*
X425470Y435182D01*
X425395Y435058D01*
X425318Y434937D01*
X425237Y434817D01*
X425154Y434699D01*
X425067Y434584D01*
X424977Y434471D01*
X424884Y434360D01*
X424789Y434252D01*
X424690Y434146D01*
X424589Y434043D01*
X417124Y434369D02*
X417025Y434371D01*
X416925Y434377D01*
X416826Y434386D01*
X416728Y434399D01*
X416630Y434416D01*
X416532Y434437D01*
X416436Y434462D01*
X416341Y434490D01*
X416247Y434522D01*
X416154Y434557D01*
X416062Y434596D01*
X415972Y434639D01*
X415884Y434684D01*
X415797Y434734D01*
X415713Y434786D01*
X415630Y434842D01*
X415550Y434900D01*
X415472Y434962D01*
X415397Y435027D01*
X415324Y435095D01*
X415254Y435165D01*
X415186Y435238D01*
X415121Y435313D01*
X415059Y435391D01*
X415001Y435471D01*
X414945Y435554D01*
X414893Y435638D01*
X414843Y435725D01*
X414798Y435813D01*
X414755Y435903D01*
X414716Y435995D01*
X414681Y436088D01*
X414649Y436182D01*
X414621Y436277D01*
X414596Y436373D01*
X414575Y436471D01*
X414558Y436569D01*
X414545Y436667D01*
X414536Y436766D01*
X414530Y436866D01*
X414528Y436965D01*
X414530Y437101D01*
X414536Y437237D01*
X414545Y437373D01*
X414558Y437509D01*
X414576Y437644D01*
X414596Y437778D01*
X414621Y437912D01*
X414649Y438046D01*
X414682Y438178D01*
X414717Y438309D01*
X414757Y438440D01*
X414800Y438569D01*
X414846Y438697D01*
X414897Y438823D01*
X414950Y438949D01*
X415008Y439072D01*
X415068Y439194D01*
X415132Y439314D01*
X415200Y439433D01*
X415270Y439549D01*
X415344Y439663D01*
X415421Y439776D01*
X415502Y439886D01*
X419396Y435666D02*
X419343Y435580D01*
X419286Y435496D01*
X419227Y435414D01*
X419164Y435334D01*
X419098Y435257D01*
X419030Y435182D01*
X418958Y435110D01*
X418884Y435041D01*
X418807Y434975D01*
X418728Y434912D01*
X418646Y434852D01*
X418562Y434795D01*
X418476Y434741D01*
X418388Y434691D01*
X418298Y434644D01*
X418207Y434600D01*
X418113Y434561D01*
X418019Y434524D01*
X417923Y434492D01*
X417825Y434463D01*
X417727Y434438D01*
X417628Y434417D01*
X417528Y434399D01*
X417428Y434386D01*
X417327Y434376D01*
X417225Y434370D01*
X417124Y434368D01*
X421344Y439237D02*
X421397Y439323D01*
X421454Y439407D01*
X421513Y439489D01*
X421576Y439569D01*
X421642Y439646D01*
X421710Y439721D01*
X421782Y439793D01*
X421856Y439862D01*
X421933Y439928D01*
X422012Y439991D01*
X422094Y440051D01*
X422178Y440108D01*
X422264Y440162D01*
X422352Y440212D01*
X422442Y440259D01*
X422533Y440303D01*
X422627Y440342D01*
X422721Y440379D01*
X422817Y440411D01*
X422915Y440440D01*
X423013Y440465D01*
X423112Y440486D01*
X423212Y440504D01*
X423312Y440517D01*
X423413Y440527D01*
X423515Y440533D01*
X423616Y440535D01*
X421344Y439237D02*
X419396Y435666D01*
X414528Y445643D02*
X426212Y445643D01*
X414528Y445643D02*
X414528Y448889D01*
X414530Y449002D01*
X414536Y449115D01*
X414546Y449228D01*
X414560Y449341D01*
X414577Y449453D01*
X414599Y449564D01*
X414624Y449674D01*
X414654Y449784D01*
X414687Y449892D01*
X414724Y449999D01*
X414764Y450105D01*
X414809Y450209D01*
X414857Y450312D01*
X414908Y450413D01*
X414963Y450512D01*
X415021Y450609D01*
X415083Y450704D01*
X415148Y450797D01*
X415216Y450887D01*
X415287Y450975D01*
X415362Y451061D01*
X415439Y451144D01*
X415519Y451224D01*
X415602Y451301D01*
X415688Y451376D01*
X415776Y451447D01*
X415866Y451515D01*
X415959Y451580D01*
X416054Y451642D01*
X416151Y451700D01*
X416250Y451755D01*
X416351Y451806D01*
X416454Y451854D01*
X416558Y451899D01*
X416664Y451939D01*
X416771Y451976D01*
X416879Y452009D01*
X416989Y452039D01*
X417099Y452064D01*
X417210Y452086D01*
X417322Y452103D01*
X417435Y452117D01*
X417548Y452127D01*
X417661Y452133D01*
X417774Y452135D01*
X417887Y452133D01*
X418000Y452127D01*
X418113Y452117D01*
X418226Y452103D01*
X418338Y452086D01*
X418449Y452064D01*
X418559Y452039D01*
X418669Y452009D01*
X418777Y451976D01*
X418884Y451939D01*
X418990Y451899D01*
X419094Y451854D01*
X419197Y451806D01*
X419298Y451755D01*
X419397Y451700D01*
X419494Y451642D01*
X419589Y451580D01*
X419682Y451515D01*
X419772Y451447D01*
X419860Y451376D01*
X419946Y451301D01*
X420029Y451224D01*
X420109Y451144D01*
X420186Y451061D01*
X420261Y450975D01*
X420332Y450887D01*
X420400Y450797D01*
X420465Y450704D01*
X420527Y450609D01*
X420585Y450512D01*
X420640Y450413D01*
X420691Y450312D01*
X420739Y450209D01*
X420784Y450105D01*
X420824Y449999D01*
X420861Y449892D01*
X420894Y449784D01*
X420924Y449674D01*
X420949Y449564D01*
X420971Y449453D01*
X420988Y449341D01*
X421002Y449228D01*
X421012Y449115D01*
X421018Y449002D01*
X421020Y448889D01*
X421019Y448889D02*
X421019Y445643D01*
X417124Y456523D02*
X414528Y459768D01*
X426212Y459768D01*
X426212Y456523D02*
X426212Y463014D01*
X316992Y311658D02*
X305308Y311658D01*
X305308Y314904D01*
X305310Y315017D01*
X305316Y315130D01*
X305326Y315243D01*
X305340Y315356D01*
X305357Y315468D01*
X305379Y315579D01*
X305404Y315689D01*
X305434Y315799D01*
X305467Y315907D01*
X305504Y316014D01*
X305544Y316120D01*
X305589Y316224D01*
X305637Y316327D01*
X305688Y316428D01*
X305743Y316527D01*
X305801Y316624D01*
X305863Y316719D01*
X305928Y316812D01*
X305996Y316902D01*
X306067Y316990D01*
X306142Y317076D01*
X306219Y317159D01*
X306299Y317239D01*
X306382Y317316D01*
X306468Y317391D01*
X306556Y317462D01*
X306646Y317530D01*
X306739Y317595D01*
X306834Y317657D01*
X306931Y317715D01*
X307030Y317770D01*
X307131Y317821D01*
X307234Y317869D01*
X307338Y317914D01*
X307444Y317954D01*
X307551Y317991D01*
X307659Y318024D01*
X307769Y318054D01*
X307879Y318079D01*
X307990Y318101D01*
X308102Y318118D01*
X308215Y318132D01*
X308328Y318142D01*
X308441Y318148D01*
X308554Y318150D01*
X308667Y318148D01*
X308780Y318142D01*
X308893Y318132D01*
X309006Y318118D01*
X309118Y318101D01*
X309229Y318079D01*
X309339Y318054D01*
X309449Y318024D01*
X309557Y317991D01*
X309664Y317954D01*
X309770Y317914D01*
X309874Y317869D01*
X309977Y317821D01*
X310078Y317770D01*
X310177Y317715D01*
X310274Y317657D01*
X310369Y317595D01*
X310462Y317530D01*
X310552Y317462D01*
X310640Y317391D01*
X310726Y317316D01*
X310809Y317239D01*
X310889Y317159D01*
X310966Y317076D01*
X311041Y316990D01*
X311112Y316902D01*
X311180Y316812D01*
X311245Y316719D01*
X311307Y316624D01*
X311365Y316527D01*
X311420Y316428D01*
X311471Y316327D01*
X311519Y316224D01*
X311564Y316120D01*
X311604Y316014D01*
X311641Y315907D01*
X311674Y315799D01*
X311704Y315689D01*
X311729Y315579D01*
X311751Y315468D01*
X311768Y315356D01*
X311782Y315243D01*
X311792Y315130D01*
X311798Y315017D01*
X311800Y314904D01*
X311799Y314904D02*
X311799Y311658D01*
X311799Y315553D02*
X316992Y318149D01*
X307904Y323014D02*
X305308Y326260D01*
X316992Y326260D01*
X316992Y329505D02*
X316992Y323014D01*
X311150Y334444D02*
X310920Y334447D01*
X310690Y334455D01*
X310461Y334469D01*
X310232Y334488D01*
X310003Y334513D01*
X309775Y334543D01*
X309548Y334578D01*
X309322Y334619D01*
X309097Y334665D01*
X308873Y334717D01*
X308650Y334774D01*
X308429Y334836D01*
X308209Y334904D01*
X307991Y334977D01*
X307775Y335055D01*
X307561Y335138D01*
X307349Y335226D01*
X307138Y335319D01*
X306931Y335418D01*
X306841Y335451D01*
X306752Y335487D01*
X306664Y335527D01*
X306579Y335571D01*
X306495Y335618D01*
X306413Y335668D01*
X306333Y335722D01*
X306256Y335778D01*
X306180Y335838D01*
X306107Y335901D01*
X306037Y335966D01*
X305969Y336035D01*
X305905Y336106D01*
X305843Y336179D01*
X305784Y336255D01*
X305728Y336333D01*
X305675Y336414D01*
X305626Y336496D01*
X305580Y336580D01*
X305537Y336667D01*
X305498Y336754D01*
X305462Y336844D01*
X305430Y336934D01*
X305402Y337026D01*
X305377Y337119D01*
X305356Y337213D01*
X305339Y337307D01*
X305325Y337402D01*
X305316Y337498D01*
X305310Y337594D01*
X305308Y337690D01*
X305310Y337786D01*
X305316Y337882D01*
X305325Y337978D01*
X305339Y338073D01*
X305356Y338167D01*
X305377Y338261D01*
X305402Y338354D01*
X305430Y338446D01*
X305462Y338536D01*
X305498Y338626D01*
X305537Y338714D01*
X305580Y338800D01*
X305626Y338884D01*
X305675Y338966D01*
X305728Y339047D01*
X305784Y339125D01*
X305843Y339201D01*
X305905Y339274D01*
X305969Y339345D01*
X306037Y339414D01*
X306107Y339479D01*
X306180Y339542D01*
X306256Y339602D01*
X306333Y339658D01*
X306413Y339712D01*
X306495Y339762D01*
X306579Y339809D01*
X306664Y339853D01*
X306752Y339893D01*
X306841Y339929D01*
X306931Y339962D01*
X307138Y340061D01*
X307349Y340154D01*
X307561Y340242D01*
X307775Y340325D01*
X307991Y340403D01*
X308209Y340476D01*
X308429Y340544D01*
X308650Y340606D01*
X308873Y340663D01*
X309097Y340715D01*
X309322Y340761D01*
X309548Y340802D01*
X309775Y340837D01*
X310003Y340867D01*
X310232Y340892D01*
X310461Y340911D01*
X310690Y340925D01*
X310920Y340933D01*
X311150Y340936D01*
X311150Y334444D02*
X311380Y334447D01*
X311610Y334455D01*
X311839Y334469D01*
X312068Y334488D01*
X312297Y334513D01*
X312525Y334543D01*
X312752Y334578D01*
X312978Y334619D01*
X313203Y334665D01*
X313427Y334717D01*
X313650Y334774D01*
X313871Y334836D01*
X314091Y334904D01*
X314309Y334977D01*
X314525Y335055D01*
X314739Y335138D01*
X314951Y335226D01*
X315162Y335319D01*
X315369Y335418D01*
X315459Y335451D01*
X315548Y335487D01*
X315636Y335528D01*
X315721Y335571D01*
X315805Y335618D01*
X315887Y335668D01*
X315967Y335722D01*
X316044Y335778D01*
X316120Y335838D01*
X316193Y335901D01*
X316263Y335966D01*
X316331Y336035D01*
X316395Y336106D01*
X316457Y336179D01*
X316516Y336255D01*
X316572Y336333D01*
X316625Y336414D01*
X316674Y336496D01*
X316720Y336580D01*
X316763Y336667D01*
X316802Y336754D01*
X316838Y336844D01*
X316870Y336934D01*
X316898Y337026D01*
X316923Y337119D01*
X316944Y337213D01*
X316961Y337307D01*
X316975Y337402D01*
X316984Y337498D01*
X316990Y337594D01*
X316992Y337690D01*
X315369Y339962D02*
X315162Y340061D01*
X314951Y340154D01*
X314739Y340242D01*
X314525Y340325D01*
X314309Y340403D01*
X314091Y340476D01*
X313871Y340544D01*
X313650Y340606D01*
X313427Y340663D01*
X313203Y340715D01*
X312978Y340761D01*
X312752Y340802D01*
X312525Y340837D01*
X312297Y340867D01*
X312068Y340892D01*
X311839Y340911D01*
X311610Y340925D01*
X311380Y340933D01*
X311150Y340936D01*
X315369Y339962D02*
X315459Y339929D01*
X315548Y339893D01*
X315636Y339853D01*
X315721Y339809D01*
X315805Y339762D01*
X315887Y339712D01*
X315967Y339658D01*
X316044Y339602D01*
X316120Y339542D01*
X316193Y339479D01*
X316263Y339414D01*
X316331Y339345D01*
X316395Y339274D01*
X316457Y339201D01*
X316516Y339125D01*
X316572Y339047D01*
X316625Y338966D01*
X316674Y338884D01*
X316720Y338800D01*
X316763Y338713D01*
X316802Y338626D01*
X316838Y338536D01*
X316870Y338446D01*
X316898Y338354D01*
X316923Y338261D01*
X316944Y338167D01*
X316961Y338073D01*
X316975Y337978D01*
X316984Y337882D01*
X316990Y337786D01*
X316992Y337690D01*
X314396Y335093D02*
X307904Y340286D01*
X343408Y349758D02*
X355092Y349758D01*
X343408Y349758D02*
X343408Y353004D01*
X343410Y353117D01*
X343416Y353230D01*
X343426Y353343D01*
X343440Y353456D01*
X343457Y353568D01*
X343479Y353679D01*
X343504Y353789D01*
X343534Y353899D01*
X343567Y354007D01*
X343604Y354114D01*
X343644Y354220D01*
X343689Y354324D01*
X343737Y354427D01*
X343788Y354528D01*
X343843Y354627D01*
X343901Y354724D01*
X343963Y354819D01*
X344028Y354912D01*
X344096Y355002D01*
X344167Y355090D01*
X344242Y355176D01*
X344319Y355259D01*
X344399Y355339D01*
X344482Y355416D01*
X344568Y355491D01*
X344656Y355562D01*
X344746Y355630D01*
X344839Y355695D01*
X344934Y355757D01*
X345031Y355815D01*
X345130Y355870D01*
X345231Y355921D01*
X345334Y355969D01*
X345438Y356014D01*
X345544Y356054D01*
X345651Y356091D01*
X345759Y356124D01*
X345869Y356154D01*
X345979Y356179D01*
X346090Y356201D01*
X346202Y356218D01*
X346315Y356232D01*
X346428Y356242D01*
X346541Y356248D01*
X346654Y356250D01*
X346767Y356248D01*
X346880Y356242D01*
X346993Y356232D01*
X347106Y356218D01*
X347218Y356201D01*
X347329Y356179D01*
X347439Y356154D01*
X347549Y356124D01*
X347657Y356091D01*
X347764Y356054D01*
X347870Y356014D01*
X347974Y355969D01*
X348077Y355921D01*
X348178Y355870D01*
X348277Y355815D01*
X348374Y355757D01*
X348469Y355695D01*
X348562Y355630D01*
X348652Y355562D01*
X348740Y355491D01*
X348826Y355416D01*
X348909Y355339D01*
X348989Y355259D01*
X349066Y355176D01*
X349141Y355090D01*
X349212Y355002D01*
X349280Y354912D01*
X349345Y354819D01*
X349407Y354724D01*
X349465Y354627D01*
X349520Y354528D01*
X349571Y354427D01*
X349619Y354324D01*
X349664Y354220D01*
X349704Y354114D01*
X349741Y354007D01*
X349774Y353899D01*
X349804Y353789D01*
X349829Y353679D01*
X349851Y353568D01*
X349868Y353456D01*
X349882Y353343D01*
X349892Y353230D01*
X349898Y353117D01*
X349900Y353004D01*
X349899Y353004D02*
X349899Y349758D01*
X349899Y353653D02*
X355092Y356249D01*
X346004Y361114D02*
X343408Y364360D01*
X355092Y364360D01*
X355092Y367605D02*
X355092Y361114D01*
X346004Y372544D02*
X343408Y375790D01*
X355092Y375790D01*
X355092Y379035D02*
X355092Y372544D01*
X583692Y460304D02*
X583692Y462901D01*
X583692Y460304D02*
X583690Y460205D01*
X583684Y460105D01*
X583675Y460006D01*
X583662Y459908D01*
X583645Y459810D01*
X583624Y459712D01*
X583599Y459616D01*
X583571Y459521D01*
X583539Y459427D01*
X583504Y459334D01*
X583465Y459242D01*
X583422Y459152D01*
X583377Y459064D01*
X583327Y458977D01*
X583275Y458893D01*
X583219Y458810D01*
X583161Y458730D01*
X583099Y458652D01*
X583034Y458577D01*
X582966Y458504D01*
X582896Y458434D01*
X582823Y458366D01*
X582748Y458301D01*
X582670Y458239D01*
X582590Y458181D01*
X582507Y458125D01*
X582423Y458073D01*
X582336Y458023D01*
X582248Y457978D01*
X582158Y457935D01*
X582066Y457896D01*
X581973Y457861D01*
X581879Y457829D01*
X581784Y457801D01*
X581688Y457776D01*
X581590Y457755D01*
X581492Y457738D01*
X581394Y457725D01*
X581295Y457716D01*
X581195Y457710D01*
X581096Y457708D01*
X574604Y457708D01*
X574505Y457710D01*
X574405Y457716D01*
X574306Y457725D01*
X574208Y457738D01*
X574110Y457756D01*
X574012Y457776D01*
X573916Y457801D01*
X573820Y457829D01*
X573726Y457861D01*
X573633Y457896D01*
X573542Y457935D01*
X573452Y457978D01*
X573363Y458023D01*
X573277Y458073D01*
X573192Y458125D01*
X573110Y458181D01*
X573030Y458240D01*
X572952Y458301D01*
X572876Y458366D01*
X572803Y458434D01*
X572733Y458504D01*
X572665Y458577D01*
X572600Y458653D01*
X572539Y458731D01*
X572480Y458811D01*
X572424Y458893D01*
X572372Y458978D01*
X572323Y459064D01*
X572277Y459153D01*
X572234Y459243D01*
X572195Y459334D01*
X572160Y459427D01*
X572128Y459521D01*
X572100Y459617D01*
X572075Y459713D01*
X572055Y459811D01*
X572037Y459909D01*
X572024Y460007D01*
X572015Y460106D01*
X572009Y460205D01*
X572007Y460305D01*
X572008Y460304D02*
X572008Y462901D01*
X574604Y467266D02*
X572008Y470512D01*
X583692Y470512D01*
X583692Y473757D02*
X583692Y467266D01*
X418592Y374001D02*
X418592Y371404D01*
X418590Y371305D01*
X418584Y371205D01*
X418575Y371106D01*
X418562Y371008D01*
X418545Y370910D01*
X418524Y370812D01*
X418499Y370716D01*
X418471Y370621D01*
X418439Y370527D01*
X418404Y370434D01*
X418365Y370342D01*
X418322Y370252D01*
X418277Y370164D01*
X418227Y370077D01*
X418175Y369993D01*
X418119Y369910D01*
X418061Y369830D01*
X417999Y369752D01*
X417934Y369677D01*
X417866Y369604D01*
X417796Y369534D01*
X417723Y369466D01*
X417648Y369401D01*
X417570Y369339D01*
X417490Y369281D01*
X417407Y369225D01*
X417323Y369173D01*
X417236Y369123D01*
X417148Y369078D01*
X417058Y369035D01*
X416966Y368996D01*
X416873Y368961D01*
X416779Y368929D01*
X416684Y368901D01*
X416588Y368876D01*
X416490Y368855D01*
X416392Y368838D01*
X416294Y368825D01*
X416195Y368816D01*
X416095Y368810D01*
X415996Y368808D01*
X409504Y368808D01*
X409405Y368810D01*
X409305Y368816D01*
X409206Y368825D01*
X409108Y368838D01*
X409010Y368856D01*
X408912Y368876D01*
X408816Y368901D01*
X408720Y368929D01*
X408626Y368961D01*
X408533Y368996D01*
X408442Y369035D01*
X408352Y369078D01*
X408263Y369123D01*
X408177Y369173D01*
X408092Y369225D01*
X408010Y369281D01*
X407930Y369340D01*
X407852Y369401D01*
X407776Y369466D01*
X407703Y369534D01*
X407633Y369604D01*
X407565Y369677D01*
X407500Y369753D01*
X407439Y369831D01*
X407380Y369911D01*
X407324Y369993D01*
X407272Y370078D01*
X407223Y370164D01*
X407177Y370253D01*
X407134Y370343D01*
X407095Y370434D01*
X407060Y370527D01*
X407028Y370621D01*
X407000Y370717D01*
X406975Y370813D01*
X406955Y370911D01*
X406937Y371009D01*
X406924Y371107D01*
X406915Y371206D01*
X406909Y371305D01*
X406907Y371405D01*
X406908Y371404D02*
X406908Y374001D01*
X406908Y381936D02*
X406910Y382043D01*
X406916Y382149D01*
X406926Y382255D01*
X406939Y382361D01*
X406957Y382467D01*
X406978Y382571D01*
X407003Y382675D01*
X407032Y382778D01*
X407064Y382879D01*
X407101Y382979D01*
X407141Y383078D01*
X407184Y383176D01*
X407231Y383272D01*
X407282Y383366D01*
X407336Y383458D01*
X407393Y383548D01*
X407453Y383636D01*
X407517Y383721D01*
X407584Y383804D01*
X407654Y383885D01*
X407726Y383963D01*
X407802Y384039D01*
X407880Y384111D01*
X407961Y384181D01*
X408044Y384248D01*
X408129Y384312D01*
X408217Y384372D01*
X408307Y384429D01*
X408399Y384483D01*
X408493Y384534D01*
X408589Y384581D01*
X408687Y384624D01*
X408786Y384664D01*
X408886Y384701D01*
X408987Y384733D01*
X409090Y384762D01*
X409194Y384787D01*
X409298Y384808D01*
X409404Y384826D01*
X409510Y384839D01*
X409616Y384849D01*
X409722Y384855D01*
X409829Y384857D01*
X406908Y381936D02*
X406910Y381815D01*
X406916Y381694D01*
X406926Y381574D01*
X406939Y381453D01*
X406957Y381334D01*
X406978Y381214D01*
X407003Y381096D01*
X407032Y380979D01*
X407065Y380862D01*
X407101Y380747D01*
X407142Y380633D01*
X407185Y380520D01*
X407233Y380408D01*
X407284Y380299D01*
X407339Y380191D01*
X407397Y380084D01*
X407458Y379980D01*
X407523Y379878D01*
X407591Y379778D01*
X407662Y379680D01*
X407736Y379584D01*
X407813Y379491D01*
X407894Y379401D01*
X407977Y379313D01*
X408063Y379228D01*
X408152Y379145D01*
X408243Y379066D01*
X408337Y378989D01*
X408433Y378916D01*
X408531Y378846D01*
X408632Y378779D01*
X408735Y378715D01*
X408840Y378655D01*
X408947Y378597D01*
X409055Y378544D01*
X409165Y378494D01*
X409277Y378448D01*
X409390Y378405D01*
X409505Y378366D01*
X412101Y383883D02*
X412023Y383962D01*
X411943Y384038D01*
X411860Y384111D01*
X411774Y384181D01*
X411687Y384248D01*
X411596Y384312D01*
X411504Y384372D01*
X411410Y384430D01*
X411313Y384484D01*
X411215Y384534D01*
X411115Y384581D01*
X411014Y384625D01*
X410911Y384665D01*
X410806Y384701D01*
X410701Y384733D01*
X410594Y384762D01*
X410487Y384787D01*
X410378Y384809D01*
X410269Y384826D01*
X410160Y384840D01*
X410050Y384849D01*
X409939Y384855D01*
X409829Y384857D01*
X412101Y383884D02*
X418592Y378366D01*
X418592Y384857D01*
X331536Y191008D02*
X328939Y191008D01*
X328840Y191010D01*
X328740Y191016D01*
X328641Y191025D01*
X328543Y191038D01*
X328445Y191055D01*
X328347Y191076D01*
X328251Y191101D01*
X328156Y191129D01*
X328062Y191161D01*
X327969Y191196D01*
X327877Y191235D01*
X327787Y191278D01*
X327699Y191323D01*
X327612Y191373D01*
X327528Y191425D01*
X327445Y191481D01*
X327365Y191539D01*
X327287Y191601D01*
X327212Y191666D01*
X327139Y191734D01*
X327069Y191804D01*
X327001Y191877D01*
X326936Y191952D01*
X326874Y192030D01*
X326816Y192110D01*
X326760Y192193D01*
X326708Y192277D01*
X326658Y192364D01*
X326613Y192452D01*
X326570Y192542D01*
X326531Y192634D01*
X326496Y192727D01*
X326464Y192821D01*
X326436Y192916D01*
X326411Y193012D01*
X326390Y193110D01*
X326373Y193208D01*
X326360Y193306D01*
X326351Y193405D01*
X326345Y193505D01*
X326343Y193604D01*
X326343Y200096D01*
X326345Y200195D01*
X326351Y200295D01*
X326360Y200394D01*
X326373Y200492D01*
X326390Y200590D01*
X326411Y200688D01*
X326436Y200784D01*
X326464Y200879D01*
X326496Y200973D01*
X326531Y201066D01*
X326570Y201158D01*
X326613Y201248D01*
X326658Y201336D01*
X326708Y201423D01*
X326760Y201507D01*
X326816Y201590D01*
X326874Y201670D01*
X326936Y201748D01*
X327001Y201823D01*
X327069Y201896D01*
X327139Y201966D01*
X327212Y202034D01*
X327287Y202099D01*
X327365Y202161D01*
X327445Y202219D01*
X327528Y202275D01*
X327612Y202327D01*
X327699Y202377D01*
X327787Y202422D01*
X327877Y202465D01*
X327969Y202504D01*
X328061Y202539D01*
X328156Y202571D01*
X328251Y202599D01*
X328347Y202624D01*
X328445Y202645D01*
X328543Y202662D01*
X328641Y202675D01*
X328740Y202684D01*
X328840Y202690D01*
X328939Y202692D01*
X331536Y202692D01*
X335901Y191008D02*
X339146Y191008D01*
X339259Y191010D01*
X339372Y191016D01*
X339485Y191026D01*
X339598Y191040D01*
X339710Y191057D01*
X339821Y191079D01*
X339931Y191104D01*
X340041Y191134D01*
X340149Y191167D01*
X340256Y191204D01*
X340362Y191244D01*
X340466Y191289D01*
X340569Y191337D01*
X340670Y191388D01*
X340769Y191443D01*
X340866Y191501D01*
X340961Y191563D01*
X341054Y191628D01*
X341144Y191696D01*
X341232Y191767D01*
X341318Y191842D01*
X341401Y191919D01*
X341481Y191999D01*
X341558Y192082D01*
X341633Y192168D01*
X341704Y192256D01*
X341772Y192346D01*
X341837Y192439D01*
X341899Y192534D01*
X341957Y192631D01*
X342012Y192730D01*
X342063Y192831D01*
X342111Y192934D01*
X342156Y193038D01*
X342196Y193144D01*
X342233Y193251D01*
X342266Y193359D01*
X342296Y193469D01*
X342321Y193579D01*
X342343Y193690D01*
X342360Y193802D01*
X342374Y193915D01*
X342384Y194028D01*
X342390Y194141D01*
X342392Y194254D01*
X342390Y194367D01*
X342384Y194480D01*
X342374Y194593D01*
X342360Y194706D01*
X342343Y194818D01*
X342321Y194929D01*
X342296Y195039D01*
X342266Y195149D01*
X342233Y195257D01*
X342196Y195364D01*
X342156Y195470D01*
X342111Y195574D01*
X342063Y195677D01*
X342012Y195778D01*
X341957Y195877D01*
X341899Y195974D01*
X341837Y196069D01*
X341772Y196162D01*
X341704Y196252D01*
X341633Y196340D01*
X341558Y196426D01*
X341481Y196509D01*
X341401Y196589D01*
X341318Y196666D01*
X341232Y196741D01*
X341144Y196812D01*
X341054Y196880D01*
X340961Y196945D01*
X340866Y197007D01*
X340769Y197065D01*
X340670Y197120D01*
X340569Y197171D01*
X340466Y197219D01*
X340362Y197264D01*
X340256Y197304D01*
X340149Y197341D01*
X340041Y197374D01*
X339931Y197404D01*
X339821Y197429D01*
X339710Y197451D01*
X339598Y197468D01*
X339485Y197482D01*
X339372Y197492D01*
X339259Y197498D01*
X339146Y197500D01*
X339796Y202692D02*
X335901Y202692D01*
X339796Y202692D02*
X339897Y202690D01*
X339997Y202684D01*
X340097Y202674D01*
X340197Y202661D01*
X340296Y202643D01*
X340395Y202622D01*
X340492Y202597D01*
X340589Y202568D01*
X340684Y202535D01*
X340778Y202499D01*
X340870Y202459D01*
X340961Y202416D01*
X341050Y202369D01*
X341137Y202319D01*
X341223Y202265D01*
X341306Y202208D01*
X341386Y202148D01*
X341465Y202085D01*
X341541Y202018D01*
X341614Y201949D01*
X341684Y201877D01*
X341752Y201803D01*
X341817Y201726D01*
X341878Y201646D01*
X341937Y201564D01*
X341992Y201480D01*
X342044Y201394D01*
X342093Y201306D01*
X342138Y201216D01*
X342180Y201124D01*
X342218Y201031D01*
X342252Y200936D01*
X342283Y200841D01*
X342310Y200744D01*
X342333Y200646D01*
X342353Y200547D01*
X342368Y200447D01*
X342380Y200347D01*
X342388Y200247D01*
X342392Y200146D01*
X342392Y200046D01*
X342388Y199945D01*
X342380Y199845D01*
X342368Y199745D01*
X342353Y199645D01*
X342333Y199546D01*
X342310Y199448D01*
X342283Y199351D01*
X342252Y199256D01*
X342218Y199161D01*
X342180Y199068D01*
X342138Y198976D01*
X342093Y198886D01*
X342044Y198798D01*
X341992Y198712D01*
X341937Y198628D01*
X341878Y198546D01*
X341817Y198466D01*
X341752Y198389D01*
X341684Y198315D01*
X341614Y198243D01*
X341541Y198174D01*
X341465Y198107D01*
X341386Y198044D01*
X341306Y197984D01*
X341223Y197927D01*
X341137Y197873D01*
X341050Y197823D01*
X340961Y197776D01*
X340870Y197733D01*
X340778Y197693D01*
X340684Y197657D01*
X340589Y197624D01*
X340492Y197595D01*
X340395Y197570D01*
X340296Y197549D01*
X340197Y197531D01*
X340097Y197518D01*
X339997Y197508D01*
X339897Y197502D01*
X339796Y197500D01*
X339796Y197499D02*
X337199Y197499D01*
X621792Y422204D02*
X621792Y424801D01*
X621792Y422204D02*
X621790Y422105D01*
X621784Y422005D01*
X621775Y421906D01*
X621762Y421808D01*
X621745Y421710D01*
X621724Y421612D01*
X621699Y421516D01*
X621671Y421421D01*
X621639Y421327D01*
X621604Y421234D01*
X621565Y421142D01*
X621522Y421052D01*
X621477Y420964D01*
X621427Y420877D01*
X621375Y420793D01*
X621319Y420710D01*
X621261Y420630D01*
X621199Y420552D01*
X621134Y420477D01*
X621066Y420404D01*
X620996Y420334D01*
X620923Y420266D01*
X620848Y420201D01*
X620770Y420139D01*
X620690Y420081D01*
X620607Y420025D01*
X620523Y419973D01*
X620436Y419923D01*
X620348Y419878D01*
X620258Y419835D01*
X620166Y419796D01*
X620073Y419761D01*
X619979Y419729D01*
X619884Y419701D01*
X619788Y419676D01*
X619690Y419655D01*
X619592Y419638D01*
X619494Y419625D01*
X619395Y419616D01*
X619295Y419610D01*
X619196Y419608D01*
X612704Y419608D01*
X612605Y419610D01*
X612505Y419616D01*
X612406Y419625D01*
X612308Y419638D01*
X612210Y419656D01*
X612112Y419676D01*
X612016Y419701D01*
X611920Y419729D01*
X611826Y419761D01*
X611733Y419796D01*
X611642Y419835D01*
X611552Y419878D01*
X611463Y419923D01*
X611377Y419973D01*
X611292Y420025D01*
X611210Y420081D01*
X611130Y420140D01*
X611052Y420201D01*
X610976Y420266D01*
X610903Y420334D01*
X610833Y420404D01*
X610765Y420477D01*
X610700Y420553D01*
X610639Y420631D01*
X610580Y420711D01*
X610524Y420793D01*
X610472Y420878D01*
X610423Y420964D01*
X610377Y421053D01*
X610334Y421143D01*
X610295Y421234D01*
X610260Y421327D01*
X610228Y421421D01*
X610200Y421517D01*
X610175Y421613D01*
X610155Y421711D01*
X610137Y421809D01*
X610124Y421907D01*
X610115Y422006D01*
X610109Y422105D01*
X610107Y422205D01*
X610108Y422204D02*
X610108Y424801D01*
X610108Y431763D02*
X619196Y429166D01*
X619196Y435657D01*
X616599Y433710D02*
X621792Y433710D01*
X625404Y406908D02*
X628001Y406908D01*
X625404Y406908D02*
X625305Y406910D01*
X625205Y406916D01*
X625106Y406925D01*
X625008Y406938D01*
X624910Y406955D01*
X624812Y406976D01*
X624716Y407001D01*
X624621Y407029D01*
X624527Y407061D01*
X624434Y407096D01*
X624342Y407135D01*
X624252Y407178D01*
X624164Y407223D01*
X624077Y407273D01*
X623993Y407325D01*
X623910Y407381D01*
X623830Y407439D01*
X623752Y407501D01*
X623677Y407566D01*
X623604Y407634D01*
X623534Y407704D01*
X623466Y407777D01*
X623401Y407852D01*
X623339Y407930D01*
X623281Y408010D01*
X623225Y408093D01*
X623173Y408177D01*
X623123Y408264D01*
X623078Y408352D01*
X623035Y408442D01*
X622996Y408534D01*
X622961Y408627D01*
X622929Y408721D01*
X622901Y408816D01*
X622876Y408912D01*
X622855Y409010D01*
X622838Y409108D01*
X622825Y409206D01*
X622816Y409305D01*
X622810Y409405D01*
X622808Y409504D01*
X622808Y415996D01*
X622810Y416095D01*
X622816Y416195D01*
X622825Y416294D01*
X622838Y416392D01*
X622855Y416490D01*
X622876Y416588D01*
X622901Y416684D01*
X622929Y416779D01*
X622961Y416873D01*
X622996Y416966D01*
X623035Y417058D01*
X623078Y417148D01*
X623123Y417236D01*
X623173Y417323D01*
X623225Y417407D01*
X623281Y417490D01*
X623339Y417570D01*
X623401Y417648D01*
X623466Y417723D01*
X623534Y417796D01*
X623604Y417866D01*
X623677Y417934D01*
X623752Y417999D01*
X623830Y418061D01*
X623910Y418119D01*
X623993Y418175D01*
X624077Y418227D01*
X624164Y418277D01*
X624252Y418322D01*
X624342Y418365D01*
X624434Y418404D01*
X624526Y418439D01*
X624621Y418471D01*
X624716Y418499D01*
X624812Y418524D01*
X624910Y418545D01*
X625008Y418562D01*
X625106Y418575D01*
X625205Y418584D01*
X625305Y418590D01*
X625404Y418592D01*
X628001Y418592D01*
X632366Y406908D02*
X636261Y406908D01*
X636360Y406910D01*
X636460Y406916D01*
X636559Y406925D01*
X636657Y406938D01*
X636755Y406955D01*
X636853Y406976D01*
X636949Y407001D01*
X637044Y407029D01*
X637138Y407061D01*
X637231Y407096D01*
X637323Y407135D01*
X637413Y407178D01*
X637501Y407223D01*
X637588Y407273D01*
X637672Y407325D01*
X637755Y407381D01*
X637835Y407439D01*
X637913Y407501D01*
X637988Y407566D01*
X638061Y407634D01*
X638131Y407704D01*
X638199Y407777D01*
X638264Y407852D01*
X638326Y407930D01*
X638384Y408010D01*
X638440Y408093D01*
X638492Y408177D01*
X638542Y408264D01*
X638587Y408352D01*
X638630Y408442D01*
X638669Y408534D01*
X638704Y408627D01*
X638736Y408721D01*
X638764Y408816D01*
X638789Y408912D01*
X638810Y409010D01*
X638827Y409108D01*
X638840Y409206D01*
X638849Y409305D01*
X638855Y409405D01*
X638857Y409504D01*
X638857Y410803D01*
X638855Y410902D01*
X638849Y411002D01*
X638840Y411101D01*
X638827Y411199D01*
X638810Y411297D01*
X638789Y411395D01*
X638764Y411491D01*
X638736Y411586D01*
X638704Y411680D01*
X638669Y411773D01*
X638630Y411865D01*
X638587Y411955D01*
X638542Y412043D01*
X638492Y412130D01*
X638440Y412214D01*
X638384Y412297D01*
X638326Y412377D01*
X638264Y412455D01*
X638199Y412530D01*
X638131Y412603D01*
X638061Y412673D01*
X637988Y412741D01*
X637913Y412806D01*
X637835Y412868D01*
X637755Y412926D01*
X637672Y412982D01*
X637588Y413034D01*
X637501Y413084D01*
X637413Y413129D01*
X637323Y413172D01*
X637231Y413211D01*
X637138Y413246D01*
X637044Y413278D01*
X636949Y413306D01*
X636853Y413331D01*
X636755Y413352D01*
X636657Y413369D01*
X636559Y413382D01*
X636460Y413391D01*
X636360Y413397D01*
X636261Y413399D01*
X632366Y413399D01*
X632366Y418592D01*
X638857Y418592D01*
X520192Y434904D02*
X520192Y437501D01*
X520192Y434904D02*
X520190Y434805D01*
X520184Y434705D01*
X520175Y434606D01*
X520162Y434508D01*
X520145Y434410D01*
X520124Y434312D01*
X520099Y434216D01*
X520071Y434121D01*
X520039Y434027D01*
X520004Y433934D01*
X519965Y433842D01*
X519922Y433752D01*
X519877Y433664D01*
X519827Y433577D01*
X519775Y433493D01*
X519719Y433410D01*
X519661Y433330D01*
X519599Y433252D01*
X519534Y433177D01*
X519466Y433104D01*
X519396Y433034D01*
X519323Y432966D01*
X519248Y432901D01*
X519170Y432839D01*
X519090Y432781D01*
X519007Y432725D01*
X518923Y432673D01*
X518836Y432623D01*
X518748Y432578D01*
X518658Y432535D01*
X518566Y432496D01*
X518473Y432461D01*
X518379Y432429D01*
X518284Y432401D01*
X518188Y432376D01*
X518090Y432355D01*
X517992Y432338D01*
X517894Y432325D01*
X517795Y432316D01*
X517695Y432310D01*
X517596Y432308D01*
X511104Y432308D01*
X511005Y432310D01*
X510905Y432316D01*
X510806Y432325D01*
X510708Y432338D01*
X510610Y432356D01*
X510512Y432376D01*
X510416Y432401D01*
X510320Y432429D01*
X510226Y432461D01*
X510133Y432496D01*
X510042Y432535D01*
X509952Y432578D01*
X509863Y432623D01*
X509777Y432673D01*
X509692Y432725D01*
X509610Y432781D01*
X509530Y432840D01*
X509452Y432901D01*
X509376Y432966D01*
X509303Y433034D01*
X509233Y433104D01*
X509165Y433177D01*
X509100Y433253D01*
X509039Y433331D01*
X508980Y433411D01*
X508924Y433493D01*
X508872Y433578D01*
X508823Y433664D01*
X508777Y433753D01*
X508734Y433843D01*
X508695Y433934D01*
X508660Y434027D01*
X508628Y434121D01*
X508600Y434217D01*
X508575Y434313D01*
X508555Y434411D01*
X508537Y434509D01*
X508524Y434607D01*
X508515Y434706D01*
X508509Y434805D01*
X508507Y434905D01*
X508508Y434904D02*
X508508Y437501D01*
X513701Y441866D02*
X513701Y445761D01*
X513703Y445860D01*
X513709Y445960D01*
X513718Y446059D01*
X513731Y446157D01*
X513748Y446255D01*
X513769Y446353D01*
X513794Y446449D01*
X513822Y446544D01*
X513854Y446638D01*
X513889Y446731D01*
X513928Y446823D01*
X513971Y446913D01*
X514016Y447001D01*
X514066Y447088D01*
X514118Y447172D01*
X514174Y447255D01*
X514232Y447335D01*
X514294Y447413D01*
X514359Y447488D01*
X514427Y447561D01*
X514497Y447631D01*
X514570Y447699D01*
X514645Y447764D01*
X514723Y447826D01*
X514803Y447884D01*
X514886Y447940D01*
X514970Y447992D01*
X515057Y448042D01*
X515145Y448087D01*
X515235Y448130D01*
X515327Y448169D01*
X515420Y448204D01*
X515514Y448236D01*
X515609Y448264D01*
X515705Y448289D01*
X515803Y448310D01*
X515901Y448327D01*
X515999Y448340D01*
X516098Y448349D01*
X516198Y448355D01*
X516297Y448357D01*
X516946Y448357D01*
X516946Y448358D02*
X517059Y448356D01*
X517172Y448350D01*
X517285Y448340D01*
X517398Y448326D01*
X517510Y448309D01*
X517621Y448287D01*
X517731Y448262D01*
X517841Y448232D01*
X517949Y448199D01*
X518056Y448162D01*
X518162Y448122D01*
X518266Y448077D01*
X518369Y448029D01*
X518470Y447978D01*
X518569Y447923D01*
X518666Y447865D01*
X518761Y447803D01*
X518854Y447738D01*
X518944Y447670D01*
X519032Y447599D01*
X519118Y447524D01*
X519201Y447447D01*
X519281Y447367D01*
X519358Y447284D01*
X519433Y447198D01*
X519504Y447110D01*
X519572Y447020D01*
X519637Y446927D01*
X519699Y446832D01*
X519757Y446735D01*
X519812Y446636D01*
X519863Y446535D01*
X519911Y446432D01*
X519956Y446328D01*
X519996Y446222D01*
X520033Y446115D01*
X520066Y446007D01*
X520096Y445897D01*
X520121Y445787D01*
X520143Y445676D01*
X520160Y445564D01*
X520174Y445451D01*
X520184Y445338D01*
X520190Y445225D01*
X520192Y445112D01*
X520190Y444999D01*
X520184Y444886D01*
X520174Y444773D01*
X520160Y444660D01*
X520143Y444548D01*
X520121Y444437D01*
X520096Y444327D01*
X520066Y444217D01*
X520033Y444109D01*
X519996Y444002D01*
X519956Y443896D01*
X519911Y443792D01*
X519863Y443689D01*
X519812Y443588D01*
X519757Y443489D01*
X519699Y443392D01*
X519637Y443297D01*
X519572Y443204D01*
X519504Y443114D01*
X519433Y443026D01*
X519358Y442940D01*
X519281Y442857D01*
X519201Y442777D01*
X519118Y442700D01*
X519032Y442625D01*
X518944Y442554D01*
X518854Y442486D01*
X518761Y442421D01*
X518666Y442359D01*
X518569Y442301D01*
X518470Y442246D01*
X518369Y442195D01*
X518266Y442147D01*
X518162Y442102D01*
X518056Y442062D01*
X517949Y442025D01*
X517841Y441992D01*
X517731Y441962D01*
X517621Y441937D01*
X517510Y441915D01*
X517398Y441898D01*
X517285Y441884D01*
X517172Y441874D01*
X517059Y441868D01*
X516946Y441866D01*
X513701Y441866D01*
X513558Y441868D01*
X513415Y441874D01*
X513272Y441884D01*
X513130Y441898D01*
X512988Y441915D01*
X512846Y441937D01*
X512705Y441962D01*
X512565Y441992D01*
X512426Y442025D01*
X512288Y442062D01*
X512151Y442103D01*
X512015Y442147D01*
X511880Y442196D01*
X511747Y442248D01*
X511615Y442303D01*
X511485Y442363D01*
X511356Y442426D01*
X511229Y442492D01*
X511105Y442562D01*
X510982Y442635D01*
X510861Y442712D01*
X510742Y442791D01*
X510626Y442875D01*
X510511Y442961D01*
X510400Y443050D01*
X510291Y443143D01*
X510184Y443238D01*
X510080Y443337D01*
X509979Y443438D01*
X509880Y443542D01*
X509785Y443648D01*
X509692Y443758D01*
X509603Y443869D01*
X509517Y443983D01*
X509434Y444100D01*
X509354Y444219D01*
X509277Y444340D01*
X509204Y444462D01*
X509134Y444587D01*
X509068Y444714D01*
X509005Y444843D01*
X508945Y444973D01*
X508890Y445105D01*
X508838Y445238D01*
X508789Y445373D01*
X508745Y445509D01*
X508704Y445646D01*
X508667Y445784D01*
X508634Y445923D01*
X508604Y446063D01*
X508579Y446204D01*
X508557Y446346D01*
X508540Y446488D01*
X508526Y446630D01*
X508516Y446773D01*
X508510Y446916D01*
X508508Y447059D01*
X431292Y382336D02*
X431292Y379739D01*
X431290Y379640D01*
X431284Y379540D01*
X431275Y379441D01*
X431262Y379343D01*
X431245Y379245D01*
X431224Y379147D01*
X431199Y379051D01*
X431171Y378956D01*
X431139Y378862D01*
X431104Y378769D01*
X431065Y378677D01*
X431022Y378587D01*
X430977Y378499D01*
X430927Y378412D01*
X430875Y378328D01*
X430819Y378245D01*
X430761Y378165D01*
X430699Y378087D01*
X430634Y378012D01*
X430566Y377939D01*
X430496Y377869D01*
X430423Y377801D01*
X430348Y377736D01*
X430270Y377674D01*
X430190Y377616D01*
X430107Y377560D01*
X430023Y377508D01*
X429936Y377458D01*
X429848Y377413D01*
X429758Y377370D01*
X429666Y377331D01*
X429573Y377296D01*
X429479Y377264D01*
X429384Y377236D01*
X429288Y377211D01*
X429190Y377190D01*
X429092Y377173D01*
X428994Y377160D01*
X428895Y377151D01*
X428795Y377145D01*
X428696Y377143D01*
X422204Y377143D01*
X422204Y377142D02*
X422105Y377144D01*
X422005Y377150D01*
X421906Y377159D01*
X421808Y377172D01*
X421710Y377190D01*
X421612Y377210D01*
X421516Y377235D01*
X421420Y377263D01*
X421326Y377295D01*
X421233Y377330D01*
X421142Y377369D01*
X421052Y377412D01*
X420963Y377457D01*
X420877Y377507D01*
X420792Y377559D01*
X420710Y377615D01*
X420630Y377674D01*
X420552Y377735D01*
X420476Y377800D01*
X420403Y377868D01*
X420333Y377938D01*
X420265Y378011D01*
X420200Y378087D01*
X420139Y378165D01*
X420080Y378245D01*
X420024Y378327D01*
X419972Y378412D01*
X419923Y378498D01*
X419877Y378587D01*
X419834Y378677D01*
X419795Y378768D01*
X419760Y378861D01*
X419728Y378955D01*
X419700Y379051D01*
X419675Y379147D01*
X419655Y379245D01*
X419637Y379343D01*
X419624Y379441D01*
X419615Y379540D01*
X419609Y379639D01*
X419607Y379739D01*
X419608Y379739D02*
X419608Y382336D01*
X419608Y386701D02*
X420906Y386701D01*
X419608Y386701D02*
X419608Y393192D01*
X431292Y389946D01*
X103792Y192708D02*
X92108Y192708D01*
X92108Y195954D01*
X92110Y196067D01*
X92116Y196180D01*
X92126Y196293D01*
X92140Y196406D01*
X92157Y196518D01*
X92179Y196629D01*
X92204Y196739D01*
X92234Y196849D01*
X92267Y196957D01*
X92304Y197064D01*
X92344Y197170D01*
X92389Y197274D01*
X92437Y197377D01*
X92488Y197478D01*
X92543Y197577D01*
X92601Y197674D01*
X92663Y197769D01*
X92728Y197862D01*
X92796Y197952D01*
X92867Y198040D01*
X92942Y198126D01*
X93019Y198209D01*
X93099Y198289D01*
X93182Y198366D01*
X93268Y198441D01*
X93356Y198512D01*
X93446Y198580D01*
X93539Y198645D01*
X93634Y198707D01*
X93731Y198765D01*
X93830Y198820D01*
X93931Y198871D01*
X94034Y198919D01*
X94138Y198964D01*
X94244Y199004D01*
X94351Y199041D01*
X94459Y199074D01*
X94569Y199104D01*
X94679Y199129D01*
X94790Y199151D01*
X94902Y199168D01*
X95015Y199182D01*
X95128Y199192D01*
X95241Y199198D01*
X95354Y199200D01*
X95354Y199199D02*
X100546Y199199D01*
X100546Y199200D02*
X100659Y199198D01*
X100772Y199192D01*
X100885Y199182D01*
X100998Y199168D01*
X101110Y199151D01*
X101221Y199129D01*
X101331Y199104D01*
X101441Y199074D01*
X101549Y199041D01*
X101656Y199004D01*
X101762Y198964D01*
X101866Y198919D01*
X101969Y198871D01*
X102070Y198820D01*
X102169Y198765D01*
X102266Y198707D01*
X102361Y198645D01*
X102454Y198580D01*
X102544Y198512D01*
X102632Y198441D01*
X102718Y198366D01*
X102801Y198289D01*
X102881Y198209D01*
X102958Y198126D01*
X103033Y198040D01*
X103104Y197952D01*
X103172Y197862D01*
X103237Y197769D01*
X103299Y197674D01*
X103357Y197577D01*
X103412Y197478D01*
X103463Y197377D01*
X103511Y197274D01*
X103556Y197170D01*
X103596Y197064D01*
X103633Y196957D01*
X103666Y196849D01*
X103696Y196739D01*
X103721Y196629D01*
X103743Y196518D01*
X103760Y196406D01*
X103774Y196293D01*
X103784Y196180D01*
X103790Y196067D01*
X103792Y195954D01*
X103792Y192708D01*
X94704Y204519D02*
X92108Y207765D01*
X103792Y207765D01*
X103792Y211010D02*
X103792Y204519D01*
M02*
