G04 EAGLE Gerber RS-274X export*
G75*
%MOMM*%
%FSLAX34Y34*%
%LPD*%
%INSolderpaste Top*%
%IPPOS*%
%AMOC8*
5,1,8,0,0,1.08239X$1,22.5*%
G01*
%ADD10R,0.550000X1.600000*%
%ADD11R,1.600000X0.550000*%
%ADD12R,0.260000X0.790000*%
%ADD13R,0.790000X0.260000*%
%ADD14C,0.102500*%
%ADD15R,0.600000X1.100000*%
%ADD16R,5.050000X2.100000*%
%ADD17R,4.000000X4.000000*%
%ADD18R,1.300000X1.500000*%
%ADD19R,1.500000X1.300000*%
%ADD20R,1.200000X1.200000*%


D10*
X303622Y237600D03*
X311622Y237600D03*
X319622Y237600D03*
X327622Y237600D03*
X335622Y237600D03*
X343622Y237600D03*
X351622Y237600D03*
X359622Y237600D03*
D11*
X373422Y251400D03*
X373422Y259400D03*
X373422Y267400D03*
X373422Y275400D03*
X373422Y283400D03*
X373422Y291400D03*
X373422Y299400D03*
X373422Y307400D03*
D10*
X359622Y321200D03*
X351622Y321200D03*
X343622Y321200D03*
X335622Y321200D03*
X327622Y321200D03*
X319622Y321200D03*
X311622Y321200D03*
X303622Y321200D03*
D11*
X289822Y307400D03*
X289822Y299400D03*
X289822Y291400D03*
X289822Y283400D03*
X289822Y275400D03*
X289822Y267400D03*
X289822Y259400D03*
X289822Y251400D03*
D12*
X509622Y399400D03*
X514622Y399400D03*
X519622Y399400D03*
X524622Y399400D03*
X529622Y399400D03*
X534622Y399400D03*
D13*
X541822Y406600D03*
X541822Y411600D03*
X541822Y416600D03*
X541822Y421600D03*
X541822Y426600D03*
X541822Y431600D03*
D12*
X534622Y438800D03*
X529622Y438800D03*
X524622Y438800D03*
X519622Y438800D03*
X514622Y438800D03*
X509622Y438800D03*
D13*
X502422Y431600D03*
X502422Y426600D03*
X502422Y421600D03*
X502422Y416600D03*
X502422Y411600D03*
X502422Y406600D03*
D14*
X437260Y262512D02*
X422584Y262512D01*
X422584Y265588D01*
X437260Y265588D01*
X437260Y262512D01*
X437260Y263486D02*
X422584Y263486D01*
X422584Y264460D02*
X437260Y264460D01*
X437260Y265434D02*
X422584Y265434D01*
X422584Y256012D02*
X437260Y256012D01*
X422584Y256012D02*
X422584Y259088D01*
X437260Y259088D01*
X437260Y256012D01*
X437260Y256986D02*
X422584Y256986D01*
X422584Y257960D02*
X437260Y257960D01*
X437260Y258934D02*
X422584Y258934D01*
X422584Y249512D02*
X437260Y249512D01*
X422584Y249512D02*
X422584Y252588D01*
X437260Y252588D01*
X437260Y249512D01*
X437260Y250486D02*
X422584Y250486D01*
X422584Y251460D02*
X437260Y251460D01*
X437260Y252434D02*
X422584Y252434D01*
X422584Y243012D02*
X437260Y243012D01*
X422584Y243012D02*
X422584Y246088D01*
X437260Y246088D01*
X437260Y243012D01*
X437260Y243986D02*
X422584Y243986D01*
X422584Y244960D02*
X437260Y244960D01*
X437260Y245934D02*
X422584Y245934D01*
X422584Y236512D02*
X437260Y236512D01*
X422584Y236512D02*
X422584Y239588D01*
X437260Y239588D01*
X437260Y236512D01*
X437260Y237486D02*
X422584Y237486D01*
X422584Y238460D02*
X437260Y238460D01*
X437260Y239434D02*
X422584Y239434D01*
X422584Y230012D02*
X437260Y230012D01*
X422584Y230012D02*
X422584Y233088D01*
X437260Y233088D01*
X437260Y230012D01*
X437260Y230986D02*
X422584Y230986D01*
X422584Y231960D02*
X437260Y231960D01*
X437260Y232934D02*
X422584Y232934D01*
X422584Y223512D02*
X437260Y223512D01*
X422584Y223512D02*
X422584Y226588D01*
X437260Y226588D01*
X437260Y223512D01*
X437260Y224486D02*
X422584Y224486D01*
X422584Y225460D02*
X437260Y225460D01*
X437260Y226434D02*
X422584Y226434D01*
X422584Y217012D02*
X437260Y217012D01*
X422584Y217012D02*
X422584Y220088D01*
X437260Y220088D01*
X437260Y217012D01*
X437260Y217986D02*
X422584Y217986D01*
X422584Y218960D02*
X437260Y218960D01*
X437260Y219934D02*
X422584Y219934D01*
X479984Y217012D02*
X494660Y217012D01*
X479984Y217012D02*
X479984Y220088D01*
X494660Y220088D01*
X494660Y217012D01*
X494660Y217986D02*
X479984Y217986D01*
X479984Y218960D02*
X494660Y218960D01*
X494660Y219934D02*
X479984Y219934D01*
X479984Y223512D02*
X494660Y223512D01*
X479984Y223512D02*
X479984Y226588D01*
X494660Y226588D01*
X494660Y223512D01*
X494660Y224486D02*
X479984Y224486D01*
X479984Y225460D02*
X494660Y225460D01*
X494660Y226434D02*
X479984Y226434D01*
X479984Y230012D02*
X494660Y230012D01*
X479984Y230012D02*
X479984Y233088D01*
X494660Y233088D01*
X494660Y230012D01*
X494660Y230986D02*
X479984Y230986D01*
X479984Y231960D02*
X494660Y231960D01*
X494660Y232934D02*
X479984Y232934D01*
X479984Y236512D02*
X494660Y236512D01*
X479984Y236512D02*
X479984Y239588D01*
X494660Y239588D01*
X494660Y236512D01*
X494660Y237486D02*
X479984Y237486D01*
X479984Y238460D02*
X494660Y238460D01*
X494660Y239434D02*
X479984Y239434D01*
X479984Y243012D02*
X494660Y243012D01*
X479984Y243012D02*
X479984Y246088D01*
X494660Y246088D01*
X494660Y243012D01*
X494660Y243986D02*
X479984Y243986D01*
X479984Y244960D02*
X494660Y244960D01*
X494660Y245934D02*
X479984Y245934D01*
X479984Y249512D02*
X494660Y249512D01*
X479984Y249512D02*
X479984Y252588D01*
X494660Y252588D01*
X494660Y249512D01*
X494660Y250486D02*
X479984Y250486D01*
X479984Y251460D02*
X494660Y251460D01*
X494660Y252434D02*
X479984Y252434D01*
X479984Y256012D02*
X494660Y256012D01*
X479984Y256012D02*
X479984Y259088D01*
X494660Y259088D01*
X494660Y256012D01*
X494660Y256986D02*
X479984Y256986D01*
X479984Y257960D02*
X494660Y257960D01*
X494660Y258934D02*
X479984Y258934D01*
X479984Y262512D02*
X494660Y262512D01*
X479984Y262512D02*
X479984Y265588D01*
X494660Y265588D01*
X494660Y262512D01*
X494660Y263486D02*
X479984Y263486D01*
X479984Y264460D02*
X494660Y264460D01*
X494660Y265434D02*
X479984Y265434D01*
D15*
X144322Y141400D03*
X163322Y141400D03*
X153822Y163400D03*
D16*
X112922Y260500D03*
X112922Y493000D03*
D17*
X113622Y374100D03*
D18*
X569722Y366319D03*
X550722Y366319D03*
D19*
X335636Y362254D03*
X335636Y381254D03*
D18*
X469189Y426415D03*
X450189Y426415D03*
D20*
X204622Y35900D03*
X204622Y14900D03*
X255422Y35900D03*
X255422Y14900D03*
X306222Y35900D03*
X306222Y14900D03*
X357022Y35900D03*
X357022Y14900D03*
X407822Y35900D03*
X407822Y14900D03*
X458622Y35900D03*
X458622Y14900D03*
X509422Y35900D03*
X509422Y14900D03*
X560222Y35900D03*
X560222Y14900D03*
D18*
X328016Y203860D03*
X309016Y203860D03*
D20*
X154127Y35595D03*
X154127Y14595D03*
D19*
X115722Y15900D03*
X115722Y34900D03*
X241910Y345440D03*
X241910Y364440D03*
X298653Y345135D03*
X298653Y364135D03*
X306222Y419202D03*
X306222Y400202D03*
X268529Y400152D03*
X268529Y381152D03*
X560222Y435000D03*
X560222Y454000D03*
D18*
X534670Y469748D03*
X515670Y469748D03*
M02*
