G04 EAGLE Gerber RS-274X export*
G75*
%MOMM*%
%FSLAX34Y34*%
%LPD*%
%INBottom Copper*%
%IPPOS*%
%AMOC8*
5,1,8,0,0,1.08239X$1,22.5*%
G01*
%ADD10C,1.625600*%
%ADD11C,0.685800*%
%ADD12C,0.203200*%

G36*
X605902Y2549D02*
X605902Y2549D01*
X605960Y2547D01*
X606042Y2569D01*
X606126Y2581D01*
X606179Y2604D01*
X606235Y2619D01*
X606308Y2662D01*
X606385Y2697D01*
X606430Y2735D01*
X606480Y2764D01*
X606538Y2826D01*
X606602Y2880D01*
X606634Y2929D01*
X606674Y2972D01*
X606713Y3047D01*
X606760Y3117D01*
X606777Y3173D01*
X606804Y3225D01*
X606815Y3293D01*
X606845Y3388D01*
X606848Y3488D01*
X606859Y3556D01*
X606859Y508000D01*
X606851Y508058D01*
X606853Y508116D01*
X606831Y508198D01*
X606819Y508282D01*
X606796Y508335D01*
X606781Y508391D01*
X606738Y508464D01*
X606703Y508541D01*
X606665Y508586D01*
X606636Y508636D01*
X606574Y508694D01*
X606520Y508758D01*
X606471Y508790D01*
X606428Y508830D01*
X606353Y508869D01*
X606283Y508916D01*
X606227Y508933D01*
X606175Y508960D01*
X606107Y508971D01*
X606012Y509001D01*
X605912Y509004D01*
X605844Y509015D01*
X3556Y509015D01*
X3498Y509007D01*
X3440Y509009D01*
X3358Y508987D01*
X3274Y508975D01*
X3221Y508952D01*
X3165Y508937D01*
X3092Y508894D01*
X3015Y508859D01*
X2970Y508821D01*
X2920Y508792D01*
X2862Y508730D01*
X2798Y508676D01*
X2766Y508627D01*
X2726Y508584D01*
X2687Y508509D01*
X2640Y508439D01*
X2623Y508383D01*
X2596Y508331D01*
X2585Y508263D01*
X2555Y508168D01*
X2552Y508068D01*
X2541Y508000D01*
X2541Y3556D01*
X2549Y3498D01*
X2547Y3440D01*
X2569Y3358D01*
X2581Y3274D01*
X2604Y3221D01*
X2619Y3165D01*
X2662Y3092D01*
X2697Y3015D01*
X2735Y2970D01*
X2764Y2920D01*
X2826Y2862D01*
X2880Y2798D01*
X2929Y2766D01*
X2972Y2726D01*
X3047Y2687D01*
X3117Y2640D01*
X3173Y2623D01*
X3225Y2596D01*
X3293Y2585D01*
X3388Y2555D01*
X3488Y2552D01*
X3556Y2541D01*
X605844Y2541D01*
X605902Y2549D01*
G37*
%LPC*%
G36*
X316414Y337438D02*
X316414Y337438D01*
X314406Y338270D01*
X312870Y339806D01*
X312038Y341814D01*
X312038Y343986D01*
X312870Y345994D01*
X314406Y347530D01*
X316414Y348362D01*
X318586Y348362D01*
X320594Y347530D01*
X321878Y346246D01*
X321948Y346194D01*
X322012Y346134D01*
X322061Y346108D01*
X322105Y346075D01*
X322187Y346044D01*
X322265Y346004D01*
X322312Y345996D01*
X322371Y345974D01*
X322519Y345962D01*
X322596Y345949D01*
X366617Y345949D01*
X366703Y345961D01*
X366791Y345964D01*
X366843Y345981D01*
X366898Y345989D01*
X366978Y346024D01*
X367061Y346051D01*
X367100Y346079D01*
X367158Y346105D01*
X367271Y346201D01*
X367335Y346246D01*
X426041Y404952D01*
X426093Y405022D01*
X426153Y405086D01*
X426179Y405136D01*
X426212Y405180D01*
X426243Y405261D01*
X426283Y405339D01*
X426291Y405387D01*
X426313Y405445D01*
X426325Y405593D01*
X426338Y405670D01*
X426338Y406876D01*
X426334Y406905D01*
X426337Y406934D01*
X426314Y407045D01*
X426298Y407157D01*
X426286Y407184D01*
X426281Y407213D01*
X426229Y407313D01*
X426182Y407417D01*
X426163Y407439D01*
X426150Y407465D01*
X426072Y407547D01*
X425999Y407634D01*
X425974Y407650D01*
X425954Y407671D01*
X425856Y407728D01*
X425762Y407791D01*
X425734Y407800D01*
X425709Y407815D01*
X425599Y407843D01*
X425491Y407877D01*
X425461Y407878D01*
X425433Y407885D01*
X425320Y407881D01*
X425207Y407884D01*
X425178Y407877D01*
X425149Y407876D01*
X425041Y407841D01*
X424932Y407812D01*
X424906Y407797D01*
X424878Y407788D01*
X424815Y407743D01*
X424687Y407667D01*
X424644Y407622D01*
X424605Y407594D01*
X371646Y354635D01*
X369563Y352551D01*
X271796Y352551D01*
X271709Y352539D01*
X271622Y352536D01*
X271569Y352519D01*
X271514Y352511D01*
X271435Y352476D01*
X271351Y352449D01*
X271312Y352421D01*
X271255Y352395D01*
X271142Y352299D01*
X271078Y352254D01*
X269794Y350970D01*
X267786Y350138D01*
X265614Y350138D01*
X263606Y350970D01*
X262070Y352506D01*
X261238Y354514D01*
X261238Y356686D01*
X262070Y358694D01*
X263606Y360230D01*
X265614Y361062D01*
X267786Y361062D01*
X269794Y360230D01*
X271078Y358946D01*
X271148Y358894D01*
X271212Y358834D01*
X271261Y358808D01*
X271305Y358775D01*
X271387Y358744D01*
X271465Y358704D01*
X271512Y358696D01*
X271571Y358674D01*
X271719Y358662D01*
X271796Y358649D01*
X366617Y358649D01*
X366703Y358661D01*
X366791Y358664D01*
X366843Y358681D01*
X366898Y358689D01*
X366978Y358724D01*
X367061Y358751D01*
X367100Y358779D01*
X367158Y358805D01*
X367271Y358901D01*
X367335Y358946D01*
X426041Y417652D01*
X426093Y417722D01*
X426153Y417786D01*
X426179Y417836D01*
X426212Y417880D01*
X426243Y417961D01*
X426283Y418039D01*
X426291Y418087D01*
X426313Y418145D01*
X426325Y418293D01*
X426338Y418370D01*
X426338Y419576D01*
X426334Y419605D01*
X426337Y419634D01*
X426314Y419745D01*
X426298Y419857D01*
X426286Y419884D01*
X426281Y419913D01*
X426229Y420013D01*
X426182Y420117D01*
X426163Y420139D01*
X426150Y420165D01*
X426072Y420247D01*
X425999Y420334D01*
X425974Y420350D01*
X425954Y420371D01*
X425856Y420428D01*
X425762Y420491D01*
X425734Y420500D01*
X425709Y420515D01*
X425599Y420543D01*
X425491Y420577D01*
X425461Y420578D01*
X425433Y420585D01*
X425320Y420581D01*
X425207Y420584D01*
X425178Y420577D01*
X425149Y420576D01*
X425041Y420541D01*
X424932Y420512D01*
X424906Y420497D01*
X424878Y420488D01*
X424815Y420443D01*
X424687Y420367D01*
X424644Y420322D01*
X424605Y420294D01*
X397046Y392735D01*
X394963Y390651D01*
X373396Y390651D01*
X373309Y390639D01*
X373222Y390636D01*
X373169Y390619D01*
X373114Y390611D01*
X373035Y390576D01*
X372951Y390549D01*
X372912Y390521D01*
X372855Y390495D01*
X372742Y390399D01*
X372678Y390354D01*
X371394Y389070D01*
X369386Y388238D01*
X367214Y388238D01*
X365206Y389070D01*
X363670Y390606D01*
X362838Y392614D01*
X362838Y394786D01*
X363670Y396794D01*
X365206Y398330D01*
X367214Y399162D01*
X369386Y399162D01*
X371394Y398330D01*
X372678Y397046D01*
X372748Y396994D01*
X372812Y396934D01*
X372861Y396908D01*
X372905Y396875D01*
X372987Y396844D01*
X373065Y396804D01*
X373112Y396796D01*
X373171Y396774D01*
X373319Y396762D01*
X373396Y396749D01*
X392017Y396749D01*
X392103Y396761D01*
X392191Y396764D01*
X392243Y396781D01*
X392298Y396789D01*
X392378Y396824D01*
X392461Y396851D01*
X392500Y396879D01*
X392558Y396905D01*
X392671Y397001D01*
X392735Y397046D01*
X426041Y430352D01*
X426093Y430422D01*
X426153Y430486D01*
X426179Y430536D01*
X426212Y430580D01*
X426243Y430661D01*
X426283Y430739D01*
X426291Y430787D01*
X426313Y430845D01*
X426325Y430993D01*
X426338Y431070D01*
X426338Y432886D01*
X427170Y434894D01*
X428706Y436430D01*
X430714Y437262D01*
X432886Y437262D01*
X434894Y436430D01*
X436430Y434894D01*
X437262Y432886D01*
X437262Y430714D01*
X436430Y428706D01*
X434894Y427170D01*
X433006Y426388D01*
X432981Y426373D01*
X432953Y426364D01*
X432859Y426301D01*
X432762Y426243D01*
X432741Y426222D01*
X432717Y426206D01*
X432644Y426119D01*
X432566Y426037D01*
X432553Y426011D01*
X432534Y425988D01*
X432488Y425885D01*
X432436Y425784D01*
X432430Y425755D01*
X432419Y425728D01*
X432403Y425616D01*
X432381Y425505D01*
X432384Y425476D01*
X432380Y425447D01*
X432396Y425335D01*
X432406Y425222D01*
X432416Y425195D01*
X432420Y425166D01*
X432467Y425062D01*
X432508Y424957D01*
X432525Y424933D01*
X432537Y424906D01*
X432611Y424820D01*
X432679Y424730D01*
X432703Y424712D01*
X432722Y424690D01*
X432788Y424648D01*
X432907Y424560D01*
X432965Y424538D01*
X433006Y424512D01*
X434894Y423730D01*
X436430Y422194D01*
X437262Y420186D01*
X437262Y418014D01*
X436430Y416006D01*
X434894Y414470D01*
X433006Y413688D01*
X432981Y413673D01*
X432953Y413664D01*
X432859Y413601D01*
X432762Y413543D01*
X432741Y413522D01*
X432717Y413506D01*
X432644Y413419D01*
X432566Y413337D01*
X432553Y413311D01*
X432534Y413288D01*
X432488Y413185D01*
X432436Y413084D01*
X432431Y413055D01*
X432419Y413028D01*
X432403Y412916D01*
X432381Y412805D01*
X432384Y412776D01*
X432380Y412747D01*
X432396Y412635D01*
X432406Y412522D01*
X432416Y412495D01*
X432420Y412465D01*
X432467Y412362D01*
X432508Y412257D01*
X432525Y412233D01*
X432537Y412206D01*
X432611Y412120D01*
X432679Y412030D01*
X432703Y412012D01*
X432722Y411990D01*
X432788Y411948D01*
X432907Y411860D01*
X432966Y411838D01*
X433006Y411812D01*
X434894Y411030D01*
X436430Y409494D01*
X437262Y407486D01*
X437262Y405314D01*
X436430Y403306D01*
X434894Y401770D01*
X432886Y400938D01*
X431070Y400938D01*
X430984Y400926D01*
X430896Y400923D01*
X430844Y400906D01*
X430789Y400898D01*
X430709Y400863D01*
X430626Y400836D01*
X430587Y400808D01*
X430529Y400782D01*
X430416Y400686D01*
X430352Y400641D01*
X369563Y339851D01*
X322596Y339851D01*
X322509Y339839D01*
X322422Y339836D01*
X322369Y339819D01*
X322314Y339811D01*
X322235Y339776D01*
X322151Y339749D01*
X322112Y339721D01*
X322055Y339695D01*
X321942Y339599D01*
X321878Y339554D01*
X320594Y338270D01*
X318586Y337438D01*
X316414Y337438D01*
G37*
%LPD*%
%LPC*%
G36*
X391679Y459739D02*
X391679Y459739D01*
X387944Y461286D01*
X385086Y464144D01*
X383539Y467879D01*
X383539Y471921D01*
X385086Y475656D01*
X387944Y478514D01*
X391679Y480061D01*
X395721Y480061D01*
X399456Y478514D01*
X402314Y475656D01*
X403861Y471921D01*
X403861Y467879D01*
X402314Y464144D01*
X399456Y461286D01*
X395721Y459739D01*
X391679Y459739D01*
G37*
%LPD*%
%LPC*%
G36*
X366279Y459739D02*
X366279Y459739D01*
X362544Y461286D01*
X359686Y464144D01*
X358139Y467879D01*
X358139Y471921D01*
X359686Y475656D01*
X362544Y478514D01*
X366279Y480061D01*
X370321Y480061D01*
X374056Y478514D01*
X376914Y475656D01*
X378461Y471921D01*
X378461Y467879D01*
X376914Y464144D01*
X374056Y461286D01*
X370321Y459739D01*
X366279Y459739D01*
G37*
%LPD*%
%LPC*%
G36*
X391679Y434339D02*
X391679Y434339D01*
X387944Y435886D01*
X385086Y438744D01*
X383539Y442479D01*
X383539Y446521D01*
X385086Y450256D01*
X387944Y453114D01*
X391679Y454661D01*
X395721Y454661D01*
X399456Y453114D01*
X402314Y450256D01*
X403861Y446521D01*
X403861Y442479D01*
X402314Y438744D01*
X399456Y435886D01*
X395721Y434339D01*
X391679Y434339D01*
G37*
%LPD*%
%LPC*%
G36*
X366279Y434339D02*
X366279Y434339D01*
X362544Y435886D01*
X359686Y438744D01*
X358139Y442479D01*
X358139Y446521D01*
X359686Y450256D01*
X362544Y453114D01*
X366279Y454661D01*
X370321Y454661D01*
X374056Y453114D01*
X376914Y450256D01*
X378461Y446521D01*
X378461Y442479D01*
X376914Y438744D01*
X374056Y435886D01*
X370321Y434339D01*
X366279Y434339D01*
G37*
%LPD*%
%LPC*%
G36*
X366279Y408939D02*
X366279Y408939D01*
X362544Y410486D01*
X359686Y413344D01*
X358139Y417079D01*
X358139Y421121D01*
X359686Y424856D01*
X362544Y427714D01*
X366279Y429261D01*
X370321Y429261D01*
X374056Y427714D01*
X376914Y424856D01*
X378461Y421121D01*
X378461Y417079D01*
X376914Y413344D01*
X374056Y410486D01*
X370321Y408939D01*
X366279Y408939D01*
G37*
%LPD*%
%LPC*%
G36*
X395731Y421131D02*
X395731Y421131D01*
X395731Y429580D01*
X396198Y429506D01*
X397795Y428987D01*
X399292Y428225D01*
X400650Y427238D01*
X401838Y426050D01*
X402825Y424692D01*
X403587Y423195D01*
X404106Y421598D01*
X404180Y421131D01*
X395731Y421131D01*
G37*
%LPD*%
%LPC*%
G36*
X383220Y421131D02*
X383220Y421131D01*
X383294Y421598D01*
X383813Y423195D01*
X384575Y424692D01*
X385562Y426050D01*
X386750Y427238D01*
X388108Y428225D01*
X389605Y428987D01*
X391202Y429506D01*
X391669Y429580D01*
X391669Y421131D01*
X383220Y421131D01*
G37*
%LPD*%
%LPC*%
G36*
X395731Y417069D02*
X395731Y417069D01*
X404180Y417069D01*
X404106Y416602D01*
X403587Y415005D01*
X402825Y413508D01*
X401838Y412150D01*
X400650Y410962D01*
X399292Y409975D01*
X397795Y409213D01*
X396198Y408694D01*
X395731Y408620D01*
X395731Y417069D01*
G37*
%LPD*%
%LPC*%
G36*
X391202Y408694D02*
X391202Y408694D01*
X389605Y409213D01*
X388108Y409975D01*
X386750Y410962D01*
X385562Y412150D01*
X384575Y413508D01*
X383813Y415005D01*
X383294Y416602D01*
X383220Y417069D01*
X391669Y417069D01*
X391669Y408620D01*
X391202Y408694D01*
G37*
%LPD*%
%LPC*%
G36*
X483615Y470915D02*
X483615Y470915D01*
X483615Y475785D01*
X484341Y475640D01*
X485428Y475190D01*
X486406Y474537D01*
X487237Y473706D01*
X487890Y472728D01*
X488340Y471641D01*
X488485Y470915D01*
X483615Y470915D01*
G37*
%LPD*%
%LPC*%
G36*
X305815Y382015D02*
X305815Y382015D01*
X305815Y386885D01*
X306541Y386740D01*
X307628Y386290D01*
X308606Y385637D01*
X309437Y384806D01*
X310090Y383828D01*
X310540Y382741D01*
X310685Y382015D01*
X305815Y382015D01*
G37*
%LPD*%
%LPC*%
G36*
X267715Y318515D02*
X267715Y318515D01*
X267715Y323385D01*
X268441Y323240D01*
X269528Y322790D01*
X270506Y322137D01*
X271337Y321306D01*
X271990Y320328D01*
X272440Y319241D01*
X272585Y318515D01*
X267715Y318515D01*
G37*
%LPD*%
%LPC*%
G36*
X343915Y216915D02*
X343915Y216915D01*
X343915Y221785D01*
X344641Y221640D01*
X345728Y221190D01*
X346706Y220537D01*
X347537Y219706D01*
X348190Y218728D01*
X348640Y217641D01*
X348785Y216915D01*
X343915Y216915D01*
G37*
%LPD*%
%LPC*%
G36*
X476715Y470915D02*
X476715Y470915D01*
X476860Y471641D01*
X477310Y472728D01*
X477963Y473706D01*
X478794Y474537D01*
X479772Y475190D01*
X480859Y475640D01*
X481585Y475785D01*
X481585Y470915D01*
X476715Y470915D01*
G37*
%LPD*%
%LPC*%
G36*
X483615Y468885D02*
X483615Y468885D01*
X488485Y468885D01*
X488340Y468159D01*
X487890Y467072D01*
X487237Y466094D01*
X486406Y465263D01*
X485428Y464610D01*
X484341Y464160D01*
X483615Y464015D01*
X483615Y468885D01*
G37*
%LPD*%
%LPC*%
G36*
X298915Y382015D02*
X298915Y382015D01*
X299060Y382741D01*
X299510Y383828D01*
X300163Y384806D01*
X300994Y385637D01*
X301972Y386290D01*
X303059Y386740D01*
X303785Y386885D01*
X303785Y382015D01*
X298915Y382015D01*
G37*
%LPD*%
%LPC*%
G36*
X305815Y379985D02*
X305815Y379985D01*
X310685Y379985D01*
X310540Y379259D01*
X310090Y378172D01*
X309437Y377194D01*
X308606Y376363D01*
X307628Y375710D01*
X306541Y375260D01*
X305815Y375115D01*
X305815Y379985D01*
G37*
%LPD*%
%LPC*%
G36*
X260815Y318515D02*
X260815Y318515D01*
X260960Y319241D01*
X261410Y320328D01*
X262063Y321306D01*
X262894Y322137D01*
X263872Y322790D01*
X264959Y323240D01*
X265685Y323385D01*
X265685Y318515D01*
X260815Y318515D01*
G37*
%LPD*%
%LPC*%
G36*
X267715Y316485D02*
X267715Y316485D01*
X272585Y316485D01*
X272440Y315759D01*
X271990Y314672D01*
X271337Y313694D01*
X270506Y312863D01*
X269528Y312210D01*
X268441Y311760D01*
X267715Y311615D01*
X267715Y316485D01*
G37*
%LPD*%
%LPC*%
G36*
X337015Y216915D02*
X337015Y216915D01*
X337160Y217641D01*
X337610Y218728D01*
X338263Y219706D01*
X339094Y220537D01*
X340072Y221190D01*
X341159Y221640D01*
X341885Y221785D01*
X341885Y216915D01*
X337015Y216915D01*
G37*
%LPD*%
%LPC*%
G36*
X343915Y214885D02*
X343915Y214885D01*
X348785Y214885D01*
X348640Y214159D01*
X348190Y213072D01*
X347537Y212094D01*
X346706Y211263D01*
X345728Y210610D01*
X344641Y210160D01*
X343915Y210015D01*
X343915Y214885D01*
G37*
%LPD*%
%LPC*%
G36*
X480859Y464160D02*
X480859Y464160D01*
X479772Y464610D01*
X478794Y465263D01*
X477963Y466094D01*
X477310Y467072D01*
X476860Y468159D01*
X476715Y468885D01*
X481585Y468885D01*
X481585Y464015D01*
X480859Y464160D01*
G37*
%LPD*%
%LPC*%
G36*
X303059Y375260D02*
X303059Y375260D01*
X301972Y375710D01*
X300994Y376363D01*
X300163Y377194D01*
X299510Y378172D01*
X299060Y379259D01*
X298915Y379985D01*
X303785Y379985D01*
X303785Y375115D01*
X303059Y375260D01*
G37*
%LPD*%
%LPC*%
G36*
X264959Y311760D02*
X264959Y311760D01*
X263872Y312210D01*
X262894Y312863D01*
X262063Y313694D01*
X261410Y314672D01*
X260960Y315759D01*
X260815Y316485D01*
X265685Y316485D01*
X265685Y311615D01*
X264959Y311760D01*
G37*
%LPD*%
%LPC*%
G36*
X341159Y210160D02*
X341159Y210160D01*
X340072Y210610D01*
X339094Y211263D01*
X338263Y212094D01*
X337610Y213072D01*
X337160Y214159D01*
X337015Y214885D01*
X341885Y214885D01*
X341885Y210015D01*
X341159Y210160D01*
G37*
%LPD*%
%LPC*%
G36*
X393699Y419099D02*
X393699Y419099D01*
X393699Y419101D01*
X393701Y419101D01*
X393701Y419099D01*
X393699Y419099D01*
G37*
%LPD*%
D10*
X368300Y444500D03*
X393700Y444500D03*
X393700Y469900D03*
X368300Y469900D03*
X368300Y419100D03*
X393700Y419100D03*
D11*
X431800Y406400D03*
D12*
X368300Y342900D01*
X317500Y342900D01*
D11*
X317500Y342900D03*
X431800Y419100D03*
D12*
X368300Y355600D01*
X266700Y355600D01*
D11*
X266700Y355600D03*
X482600Y469900D03*
X342900Y215900D03*
X266700Y317500D03*
X304800Y381000D03*
X368300Y393700D03*
D12*
X393700Y393700D02*
X431800Y431800D01*
X393700Y393700D02*
X368300Y393700D01*
D11*
X431800Y431800D03*
M02*
