G04 EAGLE Gerber RS-274X export*
G75*
%MOMM*%
%FSLAX34Y34*%
%LPD*%
%INBottom Copper*%
%IPPOS*%
%AMOC8*
5,1,8,0,0,1.08239X$1,22.5*%
G01*
%ADD10C,1.625600*%
%ADD11C,0.685800*%
%ADD12C,0.203200*%
%ADD13C,0.330200*%

G36*
X608391Y7121D02*
X608391Y7121D01*
X608450Y7119D01*
X608531Y7141D01*
X608615Y7153D01*
X608668Y7176D01*
X608725Y7191D01*
X608797Y7234D01*
X608874Y7269D01*
X608919Y7307D01*
X608969Y7336D01*
X609027Y7398D01*
X609091Y7452D01*
X609124Y7501D01*
X609164Y7544D01*
X609202Y7619D01*
X609249Y7689D01*
X609266Y7745D01*
X609293Y7797D01*
X609304Y7865D01*
X609334Y7960D01*
X609337Y8060D01*
X609348Y8128D01*
X609348Y518416D01*
X609340Y518474D01*
X609342Y518532D01*
X609320Y518614D01*
X609309Y518697D01*
X609285Y518751D01*
X609270Y518807D01*
X609227Y518880D01*
X609192Y518957D01*
X609155Y519002D01*
X609125Y519052D01*
X609063Y519110D01*
X609009Y519174D01*
X608960Y519206D01*
X608917Y519246D01*
X608842Y519285D01*
X608772Y519331D01*
X608716Y519349D01*
X608664Y519376D01*
X608596Y519387D01*
X608501Y519417D01*
X608401Y519420D01*
X608333Y519431D01*
X6045Y519431D01*
X5987Y519423D01*
X5929Y519425D01*
X5847Y519403D01*
X5764Y519391D01*
X5710Y519367D01*
X5654Y519353D01*
X5581Y519310D01*
X5504Y519275D01*
X5460Y519237D01*
X5409Y519207D01*
X5352Y519146D01*
X5287Y519091D01*
X5255Y519043D01*
X5215Y519000D01*
X5176Y518925D01*
X5130Y518855D01*
X5112Y518799D01*
X5085Y518747D01*
X5074Y518679D01*
X5044Y518584D01*
X5041Y518484D01*
X5030Y518416D01*
X5030Y8128D01*
X5038Y8070D01*
X5037Y8012D01*
X5058Y7930D01*
X5070Y7846D01*
X5094Y7793D01*
X5108Y7737D01*
X5151Y7664D01*
X5186Y7587D01*
X5224Y7542D01*
X5254Y7492D01*
X5315Y7434D01*
X5370Y7370D01*
X5418Y7338D01*
X5461Y7298D01*
X5536Y7259D01*
X5606Y7212D01*
X5662Y7195D01*
X5714Y7168D01*
X5782Y7157D01*
X5877Y7127D01*
X5977Y7124D01*
X6045Y7113D01*
X608333Y7113D01*
X608391Y7121D01*
G37*
%LPC*%
G36*
X319919Y344093D02*
X319919Y344093D01*
X317911Y344925D01*
X316375Y346461D01*
X315543Y348468D01*
X315543Y350641D01*
X316375Y352649D01*
X317911Y354185D01*
X319919Y355016D01*
X322092Y355016D01*
X324099Y354185D01*
X325282Y353002D01*
X325351Y352950D01*
X325415Y352890D01*
X325465Y352865D01*
X325509Y352832D01*
X325590Y352800D01*
X325668Y352761D01*
X325716Y352753D01*
X325774Y352730D01*
X325922Y352718D01*
X325999Y352705D01*
X371290Y352705D01*
X371377Y352717D01*
X371464Y352720D01*
X371517Y352737D01*
X371572Y352745D01*
X371652Y352781D01*
X371735Y352808D01*
X371774Y352836D01*
X371831Y352861D01*
X371944Y352957D01*
X372008Y353002D01*
X428530Y409524D01*
X428583Y409594D01*
X428643Y409658D01*
X428668Y409708D01*
X428701Y409752D01*
X428732Y409833D01*
X428772Y409911D01*
X428780Y409959D01*
X428802Y410017D01*
X428814Y410165D01*
X428827Y410242D01*
X428827Y411448D01*
X428823Y411477D01*
X428826Y411506D01*
X428804Y411617D01*
X428788Y411729D01*
X428776Y411756D01*
X428770Y411785D01*
X428718Y411885D01*
X428671Y411989D01*
X428652Y412011D01*
X428639Y412037D01*
X428561Y412119D01*
X428488Y412206D01*
X428463Y412222D01*
X428443Y412243D01*
X428345Y412300D01*
X428251Y412363D01*
X428223Y412372D01*
X428198Y412387D01*
X428088Y412415D01*
X427980Y412449D01*
X427951Y412450D01*
X427922Y412457D01*
X427809Y412453D01*
X427696Y412456D01*
X427667Y412449D01*
X427638Y412448D01*
X427530Y412413D01*
X427421Y412384D01*
X427396Y412369D01*
X427368Y412360D01*
X427304Y412315D01*
X427176Y412239D01*
X427134Y412193D01*
X427094Y412166D01*
X374135Y359206D01*
X372052Y357123D01*
X274285Y357123D01*
X274198Y357111D01*
X274111Y357108D01*
X274058Y357091D01*
X274004Y357083D01*
X273924Y357048D01*
X273841Y357021D01*
X273801Y356993D01*
X273744Y356967D01*
X273631Y356871D01*
X273567Y356826D01*
X272283Y355542D01*
X270276Y354710D01*
X268103Y354710D01*
X266095Y355542D01*
X264559Y357078D01*
X263727Y359086D01*
X263727Y361258D01*
X264559Y363266D01*
X266095Y364802D01*
X268103Y365634D01*
X270276Y365634D01*
X272283Y364802D01*
X273567Y363518D01*
X273637Y363466D01*
X273701Y363406D01*
X273750Y363380D01*
X273794Y363347D01*
X273876Y363316D01*
X273954Y363276D01*
X274002Y363268D01*
X274060Y363246D01*
X274208Y363234D01*
X274285Y363221D01*
X369106Y363221D01*
X369192Y363233D01*
X369280Y363236D01*
X369333Y363253D01*
X369387Y363261D01*
X369467Y363296D01*
X369550Y363323D01*
X369590Y363351D01*
X369647Y363377D01*
X369760Y363473D01*
X369824Y363518D01*
X428530Y422224D01*
X428583Y422294D01*
X428643Y422358D01*
X428668Y422408D01*
X428701Y422452D01*
X428732Y422533D01*
X428772Y422611D01*
X428780Y422659D01*
X428802Y422717D01*
X428814Y422865D01*
X428827Y422942D01*
X428827Y423250D01*
X428823Y423279D01*
X428826Y423308D01*
X428804Y423419D01*
X428788Y423531D01*
X428776Y423558D01*
X428770Y423587D01*
X428718Y423687D01*
X428671Y423791D01*
X428652Y423813D01*
X428639Y423839D01*
X428561Y423921D01*
X428488Y424008D01*
X428463Y424024D01*
X428443Y424045D01*
X428345Y424102D01*
X428251Y424165D01*
X428223Y424174D01*
X428198Y424189D01*
X428088Y424217D01*
X427980Y424251D01*
X427951Y424252D01*
X427922Y424259D01*
X427809Y424255D01*
X427696Y424258D01*
X427667Y424251D01*
X427638Y424250D01*
X427530Y424215D01*
X427421Y424186D01*
X427396Y424171D01*
X427368Y424162D01*
X427304Y424117D01*
X427176Y424041D01*
X427134Y423995D01*
X427094Y423968D01*
X400170Y397043D01*
X397715Y394588D01*
X375250Y394588D01*
X375163Y394576D01*
X375076Y394573D01*
X375023Y394556D01*
X374969Y394548D01*
X374889Y394513D01*
X374806Y394486D01*
X374766Y394458D01*
X374709Y394432D01*
X374596Y394336D01*
X374532Y394291D01*
X373883Y393642D01*
X371876Y392810D01*
X369703Y392810D01*
X367695Y393642D01*
X366159Y395178D01*
X365327Y397186D01*
X365327Y399358D01*
X366159Y401366D01*
X367695Y402902D01*
X369703Y403734D01*
X371876Y403734D01*
X373883Y402902D01*
X374532Y402253D01*
X374602Y402201D01*
X374666Y402141D01*
X374715Y402115D01*
X374759Y402082D01*
X374841Y402051D01*
X374919Y402011D01*
X374967Y402003D01*
X375025Y401981D01*
X375173Y401969D01*
X375250Y401956D01*
X394243Y401956D01*
X394329Y401968D01*
X394417Y401971D01*
X394469Y401988D01*
X394524Y401996D01*
X394604Y402031D01*
X394687Y402058D01*
X394727Y402086D01*
X394784Y402112D01*
X394897Y402208D01*
X394961Y402253D01*
X428530Y435822D01*
X428583Y435892D01*
X428643Y435956D01*
X428668Y436006D01*
X428701Y436050D01*
X428732Y436131D01*
X428772Y436209D01*
X428780Y436257D01*
X428802Y436315D01*
X428807Y436376D01*
X428813Y436396D01*
X428815Y436468D01*
X428827Y436540D01*
X428827Y437458D01*
X429659Y439466D01*
X431195Y441002D01*
X433203Y441834D01*
X435376Y441834D01*
X437383Y441002D01*
X438919Y439466D01*
X439751Y437458D01*
X439751Y435286D01*
X438919Y433278D01*
X437383Y431742D01*
X435496Y430960D01*
X435470Y430945D01*
X435442Y430936D01*
X435348Y430873D01*
X435251Y430815D01*
X435231Y430794D01*
X435206Y430778D01*
X435133Y430691D01*
X435056Y430609D01*
X435042Y430583D01*
X435023Y430560D01*
X434977Y430457D01*
X434925Y430356D01*
X434920Y430327D01*
X434908Y430300D01*
X434892Y430188D01*
X434870Y430077D01*
X434873Y430048D01*
X434869Y430019D01*
X434885Y429907D01*
X434895Y429794D01*
X434905Y429767D01*
X434910Y429737D01*
X434956Y429634D01*
X434997Y429529D01*
X435015Y429505D01*
X435027Y429478D01*
X435100Y429392D01*
X435168Y429302D01*
X435192Y429284D01*
X435211Y429262D01*
X435277Y429220D01*
X435396Y429132D01*
X435455Y429110D01*
X435496Y429084D01*
X437383Y428302D01*
X438919Y426766D01*
X439751Y424758D01*
X439751Y422586D01*
X438919Y420578D01*
X437383Y419042D01*
X435496Y418260D01*
X435470Y418245D01*
X435442Y418236D01*
X435348Y418173D01*
X435251Y418115D01*
X435231Y418094D01*
X435206Y418078D01*
X435133Y417991D01*
X435056Y417909D01*
X435042Y417883D01*
X435023Y417860D01*
X434977Y417757D01*
X434925Y417656D01*
X434920Y417627D01*
X434908Y417600D01*
X434892Y417488D01*
X434870Y417377D01*
X434873Y417348D01*
X434869Y417319D01*
X434885Y417207D01*
X434895Y417094D01*
X434905Y417067D01*
X434910Y417037D01*
X434956Y416934D01*
X434997Y416829D01*
X435015Y416805D01*
X435027Y416778D01*
X435100Y416692D01*
X435168Y416602D01*
X435192Y416584D01*
X435211Y416562D01*
X435277Y416520D01*
X435396Y416432D01*
X435455Y416410D01*
X435496Y416384D01*
X437383Y415602D01*
X438919Y414066D01*
X439751Y412058D01*
X439751Y409886D01*
X438919Y407878D01*
X437383Y406342D01*
X435376Y405510D01*
X433560Y405510D01*
X433473Y405498D01*
X433386Y405495D01*
X433333Y405478D01*
X433278Y405470D01*
X433198Y405435D01*
X433115Y405408D01*
X433076Y405380D01*
X433019Y405354D01*
X432905Y405258D01*
X432842Y405213D01*
X374236Y346608D01*
X326203Y346608D01*
X326116Y346595D01*
X326029Y346593D01*
X325976Y346576D01*
X325921Y346568D01*
X325841Y346532D01*
X325758Y346505D01*
X325719Y346477D01*
X325662Y346452D01*
X325548Y346356D01*
X325485Y346310D01*
X324099Y344925D01*
X322092Y344093D01*
X319919Y344093D01*
G37*
%LPD*%
%LPC*%
G36*
X394168Y464311D02*
X394168Y464311D01*
X390434Y465858D01*
X387575Y468716D01*
X386028Y472451D01*
X386028Y476493D01*
X387575Y480228D01*
X390434Y483086D01*
X394168Y484633D01*
X398210Y484633D01*
X401945Y483086D01*
X404803Y480228D01*
X406350Y476493D01*
X406350Y472451D01*
X404803Y468716D01*
X401945Y465858D01*
X398210Y464311D01*
X394168Y464311D01*
G37*
%LPD*%
%LPC*%
G36*
X368768Y464311D02*
X368768Y464311D01*
X365034Y465858D01*
X362175Y468716D01*
X360628Y472451D01*
X360628Y476493D01*
X362175Y480228D01*
X365034Y483086D01*
X368768Y484633D01*
X372810Y484633D01*
X376545Y483086D01*
X379403Y480228D01*
X380950Y476493D01*
X380950Y472451D01*
X379403Y468716D01*
X376545Y465858D01*
X372810Y464311D01*
X368768Y464311D01*
G37*
%LPD*%
%LPC*%
G36*
X394168Y438911D02*
X394168Y438911D01*
X390434Y440458D01*
X387575Y443316D01*
X386028Y447051D01*
X386028Y451093D01*
X387575Y454828D01*
X390434Y457686D01*
X394168Y459233D01*
X398210Y459233D01*
X401945Y457686D01*
X404803Y454828D01*
X406350Y451093D01*
X406350Y447051D01*
X404803Y443316D01*
X401945Y440458D01*
X398210Y438911D01*
X394168Y438911D01*
G37*
%LPD*%
%LPC*%
G36*
X368768Y438911D02*
X368768Y438911D01*
X365034Y440458D01*
X362175Y443316D01*
X360628Y447051D01*
X360628Y451093D01*
X362175Y454828D01*
X365034Y457686D01*
X368768Y459233D01*
X372810Y459233D01*
X376545Y457686D01*
X379403Y454828D01*
X380950Y451093D01*
X380950Y447051D01*
X379403Y443316D01*
X376545Y440458D01*
X372810Y438911D01*
X368768Y438911D01*
G37*
%LPD*%
%LPC*%
G36*
X368768Y413511D02*
X368768Y413511D01*
X365034Y415058D01*
X362175Y417916D01*
X360628Y421651D01*
X360628Y425693D01*
X362175Y429428D01*
X365034Y432286D01*
X368768Y433833D01*
X372810Y433833D01*
X376545Y432286D01*
X379403Y429428D01*
X380950Y425693D01*
X380950Y421651D01*
X379403Y417916D01*
X376545Y415058D01*
X372810Y413511D01*
X368768Y413511D01*
G37*
%LPD*%
%LPC*%
G36*
X398220Y425703D02*
X398220Y425703D01*
X398220Y434152D01*
X398687Y434078D01*
X400285Y433559D01*
X401781Y432797D01*
X403139Y431810D01*
X404327Y430622D01*
X405314Y429264D01*
X406076Y427767D01*
X406595Y426170D01*
X406669Y425703D01*
X398220Y425703D01*
G37*
%LPD*%
%LPC*%
G36*
X385709Y425703D02*
X385709Y425703D01*
X385783Y426170D01*
X386302Y427767D01*
X387064Y429264D01*
X388052Y430622D01*
X389239Y431810D01*
X390598Y432797D01*
X392094Y433559D01*
X393691Y434078D01*
X394158Y434152D01*
X394158Y425703D01*
X385709Y425703D01*
G37*
%LPD*%
%LPC*%
G36*
X398220Y421641D02*
X398220Y421641D01*
X406669Y421641D01*
X406595Y421174D01*
X406076Y419577D01*
X405314Y418080D01*
X404327Y416722D01*
X403139Y415534D01*
X401781Y414547D01*
X400285Y413785D01*
X398687Y413266D01*
X398220Y413192D01*
X398220Y421641D01*
G37*
%LPD*%
%LPC*%
G36*
X393691Y413266D02*
X393691Y413266D01*
X392094Y413785D01*
X390598Y414547D01*
X389239Y415534D01*
X388052Y416722D01*
X387064Y418080D01*
X386302Y419577D01*
X385783Y421174D01*
X385709Y421641D01*
X394158Y421641D01*
X394158Y413192D01*
X393691Y413266D01*
G37*
%LPD*%
%LPC*%
G36*
X473405Y475487D02*
X473405Y475487D01*
X473405Y480357D01*
X474131Y480212D01*
X475217Y479762D01*
X476195Y479109D01*
X477026Y478278D01*
X477680Y477300D01*
X478129Y476213D01*
X478274Y475487D01*
X473405Y475487D01*
G37*
%LPD*%
%LPC*%
G36*
X578611Y423062D02*
X578611Y423062D01*
X578611Y427931D01*
X579337Y427787D01*
X580424Y427337D01*
X581402Y426683D01*
X582233Y425852D01*
X582886Y424874D01*
X583336Y423788D01*
X583481Y423062D01*
X578611Y423062D01*
G37*
%LPD*%
%LPC*%
G36*
X308305Y386587D02*
X308305Y386587D01*
X308305Y391457D01*
X309031Y391312D01*
X310117Y390862D01*
X311095Y390209D01*
X311926Y389378D01*
X312580Y388400D01*
X313029Y387313D01*
X313174Y386587D01*
X308305Y386587D01*
G37*
%LPD*%
%LPC*%
G36*
X270205Y323087D02*
X270205Y323087D01*
X270205Y327957D01*
X270931Y327812D01*
X272017Y327362D01*
X272995Y326709D01*
X273826Y325878D01*
X274480Y324900D01*
X274929Y323813D01*
X275074Y323087D01*
X270205Y323087D01*
G37*
%LPD*%
%LPC*%
G36*
X346405Y221487D02*
X346405Y221487D01*
X346405Y226357D01*
X347131Y226212D01*
X348217Y225762D01*
X349195Y225109D01*
X350026Y224278D01*
X350680Y223300D01*
X351129Y222213D01*
X351274Y221487D01*
X346405Y221487D01*
G37*
%LPD*%
%LPC*%
G36*
X466504Y475487D02*
X466504Y475487D01*
X466649Y476213D01*
X467099Y477300D01*
X467752Y478278D01*
X468584Y479109D01*
X469561Y479762D01*
X470648Y480212D01*
X471374Y480357D01*
X471374Y475487D01*
X466504Y475487D01*
G37*
%LPD*%
%LPC*%
G36*
X473405Y473457D02*
X473405Y473457D01*
X478274Y473457D01*
X478129Y472731D01*
X477680Y471644D01*
X477026Y470666D01*
X476195Y469835D01*
X475217Y469182D01*
X474131Y468732D01*
X473405Y468587D01*
X473405Y473457D01*
G37*
%LPD*%
%LPC*%
G36*
X571711Y423062D02*
X571711Y423062D01*
X571856Y423788D01*
X572306Y424874D01*
X572959Y425852D01*
X573790Y426683D01*
X574768Y427337D01*
X575855Y427787D01*
X576581Y427931D01*
X576581Y423062D01*
X571711Y423062D01*
G37*
%LPD*%
%LPC*%
G36*
X578611Y421031D02*
X578611Y421031D01*
X583481Y421031D01*
X583336Y420305D01*
X582886Y419219D01*
X582233Y418241D01*
X581402Y417409D01*
X580424Y416756D01*
X579337Y416306D01*
X578611Y416162D01*
X578611Y421031D01*
G37*
%LPD*%
%LPC*%
G36*
X301404Y386587D02*
X301404Y386587D01*
X301549Y387313D01*
X301999Y388400D01*
X302652Y389378D01*
X303484Y390209D01*
X304461Y390862D01*
X305548Y391312D01*
X306274Y391457D01*
X306274Y386587D01*
X301404Y386587D01*
G37*
%LPD*%
%LPC*%
G36*
X308305Y384557D02*
X308305Y384557D01*
X313174Y384557D01*
X313029Y383831D01*
X312580Y382744D01*
X311926Y381766D01*
X311095Y380935D01*
X310117Y380282D01*
X309031Y379832D01*
X308305Y379687D01*
X308305Y384557D01*
G37*
%LPD*%
%LPC*%
G36*
X263304Y323087D02*
X263304Y323087D01*
X263449Y323813D01*
X263899Y324900D01*
X264552Y325878D01*
X265384Y326709D01*
X266361Y327362D01*
X267448Y327812D01*
X268174Y327957D01*
X268174Y323087D01*
X263304Y323087D01*
G37*
%LPD*%
%LPC*%
G36*
X270205Y321057D02*
X270205Y321057D01*
X275074Y321057D01*
X274929Y320331D01*
X274480Y319244D01*
X273826Y318266D01*
X272995Y317435D01*
X272017Y316782D01*
X270931Y316332D01*
X270205Y316187D01*
X270205Y321057D01*
G37*
%LPD*%
%LPC*%
G36*
X339504Y221487D02*
X339504Y221487D01*
X339649Y222213D01*
X340099Y223300D01*
X340752Y224278D01*
X341584Y225109D01*
X342561Y225762D01*
X343648Y226212D01*
X344374Y226357D01*
X344374Y221487D01*
X339504Y221487D01*
G37*
%LPD*%
%LPC*%
G36*
X346405Y219457D02*
X346405Y219457D01*
X351274Y219457D01*
X351129Y218731D01*
X350680Y217644D01*
X350026Y216666D01*
X349195Y215835D01*
X348217Y215182D01*
X347131Y214732D01*
X346405Y214587D01*
X346405Y219457D01*
G37*
%LPD*%
%LPC*%
G36*
X470648Y468732D02*
X470648Y468732D01*
X469561Y469182D01*
X468584Y469835D01*
X467752Y470666D01*
X467099Y471644D01*
X466649Y472731D01*
X466504Y473457D01*
X471374Y473457D01*
X471374Y468587D01*
X470648Y468732D01*
G37*
%LPD*%
%LPC*%
G36*
X575855Y416306D02*
X575855Y416306D01*
X574768Y416756D01*
X573790Y417409D01*
X572959Y418241D01*
X572306Y419219D01*
X571856Y420305D01*
X571711Y421031D01*
X576581Y421031D01*
X576581Y416162D01*
X575855Y416306D01*
G37*
%LPD*%
%LPC*%
G36*
X305548Y379832D02*
X305548Y379832D01*
X304461Y380282D01*
X303484Y380935D01*
X302652Y381766D01*
X301999Y382744D01*
X301549Y383831D01*
X301404Y384557D01*
X306274Y384557D01*
X306274Y379687D01*
X305548Y379832D01*
G37*
%LPD*%
%LPC*%
G36*
X267448Y316332D02*
X267448Y316332D01*
X266361Y316782D01*
X265384Y317435D01*
X264552Y318266D01*
X263899Y319244D01*
X263449Y320331D01*
X263304Y321057D01*
X268174Y321057D01*
X268174Y316187D01*
X267448Y316332D01*
G37*
%LPD*%
%LPC*%
G36*
X343648Y214732D02*
X343648Y214732D01*
X342561Y215182D01*
X341584Y215835D01*
X340752Y216666D01*
X340099Y217644D01*
X339649Y218731D01*
X339504Y219457D01*
X344374Y219457D01*
X344374Y214587D01*
X343648Y214732D01*
G37*
%LPD*%
%LPC*%
G36*
X396188Y423671D02*
X396188Y423671D01*
X396188Y423673D01*
X396190Y423673D01*
X396190Y423671D01*
X396188Y423671D01*
G37*
%LPD*%
D10*
X370789Y449072D03*
X396189Y449072D03*
X396189Y474472D03*
X370789Y474472D03*
X370789Y423672D03*
X396189Y423672D03*
D11*
X434289Y410972D03*
D12*
X372974Y349656D01*
X321107Y349656D01*
X321005Y349555D01*
D11*
X321005Y349555D03*
X434289Y423672D03*
D12*
X370789Y360172D01*
X269189Y360172D01*
D11*
X269189Y360172D03*
X472389Y474472D03*
X345389Y220472D03*
X269189Y322072D03*
X307289Y385572D03*
X577596Y422046D03*
X370789Y398272D03*
D13*
X396189Y398272D02*
X434289Y436372D01*
X396189Y398272D02*
X370789Y398272D01*
D11*
X434289Y436372D03*
M02*
