G04 EAGLE Gerber RS-274X export*
G75*
%MOMM*%
%FSLAX34Y34*%
%LPD*%
%INBottom Copper*%
%IPPOS*%
%AMOC8*
5,1,8,0,0,1.08239X$1,22.5*%
G01*
%ADD10C,1.625600*%
%ADD11C,0.685800*%
%ADD12C,0.203200*%

G36*
X682102Y2549D02*
X682102Y2549D01*
X682160Y2547D01*
X682242Y2569D01*
X682326Y2581D01*
X682379Y2604D01*
X682435Y2619D01*
X682508Y2662D01*
X682585Y2697D01*
X682630Y2735D01*
X682680Y2764D01*
X682738Y2826D01*
X682802Y2880D01*
X682834Y2929D01*
X682874Y2972D01*
X682913Y3047D01*
X682960Y3117D01*
X682977Y3173D01*
X683004Y3225D01*
X683015Y3293D01*
X683045Y3388D01*
X683048Y3488D01*
X683059Y3556D01*
X683059Y508000D01*
X683051Y508058D01*
X683053Y508116D01*
X683031Y508198D01*
X683019Y508282D01*
X682996Y508335D01*
X682981Y508391D01*
X682938Y508464D01*
X682903Y508541D01*
X682865Y508586D01*
X682836Y508636D01*
X682774Y508694D01*
X682720Y508758D01*
X682671Y508790D01*
X682628Y508830D01*
X682553Y508869D01*
X682483Y508916D01*
X682427Y508933D01*
X682375Y508960D01*
X682307Y508971D01*
X682212Y509001D01*
X682112Y509004D01*
X682044Y509015D01*
X3556Y509015D01*
X3498Y509007D01*
X3440Y509009D01*
X3358Y508987D01*
X3274Y508975D01*
X3221Y508952D01*
X3165Y508937D01*
X3092Y508894D01*
X3015Y508859D01*
X2970Y508821D01*
X2920Y508792D01*
X2862Y508730D01*
X2798Y508676D01*
X2766Y508627D01*
X2726Y508584D01*
X2687Y508509D01*
X2640Y508439D01*
X2623Y508383D01*
X2596Y508331D01*
X2585Y508263D01*
X2555Y508168D01*
X2552Y508068D01*
X2541Y508000D01*
X2541Y3556D01*
X2549Y3498D01*
X2547Y3440D01*
X2569Y3358D01*
X2581Y3274D01*
X2604Y3221D01*
X2619Y3165D01*
X2662Y3092D01*
X2697Y3015D01*
X2735Y2970D01*
X2764Y2920D01*
X2826Y2862D01*
X2880Y2798D01*
X2929Y2766D01*
X2972Y2726D01*
X3047Y2687D01*
X3117Y2640D01*
X3173Y2623D01*
X3225Y2596D01*
X3293Y2585D01*
X3388Y2555D01*
X3488Y2552D01*
X3556Y2541D01*
X682044Y2541D01*
X682102Y2549D01*
G37*
%LPC*%
G36*
X392614Y337438D02*
X392614Y337438D01*
X390606Y338270D01*
X389070Y339806D01*
X388238Y341814D01*
X388238Y343986D01*
X389070Y345994D01*
X390606Y347530D01*
X392614Y348362D01*
X394786Y348362D01*
X396794Y347530D01*
X398078Y346246D01*
X398148Y346194D01*
X398212Y346134D01*
X398261Y346108D01*
X398305Y346075D01*
X398387Y346044D01*
X398465Y346004D01*
X398512Y345996D01*
X398571Y345974D01*
X398719Y345962D01*
X398796Y345949D01*
X442817Y345949D01*
X442903Y345961D01*
X442991Y345964D01*
X443043Y345981D01*
X443098Y345989D01*
X443178Y346024D01*
X443261Y346051D01*
X443300Y346079D01*
X443358Y346105D01*
X443471Y346201D01*
X443535Y346246D01*
X502241Y404952D01*
X502293Y405022D01*
X502353Y405086D01*
X502379Y405136D01*
X502412Y405180D01*
X502443Y405261D01*
X502483Y405339D01*
X502491Y405387D01*
X502513Y405445D01*
X502525Y405593D01*
X502538Y405670D01*
X502538Y406876D01*
X502534Y406905D01*
X502537Y406934D01*
X502514Y407045D01*
X502498Y407157D01*
X502486Y407184D01*
X502481Y407213D01*
X502429Y407313D01*
X502382Y407417D01*
X502363Y407439D01*
X502350Y407465D01*
X502272Y407547D01*
X502199Y407634D01*
X502174Y407650D01*
X502154Y407671D01*
X502056Y407728D01*
X501962Y407791D01*
X501934Y407800D01*
X501909Y407815D01*
X501799Y407843D01*
X501691Y407877D01*
X501661Y407878D01*
X501633Y407885D01*
X501520Y407881D01*
X501407Y407884D01*
X501378Y407877D01*
X501349Y407876D01*
X501241Y407841D01*
X501132Y407812D01*
X501106Y407797D01*
X501078Y407788D01*
X501015Y407743D01*
X500887Y407667D01*
X500844Y407622D01*
X500805Y407594D01*
X447846Y354635D01*
X445763Y352551D01*
X347996Y352551D01*
X347909Y352539D01*
X347822Y352536D01*
X347769Y352519D01*
X347714Y352511D01*
X347635Y352476D01*
X347551Y352449D01*
X347512Y352421D01*
X347455Y352395D01*
X347342Y352299D01*
X347278Y352254D01*
X345994Y350970D01*
X343986Y350138D01*
X341814Y350138D01*
X339806Y350970D01*
X338270Y352506D01*
X337438Y354514D01*
X337438Y356686D01*
X338270Y358694D01*
X339806Y360230D01*
X341814Y361062D01*
X343986Y361062D01*
X345994Y360230D01*
X347278Y358946D01*
X347348Y358894D01*
X347412Y358834D01*
X347461Y358808D01*
X347505Y358775D01*
X347587Y358744D01*
X347665Y358704D01*
X347712Y358696D01*
X347771Y358674D01*
X347919Y358662D01*
X347996Y358649D01*
X442817Y358649D01*
X442903Y358661D01*
X442991Y358664D01*
X443043Y358681D01*
X443098Y358689D01*
X443178Y358724D01*
X443261Y358751D01*
X443300Y358779D01*
X443358Y358805D01*
X443471Y358901D01*
X443535Y358946D01*
X502241Y417652D01*
X502293Y417722D01*
X502353Y417786D01*
X502379Y417836D01*
X502412Y417880D01*
X502443Y417961D01*
X502483Y418039D01*
X502491Y418087D01*
X502513Y418145D01*
X502525Y418293D01*
X502538Y418370D01*
X502538Y420186D01*
X503370Y422194D01*
X504906Y423730D01*
X506914Y424562D01*
X509086Y424562D01*
X511094Y423730D01*
X512630Y422194D01*
X513462Y420186D01*
X513462Y418014D01*
X512630Y416006D01*
X511094Y414470D01*
X509206Y413688D01*
X509181Y413673D01*
X509153Y413664D01*
X509059Y413601D01*
X508962Y413543D01*
X508941Y413522D01*
X508917Y413506D01*
X508844Y413419D01*
X508766Y413337D01*
X508753Y413311D01*
X508734Y413288D01*
X508688Y413185D01*
X508636Y413084D01*
X508631Y413055D01*
X508619Y413028D01*
X508603Y412916D01*
X508581Y412805D01*
X508584Y412776D01*
X508580Y412747D01*
X508596Y412635D01*
X508606Y412522D01*
X508616Y412495D01*
X508620Y412465D01*
X508667Y412362D01*
X508708Y412257D01*
X508725Y412233D01*
X508737Y412206D01*
X508811Y412120D01*
X508879Y412030D01*
X508903Y412012D01*
X508922Y411990D01*
X508988Y411948D01*
X509107Y411860D01*
X509166Y411838D01*
X509206Y411812D01*
X511094Y411030D01*
X512630Y409494D01*
X513462Y407486D01*
X513462Y405314D01*
X512630Y403306D01*
X511094Y401770D01*
X509086Y400938D01*
X507270Y400938D01*
X507184Y400926D01*
X507096Y400923D01*
X507044Y400906D01*
X506989Y400898D01*
X506909Y400863D01*
X506826Y400836D01*
X506787Y400808D01*
X506729Y400782D01*
X506616Y400686D01*
X506552Y400641D01*
X445763Y339851D01*
X398796Y339851D01*
X398709Y339839D01*
X398622Y339836D01*
X398569Y339819D01*
X398514Y339811D01*
X398435Y339776D01*
X398351Y339749D01*
X398312Y339721D01*
X398255Y339695D01*
X398142Y339599D01*
X398078Y339554D01*
X396794Y338270D01*
X394786Y337438D01*
X392614Y337438D01*
G37*
%LPD*%
%LPC*%
G36*
X467879Y472439D02*
X467879Y472439D01*
X464144Y473986D01*
X461286Y476844D01*
X459739Y480579D01*
X459739Y484621D01*
X461286Y488356D01*
X464144Y491214D01*
X467879Y492761D01*
X471921Y492761D01*
X475656Y491214D01*
X478514Y488356D01*
X480061Y484621D01*
X480061Y480579D01*
X478514Y476844D01*
X475656Y473986D01*
X471921Y472439D01*
X467879Y472439D01*
G37*
%LPD*%
%LPC*%
G36*
X442479Y472439D02*
X442479Y472439D01*
X438744Y473986D01*
X435886Y476844D01*
X434339Y480579D01*
X434339Y484621D01*
X435886Y488356D01*
X438744Y491214D01*
X442479Y492761D01*
X446521Y492761D01*
X450256Y491214D01*
X453114Y488356D01*
X454661Y484621D01*
X454661Y480579D01*
X453114Y476844D01*
X450256Y473986D01*
X446521Y472439D01*
X442479Y472439D01*
G37*
%LPD*%
%LPC*%
G36*
X467879Y447039D02*
X467879Y447039D01*
X464144Y448586D01*
X461286Y451444D01*
X459739Y455179D01*
X459739Y459221D01*
X461286Y462956D01*
X464144Y465814D01*
X467879Y467361D01*
X471921Y467361D01*
X475656Y465814D01*
X478514Y462956D01*
X480061Y459221D01*
X480061Y455179D01*
X478514Y451444D01*
X475656Y448586D01*
X471921Y447039D01*
X467879Y447039D01*
G37*
%LPD*%
%LPC*%
G36*
X442479Y447039D02*
X442479Y447039D01*
X438744Y448586D01*
X435886Y451444D01*
X434339Y455179D01*
X434339Y459221D01*
X435886Y462956D01*
X438744Y465814D01*
X442479Y467361D01*
X446521Y467361D01*
X450256Y465814D01*
X453114Y462956D01*
X454661Y459221D01*
X454661Y455179D01*
X453114Y451444D01*
X450256Y448586D01*
X446521Y447039D01*
X442479Y447039D01*
G37*
%LPD*%
%LPC*%
G36*
X442479Y421639D02*
X442479Y421639D01*
X438744Y423186D01*
X435886Y426044D01*
X434339Y429779D01*
X434339Y433821D01*
X435886Y437556D01*
X438744Y440414D01*
X442479Y441961D01*
X446521Y441961D01*
X450256Y440414D01*
X453114Y437556D01*
X454661Y433821D01*
X454661Y429779D01*
X453114Y426044D01*
X450256Y423186D01*
X446521Y421639D01*
X442479Y421639D01*
G37*
%LPD*%
%LPC*%
G36*
X21349Y102209D02*
X21349Y102209D01*
X19037Y103167D01*
X17267Y104937D01*
X16309Y107249D01*
X16309Y109751D01*
X17267Y112063D01*
X19037Y113833D01*
X21349Y114791D01*
X23851Y114791D01*
X26163Y113833D01*
X27933Y112063D01*
X28891Y109751D01*
X28891Y107249D01*
X27933Y104937D01*
X26163Y103167D01*
X23851Y102209D01*
X21349Y102209D01*
G37*
%LPD*%
%LPC*%
G36*
X21349Y71709D02*
X21349Y71709D01*
X19037Y72667D01*
X17267Y74437D01*
X16309Y76749D01*
X16309Y79251D01*
X17267Y81563D01*
X19037Y83333D01*
X21349Y84291D01*
X23851Y84291D01*
X26163Y83333D01*
X27933Y81563D01*
X28891Y79251D01*
X28891Y76749D01*
X27933Y74437D01*
X26163Y72667D01*
X23851Y71709D01*
X21349Y71709D01*
G37*
%LPD*%
%LPC*%
G36*
X471931Y433831D02*
X471931Y433831D01*
X471931Y442280D01*
X472398Y442206D01*
X473995Y441687D01*
X475492Y440925D01*
X476850Y439938D01*
X478038Y438750D01*
X479025Y437392D01*
X479787Y435895D01*
X480306Y434298D01*
X480380Y433831D01*
X471931Y433831D01*
G37*
%LPD*%
%LPC*%
G36*
X459420Y433831D02*
X459420Y433831D01*
X459494Y434298D01*
X460013Y435895D01*
X460775Y437392D01*
X461762Y438750D01*
X462950Y439938D01*
X464308Y440925D01*
X465805Y441687D01*
X467402Y442206D01*
X467869Y442280D01*
X467869Y433831D01*
X459420Y433831D01*
G37*
%LPD*%
%LPC*%
G36*
X471931Y429769D02*
X471931Y429769D01*
X480380Y429769D01*
X480306Y429302D01*
X479787Y427705D01*
X479025Y426208D01*
X478038Y424850D01*
X476850Y423662D01*
X475492Y422675D01*
X473995Y421913D01*
X472398Y421394D01*
X471931Y421320D01*
X471931Y429769D01*
G37*
%LPD*%
%LPC*%
G36*
X467402Y421394D02*
X467402Y421394D01*
X465805Y421913D01*
X464308Y422675D01*
X462950Y423662D01*
X461762Y424850D01*
X460775Y426208D01*
X460013Y427705D01*
X459494Y429302D01*
X459420Y429769D01*
X467869Y429769D01*
X467869Y421320D01*
X467402Y421394D01*
G37*
%LPD*%
%LPC*%
G36*
X534415Y483615D02*
X534415Y483615D01*
X534415Y488485D01*
X535141Y488340D01*
X536228Y487890D01*
X537206Y487237D01*
X538037Y486406D01*
X538690Y485428D01*
X539140Y484341D01*
X539285Y483615D01*
X534415Y483615D01*
G37*
%LPD*%
%LPC*%
G36*
X382015Y394715D02*
X382015Y394715D01*
X382015Y399585D01*
X382741Y399440D01*
X383828Y398990D01*
X384806Y398337D01*
X385637Y397506D01*
X386290Y396528D01*
X386740Y395441D01*
X386885Y394715D01*
X382015Y394715D01*
G37*
%LPD*%
%LPC*%
G36*
X343915Y318515D02*
X343915Y318515D01*
X343915Y323385D01*
X344641Y323240D01*
X345728Y322790D01*
X346706Y322137D01*
X347537Y321306D01*
X348190Y320328D01*
X348640Y319241D01*
X348785Y318515D01*
X343915Y318515D01*
G37*
%LPD*%
%LPC*%
G36*
X369315Y191515D02*
X369315Y191515D01*
X369315Y196385D01*
X370041Y196240D01*
X371128Y195790D01*
X372106Y195137D01*
X372937Y194306D01*
X373590Y193328D01*
X374040Y192241D01*
X374185Y191515D01*
X369315Y191515D01*
G37*
%LPD*%
%LPC*%
G36*
X527515Y483615D02*
X527515Y483615D01*
X527660Y484341D01*
X528110Y485428D01*
X528763Y486406D01*
X529594Y487237D01*
X530572Y487890D01*
X531659Y488340D01*
X532385Y488485D01*
X532385Y483615D01*
X527515Y483615D01*
G37*
%LPD*%
%LPC*%
G36*
X534415Y481585D02*
X534415Y481585D01*
X539285Y481585D01*
X539140Y480859D01*
X538690Y479772D01*
X538037Y478794D01*
X537206Y477963D01*
X536228Y477310D01*
X535141Y476860D01*
X534415Y476715D01*
X534415Y481585D01*
G37*
%LPD*%
%LPC*%
G36*
X375115Y394715D02*
X375115Y394715D01*
X375260Y395441D01*
X375710Y396528D01*
X376363Y397506D01*
X377194Y398337D01*
X378172Y398990D01*
X379259Y399440D01*
X379985Y399585D01*
X379985Y394715D01*
X375115Y394715D01*
G37*
%LPD*%
%LPC*%
G36*
X382015Y392685D02*
X382015Y392685D01*
X386885Y392685D01*
X386740Y391959D01*
X386290Y390872D01*
X385637Y389894D01*
X384806Y389063D01*
X383828Y388410D01*
X382741Y387960D01*
X382015Y387815D01*
X382015Y392685D01*
G37*
%LPD*%
%LPC*%
G36*
X337015Y318515D02*
X337015Y318515D01*
X337160Y319241D01*
X337610Y320328D01*
X338263Y321306D01*
X339094Y322137D01*
X340072Y322790D01*
X341159Y323240D01*
X341885Y323385D01*
X341885Y318515D01*
X337015Y318515D01*
G37*
%LPD*%
%LPC*%
G36*
X343915Y316485D02*
X343915Y316485D01*
X348785Y316485D01*
X348640Y315759D01*
X348190Y314672D01*
X347537Y313694D01*
X346706Y312863D01*
X345728Y312210D01*
X344641Y311760D01*
X343915Y311615D01*
X343915Y316485D01*
G37*
%LPD*%
%LPC*%
G36*
X362415Y191515D02*
X362415Y191515D01*
X362560Y192241D01*
X363010Y193328D01*
X363663Y194306D01*
X364494Y195137D01*
X365472Y195790D01*
X366559Y196240D01*
X367285Y196385D01*
X367285Y191515D01*
X362415Y191515D01*
G37*
%LPD*%
%LPC*%
G36*
X369315Y189485D02*
X369315Y189485D01*
X374185Y189485D01*
X374040Y188759D01*
X373590Y187672D01*
X372937Y186694D01*
X372106Y185863D01*
X371128Y185210D01*
X370041Y184760D01*
X369315Y184615D01*
X369315Y189485D01*
G37*
%LPD*%
%LPC*%
G36*
X531659Y476860D02*
X531659Y476860D01*
X530572Y477310D01*
X529594Y477963D01*
X528763Y478794D01*
X528110Y479772D01*
X527660Y480859D01*
X527515Y481585D01*
X532385Y481585D01*
X532385Y476715D01*
X531659Y476860D01*
G37*
%LPD*%
%LPC*%
G36*
X379259Y387960D02*
X379259Y387960D01*
X378172Y388410D01*
X377194Y389063D01*
X376363Y389894D01*
X375710Y390872D01*
X375260Y391959D01*
X375115Y392685D01*
X379985Y392685D01*
X379985Y387815D01*
X379259Y387960D01*
G37*
%LPD*%
%LPC*%
G36*
X341159Y311760D02*
X341159Y311760D01*
X340072Y312210D01*
X339094Y312863D01*
X338263Y313694D01*
X337610Y314672D01*
X337160Y315759D01*
X337015Y316485D01*
X341885Y316485D01*
X341885Y311615D01*
X341159Y311760D01*
G37*
%LPD*%
%LPC*%
G36*
X366559Y184760D02*
X366559Y184760D01*
X365472Y185210D01*
X364494Y185863D01*
X363663Y186694D01*
X363010Y187672D01*
X362560Y188759D01*
X362415Y189485D01*
X367285Y189485D01*
X367285Y184615D01*
X366559Y184760D01*
G37*
%LPD*%
%LPC*%
G36*
X469899Y431799D02*
X469899Y431799D01*
X469899Y431801D01*
X469901Y431801D01*
X469901Y431799D01*
X469899Y431799D01*
G37*
%LPD*%
D10*
X444500Y457200D03*
X469900Y457200D03*
X469900Y482600D03*
X444500Y482600D03*
X444500Y431800D03*
X469900Y431800D03*
D11*
X508000Y406400D03*
D12*
X444500Y342900D01*
X393700Y342900D01*
D11*
X393700Y342900D03*
X508000Y419100D03*
D12*
X444500Y355600D01*
X342900Y355600D01*
D11*
X342900Y355600D03*
X533400Y482600D03*
X368300Y190500D03*
X381000Y393700D03*
X342900Y317500D03*
M02*
