G04 EAGLE Gerber RS-274X export*
G75*
%MOMM*%
%FSLAX34Y34*%
%LPD*%
%IN*%
%IPPOS*%
%AMOC8*
5,1,8,0,0,1.08239X$1,22.5*%
G01*
%ADD10C,0.254000*%


D10*
X12700Y393700D02*
X495100Y393700D01*
X495100Y1000000D01*
X12700Y1000000D01*
X12700Y393700D01*
X47754Y600050D02*
X47267Y600114D01*
X46792Y600241D01*
X46338Y600430D01*
X45912Y600675D01*
X45522Y600975D01*
X45175Y601322D01*
X44875Y601712D01*
X44630Y602138D01*
X44441Y602592D01*
X44314Y603067D01*
X44250Y603554D01*
X44250Y604046D01*
X44314Y604533D01*
X44441Y605008D01*
X44630Y605462D01*
X44875Y605888D01*
X45175Y606278D01*
X45522Y606625D01*
X45912Y606925D01*
X46338Y607171D01*
X46792Y607359D01*
X47267Y607486D01*
X47754Y607550D01*
X48246Y607550D01*
X48733Y607486D01*
X49208Y607359D01*
X49662Y607171D01*
X50088Y606925D01*
X50478Y606625D01*
X50825Y606278D01*
X51125Y605888D01*
X51371Y605462D01*
X51559Y605008D01*
X51686Y604533D01*
X51750Y604046D01*
X51750Y603554D01*
X51686Y603067D01*
X51559Y602592D01*
X51371Y602138D01*
X51125Y601712D01*
X50825Y601322D01*
X50478Y600975D01*
X50088Y600675D01*
X49662Y600430D01*
X49208Y600241D01*
X48733Y600114D01*
X48246Y600050D01*
X47754Y600050D01*
X47754Y569550D02*
X47267Y569614D01*
X46792Y569741D01*
X46338Y569930D01*
X45912Y570175D01*
X45522Y570475D01*
X45175Y570822D01*
X44875Y571212D01*
X44630Y571638D01*
X44441Y572092D01*
X44314Y572567D01*
X44250Y573054D01*
X44250Y573546D01*
X44314Y574033D01*
X44441Y574508D01*
X44630Y574962D01*
X44875Y575388D01*
X45175Y575778D01*
X45522Y576125D01*
X45912Y576425D01*
X46338Y576671D01*
X46792Y576859D01*
X47267Y576986D01*
X47754Y577050D01*
X48246Y577050D01*
X48733Y576986D01*
X49208Y576859D01*
X49662Y576671D01*
X50088Y576425D01*
X50478Y576125D01*
X50825Y575778D01*
X51125Y575388D01*
X51371Y574962D01*
X51559Y574508D01*
X51686Y574033D01*
X51750Y573546D01*
X51750Y573054D01*
X51686Y572567D01*
X51559Y572092D01*
X51371Y571638D01*
X51125Y571212D01*
X50825Y570822D01*
X50478Y570475D01*
X50088Y570175D01*
X49662Y569930D01*
X49208Y569741D01*
X48733Y569614D01*
X48246Y569550D01*
X47754Y569550D01*
M02*
