G04 EAGLE Gerber RS-274X export*
G75*
%MOMM*%
%FSLAX34Y34*%
%LPD*%
%INBottom Copper*%
%IPPOS*%
%AMOC8*
5,1,8,0,0,1.08239X$1,22.5*%
G01*
%ADD10C,1.625600*%
%ADD11C,0.685800*%
%ADD12C,0.203200*%
%ADD13C,0.330200*%

G36*
X608607Y7116D02*
X608607Y7116D01*
X608627Y7114D01*
X608728Y7136D01*
X608830Y7152D01*
X608848Y7162D01*
X608867Y7166D01*
X608956Y7219D01*
X609047Y7268D01*
X609061Y7282D01*
X609078Y7292D01*
X609145Y7371D01*
X609217Y7446D01*
X609225Y7464D01*
X609238Y7479D01*
X609277Y7575D01*
X609320Y7669D01*
X609323Y7689D01*
X609330Y7707D01*
X609348Y7874D01*
X609348Y518670D01*
X609345Y518690D01*
X609347Y518709D01*
X609325Y518811D01*
X609309Y518913D01*
X609299Y518930D01*
X609295Y518950D01*
X609242Y519039D01*
X609194Y519130D01*
X609179Y519144D01*
X609169Y519161D01*
X609090Y519228D01*
X609015Y519299D01*
X608997Y519308D01*
X608982Y519321D01*
X608886Y519360D01*
X608792Y519403D01*
X608772Y519405D01*
X608754Y519413D01*
X608587Y519431D01*
X5791Y519431D01*
X5771Y519428D01*
X5752Y519430D01*
X5650Y519408D01*
X5548Y519391D01*
X5531Y519382D01*
X5511Y519378D01*
X5422Y519325D01*
X5331Y519276D01*
X5317Y519262D01*
X5300Y519252D01*
X5233Y519173D01*
X5162Y519098D01*
X5153Y519080D01*
X5140Y519065D01*
X5102Y518969D01*
X5058Y518875D01*
X5056Y518855D01*
X5048Y518837D01*
X5030Y518670D01*
X5030Y7874D01*
X5033Y7854D01*
X5031Y7834D01*
X5053Y7733D01*
X5070Y7631D01*
X5079Y7614D01*
X5083Y7594D01*
X5136Y7505D01*
X5185Y7414D01*
X5199Y7400D01*
X5209Y7383D01*
X5288Y7316D01*
X5363Y7244D01*
X5381Y7236D01*
X5396Y7223D01*
X5493Y7184D01*
X5586Y7141D01*
X5606Y7139D01*
X5624Y7131D01*
X5791Y7113D01*
X608587Y7113D01*
X608607Y7116D01*
G37*
%LPC*%
G36*
X319919Y344093D02*
X319919Y344093D01*
X317911Y344925D01*
X316375Y346461D01*
X315543Y348468D01*
X315543Y350641D01*
X316375Y352649D01*
X317911Y354185D01*
X319919Y355016D01*
X322092Y355016D01*
X324099Y354185D01*
X325356Y352928D01*
X325430Y352875D01*
X325499Y352815D01*
X325530Y352803D01*
X325556Y352785D01*
X325643Y352758D01*
X325728Y352724D01*
X325768Y352719D01*
X325791Y352712D01*
X325823Y352713D01*
X325894Y352705D01*
X371395Y352705D01*
X371485Y352720D01*
X371576Y352727D01*
X371606Y352740D01*
X371638Y352745D01*
X371719Y352788D01*
X371803Y352823D01*
X371835Y352849D01*
X371856Y352860D01*
X371869Y352874D01*
X371871Y352875D01*
X371881Y352886D01*
X371934Y352928D01*
X428604Y409599D01*
X428658Y409673D01*
X428717Y409742D01*
X428729Y409772D01*
X428748Y409799D01*
X428775Y409886D01*
X428809Y409970D01*
X428814Y410011D01*
X428820Y410034D01*
X428820Y410066D01*
X428827Y410137D01*
X428827Y412061D01*
X428816Y412132D01*
X428814Y412203D01*
X428796Y412252D01*
X428788Y412304D01*
X428754Y412367D01*
X428730Y412434D01*
X428697Y412475D01*
X428673Y412521D01*
X428621Y412570D01*
X428576Y412626D01*
X428532Y412655D01*
X428494Y412690D01*
X428429Y412721D01*
X428369Y412759D01*
X428318Y412772D01*
X428271Y412794D01*
X428200Y412802D01*
X428130Y412819D01*
X428078Y412815D01*
X428027Y412821D01*
X427957Y412806D01*
X427885Y412800D01*
X427837Y412780D01*
X427786Y412769D01*
X427725Y412732D01*
X427659Y412704D01*
X427603Y412659D01*
X427575Y412643D01*
X427560Y412625D01*
X427528Y412599D01*
X374061Y359132D01*
X372052Y357123D01*
X274180Y357123D01*
X274090Y357108D01*
X273999Y357101D01*
X273969Y357089D01*
X273937Y357083D01*
X273856Y357041D01*
X273773Y357005D01*
X273740Y356979D01*
X273720Y356968D01*
X273698Y356945D01*
X273642Y356900D01*
X272283Y355542D01*
X270276Y354710D01*
X268103Y354710D01*
X266095Y355542D01*
X264559Y357078D01*
X263727Y359086D01*
X263727Y361258D01*
X264559Y363266D01*
X266095Y364802D01*
X268103Y365634D01*
X270276Y365634D01*
X272283Y364802D01*
X273642Y363444D01*
X273716Y363391D01*
X273785Y363331D01*
X273815Y363319D01*
X273841Y363300D01*
X273928Y363273D01*
X274013Y363239D01*
X274054Y363235D01*
X274076Y363228D01*
X274109Y363229D01*
X274180Y363221D01*
X369211Y363221D01*
X369301Y363235D01*
X369392Y363243D01*
X369422Y363255D01*
X369454Y363260D01*
X369534Y363303D01*
X369618Y363339D01*
X369650Y363365D01*
X369671Y363376D01*
X369693Y363399D01*
X369749Y363444D01*
X428604Y422299D01*
X428658Y422373D01*
X428717Y422442D01*
X428729Y422472D01*
X428748Y422499D01*
X428775Y422586D01*
X428809Y422670D01*
X428814Y422711D01*
X428820Y422734D01*
X428820Y422766D01*
X428827Y422837D01*
X428827Y423863D01*
X428816Y423934D01*
X428814Y424005D01*
X428796Y424054D01*
X428788Y424106D01*
X428754Y424169D01*
X428730Y424236D01*
X428697Y424277D01*
X428673Y424323D01*
X428621Y424372D01*
X428576Y424428D01*
X428532Y424457D01*
X428494Y424492D01*
X428429Y424523D01*
X428369Y424561D01*
X428318Y424574D01*
X428271Y424596D01*
X428200Y424604D01*
X428130Y424621D01*
X428078Y424617D01*
X428027Y424623D01*
X427957Y424608D01*
X427885Y424602D01*
X427837Y424582D01*
X427786Y424571D01*
X427725Y424534D01*
X427659Y424506D01*
X427603Y424461D01*
X427575Y424445D01*
X427560Y424427D01*
X427528Y424401D01*
X400096Y396969D01*
X397715Y394588D01*
X375145Y394588D01*
X375055Y394573D01*
X374964Y394566D01*
X374934Y394554D01*
X374902Y394548D01*
X374821Y394506D01*
X374738Y394470D01*
X374705Y394444D01*
X374685Y394433D01*
X374663Y394410D01*
X374607Y394365D01*
X373883Y393642D01*
X371876Y392810D01*
X369703Y392810D01*
X367695Y393642D01*
X366159Y395178D01*
X365327Y397186D01*
X365327Y399358D01*
X366159Y401366D01*
X367695Y402902D01*
X369703Y403734D01*
X371876Y403734D01*
X373883Y402902D01*
X374607Y402179D01*
X374681Y402126D01*
X374750Y402066D01*
X374780Y402054D01*
X374806Y402035D01*
X374893Y402008D01*
X374978Y401974D01*
X375019Y401970D01*
X375041Y401963D01*
X375074Y401964D01*
X375145Y401956D01*
X394348Y401956D01*
X394438Y401970D01*
X394529Y401978D01*
X394559Y401990D01*
X394591Y401995D01*
X394671Y402038D01*
X394755Y402074D01*
X394787Y402100D01*
X394808Y402111D01*
X394830Y402134D01*
X394886Y402179D01*
X428604Y435897D01*
X428658Y435971D01*
X428717Y436040D01*
X428729Y436070D01*
X428748Y436097D01*
X428775Y436184D01*
X428809Y436268D01*
X428814Y436309D01*
X428820Y436332D01*
X428820Y436364D01*
X428827Y436435D01*
X428827Y437458D01*
X429659Y439466D01*
X431195Y441002D01*
X433203Y441834D01*
X435376Y441834D01*
X437383Y441002D01*
X438919Y439466D01*
X439751Y437458D01*
X439751Y435286D01*
X438919Y433278D01*
X437383Y431742D01*
X435376Y430910D01*
X434352Y430910D01*
X434262Y430896D01*
X434171Y430888D01*
X434142Y430876D01*
X434110Y430870D01*
X434029Y430828D01*
X433945Y430792D01*
X433913Y430766D01*
X433892Y430755D01*
X433870Y430732D01*
X433814Y430687D01*
X433560Y430433D01*
X433518Y430375D01*
X433469Y430323D01*
X433447Y430276D01*
X433416Y430234D01*
X433395Y430165D01*
X433365Y430100D01*
X433359Y430048D01*
X433344Y429998D01*
X433346Y429927D01*
X433338Y429855D01*
X433349Y429805D01*
X433350Y429753D01*
X433375Y429685D01*
X433390Y429615D01*
X433417Y429570D01*
X433435Y429522D01*
X433480Y429466D01*
X433517Y429404D01*
X433556Y429370D01*
X433589Y429330D01*
X433649Y429291D01*
X433703Y429244D01*
X433752Y429225D01*
X433796Y429197D01*
X433865Y429179D01*
X433932Y429152D01*
X434003Y429144D01*
X434034Y429136D01*
X434057Y429138D01*
X434098Y429134D01*
X435376Y429134D01*
X437383Y428302D01*
X438919Y426766D01*
X439751Y424758D01*
X439751Y422586D01*
X438919Y420578D01*
X437383Y419042D01*
X435376Y418210D01*
X433454Y418210D01*
X433364Y418196D01*
X433273Y418188D01*
X433244Y418176D01*
X433212Y418170D01*
X433131Y418128D01*
X433047Y418092D01*
X433015Y418066D01*
X432994Y418055D01*
X432974Y418034D01*
X432972Y418033D01*
X432967Y418028D01*
X432916Y417987D01*
X432662Y417733D01*
X432620Y417675D01*
X432571Y417623D01*
X432549Y417576D01*
X432518Y417534D01*
X432497Y417465D01*
X432467Y417400D01*
X432461Y417348D01*
X432446Y417298D01*
X432448Y417227D01*
X432440Y417155D01*
X432451Y417105D01*
X432452Y417053D01*
X432477Y416985D01*
X432492Y416915D01*
X432519Y416870D01*
X432537Y416822D01*
X432582Y416766D01*
X432619Y416704D01*
X432658Y416670D01*
X432691Y416630D01*
X432751Y416591D01*
X432805Y416544D01*
X432854Y416525D01*
X432898Y416497D01*
X432967Y416479D01*
X433034Y416452D01*
X433105Y416444D01*
X433136Y416436D01*
X433159Y416438D01*
X433200Y416434D01*
X435376Y416434D01*
X437383Y415602D01*
X438919Y414066D01*
X439751Y412058D01*
X439751Y409886D01*
X438919Y407878D01*
X437383Y406342D01*
X435376Y405510D01*
X433454Y405510D01*
X433364Y405495D01*
X433273Y405488D01*
X433244Y405476D01*
X433212Y405470D01*
X433131Y405428D01*
X433047Y405392D01*
X433015Y405366D01*
X432994Y405355D01*
X432972Y405332D01*
X432916Y405287D01*
X374236Y346608D01*
X326097Y346608D01*
X326007Y346593D01*
X325916Y346586D01*
X325887Y346573D01*
X325855Y346568D01*
X325774Y346525D01*
X325690Y346489D01*
X325658Y346464D01*
X325637Y346453D01*
X325615Y346429D01*
X325559Y346385D01*
X324099Y344925D01*
X322092Y344093D01*
X319919Y344093D01*
G37*
%LPD*%
%LPC*%
G36*
X394168Y464311D02*
X394168Y464311D01*
X390434Y465858D01*
X387575Y468716D01*
X386028Y472451D01*
X386028Y476493D01*
X387575Y480228D01*
X390434Y483086D01*
X394168Y484633D01*
X398210Y484633D01*
X401945Y483086D01*
X404803Y480228D01*
X406350Y476493D01*
X406350Y472451D01*
X404803Y468716D01*
X401945Y465858D01*
X398210Y464311D01*
X394168Y464311D01*
G37*
%LPD*%
%LPC*%
G36*
X368768Y464311D02*
X368768Y464311D01*
X365034Y465858D01*
X362175Y468716D01*
X360628Y472451D01*
X360628Y476493D01*
X362175Y480228D01*
X365034Y483086D01*
X368768Y484633D01*
X372810Y484633D01*
X376545Y483086D01*
X379403Y480228D01*
X380950Y476493D01*
X380950Y472451D01*
X379403Y468716D01*
X376545Y465858D01*
X372810Y464311D01*
X368768Y464311D01*
G37*
%LPD*%
%LPC*%
G36*
X394168Y438911D02*
X394168Y438911D01*
X390434Y440458D01*
X387575Y443316D01*
X386028Y447051D01*
X386028Y451093D01*
X387575Y454828D01*
X390434Y457686D01*
X394168Y459233D01*
X398210Y459233D01*
X401945Y457686D01*
X404803Y454828D01*
X406350Y451093D01*
X406350Y447051D01*
X404803Y443316D01*
X401945Y440458D01*
X398210Y438911D01*
X394168Y438911D01*
G37*
%LPD*%
%LPC*%
G36*
X368768Y438911D02*
X368768Y438911D01*
X365034Y440458D01*
X362175Y443316D01*
X360628Y447051D01*
X360628Y451093D01*
X362175Y454828D01*
X365034Y457686D01*
X368768Y459233D01*
X372810Y459233D01*
X376545Y457686D01*
X379403Y454828D01*
X380950Y451093D01*
X380950Y447051D01*
X379403Y443316D01*
X376545Y440458D01*
X372810Y438911D01*
X368768Y438911D01*
G37*
%LPD*%
%LPC*%
G36*
X368768Y413511D02*
X368768Y413511D01*
X365034Y415058D01*
X362175Y417916D01*
X360628Y421651D01*
X360628Y425693D01*
X362175Y429428D01*
X365034Y432286D01*
X368768Y433833D01*
X372810Y433833D01*
X376545Y432286D01*
X379403Y429428D01*
X380950Y425693D01*
X380950Y421651D01*
X379403Y417916D01*
X376545Y415058D01*
X372810Y413511D01*
X368768Y413511D01*
G37*
%LPD*%
%LPC*%
G36*
X397712Y425195D02*
X397712Y425195D01*
X397712Y434232D01*
X398687Y434078D01*
X400285Y433559D01*
X401781Y432797D01*
X403139Y431810D01*
X404327Y430622D01*
X405314Y429264D01*
X406076Y427767D01*
X406595Y426170D01*
X406750Y425195D01*
X397712Y425195D01*
G37*
%LPD*%
%LPC*%
G36*
X385629Y425195D02*
X385629Y425195D01*
X385783Y426170D01*
X386302Y427767D01*
X387064Y429264D01*
X388052Y430622D01*
X389239Y431810D01*
X390598Y432797D01*
X392094Y433559D01*
X393691Y434078D01*
X394666Y434232D01*
X394666Y425195D01*
X385629Y425195D01*
G37*
%LPD*%
%LPC*%
G36*
X397712Y422149D02*
X397712Y422149D01*
X406750Y422149D01*
X406595Y421174D01*
X406076Y419577D01*
X405314Y418080D01*
X404327Y416722D01*
X403139Y415534D01*
X401781Y414547D01*
X400285Y413785D01*
X398687Y413266D01*
X397712Y413111D01*
X397712Y422149D01*
G37*
%LPD*%
%LPC*%
G36*
X393691Y413266D02*
X393691Y413266D01*
X392094Y413785D01*
X390598Y414547D01*
X389239Y415534D01*
X388052Y416722D01*
X387064Y418080D01*
X386302Y419577D01*
X385783Y421174D01*
X385629Y422149D01*
X394666Y422149D01*
X394666Y413111D01*
X393691Y413266D01*
G37*
%LPD*%
%LPC*%
G36*
X473341Y475424D02*
X473341Y475424D01*
X473341Y480369D01*
X474130Y480212D01*
X475217Y479762D01*
X476195Y479109D01*
X477026Y478278D01*
X477680Y477300D01*
X478130Y476213D01*
X478287Y475424D01*
X473341Y475424D01*
G37*
%LPD*%
%LPC*%
G36*
X578548Y422998D02*
X578548Y422998D01*
X578548Y427944D01*
X579337Y427787D01*
X580424Y427337D01*
X581402Y426683D01*
X582233Y425852D01*
X582886Y424874D01*
X583336Y423788D01*
X583493Y422998D01*
X578548Y422998D01*
G37*
%LPD*%
%LPC*%
G36*
X308241Y386524D02*
X308241Y386524D01*
X308241Y391469D01*
X309030Y391312D01*
X310117Y390862D01*
X311095Y390209D01*
X311926Y389378D01*
X312580Y388400D01*
X313030Y387313D01*
X313187Y386524D01*
X308241Y386524D01*
G37*
%LPD*%
%LPC*%
G36*
X270141Y323024D02*
X270141Y323024D01*
X270141Y327969D01*
X270930Y327812D01*
X272017Y327362D01*
X272995Y326709D01*
X273826Y325878D01*
X274480Y324900D01*
X274930Y323813D01*
X275087Y323024D01*
X270141Y323024D01*
G37*
%LPD*%
%LPC*%
G36*
X346341Y221424D02*
X346341Y221424D01*
X346341Y226369D01*
X347130Y226212D01*
X348217Y225762D01*
X349195Y225109D01*
X350026Y224278D01*
X350680Y223300D01*
X351130Y222213D01*
X351287Y221424D01*
X346341Y221424D01*
G37*
%LPD*%
%LPC*%
G36*
X466492Y475424D02*
X466492Y475424D01*
X466649Y476213D01*
X467099Y477300D01*
X467752Y478278D01*
X468584Y479109D01*
X469561Y479762D01*
X470648Y480212D01*
X471437Y480369D01*
X471437Y475424D01*
X466492Y475424D01*
G37*
%LPD*%
%LPC*%
G36*
X473341Y473520D02*
X473341Y473520D01*
X478287Y473520D01*
X478130Y472731D01*
X477680Y471644D01*
X477026Y470666D01*
X476195Y469835D01*
X475217Y469182D01*
X474130Y468732D01*
X473341Y468575D01*
X473341Y473520D01*
G37*
%LPD*%
%LPC*%
G36*
X571699Y422998D02*
X571699Y422998D01*
X571856Y423788D01*
X572306Y424874D01*
X572959Y425852D01*
X573790Y426683D01*
X574768Y427337D01*
X575855Y427787D01*
X576644Y427944D01*
X576644Y422998D01*
X571699Y422998D01*
G37*
%LPD*%
%LPC*%
G36*
X578548Y421095D02*
X578548Y421095D01*
X583493Y421095D01*
X583336Y420305D01*
X582886Y419219D01*
X582233Y418241D01*
X581402Y417409D01*
X580424Y416756D01*
X579337Y416306D01*
X578548Y416149D01*
X578548Y421095D01*
G37*
%LPD*%
%LPC*%
G36*
X301392Y386524D02*
X301392Y386524D01*
X301549Y387313D01*
X301999Y388400D01*
X302652Y389378D01*
X303484Y390209D01*
X304461Y390862D01*
X305548Y391312D01*
X306337Y391469D01*
X306337Y386524D01*
X301392Y386524D01*
G37*
%LPD*%
%LPC*%
G36*
X308241Y384620D02*
X308241Y384620D01*
X313187Y384620D01*
X313030Y383831D01*
X312580Y382744D01*
X311926Y381766D01*
X311095Y380935D01*
X310117Y380282D01*
X309030Y379832D01*
X308241Y379675D01*
X308241Y384620D01*
G37*
%LPD*%
%LPC*%
G36*
X263292Y323024D02*
X263292Y323024D01*
X263449Y323813D01*
X263899Y324900D01*
X264552Y325878D01*
X265384Y326709D01*
X266361Y327362D01*
X267448Y327812D01*
X268237Y327969D01*
X268237Y323024D01*
X263292Y323024D01*
G37*
%LPD*%
%LPC*%
G36*
X270141Y321120D02*
X270141Y321120D01*
X275087Y321120D01*
X274930Y320331D01*
X274480Y319244D01*
X273826Y318266D01*
X272995Y317435D01*
X272017Y316782D01*
X270930Y316332D01*
X270141Y316175D01*
X270141Y321120D01*
G37*
%LPD*%
%LPC*%
G36*
X339492Y221424D02*
X339492Y221424D01*
X339649Y222213D01*
X340099Y223300D01*
X340752Y224278D01*
X341584Y225109D01*
X342561Y225762D01*
X343648Y226212D01*
X344437Y226369D01*
X344437Y221424D01*
X339492Y221424D01*
G37*
%LPD*%
%LPC*%
G36*
X346341Y219520D02*
X346341Y219520D01*
X351287Y219520D01*
X351130Y218731D01*
X350680Y217644D01*
X350026Y216666D01*
X349195Y215835D01*
X348217Y215182D01*
X347130Y214732D01*
X346341Y214575D01*
X346341Y219520D01*
G37*
%LPD*%
%LPC*%
G36*
X470648Y468732D02*
X470648Y468732D01*
X469561Y469182D01*
X468584Y469835D01*
X467752Y470666D01*
X467099Y471644D01*
X466649Y472731D01*
X466492Y473520D01*
X471437Y473520D01*
X471437Y468575D01*
X470648Y468732D01*
G37*
%LPD*%
%LPC*%
G36*
X575855Y416306D02*
X575855Y416306D01*
X574768Y416756D01*
X573790Y417409D01*
X572959Y418241D01*
X572306Y419219D01*
X571856Y420305D01*
X571699Y421095D01*
X576644Y421095D01*
X576644Y416149D01*
X575855Y416306D01*
G37*
%LPD*%
%LPC*%
G36*
X305548Y379832D02*
X305548Y379832D01*
X304461Y380282D01*
X303484Y380935D01*
X302652Y381766D01*
X301999Y382744D01*
X301549Y383831D01*
X301392Y384620D01*
X306337Y384620D01*
X306337Y379675D01*
X305548Y379832D01*
G37*
%LPD*%
%LPC*%
G36*
X267448Y316332D02*
X267448Y316332D01*
X266361Y316782D01*
X265384Y317435D01*
X264552Y318266D01*
X263899Y319244D01*
X263449Y320331D01*
X263292Y321120D01*
X268237Y321120D01*
X268237Y316175D01*
X267448Y316332D01*
G37*
%LPD*%
%LPC*%
G36*
X343648Y214732D02*
X343648Y214732D01*
X342561Y215182D01*
X341584Y215835D01*
X340752Y216666D01*
X340099Y217644D01*
X339649Y218731D01*
X339492Y219520D01*
X344437Y219520D01*
X344437Y214575D01*
X343648Y214732D01*
G37*
%LPD*%
%LPC*%
G36*
X396188Y423671D02*
X396188Y423671D01*
X396188Y423673D01*
X396190Y423673D01*
X396190Y423671D01*
X396188Y423671D01*
G37*
%LPD*%
D10*
X370789Y449072D03*
X396189Y449072D03*
X396189Y474472D03*
X370789Y474472D03*
X370789Y423672D03*
X396189Y423672D03*
D11*
X434289Y410972D03*
D12*
X372974Y349656D01*
X321107Y349656D01*
X321005Y349555D01*
D11*
X321005Y349555D03*
X434289Y423672D03*
D12*
X370789Y360172D01*
X269189Y360172D01*
D11*
X269189Y360172D03*
X472389Y474472D03*
X345389Y220472D03*
X269189Y322072D03*
X307289Y385572D03*
X577596Y422046D03*
X370789Y398272D03*
D13*
X396189Y398272D02*
X434289Y436372D01*
X396189Y398272D02*
X370789Y398272D01*
D11*
X434289Y436372D03*
M02*
