G04 EAGLE Gerber RS-274X export*
G75*
%MOMM*%
%FSLAX34Y34*%
%LPD*%
%INBottom Copper*%
%IPPOS*%
%AMOC8*
5,1,8,0,0,1.08239X$1,22.5*%
G01*
%ADD10C,1.625600*%
%ADD11C,0.685800*%
%ADD12C,0.203200*%
%ADD13C,0.304800*%

G36*
X607324Y2549D02*
X607324Y2549D01*
X607383Y2547D01*
X607464Y2569D01*
X607548Y2581D01*
X607601Y2604D01*
X607658Y2619D01*
X607730Y2662D01*
X607807Y2697D01*
X607852Y2735D01*
X607902Y2764D01*
X607960Y2826D01*
X608024Y2880D01*
X608057Y2929D01*
X608097Y2972D01*
X608135Y3047D01*
X608182Y3117D01*
X608200Y3173D01*
X608226Y3225D01*
X608238Y3293D01*
X608268Y3388D01*
X608270Y3488D01*
X608282Y3556D01*
X608282Y508000D01*
X608273Y508058D01*
X608275Y508116D01*
X608254Y508198D01*
X608242Y508282D01*
X608218Y508335D01*
X608203Y508391D01*
X608160Y508464D01*
X608126Y508541D01*
X608088Y508586D01*
X608058Y508636D01*
X607996Y508694D01*
X607942Y508758D01*
X607893Y508790D01*
X607851Y508830D01*
X607776Y508869D01*
X607705Y508916D01*
X607649Y508933D01*
X607597Y508960D01*
X607529Y508971D01*
X607434Y509001D01*
X607334Y509004D01*
X607266Y509015D01*
X4978Y509015D01*
X4921Y509007D01*
X4862Y509009D01*
X4780Y508987D01*
X4697Y508975D01*
X4644Y508952D01*
X4587Y508937D01*
X4515Y508894D01*
X4437Y508859D01*
X4393Y508821D01*
X4343Y508792D01*
X4285Y508730D01*
X4220Y508676D01*
X4188Y508627D01*
X4148Y508584D01*
X4110Y508509D01*
X4063Y508439D01*
X4045Y508383D01*
X4019Y508331D01*
X4007Y508263D01*
X3977Y508168D01*
X3975Y508068D01*
X3963Y508000D01*
X3963Y3556D01*
X3971Y3498D01*
X3970Y3440D01*
X3991Y3358D01*
X4003Y3274D01*
X4027Y3221D01*
X4042Y3165D01*
X4085Y3092D01*
X4119Y3015D01*
X4157Y2970D01*
X4187Y2920D01*
X4248Y2862D01*
X4303Y2798D01*
X4352Y2766D01*
X4394Y2726D01*
X4469Y2687D01*
X4540Y2640D01*
X4595Y2623D01*
X4647Y2596D01*
X4715Y2585D01*
X4811Y2555D01*
X4910Y2552D01*
X4978Y2541D01*
X607266Y2541D01*
X607324Y2549D01*
G37*
%LPC*%
G36*
X318852Y339521D02*
X318852Y339521D01*
X316845Y340353D01*
X315308Y341889D01*
X314477Y343896D01*
X314477Y346069D01*
X315308Y348077D01*
X316845Y349613D01*
X318852Y350445D01*
X321025Y350445D01*
X323032Y349613D01*
X324215Y348430D01*
X324285Y348378D01*
X324348Y348318D01*
X324398Y348293D01*
X324442Y348260D01*
X324524Y348228D01*
X324602Y348189D01*
X324649Y348181D01*
X324708Y348158D01*
X324855Y348146D01*
X324933Y348133D01*
X370223Y348133D01*
X370310Y348145D01*
X370397Y348148D01*
X370450Y348165D01*
X370505Y348173D01*
X370585Y348209D01*
X370668Y348236D01*
X370707Y348264D01*
X370764Y348289D01*
X370878Y348385D01*
X370941Y348430D01*
X427463Y404952D01*
X427516Y405022D01*
X427576Y405086D01*
X427601Y405136D01*
X427634Y405180D01*
X427665Y405261D01*
X427705Y405339D01*
X427713Y405387D01*
X427735Y405445D01*
X427748Y405593D01*
X427761Y405670D01*
X427761Y406876D01*
X427757Y406905D01*
X427759Y406934D01*
X427737Y407045D01*
X427721Y407157D01*
X427709Y407184D01*
X427703Y407213D01*
X427651Y407313D01*
X427605Y407417D01*
X427586Y407439D01*
X427572Y407465D01*
X427494Y407547D01*
X427421Y407634D01*
X427397Y407650D01*
X427376Y407671D01*
X427279Y407728D01*
X427184Y407791D01*
X427156Y407800D01*
X427131Y407815D01*
X427022Y407843D01*
X426913Y407877D01*
X426884Y407878D01*
X426856Y407885D01*
X426742Y407881D01*
X426629Y407884D01*
X426601Y407877D01*
X426571Y407876D01*
X426464Y407841D01*
X426354Y407812D01*
X426329Y407797D01*
X426301Y407788D01*
X426237Y407743D01*
X426110Y407667D01*
X426067Y407622D01*
X426028Y407594D01*
X373069Y354635D01*
X370985Y352551D01*
X273218Y352551D01*
X273132Y352539D01*
X273044Y352536D01*
X272992Y352519D01*
X272937Y352511D01*
X272857Y352476D01*
X272774Y352449D01*
X272734Y352421D01*
X272677Y352395D01*
X272564Y352299D01*
X272500Y352254D01*
X271216Y350970D01*
X269209Y350138D01*
X267036Y350138D01*
X265029Y350970D01*
X263492Y352506D01*
X262661Y354514D01*
X262661Y356686D01*
X263492Y358694D01*
X265029Y360230D01*
X267036Y361062D01*
X269209Y361062D01*
X271216Y360230D01*
X272500Y358946D01*
X272570Y358894D01*
X272634Y358834D01*
X272683Y358808D01*
X272728Y358775D01*
X272809Y358744D01*
X272887Y358704D01*
X272935Y358696D01*
X272993Y358674D01*
X273141Y358662D01*
X273218Y358649D01*
X368039Y358649D01*
X368126Y358661D01*
X368213Y358664D01*
X368266Y358681D01*
X368321Y358689D01*
X368400Y358724D01*
X368484Y358751D01*
X368523Y358779D01*
X368580Y358805D01*
X368693Y358901D01*
X368757Y358946D01*
X427463Y417652D01*
X427516Y417722D01*
X427576Y417786D01*
X427601Y417836D01*
X427634Y417880D01*
X427665Y417961D01*
X427705Y418039D01*
X427713Y418087D01*
X427735Y418145D01*
X427748Y418293D01*
X427761Y418370D01*
X427761Y418857D01*
X427757Y418886D01*
X427759Y418916D01*
X427737Y419027D01*
X427721Y419139D01*
X427709Y419165D01*
X427703Y419194D01*
X427651Y419295D01*
X427605Y419398D01*
X427586Y419421D01*
X427572Y419447D01*
X427494Y419529D01*
X427421Y419615D01*
X427396Y419631D01*
X427376Y419653D01*
X427279Y419710D01*
X427184Y419773D01*
X427156Y419782D01*
X427131Y419796D01*
X427022Y419824D01*
X426913Y419859D01*
X426884Y419859D01*
X426856Y419867D01*
X426742Y419863D01*
X426629Y419866D01*
X426601Y419858D01*
X426571Y419857D01*
X426464Y419823D01*
X426354Y419794D01*
X426329Y419779D01*
X426301Y419770D01*
X426237Y419725D01*
X426110Y419649D01*
X426067Y419603D01*
X426028Y419575D01*
X398977Y392524D01*
X396596Y390143D01*
X374310Y390143D01*
X374224Y390131D01*
X374136Y390128D01*
X374084Y390111D01*
X374029Y390103D01*
X373949Y390068D01*
X373866Y390041D01*
X373826Y390013D01*
X373769Y389987D01*
X373656Y389891D01*
X373592Y389846D01*
X372816Y389070D01*
X370809Y388238D01*
X368636Y388238D01*
X366629Y389070D01*
X365092Y390606D01*
X364261Y392614D01*
X364261Y394786D01*
X365092Y396794D01*
X366629Y398330D01*
X368636Y399162D01*
X370809Y399162D01*
X372816Y398330D01*
X373592Y397554D01*
X373662Y397502D01*
X373726Y397442D01*
X373775Y397416D01*
X373820Y397383D01*
X373901Y397352D01*
X373979Y397312D01*
X374027Y397304D01*
X374085Y397282D01*
X374233Y397270D01*
X374310Y397257D01*
X393229Y397257D01*
X393315Y397269D01*
X393403Y397272D01*
X393455Y397289D01*
X393510Y397297D01*
X393590Y397332D01*
X393673Y397359D01*
X393712Y397387D01*
X393770Y397413D01*
X393883Y397509D01*
X393946Y397554D01*
X427463Y431071D01*
X427516Y431141D01*
X427576Y431205D01*
X427601Y431254D01*
X427634Y431298D01*
X427665Y431380D01*
X427705Y431458D01*
X427713Y431505D01*
X427735Y431564D01*
X427748Y431711D01*
X427761Y431789D01*
X427761Y432886D01*
X428592Y434894D01*
X430129Y436430D01*
X432136Y437262D01*
X434309Y437262D01*
X436316Y436430D01*
X437853Y434894D01*
X438684Y432886D01*
X438684Y430714D01*
X437853Y428706D01*
X436316Y427170D01*
X434429Y426388D01*
X434404Y426373D01*
X434376Y426364D01*
X434281Y426301D01*
X434184Y426243D01*
X434164Y426222D01*
X434139Y426206D01*
X434067Y426119D01*
X433989Y426037D01*
X433975Y426011D01*
X433956Y425988D01*
X433911Y425885D01*
X433859Y425784D01*
X433853Y425755D01*
X433841Y425728D01*
X433825Y425616D01*
X433804Y425505D01*
X433806Y425476D01*
X433802Y425447D01*
X433818Y425335D01*
X433828Y425222D01*
X433839Y425195D01*
X433843Y425166D01*
X433889Y425062D01*
X433930Y424957D01*
X433948Y424933D01*
X433960Y424906D01*
X434033Y424820D01*
X434102Y424730D01*
X434125Y424712D01*
X434144Y424690D01*
X434211Y424648D01*
X434329Y424560D01*
X434388Y424538D01*
X434429Y424512D01*
X436316Y423730D01*
X437853Y422194D01*
X438684Y420186D01*
X438684Y418014D01*
X437853Y416006D01*
X436316Y414470D01*
X434429Y413688D01*
X434404Y413673D01*
X434376Y413664D01*
X434281Y413601D01*
X434184Y413543D01*
X434164Y413522D01*
X434139Y413506D01*
X434067Y413419D01*
X433989Y413337D01*
X433975Y413311D01*
X433956Y413288D01*
X433910Y413185D01*
X433859Y413084D01*
X433853Y413055D01*
X433841Y413028D01*
X433825Y412916D01*
X433804Y412805D01*
X433806Y412776D01*
X433802Y412747D01*
X433818Y412635D01*
X433828Y412522D01*
X433839Y412495D01*
X433843Y412465D01*
X433890Y412362D01*
X433930Y412257D01*
X433948Y412233D01*
X433960Y412206D01*
X434033Y412120D01*
X434102Y412030D01*
X434125Y412012D01*
X434144Y411990D01*
X434211Y411948D01*
X434329Y411860D01*
X434388Y411838D01*
X434429Y411812D01*
X436316Y411030D01*
X437853Y409494D01*
X438684Y407486D01*
X438684Y405314D01*
X437853Y403306D01*
X436316Y401770D01*
X434309Y400938D01*
X432493Y400938D01*
X432406Y400926D01*
X432319Y400923D01*
X432266Y400906D01*
X432211Y400898D01*
X432131Y400863D01*
X432048Y400836D01*
X432009Y400808D01*
X431952Y400782D01*
X431839Y400686D01*
X431775Y400641D01*
X373170Y342036D01*
X325136Y342036D01*
X325049Y342023D01*
X324962Y342021D01*
X324909Y342004D01*
X324854Y341996D01*
X324775Y341960D01*
X324691Y341933D01*
X324652Y341905D01*
X324595Y341880D01*
X324482Y341784D01*
X324418Y341738D01*
X323032Y340353D01*
X321025Y339521D01*
X318852Y339521D01*
G37*
%LPD*%
%LPC*%
G36*
X393101Y459739D02*
X393101Y459739D01*
X389367Y461286D01*
X386509Y464144D01*
X384962Y467879D01*
X384962Y471921D01*
X386509Y475656D01*
X389367Y478514D01*
X393101Y480061D01*
X397143Y480061D01*
X400878Y478514D01*
X403736Y475656D01*
X405283Y471921D01*
X405283Y467879D01*
X403736Y464144D01*
X400878Y461286D01*
X397143Y459739D01*
X393101Y459739D01*
G37*
%LPD*%
%LPC*%
G36*
X367701Y459739D02*
X367701Y459739D01*
X363967Y461286D01*
X361109Y464144D01*
X359562Y467879D01*
X359562Y471921D01*
X361109Y475656D01*
X363967Y478514D01*
X367701Y480061D01*
X371743Y480061D01*
X375478Y478514D01*
X378336Y475656D01*
X379883Y471921D01*
X379883Y467879D01*
X378336Y464144D01*
X375478Y461286D01*
X371743Y459739D01*
X367701Y459739D01*
G37*
%LPD*%
%LPC*%
G36*
X393101Y434339D02*
X393101Y434339D01*
X389367Y435886D01*
X386509Y438744D01*
X384962Y442479D01*
X384962Y446521D01*
X386509Y450256D01*
X389367Y453114D01*
X393101Y454661D01*
X397143Y454661D01*
X400878Y453114D01*
X403736Y450256D01*
X405283Y446521D01*
X405283Y442479D01*
X403736Y438744D01*
X400878Y435886D01*
X397143Y434339D01*
X393101Y434339D01*
G37*
%LPD*%
%LPC*%
G36*
X367701Y434339D02*
X367701Y434339D01*
X363967Y435886D01*
X361109Y438744D01*
X359562Y442479D01*
X359562Y446521D01*
X361109Y450256D01*
X363967Y453114D01*
X367701Y454661D01*
X371743Y454661D01*
X375478Y453114D01*
X378336Y450256D01*
X379883Y446521D01*
X379883Y442479D01*
X378336Y438744D01*
X375478Y435886D01*
X371743Y434339D01*
X367701Y434339D01*
G37*
%LPD*%
%LPC*%
G36*
X367701Y408939D02*
X367701Y408939D01*
X363967Y410486D01*
X361109Y413344D01*
X359562Y417079D01*
X359562Y421121D01*
X361109Y424856D01*
X363967Y427714D01*
X367701Y429261D01*
X371743Y429261D01*
X375478Y427714D01*
X378336Y424856D01*
X379883Y421121D01*
X379883Y417079D01*
X378336Y413344D01*
X375478Y410486D01*
X371743Y408939D01*
X367701Y408939D01*
G37*
%LPD*%
%LPC*%
G36*
X397154Y421131D02*
X397154Y421131D01*
X397154Y429580D01*
X397621Y429506D01*
X399218Y428987D01*
X400714Y428225D01*
X402073Y427238D01*
X403260Y426050D01*
X404247Y424692D01*
X405010Y423195D01*
X405528Y421598D01*
X405602Y421131D01*
X397154Y421131D01*
G37*
%LPD*%
%LPC*%
G36*
X384642Y421131D02*
X384642Y421131D01*
X384716Y421598D01*
X385235Y423195D01*
X385998Y424692D01*
X386985Y426050D01*
X388172Y427238D01*
X389531Y428225D01*
X391027Y428987D01*
X392624Y429506D01*
X393091Y429580D01*
X393091Y421131D01*
X384642Y421131D01*
G37*
%LPD*%
%LPC*%
G36*
X397154Y417069D02*
X397154Y417069D01*
X405602Y417069D01*
X405528Y416602D01*
X405010Y415005D01*
X404247Y413508D01*
X403260Y412150D01*
X402073Y410962D01*
X400714Y409975D01*
X399218Y409213D01*
X397621Y408694D01*
X397154Y408620D01*
X397154Y417069D01*
G37*
%LPD*%
%LPC*%
G36*
X392624Y408694D02*
X392624Y408694D01*
X391027Y409213D01*
X389531Y409975D01*
X388172Y410962D01*
X386985Y412150D01*
X385998Y413508D01*
X385235Y415005D01*
X384716Y416602D01*
X384642Y417069D01*
X393091Y417069D01*
X393091Y408620D01*
X392624Y408694D01*
G37*
%LPD*%
%LPC*%
G36*
X472338Y470915D02*
X472338Y470915D01*
X472338Y475785D01*
X473064Y475640D01*
X474150Y475190D01*
X475128Y474537D01*
X475959Y473706D01*
X476613Y472728D01*
X477063Y471641D01*
X477207Y470915D01*
X472338Y470915D01*
G37*
%LPD*%
%LPC*%
G36*
X307238Y382015D02*
X307238Y382015D01*
X307238Y386885D01*
X307964Y386740D01*
X309050Y386290D01*
X310028Y385637D01*
X310859Y384806D01*
X311513Y383828D01*
X311963Y382741D01*
X312107Y382015D01*
X307238Y382015D01*
G37*
%LPD*%
%LPC*%
G36*
X269138Y318515D02*
X269138Y318515D01*
X269138Y323385D01*
X269864Y323240D01*
X270950Y322790D01*
X271928Y322137D01*
X272759Y321306D01*
X273413Y320328D01*
X273863Y319241D01*
X274007Y318515D01*
X269138Y318515D01*
G37*
%LPD*%
%LPC*%
G36*
X345338Y216915D02*
X345338Y216915D01*
X345338Y221785D01*
X346064Y221640D01*
X347150Y221190D01*
X348128Y220537D01*
X348959Y219706D01*
X349613Y218728D01*
X350063Y217641D01*
X350207Y216915D01*
X345338Y216915D01*
G37*
%LPD*%
%LPC*%
G36*
X465438Y470915D02*
X465438Y470915D01*
X465582Y471641D01*
X466032Y472728D01*
X466685Y473706D01*
X467517Y474537D01*
X468495Y475190D01*
X469581Y475640D01*
X470307Y475785D01*
X470307Y470915D01*
X465438Y470915D01*
G37*
%LPD*%
%LPC*%
G36*
X472338Y468885D02*
X472338Y468885D01*
X477207Y468885D01*
X477063Y468159D01*
X476613Y467072D01*
X475959Y466094D01*
X475128Y465263D01*
X474150Y464610D01*
X473064Y464160D01*
X472338Y464015D01*
X472338Y468885D01*
G37*
%LPD*%
%LPC*%
G36*
X300338Y382015D02*
X300338Y382015D01*
X300482Y382741D01*
X300932Y383828D01*
X301585Y384806D01*
X302417Y385637D01*
X303395Y386290D01*
X304481Y386740D01*
X305207Y386885D01*
X305207Y382015D01*
X300338Y382015D01*
G37*
%LPD*%
%LPC*%
G36*
X307238Y379985D02*
X307238Y379985D01*
X312107Y379985D01*
X311963Y379259D01*
X311513Y378172D01*
X310859Y377194D01*
X310028Y376363D01*
X309050Y375710D01*
X307964Y375260D01*
X307238Y375115D01*
X307238Y379985D01*
G37*
%LPD*%
%LPC*%
G36*
X262238Y318515D02*
X262238Y318515D01*
X262382Y319241D01*
X262832Y320328D01*
X263485Y321306D01*
X264317Y322137D01*
X265295Y322790D01*
X266381Y323240D01*
X267107Y323385D01*
X267107Y318515D01*
X262238Y318515D01*
G37*
%LPD*%
%LPC*%
G36*
X269138Y316485D02*
X269138Y316485D01*
X274007Y316485D01*
X273863Y315759D01*
X273413Y314672D01*
X272759Y313694D01*
X271928Y312863D01*
X270950Y312210D01*
X269864Y311760D01*
X269138Y311615D01*
X269138Y316485D01*
G37*
%LPD*%
%LPC*%
G36*
X338438Y216915D02*
X338438Y216915D01*
X338582Y217641D01*
X339032Y218728D01*
X339685Y219706D01*
X340517Y220537D01*
X341495Y221190D01*
X342581Y221640D01*
X343307Y221785D01*
X343307Y216915D01*
X338438Y216915D01*
G37*
%LPD*%
%LPC*%
G36*
X345338Y214885D02*
X345338Y214885D01*
X350207Y214885D01*
X350063Y214159D01*
X349613Y213072D01*
X348959Y212094D01*
X348128Y211263D01*
X347150Y210610D01*
X346064Y210160D01*
X345338Y210015D01*
X345338Y214885D01*
G37*
%LPD*%
%LPC*%
G36*
X469581Y464160D02*
X469581Y464160D01*
X468495Y464610D01*
X467517Y465263D01*
X466685Y466094D01*
X466032Y467072D01*
X465582Y468159D01*
X465438Y468885D01*
X470307Y468885D01*
X470307Y464015D01*
X469581Y464160D01*
G37*
%LPD*%
%LPC*%
G36*
X304481Y375260D02*
X304481Y375260D01*
X303395Y375710D01*
X302417Y376363D01*
X301585Y377194D01*
X300932Y378172D01*
X300482Y379259D01*
X300338Y379985D01*
X305207Y379985D01*
X305207Y375115D01*
X304481Y375260D01*
G37*
%LPD*%
%LPC*%
G36*
X266381Y311760D02*
X266381Y311760D01*
X265295Y312210D01*
X264317Y312863D01*
X263485Y313694D01*
X262832Y314672D01*
X262382Y315759D01*
X262238Y316485D01*
X267107Y316485D01*
X267107Y311615D01*
X266381Y311760D01*
G37*
%LPD*%
%LPC*%
G36*
X342581Y210160D02*
X342581Y210160D01*
X341495Y210610D01*
X340517Y211263D01*
X339685Y212094D01*
X339032Y213072D01*
X338582Y214159D01*
X338438Y214885D01*
X343307Y214885D01*
X343307Y210015D01*
X342581Y210160D01*
G37*
%LPD*%
%LPC*%
G36*
X395122Y419099D02*
X395122Y419099D01*
X395122Y419101D01*
X395123Y419101D01*
X395123Y419099D01*
X395122Y419099D01*
G37*
%LPD*%
D10*
X369722Y444500D03*
X395122Y444500D03*
X395122Y469900D03*
X369722Y469900D03*
X369722Y419100D03*
X395122Y419100D03*
D11*
X433222Y406400D03*
D12*
X371907Y345084D01*
X320040Y345084D01*
X319938Y344983D01*
D11*
X319938Y344983D03*
X433222Y419100D03*
D12*
X369722Y355600D01*
X268122Y355600D01*
D11*
X268122Y355600D03*
X471322Y469900D03*
X344322Y215900D03*
X268122Y317500D03*
X306222Y381000D03*
X369722Y393700D03*
D13*
X395122Y393700D02*
X433222Y431800D01*
X395122Y393700D02*
X369722Y393700D01*
D11*
X433222Y431800D03*
M02*
