G04 EAGLE Gerber RS-274X export*
G75*
%MOMM*%
%FSLAX34Y34*%
%LPD*%
%INSolderpaste Top*%
%IPPOS*%
%AMOC8*
5,1,8,0,0,1.08239X$1,22.5*%
G01*
%ADD10R,0.550000X1.600000*%
%ADD11R,1.600000X0.550000*%
%ADD12R,0.260000X0.790000*%
%ADD13R,0.790000X0.260000*%
%ADD14C,0.102500*%
%ADD15R,0.600000X1.100000*%
%ADD16R,5.050000X2.100000*%
%ADD17R,4.000000X4.000000*%
%ADD18R,1.300000X1.500000*%
%ADD19R,1.500000X1.300000*%
%ADD20R,1.200000X1.200000*%


D10*
X378400Y237600D03*
X386400Y237600D03*
X394400Y237600D03*
X402400Y237600D03*
X410400Y237600D03*
X418400Y237600D03*
X426400Y237600D03*
X434400Y237600D03*
D11*
X448200Y251400D03*
X448200Y259400D03*
X448200Y267400D03*
X448200Y275400D03*
X448200Y283400D03*
X448200Y291400D03*
X448200Y299400D03*
X448200Y307400D03*
D10*
X434400Y321200D03*
X426400Y321200D03*
X418400Y321200D03*
X410400Y321200D03*
X402400Y321200D03*
X394400Y321200D03*
X386400Y321200D03*
X378400Y321200D03*
D11*
X364600Y307400D03*
X364600Y299400D03*
X364600Y291400D03*
X364600Y283400D03*
X364600Y275400D03*
X364600Y267400D03*
X364600Y259400D03*
X364600Y251400D03*
D12*
X597100Y399400D03*
X602100Y399400D03*
X607100Y399400D03*
X612100Y399400D03*
X617100Y399400D03*
X622100Y399400D03*
D13*
X629300Y406600D03*
X629300Y411600D03*
X629300Y416600D03*
X629300Y421600D03*
X629300Y426600D03*
X629300Y431600D03*
D12*
X622100Y438800D03*
X617100Y438800D03*
X612100Y438800D03*
X607100Y438800D03*
X602100Y438800D03*
X597100Y438800D03*
D13*
X589900Y431600D03*
X589900Y426600D03*
X589900Y421600D03*
X589900Y416600D03*
X589900Y411600D03*
X589900Y406600D03*
D14*
X512038Y262512D02*
X497362Y262512D01*
X497362Y265588D01*
X512038Y265588D01*
X512038Y262512D01*
X512038Y263486D02*
X497362Y263486D01*
X497362Y264460D02*
X512038Y264460D01*
X512038Y265434D02*
X497362Y265434D01*
X497362Y256012D02*
X512038Y256012D01*
X497362Y256012D02*
X497362Y259088D01*
X512038Y259088D01*
X512038Y256012D01*
X512038Y256986D02*
X497362Y256986D01*
X497362Y257960D02*
X512038Y257960D01*
X512038Y258934D02*
X497362Y258934D01*
X497362Y249512D02*
X512038Y249512D01*
X497362Y249512D02*
X497362Y252588D01*
X512038Y252588D01*
X512038Y249512D01*
X512038Y250486D02*
X497362Y250486D01*
X497362Y251460D02*
X512038Y251460D01*
X512038Y252434D02*
X497362Y252434D01*
X497362Y243012D02*
X512038Y243012D01*
X497362Y243012D02*
X497362Y246088D01*
X512038Y246088D01*
X512038Y243012D01*
X512038Y243986D02*
X497362Y243986D01*
X497362Y244960D02*
X512038Y244960D01*
X512038Y245934D02*
X497362Y245934D01*
X497362Y236512D02*
X512038Y236512D01*
X497362Y236512D02*
X497362Y239588D01*
X512038Y239588D01*
X512038Y236512D01*
X512038Y237486D02*
X497362Y237486D01*
X497362Y238460D02*
X512038Y238460D01*
X512038Y239434D02*
X497362Y239434D01*
X497362Y230012D02*
X512038Y230012D01*
X497362Y230012D02*
X497362Y233088D01*
X512038Y233088D01*
X512038Y230012D01*
X512038Y230986D02*
X497362Y230986D01*
X497362Y231960D02*
X512038Y231960D01*
X512038Y232934D02*
X497362Y232934D01*
X497362Y223512D02*
X512038Y223512D01*
X497362Y223512D02*
X497362Y226588D01*
X512038Y226588D01*
X512038Y223512D01*
X512038Y224486D02*
X497362Y224486D01*
X497362Y225460D02*
X512038Y225460D01*
X512038Y226434D02*
X497362Y226434D01*
X497362Y217012D02*
X512038Y217012D01*
X497362Y217012D02*
X497362Y220088D01*
X512038Y220088D01*
X512038Y217012D01*
X512038Y217986D02*
X497362Y217986D01*
X497362Y218960D02*
X512038Y218960D01*
X512038Y219934D02*
X497362Y219934D01*
X554762Y217012D02*
X569438Y217012D01*
X554762Y217012D02*
X554762Y220088D01*
X569438Y220088D01*
X569438Y217012D01*
X569438Y217986D02*
X554762Y217986D01*
X554762Y218960D02*
X569438Y218960D01*
X569438Y219934D02*
X554762Y219934D01*
X554762Y223512D02*
X569438Y223512D01*
X554762Y223512D02*
X554762Y226588D01*
X569438Y226588D01*
X569438Y223512D01*
X569438Y224486D02*
X554762Y224486D01*
X554762Y225460D02*
X569438Y225460D01*
X569438Y226434D02*
X554762Y226434D01*
X554762Y230012D02*
X569438Y230012D01*
X554762Y230012D02*
X554762Y233088D01*
X569438Y233088D01*
X569438Y230012D01*
X569438Y230986D02*
X554762Y230986D01*
X554762Y231960D02*
X569438Y231960D01*
X569438Y232934D02*
X554762Y232934D01*
X554762Y236512D02*
X569438Y236512D01*
X554762Y236512D02*
X554762Y239588D01*
X569438Y239588D01*
X569438Y236512D01*
X569438Y237486D02*
X554762Y237486D01*
X554762Y238460D02*
X569438Y238460D01*
X569438Y239434D02*
X554762Y239434D01*
X554762Y243012D02*
X569438Y243012D01*
X554762Y243012D02*
X554762Y246088D01*
X569438Y246088D01*
X569438Y243012D01*
X569438Y243986D02*
X554762Y243986D01*
X554762Y244960D02*
X569438Y244960D01*
X569438Y245934D02*
X554762Y245934D01*
X554762Y249512D02*
X569438Y249512D01*
X554762Y249512D02*
X554762Y252588D01*
X569438Y252588D01*
X569438Y249512D01*
X569438Y250486D02*
X554762Y250486D01*
X554762Y251460D02*
X569438Y251460D01*
X569438Y252434D02*
X554762Y252434D01*
X554762Y256012D02*
X569438Y256012D01*
X554762Y256012D02*
X554762Y259088D01*
X569438Y259088D01*
X569438Y256012D01*
X569438Y256986D02*
X554762Y256986D01*
X554762Y257960D02*
X569438Y257960D01*
X569438Y258934D02*
X554762Y258934D01*
X554762Y262512D02*
X569438Y262512D01*
X554762Y262512D02*
X554762Y265588D01*
X569438Y265588D01*
X569438Y262512D01*
X569438Y263486D02*
X554762Y263486D01*
X554762Y264460D02*
X569438Y264460D01*
X569438Y265434D02*
X554762Y265434D01*
D15*
X219100Y141400D03*
X238100Y141400D03*
X228600Y163400D03*
D16*
X187700Y235100D03*
X187700Y467600D03*
D17*
X188400Y348700D03*
D18*
X606400Y469900D03*
X587400Y469900D03*
X650900Y393700D03*
X669900Y393700D03*
D19*
X406400Y358800D03*
X406400Y377800D03*
X660400Y422300D03*
X660400Y441300D03*
D18*
X555600Y431800D03*
X536600Y431800D03*
D20*
X279400Y35900D03*
X279400Y14900D03*
X330200Y35900D03*
X330200Y14900D03*
X381000Y35900D03*
X381000Y14900D03*
X431800Y35900D03*
X431800Y14900D03*
X482600Y35900D03*
X482600Y14900D03*
X533400Y35900D03*
X533400Y14900D03*
X584200Y35900D03*
X584200Y14900D03*
X635000Y35900D03*
X635000Y14900D03*
D19*
X431800Y358800D03*
X431800Y377800D03*
X393700Y187300D03*
X393700Y168300D03*
D20*
X228600Y35900D03*
X228600Y14900D03*
D19*
X190500Y15900D03*
X190500Y34900D03*
X317500Y346100D03*
X317500Y365100D03*
X368300Y346100D03*
X368300Y365100D03*
X368300Y415900D03*
X368300Y396900D03*
M02*
