G04 EAGLE Gerber RS-274X export*
G75*
%MOMM*%
%FSLAX34Y34*%
%LPD*%
%INSilkscreen Top*%
%IPPOS*%
%AMOC8*
5,1,8,0,0,1.08239X$1,22.5*%
G01*
%ADD10C,0.050800*%
%ADD11C,0.508000*%
%ADD12C,0.152400*%
%ADD13C,0.127000*%
%ADD14C,0.200000*%
%ADD15C,0.101600*%
%ADD16C,0.076200*%
%ADD17R,0.150000X0.300000*%
%ADD18R,0.300000X0.300000*%
%ADD19R,0.200000X0.200000*%


D10*
X89154Y76454D02*
X89154Y81026D01*
X90678Y78486D01*
X92202Y81026D01*
X92202Y76454D01*
X94336Y76454D02*
X94336Y79502D01*
X94209Y80772D02*
X94209Y81026D01*
X94463Y81026D01*
X94463Y80772D01*
X94209Y80772D01*
X96983Y76454D02*
X97999Y76454D01*
X96983Y76454D02*
X96929Y76456D01*
X96875Y76462D01*
X96821Y76471D01*
X96768Y76485D01*
X96717Y76502D01*
X96666Y76523D01*
X96618Y76547D01*
X96571Y76575D01*
X96526Y76606D01*
X96484Y76640D01*
X96444Y76677D01*
X96407Y76717D01*
X96373Y76759D01*
X96342Y76804D01*
X96314Y76851D01*
X96290Y76899D01*
X96269Y76950D01*
X96252Y77001D01*
X96238Y77054D01*
X96229Y77108D01*
X96223Y77162D01*
X96221Y77216D01*
X96221Y78740D01*
X96223Y78794D01*
X96229Y78848D01*
X96238Y78902D01*
X96252Y78955D01*
X96269Y79006D01*
X96290Y79057D01*
X96314Y79105D01*
X96342Y79152D01*
X96373Y79197D01*
X96407Y79239D01*
X96444Y79279D01*
X96484Y79316D01*
X96526Y79350D01*
X96571Y79381D01*
X96618Y79409D01*
X96666Y79433D01*
X96717Y79454D01*
X96768Y79471D01*
X96821Y79485D01*
X96875Y79494D01*
X96929Y79500D01*
X96983Y79502D01*
X97999Y79502D01*
X99873Y81026D02*
X99873Y76454D01*
X99873Y79502D02*
X101143Y79502D01*
X101197Y79500D01*
X101251Y79494D01*
X101305Y79485D01*
X101358Y79471D01*
X101409Y79454D01*
X101460Y79433D01*
X101508Y79409D01*
X101555Y79381D01*
X101600Y79350D01*
X101642Y79316D01*
X101682Y79279D01*
X101719Y79239D01*
X101753Y79197D01*
X101784Y79152D01*
X101812Y79105D01*
X101836Y79057D01*
X101857Y79006D01*
X101874Y78955D01*
X101888Y78902D01*
X101897Y78848D01*
X101903Y78794D01*
X101905Y78740D01*
X101905Y76454D01*
X104850Y78232D02*
X105993Y78232D01*
X104850Y78232D02*
X104792Y78230D01*
X104734Y78224D01*
X104677Y78215D01*
X104620Y78202D01*
X104564Y78185D01*
X104510Y78164D01*
X104457Y78140D01*
X104406Y78113D01*
X104356Y78082D01*
X104309Y78048D01*
X104264Y78011D01*
X104221Y77972D01*
X104182Y77929D01*
X104145Y77884D01*
X104111Y77837D01*
X104080Y77788D01*
X104053Y77736D01*
X104029Y77683D01*
X104008Y77629D01*
X103991Y77573D01*
X103978Y77516D01*
X103969Y77459D01*
X103963Y77401D01*
X103961Y77343D01*
X103963Y77285D01*
X103969Y77227D01*
X103978Y77170D01*
X103991Y77113D01*
X104008Y77057D01*
X104029Y77003D01*
X104053Y76950D01*
X104080Y76899D01*
X104111Y76849D01*
X104145Y76802D01*
X104182Y76757D01*
X104221Y76714D01*
X104264Y76675D01*
X104309Y76638D01*
X104356Y76604D01*
X104406Y76573D01*
X104457Y76546D01*
X104510Y76522D01*
X104564Y76501D01*
X104620Y76484D01*
X104677Y76471D01*
X104734Y76462D01*
X104792Y76456D01*
X104850Y76454D01*
X105993Y76454D01*
X105993Y78740D01*
X105991Y78794D01*
X105985Y78848D01*
X105976Y78902D01*
X105962Y78955D01*
X105945Y79006D01*
X105924Y79057D01*
X105900Y79105D01*
X105872Y79152D01*
X105841Y79197D01*
X105807Y79239D01*
X105770Y79279D01*
X105730Y79316D01*
X105688Y79350D01*
X105643Y79381D01*
X105596Y79409D01*
X105548Y79433D01*
X105497Y79454D01*
X105446Y79471D01*
X105393Y79485D01*
X105339Y79494D01*
X105285Y79500D01*
X105231Y79502D01*
X104215Y79502D01*
X108864Y76454D02*
X110134Y76454D01*
X108864Y76454D02*
X108810Y76456D01*
X108756Y76462D01*
X108702Y76471D01*
X108649Y76485D01*
X108598Y76502D01*
X108547Y76523D01*
X108499Y76547D01*
X108452Y76575D01*
X108407Y76606D01*
X108365Y76640D01*
X108325Y76677D01*
X108288Y76717D01*
X108254Y76759D01*
X108223Y76804D01*
X108195Y76851D01*
X108171Y76899D01*
X108150Y76950D01*
X108133Y77001D01*
X108119Y77054D01*
X108110Y77108D01*
X108104Y77162D01*
X108102Y77216D01*
X108102Y78486D01*
X108104Y78549D01*
X108110Y78611D01*
X108119Y78673D01*
X108133Y78734D01*
X108150Y78794D01*
X108171Y78853D01*
X108195Y78911D01*
X108223Y78967D01*
X108254Y79021D01*
X108289Y79073D01*
X108326Y79123D01*
X108367Y79170D01*
X108411Y79215D01*
X108457Y79258D01*
X108506Y79297D01*
X108557Y79333D01*
X108610Y79366D01*
X108665Y79395D01*
X108722Y79422D01*
X108780Y79444D01*
X108840Y79463D01*
X108901Y79478D01*
X108962Y79490D01*
X109024Y79498D01*
X109087Y79502D01*
X109149Y79502D01*
X109212Y79498D01*
X109274Y79490D01*
X109335Y79478D01*
X109396Y79463D01*
X109456Y79444D01*
X109514Y79422D01*
X109571Y79395D01*
X109626Y79366D01*
X109679Y79333D01*
X109730Y79297D01*
X109779Y79258D01*
X109825Y79215D01*
X109869Y79170D01*
X109910Y79123D01*
X109947Y79073D01*
X109982Y79021D01*
X110013Y78967D01*
X110041Y78911D01*
X110065Y78853D01*
X110086Y78794D01*
X110103Y78734D01*
X110117Y78673D01*
X110126Y78611D01*
X110132Y78549D01*
X110134Y78486D01*
X110134Y77978D01*
X108102Y77978D01*
X112113Y77216D02*
X112113Y81026D01*
X112113Y77216D02*
X112115Y77162D01*
X112121Y77108D01*
X112130Y77054D01*
X112144Y77001D01*
X112161Y76950D01*
X112182Y76899D01*
X112206Y76851D01*
X112234Y76804D01*
X112265Y76759D01*
X112299Y76717D01*
X112336Y76677D01*
X112376Y76640D01*
X112418Y76606D01*
X112463Y76575D01*
X112510Y76547D01*
X112558Y76523D01*
X112609Y76502D01*
X112660Y76485D01*
X112713Y76471D01*
X112767Y76462D01*
X112821Y76456D01*
X112875Y76454D01*
X117221Y78994D02*
X118491Y78994D01*
X118561Y78992D01*
X118631Y78986D01*
X118700Y78977D01*
X118769Y78963D01*
X118837Y78946D01*
X118903Y78925D01*
X118969Y78901D01*
X119033Y78873D01*
X119095Y78841D01*
X119156Y78806D01*
X119215Y78768D01*
X119271Y78726D01*
X119325Y78682D01*
X119377Y78634D01*
X119425Y78584D01*
X119471Y78531D01*
X119514Y78476D01*
X119554Y78419D01*
X119591Y78359D01*
X119624Y78297D01*
X119654Y78234D01*
X119680Y78169D01*
X119703Y78103D01*
X119722Y78036D01*
X119737Y77967D01*
X119749Y77898D01*
X119757Y77829D01*
X119761Y77759D01*
X119761Y77689D01*
X119757Y77619D01*
X119749Y77550D01*
X119737Y77481D01*
X119722Y77412D01*
X119703Y77345D01*
X119680Y77279D01*
X119654Y77214D01*
X119624Y77151D01*
X119591Y77089D01*
X119554Y77029D01*
X119514Y76972D01*
X119471Y76917D01*
X119425Y76864D01*
X119377Y76814D01*
X119325Y76766D01*
X119271Y76722D01*
X119215Y76680D01*
X119156Y76642D01*
X119095Y76607D01*
X119033Y76575D01*
X118969Y76547D01*
X118903Y76523D01*
X118837Y76502D01*
X118769Y76485D01*
X118700Y76471D01*
X118631Y76462D01*
X118561Y76456D01*
X118491Y76454D01*
X117221Y76454D01*
X117221Y81026D01*
X118491Y81026D01*
X118554Y81024D01*
X118616Y81018D01*
X118678Y81009D01*
X118739Y80995D01*
X118799Y80978D01*
X118858Y80957D01*
X118916Y80933D01*
X118972Y80905D01*
X119026Y80874D01*
X119078Y80839D01*
X119128Y80802D01*
X119175Y80761D01*
X119220Y80717D01*
X119263Y80671D01*
X119302Y80622D01*
X119338Y80571D01*
X119371Y80518D01*
X119400Y80463D01*
X119427Y80406D01*
X119449Y80348D01*
X119468Y80288D01*
X119483Y80227D01*
X119495Y80166D01*
X119503Y80104D01*
X119507Y80041D01*
X119507Y79979D01*
X119503Y79916D01*
X119495Y79854D01*
X119483Y79793D01*
X119468Y79732D01*
X119449Y79672D01*
X119427Y79614D01*
X119400Y79557D01*
X119371Y79502D01*
X119338Y79449D01*
X119302Y79398D01*
X119263Y79349D01*
X119220Y79303D01*
X119175Y79259D01*
X119128Y79218D01*
X119078Y79181D01*
X119026Y79146D01*
X118972Y79115D01*
X118916Y79087D01*
X118858Y79063D01*
X118799Y79042D01*
X118739Y79025D01*
X118678Y79011D01*
X118616Y79002D01*
X118554Y78996D01*
X118491Y78994D01*
X121513Y78486D02*
X121513Y77470D01*
X121513Y78486D02*
X121515Y78549D01*
X121521Y78611D01*
X121530Y78673D01*
X121544Y78734D01*
X121561Y78794D01*
X121582Y78853D01*
X121606Y78911D01*
X121634Y78967D01*
X121665Y79021D01*
X121700Y79073D01*
X121737Y79123D01*
X121778Y79170D01*
X121822Y79215D01*
X121868Y79258D01*
X121917Y79297D01*
X121968Y79333D01*
X122021Y79366D01*
X122076Y79395D01*
X122133Y79422D01*
X122191Y79444D01*
X122251Y79463D01*
X122312Y79478D01*
X122373Y79490D01*
X122435Y79498D01*
X122498Y79502D01*
X122560Y79502D01*
X122623Y79498D01*
X122685Y79490D01*
X122746Y79478D01*
X122807Y79463D01*
X122867Y79444D01*
X122925Y79422D01*
X122982Y79395D01*
X123037Y79366D01*
X123090Y79333D01*
X123141Y79297D01*
X123190Y79258D01*
X123236Y79215D01*
X123280Y79170D01*
X123321Y79123D01*
X123358Y79073D01*
X123393Y79021D01*
X123424Y78967D01*
X123452Y78911D01*
X123476Y78853D01*
X123497Y78794D01*
X123514Y78734D01*
X123528Y78673D01*
X123537Y78611D01*
X123543Y78549D01*
X123545Y78486D01*
X123545Y77470D01*
X123543Y77407D01*
X123537Y77345D01*
X123528Y77283D01*
X123514Y77222D01*
X123497Y77162D01*
X123476Y77103D01*
X123452Y77045D01*
X123424Y76989D01*
X123393Y76935D01*
X123358Y76883D01*
X123321Y76833D01*
X123280Y76786D01*
X123236Y76741D01*
X123190Y76698D01*
X123141Y76659D01*
X123090Y76623D01*
X123037Y76590D01*
X122982Y76561D01*
X122925Y76534D01*
X122867Y76512D01*
X122807Y76493D01*
X122746Y76478D01*
X122685Y76466D01*
X122623Y76458D01*
X122560Y76454D01*
X122498Y76454D01*
X122435Y76458D01*
X122373Y76466D01*
X122312Y76478D01*
X122251Y76493D01*
X122191Y76512D01*
X122133Y76534D01*
X122076Y76561D01*
X122021Y76590D01*
X121968Y76623D01*
X121917Y76659D01*
X121868Y76698D01*
X121822Y76741D01*
X121778Y76786D01*
X121737Y76833D01*
X121700Y76883D01*
X121665Y76935D01*
X121634Y76989D01*
X121606Y77045D01*
X121582Y77103D01*
X121561Y77162D01*
X121544Y77222D01*
X121530Y77283D01*
X121521Y77345D01*
X121515Y77407D01*
X121513Y77470D01*
X125628Y77216D02*
X125628Y79502D01*
X125628Y77216D02*
X125630Y77162D01*
X125636Y77108D01*
X125645Y77054D01*
X125659Y77001D01*
X125676Y76950D01*
X125697Y76899D01*
X125721Y76851D01*
X125749Y76804D01*
X125780Y76759D01*
X125814Y76717D01*
X125851Y76677D01*
X125891Y76640D01*
X125933Y76606D01*
X125978Y76575D01*
X126025Y76547D01*
X126073Y76523D01*
X126124Y76502D01*
X126175Y76485D01*
X126228Y76471D01*
X126282Y76462D01*
X126336Y76456D01*
X126390Y76454D01*
X127660Y76454D01*
X127660Y79502D01*
X129925Y79502D02*
X129925Y76454D01*
X129925Y79502D02*
X131449Y79502D01*
X131449Y78994D01*
X133679Y76454D02*
X134949Y76454D01*
X133679Y76454D02*
X133625Y76456D01*
X133571Y76462D01*
X133517Y76471D01*
X133464Y76485D01*
X133413Y76502D01*
X133362Y76523D01*
X133314Y76547D01*
X133267Y76575D01*
X133222Y76606D01*
X133180Y76640D01*
X133140Y76677D01*
X133103Y76717D01*
X133069Y76759D01*
X133038Y76804D01*
X133010Y76851D01*
X132986Y76899D01*
X132965Y76950D01*
X132948Y77001D01*
X132934Y77054D01*
X132925Y77108D01*
X132919Y77162D01*
X132917Y77216D01*
X132917Y78740D01*
X132919Y78794D01*
X132925Y78848D01*
X132934Y78902D01*
X132948Y78955D01*
X132965Y79006D01*
X132986Y79057D01*
X133010Y79105D01*
X133038Y79152D01*
X133069Y79197D01*
X133103Y79239D01*
X133140Y79279D01*
X133180Y79316D01*
X133222Y79350D01*
X133267Y79381D01*
X133314Y79409D01*
X133362Y79433D01*
X133413Y79454D01*
X133464Y79471D01*
X133517Y79485D01*
X133571Y79494D01*
X133625Y79500D01*
X133679Y79502D01*
X134949Y79502D01*
X134949Y75692D01*
X134947Y75638D01*
X134941Y75584D01*
X134932Y75530D01*
X134918Y75477D01*
X134901Y75426D01*
X134880Y75375D01*
X134856Y75327D01*
X134828Y75280D01*
X134797Y75235D01*
X134763Y75193D01*
X134726Y75153D01*
X134686Y75116D01*
X134644Y75082D01*
X134599Y75051D01*
X134552Y75023D01*
X134504Y74999D01*
X134453Y74978D01*
X134402Y74961D01*
X134349Y74947D01*
X134295Y74938D01*
X134241Y74932D01*
X134187Y74930D01*
X133171Y74930D01*
X137820Y76454D02*
X139090Y76454D01*
X137820Y76454D02*
X137766Y76456D01*
X137712Y76462D01*
X137658Y76471D01*
X137605Y76485D01*
X137554Y76502D01*
X137503Y76523D01*
X137455Y76547D01*
X137408Y76575D01*
X137363Y76606D01*
X137321Y76640D01*
X137281Y76677D01*
X137244Y76717D01*
X137210Y76759D01*
X137179Y76804D01*
X137151Y76851D01*
X137127Y76899D01*
X137106Y76950D01*
X137089Y77001D01*
X137075Y77054D01*
X137066Y77108D01*
X137060Y77162D01*
X137058Y77216D01*
X137058Y78486D01*
X137060Y78549D01*
X137066Y78611D01*
X137075Y78673D01*
X137089Y78734D01*
X137106Y78794D01*
X137127Y78853D01*
X137151Y78911D01*
X137179Y78967D01*
X137210Y79021D01*
X137245Y79073D01*
X137282Y79123D01*
X137323Y79170D01*
X137367Y79215D01*
X137413Y79258D01*
X137462Y79297D01*
X137513Y79333D01*
X137566Y79366D01*
X137621Y79395D01*
X137678Y79422D01*
X137736Y79444D01*
X137796Y79463D01*
X137857Y79478D01*
X137918Y79490D01*
X137980Y79498D01*
X138043Y79502D01*
X138105Y79502D01*
X138168Y79498D01*
X138230Y79490D01*
X138291Y79478D01*
X138352Y79463D01*
X138412Y79444D01*
X138470Y79422D01*
X138527Y79395D01*
X138582Y79366D01*
X138635Y79333D01*
X138686Y79297D01*
X138735Y79258D01*
X138781Y79215D01*
X138825Y79170D01*
X138866Y79123D01*
X138903Y79073D01*
X138938Y79021D01*
X138969Y78967D01*
X138997Y78911D01*
X139021Y78853D01*
X139042Y78794D01*
X139059Y78734D01*
X139073Y78673D01*
X139082Y78611D01*
X139088Y78549D01*
X139090Y78486D01*
X139090Y77978D01*
X137058Y77978D01*
X141020Y77470D02*
X141020Y78486D01*
X141022Y78549D01*
X141028Y78611D01*
X141037Y78673D01*
X141051Y78734D01*
X141068Y78794D01*
X141089Y78853D01*
X141113Y78911D01*
X141141Y78967D01*
X141172Y79021D01*
X141207Y79073D01*
X141244Y79123D01*
X141285Y79170D01*
X141329Y79215D01*
X141375Y79258D01*
X141424Y79297D01*
X141475Y79333D01*
X141528Y79366D01*
X141583Y79395D01*
X141640Y79422D01*
X141698Y79444D01*
X141758Y79463D01*
X141819Y79478D01*
X141880Y79490D01*
X141942Y79498D01*
X142005Y79502D01*
X142067Y79502D01*
X142130Y79498D01*
X142192Y79490D01*
X142253Y79478D01*
X142314Y79463D01*
X142374Y79444D01*
X142432Y79422D01*
X142489Y79395D01*
X142544Y79366D01*
X142597Y79333D01*
X142648Y79297D01*
X142697Y79258D01*
X142743Y79215D01*
X142787Y79170D01*
X142828Y79123D01*
X142865Y79073D01*
X142900Y79021D01*
X142931Y78967D01*
X142959Y78911D01*
X142983Y78853D01*
X143004Y78794D01*
X143021Y78734D01*
X143035Y78673D01*
X143044Y78611D01*
X143050Y78549D01*
X143052Y78486D01*
X143052Y77470D01*
X143050Y77407D01*
X143044Y77345D01*
X143035Y77283D01*
X143021Y77222D01*
X143004Y77162D01*
X142983Y77103D01*
X142959Y77045D01*
X142931Y76989D01*
X142900Y76935D01*
X142865Y76883D01*
X142828Y76833D01*
X142787Y76786D01*
X142743Y76741D01*
X142697Y76698D01*
X142648Y76659D01*
X142597Y76623D01*
X142544Y76590D01*
X142489Y76561D01*
X142432Y76534D01*
X142374Y76512D01*
X142314Y76493D01*
X142253Y76478D01*
X142192Y76466D01*
X142130Y76458D01*
X142067Y76454D01*
X142005Y76454D01*
X141942Y76458D01*
X141880Y76466D01*
X141819Y76478D01*
X141758Y76493D01*
X141698Y76512D01*
X141640Y76534D01*
X141583Y76561D01*
X141528Y76590D01*
X141475Y76623D01*
X141424Y76659D01*
X141375Y76698D01*
X141329Y76741D01*
X141285Y76786D01*
X141244Y76833D01*
X141207Y76883D01*
X141172Y76935D01*
X141141Y76989D01*
X141113Y77045D01*
X141089Y77103D01*
X141068Y77162D01*
X141051Y77222D01*
X141037Y77283D01*
X141028Y77345D01*
X141022Y77407D01*
X141020Y77470D01*
X144932Y76454D02*
X144932Y79502D01*
X144805Y80772D02*
X144805Y81026D01*
X145059Y81026D01*
X145059Y80772D01*
X144805Y80772D01*
X147192Y78232D02*
X148462Y77724D01*
X147192Y78231D02*
X147146Y78252D01*
X147101Y78276D01*
X147059Y78304D01*
X147018Y78334D01*
X146980Y78368D01*
X146945Y78405D01*
X146913Y78444D01*
X146883Y78485D01*
X146858Y78529D01*
X146835Y78575D01*
X146816Y78622D01*
X146801Y78670D01*
X146790Y78720D01*
X146782Y78770D01*
X146778Y78821D01*
X146779Y78871D01*
X146783Y78922D01*
X146791Y78972D01*
X146803Y79022D01*
X146818Y79070D01*
X146838Y79117D01*
X146861Y79162D01*
X146887Y79206D01*
X146916Y79247D01*
X146949Y79286D01*
X146985Y79322D01*
X147023Y79356D01*
X147064Y79386D01*
X147106Y79413D01*
X147151Y79437D01*
X147198Y79457D01*
X147246Y79474D01*
X147295Y79487D01*
X147345Y79496D01*
X147396Y79501D01*
X147446Y79502D01*
X147553Y79498D01*
X147660Y79491D01*
X147767Y79479D01*
X147873Y79464D01*
X147978Y79444D01*
X148083Y79421D01*
X148186Y79394D01*
X148289Y79363D01*
X148390Y79328D01*
X148490Y79290D01*
X148589Y79248D01*
X148463Y77725D02*
X148509Y77704D01*
X148554Y77680D01*
X148596Y77652D01*
X148637Y77622D01*
X148675Y77588D01*
X148710Y77551D01*
X148742Y77512D01*
X148772Y77471D01*
X148797Y77427D01*
X148820Y77381D01*
X148839Y77334D01*
X148854Y77286D01*
X148865Y77236D01*
X148873Y77186D01*
X148877Y77135D01*
X148876Y77085D01*
X148872Y77034D01*
X148864Y76984D01*
X148852Y76934D01*
X148837Y76886D01*
X148817Y76839D01*
X148794Y76794D01*
X148768Y76750D01*
X148739Y76709D01*
X148706Y76670D01*
X148670Y76634D01*
X148632Y76600D01*
X148591Y76570D01*
X148549Y76543D01*
X148504Y76519D01*
X148457Y76499D01*
X148409Y76482D01*
X148360Y76469D01*
X148310Y76460D01*
X148259Y76455D01*
X148209Y76454D01*
X148208Y76453D02*
X148079Y76457D01*
X147949Y76465D01*
X147820Y76477D01*
X147691Y76492D01*
X147563Y76511D01*
X147436Y76535D01*
X147309Y76562D01*
X147183Y76592D01*
X147058Y76627D01*
X146934Y76665D01*
X146811Y76707D01*
X89154Y68326D02*
X89154Y63754D01*
X89154Y68326D02*
X90424Y68326D01*
X90493Y68324D01*
X90561Y68319D01*
X90629Y68309D01*
X90697Y68296D01*
X90764Y68280D01*
X90830Y68260D01*
X90894Y68236D01*
X90957Y68209D01*
X91019Y68178D01*
X91079Y68144D01*
X91137Y68107D01*
X91193Y68067D01*
X91246Y68024D01*
X91297Y67978D01*
X91346Y67929D01*
X91392Y67878D01*
X91435Y67825D01*
X91475Y67769D01*
X91512Y67711D01*
X91546Y67651D01*
X91577Y67589D01*
X91604Y67526D01*
X91628Y67462D01*
X91648Y67396D01*
X91664Y67329D01*
X91677Y67261D01*
X91687Y67193D01*
X91692Y67125D01*
X91694Y67056D01*
X91694Y65024D01*
X91692Y64955D01*
X91687Y64887D01*
X91677Y64819D01*
X91664Y64751D01*
X91648Y64684D01*
X91628Y64618D01*
X91604Y64554D01*
X91577Y64491D01*
X91546Y64429D01*
X91512Y64369D01*
X91475Y64311D01*
X91435Y64255D01*
X91392Y64202D01*
X91346Y64151D01*
X91297Y64102D01*
X91246Y64056D01*
X91193Y64013D01*
X91137Y63973D01*
X91079Y63936D01*
X91019Y63902D01*
X90957Y63871D01*
X90894Y63844D01*
X90830Y63820D01*
X90764Y63800D01*
X90697Y63784D01*
X90629Y63771D01*
X90561Y63761D01*
X90493Y63756D01*
X90424Y63754D01*
X89154Y63754D01*
X93777Y63754D02*
X93777Y66802D01*
X93650Y68072D02*
X93650Y68326D01*
X93904Y68326D01*
X93904Y68072D01*
X93650Y68072D01*
X96392Y63754D02*
X97662Y63754D01*
X96392Y63754D02*
X96338Y63756D01*
X96284Y63762D01*
X96230Y63771D01*
X96177Y63785D01*
X96126Y63802D01*
X96075Y63823D01*
X96027Y63847D01*
X95980Y63875D01*
X95935Y63906D01*
X95893Y63940D01*
X95853Y63977D01*
X95816Y64017D01*
X95782Y64059D01*
X95751Y64104D01*
X95723Y64151D01*
X95699Y64199D01*
X95678Y64250D01*
X95661Y64301D01*
X95647Y64354D01*
X95638Y64408D01*
X95632Y64462D01*
X95630Y64516D01*
X95630Y66040D01*
X95632Y66094D01*
X95638Y66148D01*
X95647Y66202D01*
X95661Y66255D01*
X95678Y66306D01*
X95699Y66357D01*
X95723Y66405D01*
X95751Y66452D01*
X95782Y66497D01*
X95816Y66539D01*
X95853Y66579D01*
X95893Y66616D01*
X95935Y66650D01*
X95980Y66681D01*
X96027Y66709D01*
X96075Y66733D01*
X96126Y66754D01*
X96177Y66771D01*
X96230Y66785D01*
X96284Y66794D01*
X96338Y66800D01*
X96392Y66802D01*
X97662Y66802D01*
X97662Y62992D01*
X97660Y62938D01*
X97654Y62884D01*
X97645Y62830D01*
X97631Y62777D01*
X97614Y62726D01*
X97593Y62675D01*
X97569Y62627D01*
X97541Y62580D01*
X97510Y62535D01*
X97476Y62493D01*
X97439Y62453D01*
X97399Y62416D01*
X97357Y62382D01*
X97312Y62351D01*
X97265Y62323D01*
X97217Y62299D01*
X97166Y62278D01*
X97115Y62261D01*
X97062Y62247D01*
X97008Y62238D01*
X96954Y62232D01*
X96900Y62230D01*
X95884Y62230D01*
X99720Y63754D02*
X99720Y66802D01*
X99593Y68072D02*
X99593Y68326D01*
X99847Y68326D01*
X99847Y68072D01*
X99593Y68072D01*
X101203Y66802D02*
X102727Y66802D01*
X101711Y68326D02*
X101711Y64516D01*
X101713Y64462D01*
X101719Y64408D01*
X101728Y64354D01*
X101742Y64301D01*
X101759Y64250D01*
X101780Y64199D01*
X101804Y64151D01*
X101832Y64104D01*
X101863Y64059D01*
X101897Y64017D01*
X101934Y63977D01*
X101974Y63940D01*
X102016Y63906D01*
X102061Y63875D01*
X102108Y63847D01*
X102156Y63823D01*
X102207Y63802D01*
X102258Y63785D01*
X102311Y63771D01*
X102365Y63762D01*
X102419Y63756D01*
X102473Y63754D01*
X102727Y63754D01*
X105358Y65532D02*
X106501Y65532D01*
X105358Y65532D02*
X105300Y65530D01*
X105242Y65524D01*
X105185Y65515D01*
X105128Y65502D01*
X105072Y65485D01*
X105018Y65464D01*
X104965Y65440D01*
X104914Y65413D01*
X104864Y65382D01*
X104817Y65348D01*
X104772Y65311D01*
X104729Y65272D01*
X104690Y65229D01*
X104653Y65184D01*
X104619Y65137D01*
X104588Y65088D01*
X104561Y65036D01*
X104537Y64983D01*
X104516Y64929D01*
X104499Y64873D01*
X104486Y64816D01*
X104477Y64759D01*
X104471Y64701D01*
X104469Y64643D01*
X104471Y64585D01*
X104477Y64527D01*
X104486Y64470D01*
X104499Y64413D01*
X104516Y64357D01*
X104537Y64303D01*
X104561Y64250D01*
X104588Y64199D01*
X104619Y64149D01*
X104653Y64102D01*
X104690Y64057D01*
X104729Y64014D01*
X104772Y63975D01*
X104817Y63938D01*
X104864Y63904D01*
X104914Y63873D01*
X104965Y63846D01*
X105018Y63822D01*
X105072Y63801D01*
X105128Y63784D01*
X105185Y63771D01*
X105242Y63762D01*
X105300Y63756D01*
X105358Y63754D01*
X106501Y63754D01*
X106501Y66040D01*
X106499Y66094D01*
X106493Y66148D01*
X106484Y66202D01*
X106470Y66255D01*
X106453Y66306D01*
X106432Y66357D01*
X106408Y66405D01*
X106380Y66452D01*
X106349Y66497D01*
X106315Y66539D01*
X106278Y66579D01*
X106238Y66616D01*
X106196Y66650D01*
X106151Y66681D01*
X106104Y66709D01*
X106056Y66733D01*
X106005Y66754D01*
X105954Y66771D01*
X105901Y66785D01*
X105847Y66794D01*
X105793Y66800D01*
X105739Y66802D01*
X104723Y66802D01*
X108658Y68326D02*
X108658Y64516D01*
X108660Y64462D01*
X108666Y64408D01*
X108675Y64354D01*
X108689Y64301D01*
X108706Y64250D01*
X108727Y64199D01*
X108751Y64151D01*
X108779Y64104D01*
X108810Y64059D01*
X108844Y64017D01*
X108881Y63977D01*
X108921Y63940D01*
X108963Y63906D01*
X109008Y63875D01*
X109055Y63847D01*
X109103Y63823D01*
X109154Y63802D01*
X109205Y63785D01*
X109258Y63771D01*
X109312Y63762D01*
X109366Y63756D01*
X109420Y63754D01*
X113700Y63754D02*
X113700Y68326D01*
X113700Y63754D02*
X115732Y63754D01*
X118211Y63754D02*
X119481Y63754D01*
X118211Y63754D02*
X118157Y63756D01*
X118103Y63762D01*
X118049Y63771D01*
X117996Y63785D01*
X117945Y63802D01*
X117894Y63823D01*
X117846Y63847D01*
X117799Y63875D01*
X117754Y63906D01*
X117712Y63940D01*
X117672Y63977D01*
X117635Y64017D01*
X117601Y64059D01*
X117570Y64104D01*
X117542Y64151D01*
X117518Y64199D01*
X117497Y64250D01*
X117480Y64301D01*
X117466Y64354D01*
X117457Y64408D01*
X117451Y64462D01*
X117449Y64516D01*
X117449Y65786D01*
X117451Y65849D01*
X117457Y65911D01*
X117466Y65973D01*
X117480Y66034D01*
X117497Y66094D01*
X117518Y66153D01*
X117542Y66211D01*
X117570Y66267D01*
X117601Y66321D01*
X117636Y66373D01*
X117673Y66423D01*
X117714Y66470D01*
X117758Y66515D01*
X117804Y66558D01*
X117853Y66597D01*
X117904Y66633D01*
X117957Y66666D01*
X118012Y66695D01*
X118069Y66722D01*
X118127Y66744D01*
X118187Y66763D01*
X118248Y66778D01*
X118309Y66790D01*
X118371Y66798D01*
X118434Y66802D01*
X118496Y66802D01*
X118559Y66798D01*
X118621Y66790D01*
X118682Y66778D01*
X118743Y66763D01*
X118803Y66744D01*
X118861Y66722D01*
X118918Y66695D01*
X118973Y66666D01*
X119026Y66633D01*
X119077Y66597D01*
X119126Y66558D01*
X119172Y66515D01*
X119216Y66470D01*
X119257Y66423D01*
X119294Y66373D01*
X119329Y66321D01*
X119360Y66267D01*
X119388Y66211D01*
X119412Y66153D01*
X119433Y66094D01*
X119450Y66034D01*
X119464Y65973D01*
X119473Y65911D01*
X119479Y65849D01*
X119481Y65786D01*
X119481Y65278D01*
X117449Y65278D01*
X121259Y66802D02*
X122275Y63754D01*
X123291Y66802D01*
X125831Y63754D02*
X127101Y63754D01*
X125831Y63754D02*
X125777Y63756D01*
X125723Y63762D01*
X125669Y63771D01*
X125616Y63785D01*
X125565Y63802D01*
X125514Y63823D01*
X125466Y63847D01*
X125419Y63875D01*
X125374Y63906D01*
X125332Y63940D01*
X125292Y63977D01*
X125255Y64017D01*
X125221Y64059D01*
X125190Y64104D01*
X125162Y64151D01*
X125138Y64199D01*
X125117Y64250D01*
X125100Y64301D01*
X125086Y64354D01*
X125077Y64408D01*
X125071Y64462D01*
X125069Y64516D01*
X125069Y65786D01*
X125071Y65849D01*
X125077Y65911D01*
X125086Y65973D01*
X125100Y66034D01*
X125117Y66094D01*
X125138Y66153D01*
X125162Y66211D01*
X125190Y66267D01*
X125221Y66321D01*
X125256Y66373D01*
X125293Y66423D01*
X125334Y66470D01*
X125378Y66515D01*
X125424Y66558D01*
X125473Y66597D01*
X125524Y66633D01*
X125577Y66666D01*
X125632Y66695D01*
X125689Y66722D01*
X125747Y66744D01*
X125807Y66763D01*
X125868Y66778D01*
X125929Y66790D01*
X125991Y66798D01*
X126054Y66802D01*
X126116Y66802D01*
X126179Y66798D01*
X126241Y66790D01*
X126302Y66778D01*
X126363Y66763D01*
X126423Y66744D01*
X126481Y66722D01*
X126538Y66695D01*
X126593Y66666D01*
X126646Y66633D01*
X126697Y66597D01*
X126746Y66558D01*
X126792Y66515D01*
X126836Y66470D01*
X126877Y66423D01*
X126914Y66373D01*
X126949Y66321D01*
X126980Y66267D01*
X127008Y66211D01*
X127032Y66153D01*
X127053Y66094D01*
X127070Y66034D01*
X127084Y65973D01*
X127093Y65911D01*
X127099Y65849D01*
X127101Y65786D01*
X127101Y65278D01*
X125069Y65278D01*
X129080Y64516D02*
X129080Y68326D01*
X129080Y64516D02*
X129082Y64462D01*
X129088Y64408D01*
X129097Y64354D01*
X129111Y64301D01*
X129128Y64250D01*
X129149Y64199D01*
X129173Y64151D01*
X129201Y64104D01*
X129232Y64059D01*
X129266Y64017D01*
X129303Y63977D01*
X129343Y63940D01*
X129385Y63906D01*
X129430Y63875D01*
X129477Y63847D01*
X129525Y63823D01*
X129576Y63802D01*
X129627Y63785D01*
X129680Y63771D01*
X129734Y63762D01*
X129788Y63756D01*
X129842Y63754D01*
X135229Y63754D02*
X133705Y68326D01*
X136753Y68326D02*
X135229Y63754D01*
X139928Y68326D02*
X139994Y68324D01*
X140061Y68318D01*
X140126Y68309D01*
X140192Y68295D01*
X140256Y68278D01*
X140319Y68257D01*
X140381Y68233D01*
X140441Y68204D01*
X140500Y68173D01*
X140556Y68138D01*
X140611Y68100D01*
X140663Y68059D01*
X140712Y68014D01*
X140759Y67967D01*
X140804Y67918D01*
X140845Y67866D01*
X140883Y67811D01*
X140918Y67755D01*
X140949Y67696D01*
X140978Y67636D01*
X141002Y67574D01*
X141023Y67511D01*
X141040Y67447D01*
X141054Y67381D01*
X141063Y67316D01*
X141069Y67249D01*
X141071Y67183D01*
X139928Y68326D02*
X139854Y68324D01*
X139781Y68319D01*
X139707Y68309D01*
X139635Y68296D01*
X139563Y68280D01*
X139492Y68260D01*
X139422Y68236D01*
X139353Y68209D01*
X139286Y68178D01*
X139220Y68144D01*
X139157Y68107D01*
X139095Y68067D01*
X139035Y68023D01*
X138978Y67977D01*
X138922Y67928D01*
X138870Y67876D01*
X138820Y67821D01*
X138773Y67764D01*
X138729Y67705D01*
X138688Y67644D01*
X138650Y67580D01*
X138615Y67515D01*
X138584Y67448D01*
X138556Y67380D01*
X138531Y67310D01*
X140690Y66294D02*
X140737Y66341D01*
X140781Y66390D01*
X140822Y66442D01*
X140861Y66496D01*
X140896Y66552D01*
X140929Y66610D01*
X140958Y66669D01*
X140984Y66730D01*
X141007Y66792D01*
X141027Y66856D01*
X141042Y66920D01*
X141055Y66985D01*
X141064Y67051D01*
X141069Y67117D01*
X141071Y67183D01*
X140690Y66294D02*
X138531Y63754D01*
X141071Y63754D01*
X90424Y55626D02*
X89154Y54610D01*
X90424Y55626D02*
X90424Y51054D01*
X89154Y51054D02*
X91694Y51054D01*
X93726Y54610D02*
X94996Y55626D01*
X94996Y51054D01*
X93726Y51054D02*
X96266Y51054D01*
X98095Y50546D02*
X100127Y56134D01*
X101956Y54610D02*
X103226Y55626D01*
X103226Y51054D01*
X101956Y51054D02*
X104496Y51054D01*
X106527Y53340D02*
X106529Y53462D01*
X106535Y53584D01*
X106545Y53706D01*
X106559Y53827D01*
X106576Y53948D01*
X106598Y54068D01*
X106623Y54187D01*
X106653Y54306D01*
X106686Y54423D01*
X106723Y54540D01*
X106764Y54655D01*
X106808Y54768D01*
X106856Y54881D01*
X106908Y54991D01*
X106909Y54991D02*
X106929Y55045D01*
X106953Y55099D01*
X106981Y55150D01*
X107011Y55200D01*
X107044Y55248D01*
X107081Y55293D01*
X107120Y55337D01*
X107161Y55377D01*
X107205Y55416D01*
X107252Y55451D01*
X107300Y55483D01*
X107350Y55513D01*
X107403Y55539D01*
X107456Y55562D01*
X107511Y55581D01*
X107567Y55597D01*
X107624Y55610D01*
X107682Y55619D01*
X107740Y55624D01*
X107798Y55626D01*
X107856Y55624D01*
X107914Y55619D01*
X107972Y55610D01*
X108029Y55597D01*
X108085Y55581D01*
X108140Y55562D01*
X108193Y55539D01*
X108246Y55513D01*
X108296Y55483D01*
X108344Y55451D01*
X108391Y55416D01*
X108435Y55377D01*
X108476Y55337D01*
X108515Y55293D01*
X108552Y55248D01*
X108585Y55200D01*
X108615Y55150D01*
X108643Y55099D01*
X108667Y55045D01*
X108687Y54991D01*
X108739Y54881D01*
X108787Y54768D01*
X108831Y54655D01*
X108872Y54540D01*
X108909Y54423D01*
X108942Y54306D01*
X108972Y54187D01*
X108997Y54068D01*
X109019Y53948D01*
X109036Y53827D01*
X109050Y53706D01*
X109060Y53584D01*
X109066Y53462D01*
X109068Y53340D01*
X106527Y53340D02*
X106529Y53218D01*
X106535Y53096D01*
X106545Y52974D01*
X106559Y52853D01*
X106576Y52732D01*
X106598Y52612D01*
X106623Y52493D01*
X106653Y52374D01*
X106686Y52257D01*
X106723Y52140D01*
X106764Y52025D01*
X106808Y51912D01*
X106856Y51799D01*
X106908Y51689D01*
X106909Y51689D02*
X106929Y51635D01*
X106953Y51581D01*
X106981Y51530D01*
X107011Y51480D01*
X107044Y51432D01*
X107081Y51387D01*
X107120Y51343D01*
X107161Y51303D01*
X107205Y51264D01*
X107252Y51229D01*
X107300Y51197D01*
X107350Y51167D01*
X107403Y51141D01*
X107456Y51118D01*
X107511Y51099D01*
X107567Y51083D01*
X107624Y51070D01*
X107682Y51061D01*
X107740Y51056D01*
X107798Y51054D01*
X108687Y51689D02*
X108739Y51799D01*
X108787Y51912D01*
X108831Y52025D01*
X108872Y52140D01*
X108909Y52257D01*
X108942Y52374D01*
X108972Y52493D01*
X108997Y52612D01*
X109019Y52732D01*
X109036Y52853D01*
X109050Y52974D01*
X109060Y53096D01*
X109066Y53218D01*
X109068Y53340D01*
X108687Y51689D02*
X108667Y51635D01*
X108643Y51581D01*
X108615Y51530D01*
X108585Y51480D01*
X108552Y51432D01*
X108515Y51387D01*
X108476Y51343D01*
X108435Y51303D01*
X108391Y51264D01*
X108344Y51229D01*
X108296Y51197D01*
X108246Y51167D01*
X108193Y51141D01*
X108140Y51118D01*
X108085Y51099D01*
X108029Y51083D01*
X107972Y51070D01*
X107914Y51061D01*
X107856Y51056D01*
X107798Y51054D01*
X106782Y52070D02*
X108814Y54610D01*
X112928Y56134D02*
X110896Y50546D01*
X116154Y55626D02*
X116220Y55624D01*
X116287Y55618D01*
X116352Y55609D01*
X116418Y55595D01*
X116482Y55578D01*
X116545Y55557D01*
X116607Y55533D01*
X116667Y55504D01*
X116726Y55473D01*
X116782Y55438D01*
X116837Y55400D01*
X116889Y55359D01*
X116938Y55314D01*
X116985Y55267D01*
X117030Y55218D01*
X117071Y55166D01*
X117109Y55111D01*
X117144Y55055D01*
X117175Y54996D01*
X117204Y54936D01*
X117228Y54874D01*
X117249Y54811D01*
X117266Y54747D01*
X117280Y54681D01*
X117289Y54616D01*
X117295Y54549D01*
X117297Y54483D01*
X116154Y55626D02*
X116080Y55624D01*
X116007Y55619D01*
X115933Y55609D01*
X115861Y55596D01*
X115789Y55580D01*
X115718Y55560D01*
X115648Y55536D01*
X115579Y55509D01*
X115512Y55478D01*
X115446Y55444D01*
X115383Y55407D01*
X115321Y55367D01*
X115261Y55323D01*
X115204Y55277D01*
X115148Y55228D01*
X115096Y55176D01*
X115046Y55121D01*
X114999Y55064D01*
X114955Y55005D01*
X114914Y54944D01*
X114876Y54880D01*
X114841Y54815D01*
X114810Y54748D01*
X114782Y54680D01*
X114757Y54610D01*
X116916Y53594D02*
X116963Y53641D01*
X117007Y53690D01*
X117048Y53742D01*
X117087Y53796D01*
X117122Y53852D01*
X117155Y53910D01*
X117184Y53969D01*
X117210Y54030D01*
X117233Y54092D01*
X117253Y54156D01*
X117268Y54220D01*
X117281Y54285D01*
X117290Y54351D01*
X117295Y54417D01*
X117297Y54483D01*
X116916Y53594D02*
X114757Y51054D01*
X117297Y51054D01*
X119329Y53340D02*
X119331Y53462D01*
X119337Y53584D01*
X119347Y53706D01*
X119361Y53827D01*
X119378Y53948D01*
X119400Y54068D01*
X119425Y54187D01*
X119455Y54306D01*
X119488Y54423D01*
X119525Y54540D01*
X119566Y54655D01*
X119610Y54768D01*
X119658Y54881D01*
X119710Y54991D01*
X119730Y55045D01*
X119754Y55099D01*
X119782Y55150D01*
X119812Y55200D01*
X119845Y55248D01*
X119882Y55293D01*
X119921Y55337D01*
X119962Y55377D01*
X120006Y55416D01*
X120053Y55451D01*
X120101Y55483D01*
X120151Y55513D01*
X120204Y55539D01*
X120257Y55562D01*
X120312Y55581D01*
X120368Y55597D01*
X120425Y55610D01*
X120483Y55619D01*
X120541Y55624D01*
X120599Y55626D01*
X120657Y55624D01*
X120715Y55619D01*
X120773Y55610D01*
X120830Y55597D01*
X120886Y55581D01*
X120941Y55562D01*
X120994Y55539D01*
X121047Y55513D01*
X121097Y55483D01*
X121145Y55451D01*
X121192Y55416D01*
X121236Y55377D01*
X121277Y55337D01*
X121316Y55293D01*
X121353Y55248D01*
X121386Y55200D01*
X121416Y55150D01*
X121444Y55099D01*
X121468Y55045D01*
X121488Y54991D01*
X121540Y54881D01*
X121588Y54768D01*
X121632Y54655D01*
X121673Y54540D01*
X121710Y54423D01*
X121743Y54306D01*
X121773Y54187D01*
X121798Y54068D01*
X121820Y53948D01*
X121837Y53827D01*
X121851Y53706D01*
X121861Y53584D01*
X121867Y53462D01*
X121869Y53340D01*
X119329Y53340D02*
X119331Y53218D01*
X119337Y53096D01*
X119347Y52974D01*
X119361Y52853D01*
X119378Y52732D01*
X119400Y52612D01*
X119425Y52493D01*
X119455Y52374D01*
X119488Y52257D01*
X119525Y52140D01*
X119566Y52025D01*
X119610Y51912D01*
X119658Y51799D01*
X119710Y51689D01*
X119730Y51635D01*
X119754Y51581D01*
X119782Y51530D01*
X119812Y51480D01*
X119845Y51432D01*
X119882Y51387D01*
X119921Y51343D01*
X119962Y51303D01*
X120006Y51264D01*
X120053Y51229D01*
X120101Y51197D01*
X120151Y51167D01*
X120204Y51141D01*
X120257Y51118D01*
X120312Y51099D01*
X120368Y51083D01*
X120425Y51070D01*
X120483Y51061D01*
X120541Y51056D01*
X120599Y51054D01*
X121488Y51689D02*
X121540Y51799D01*
X121588Y51912D01*
X121632Y52025D01*
X121673Y52140D01*
X121710Y52257D01*
X121743Y52374D01*
X121773Y52493D01*
X121798Y52612D01*
X121820Y52732D01*
X121837Y52853D01*
X121851Y52974D01*
X121861Y53096D01*
X121867Y53218D01*
X121869Y53340D01*
X121488Y51689D02*
X121468Y51635D01*
X121444Y51581D01*
X121416Y51530D01*
X121386Y51480D01*
X121353Y51432D01*
X121316Y51387D01*
X121277Y51343D01*
X121236Y51303D01*
X121192Y51264D01*
X121145Y51229D01*
X121097Y51197D01*
X121047Y51167D01*
X120994Y51141D01*
X120941Y51118D01*
X120886Y51099D01*
X120830Y51083D01*
X120773Y51070D01*
X120715Y51061D01*
X120657Y51056D01*
X120599Y51054D01*
X119583Y52070D02*
X121615Y54610D01*
X668274Y127254D02*
X672846Y127254D01*
X669798Y127254D02*
X669798Y128524D01*
X669800Y128578D01*
X669806Y128632D01*
X669815Y128686D01*
X669829Y128739D01*
X669846Y128790D01*
X669867Y128841D01*
X669891Y128889D01*
X669919Y128936D01*
X669950Y128981D01*
X669984Y129023D01*
X670021Y129063D01*
X670061Y129100D01*
X670103Y129134D01*
X670148Y129165D01*
X670195Y129193D01*
X670243Y129217D01*
X670294Y129238D01*
X670345Y129255D01*
X670398Y129269D01*
X670452Y129278D01*
X670506Y129284D01*
X670560Y129286D01*
X672846Y129286D01*
X669798Y130972D02*
X669798Y132496D01*
X668274Y131480D02*
X672084Y131480D01*
X672138Y131482D01*
X672192Y131488D01*
X672246Y131497D01*
X672299Y131511D01*
X672350Y131528D01*
X672401Y131549D01*
X672449Y131573D01*
X672496Y131601D01*
X672541Y131632D01*
X672583Y131666D01*
X672623Y131703D01*
X672660Y131743D01*
X672694Y131785D01*
X672725Y131830D01*
X672753Y131877D01*
X672777Y131925D01*
X672798Y131976D01*
X672815Y132027D01*
X672829Y132080D01*
X672838Y132134D01*
X672844Y132188D01*
X672846Y132242D01*
X672846Y132496D01*
X669798Y133867D02*
X669798Y135391D01*
X668274Y134375D02*
X672084Y134375D01*
X672138Y134377D01*
X672192Y134383D01*
X672246Y134392D01*
X672299Y134406D01*
X672350Y134423D01*
X672401Y134444D01*
X672449Y134468D01*
X672496Y134496D01*
X672541Y134527D01*
X672583Y134561D01*
X672623Y134598D01*
X672660Y134638D01*
X672694Y134680D01*
X672725Y134725D01*
X672753Y134772D01*
X672777Y134820D01*
X672798Y134871D01*
X672815Y134922D01*
X672829Y134975D01*
X672838Y135029D01*
X672844Y135083D01*
X672846Y135137D01*
X672846Y135391D01*
X674370Y137339D02*
X669798Y137339D01*
X669798Y138609D01*
X669800Y138663D01*
X669806Y138717D01*
X669815Y138771D01*
X669829Y138824D01*
X669846Y138875D01*
X669867Y138926D01*
X669891Y138974D01*
X669919Y139021D01*
X669950Y139066D01*
X669984Y139108D01*
X670021Y139148D01*
X670061Y139185D01*
X670103Y139219D01*
X670148Y139250D01*
X670195Y139278D01*
X670243Y139302D01*
X670294Y139323D01*
X670345Y139340D01*
X670398Y139354D01*
X670452Y139363D01*
X670506Y139369D01*
X670560Y139371D01*
X672084Y139371D01*
X672138Y139369D01*
X672192Y139363D01*
X672246Y139354D01*
X672299Y139340D01*
X672350Y139323D01*
X672401Y139302D01*
X672449Y139278D01*
X672496Y139250D01*
X672541Y139219D01*
X672583Y139185D01*
X672623Y139148D01*
X672660Y139108D01*
X672694Y139066D01*
X672725Y139021D01*
X672753Y138974D01*
X672777Y138926D01*
X672798Y138875D01*
X672815Y138824D01*
X672829Y138771D01*
X672838Y138717D01*
X672844Y138663D01*
X672846Y138609D01*
X672846Y137339D01*
X671068Y141656D02*
X671576Y142926D01*
X671069Y141655D02*
X671048Y141609D01*
X671024Y141564D01*
X670996Y141522D01*
X670966Y141481D01*
X670932Y141443D01*
X670895Y141408D01*
X670856Y141376D01*
X670815Y141346D01*
X670771Y141321D01*
X670725Y141298D01*
X670678Y141279D01*
X670630Y141264D01*
X670580Y141253D01*
X670530Y141245D01*
X670479Y141241D01*
X670429Y141242D01*
X670378Y141246D01*
X670328Y141254D01*
X670278Y141266D01*
X670230Y141281D01*
X670183Y141301D01*
X670138Y141324D01*
X670094Y141350D01*
X670053Y141379D01*
X670014Y141412D01*
X669978Y141448D01*
X669944Y141486D01*
X669914Y141527D01*
X669887Y141569D01*
X669863Y141614D01*
X669843Y141661D01*
X669826Y141709D01*
X669813Y141758D01*
X669804Y141808D01*
X669799Y141859D01*
X669798Y141909D01*
X669802Y142016D01*
X669809Y142123D01*
X669821Y142230D01*
X669836Y142336D01*
X669856Y142441D01*
X669879Y142546D01*
X669906Y142649D01*
X669937Y142752D01*
X669972Y142853D01*
X670010Y142953D01*
X670052Y143052D01*
X671575Y142926D02*
X671596Y142972D01*
X671620Y143017D01*
X671648Y143059D01*
X671678Y143100D01*
X671712Y143138D01*
X671749Y143173D01*
X671788Y143205D01*
X671829Y143235D01*
X671873Y143260D01*
X671919Y143283D01*
X671966Y143302D01*
X672014Y143317D01*
X672064Y143328D01*
X672114Y143336D01*
X672165Y143340D01*
X672215Y143339D01*
X672266Y143335D01*
X672316Y143327D01*
X672366Y143315D01*
X672414Y143300D01*
X672461Y143280D01*
X672506Y143257D01*
X672550Y143231D01*
X672591Y143202D01*
X672630Y143169D01*
X672666Y143133D01*
X672700Y143095D01*
X672730Y143054D01*
X672757Y143012D01*
X672781Y142967D01*
X672801Y142920D01*
X672818Y142872D01*
X672831Y142823D01*
X672840Y142773D01*
X672845Y142722D01*
X672846Y142672D01*
X672847Y142671D02*
X672843Y142542D01*
X672835Y142412D01*
X672823Y142283D01*
X672808Y142154D01*
X672789Y142026D01*
X672765Y141899D01*
X672738Y141772D01*
X672708Y141646D01*
X672673Y141521D01*
X672635Y141397D01*
X672593Y141274D01*
X672465Y145212D02*
X672211Y145212D01*
X672211Y145466D01*
X672465Y145466D01*
X672465Y145212D01*
X670433Y145212D02*
X670179Y145212D01*
X670179Y145466D01*
X670433Y145466D01*
X670433Y145212D01*
X673354Y147218D02*
X667766Y149250D01*
X667766Y152908D02*
X673354Y150876D01*
X672846Y155421D02*
X672846Y156691D01*
X672846Y155421D02*
X672844Y155367D01*
X672838Y155313D01*
X672829Y155259D01*
X672815Y155206D01*
X672798Y155155D01*
X672777Y155104D01*
X672753Y155056D01*
X672725Y155009D01*
X672694Y154964D01*
X672660Y154922D01*
X672623Y154882D01*
X672583Y154845D01*
X672541Y154811D01*
X672496Y154780D01*
X672449Y154752D01*
X672401Y154728D01*
X672350Y154707D01*
X672299Y154690D01*
X672246Y154676D01*
X672192Y154667D01*
X672138Y154661D01*
X672084Y154659D01*
X670560Y154659D01*
X670506Y154661D01*
X670452Y154667D01*
X670398Y154676D01*
X670345Y154690D01*
X670294Y154707D01*
X670243Y154728D01*
X670195Y154752D01*
X670148Y154780D01*
X670103Y154811D01*
X670061Y154845D01*
X670021Y154882D01*
X669984Y154922D01*
X669950Y154964D01*
X669919Y155009D01*
X669891Y155056D01*
X669867Y155104D01*
X669846Y155155D01*
X669829Y155206D01*
X669815Y155259D01*
X669806Y155313D01*
X669800Y155367D01*
X669798Y155421D01*
X669798Y156691D01*
X673608Y156691D01*
X673662Y156689D01*
X673716Y156683D01*
X673770Y156674D01*
X673823Y156660D01*
X673874Y156643D01*
X673925Y156622D01*
X673973Y156598D01*
X674020Y156570D01*
X674065Y156539D01*
X674107Y156505D01*
X674147Y156468D01*
X674184Y156428D01*
X674218Y156386D01*
X674249Y156341D01*
X674277Y156294D01*
X674301Y156246D01*
X674322Y156195D01*
X674339Y156144D01*
X674353Y156091D01*
X674362Y156037D01*
X674368Y155983D01*
X674370Y155929D01*
X674370Y154913D01*
X672846Y158750D02*
X669798Y158750D01*
X668528Y158623D02*
X668274Y158623D01*
X668274Y158877D01*
X668528Y158877D01*
X668528Y158623D01*
X669798Y160232D02*
X669798Y161756D01*
X668274Y160740D02*
X672084Y160740D01*
X672138Y160742D01*
X672192Y160748D01*
X672246Y160757D01*
X672299Y160771D01*
X672350Y160788D01*
X672401Y160809D01*
X672449Y160833D01*
X672496Y160861D01*
X672541Y160892D01*
X672583Y160926D01*
X672623Y160963D01*
X672660Y161003D01*
X672694Y161045D01*
X672725Y161090D01*
X672753Y161137D01*
X672777Y161185D01*
X672798Y161236D01*
X672815Y161287D01*
X672829Y161340D01*
X672838Y161394D01*
X672844Y161448D01*
X672846Y161502D01*
X672846Y161756D01*
X672846Y163677D02*
X668274Y163677D01*
X669798Y163677D02*
X669798Y164947D01*
X669800Y165001D01*
X669806Y165055D01*
X669815Y165109D01*
X669829Y165162D01*
X669846Y165213D01*
X669867Y165264D01*
X669891Y165312D01*
X669919Y165359D01*
X669950Y165404D01*
X669984Y165446D01*
X670021Y165486D01*
X670061Y165523D01*
X670103Y165557D01*
X670148Y165588D01*
X670195Y165616D01*
X670243Y165640D01*
X670294Y165661D01*
X670345Y165678D01*
X670398Y165692D01*
X670452Y165701D01*
X670506Y165707D01*
X670560Y165709D01*
X672846Y165709D01*
X672084Y167944D02*
X669798Y167944D01*
X672084Y167944D02*
X672138Y167946D01*
X672192Y167952D01*
X672246Y167961D01*
X672299Y167975D01*
X672350Y167992D01*
X672401Y168013D01*
X672449Y168037D01*
X672496Y168065D01*
X672541Y168096D01*
X672583Y168130D01*
X672623Y168167D01*
X672660Y168207D01*
X672694Y168249D01*
X672725Y168294D01*
X672753Y168341D01*
X672777Y168389D01*
X672798Y168440D01*
X672815Y168491D01*
X672829Y168544D01*
X672838Y168598D01*
X672844Y168652D01*
X672846Y168706D01*
X672846Y169976D01*
X669798Y169976D01*
X668274Y172238D02*
X672846Y172238D01*
X672846Y173508D01*
X672844Y173562D01*
X672838Y173616D01*
X672829Y173670D01*
X672815Y173723D01*
X672798Y173774D01*
X672777Y173825D01*
X672753Y173873D01*
X672725Y173920D01*
X672694Y173965D01*
X672660Y174007D01*
X672623Y174047D01*
X672583Y174084D01*
X672541Y174118D01*
X672496Y174149D01*
X672449Y174177D01*
X672401Y174201D01*
X672350Y174222D01*
X672299Y174239D01*
X672246Y174253D01*
X672192Y174262D01*
X672138Y174268D01*
X672084Y174270D01*
X670560Y174270D01*
X670506Y174268D01*
X670452Y174262D01*
X670398Y174253D01*
X670345Y174239D01*
X670294Y174222D01*
X670243Y174201D01*
X670195Y174177D01*
X670148Y174149D01*
X670103Y174118D01*
X670061Y174084D01*
X670021Y174047D01*
X669984Y174007D01*
X669950Y173965D01*
X669919Y173920D01*
X669891Y173873D01*
X669867Y173825D01*
X669846Y173774D01*
X669829Y173723D01*
X669815Y173670D01*
X669806Y173616D01*
X669800Y173562D01*
X669798Y173508D01*
X669798Y172238D01*
X672592Y175996D02*
X672846Y175996D01*
X672592Y175996D02*
X672592Y176250D01*
X672846Y176250D01*
X672846Y175996D01*
X672846Y178770D02*
X672846Y179786D01*
X672846Y178770D02*
X672844Y178716D01*
X672838Y178662D01*
X672829Y178608D01*
X672815Y178555D01*
X672798Y178504D01*
X672777Y178453D01*
X672753Y178405D01*
X672725Y178358D01*
X672694Y178313D01*
X672660Y178271D01*
X672623Y178231D01*
X672583Y178194D01*
X672541Y178160D01*
X672496Y178129D01*
X672449Y178101D01*
X672401Y178077D01*
X672350Y178056D01*
X672299Y178039D01*
X672246Y178025D01*
X672192Y178016D01*
X672138Y178010D01*
X672084Y178008D01*
X670560Y178008D01*
X670506Y178010D01*
X670452Y178016D01*
X670398Y178025D01*
X670345Y178039D01*
X670294Y178056D01*
X670243Y178077D01*
X670195Y178101D01*
X670148Y178129D01*
X670103Y178160D01*
X670061Y178194D01*
X670021Y178231D01*
X669984Y178271D01*
X669950Y178313D01*
X669919Y178358D01*
X669891Y178405D01*
X669867Y178453D01*
X669846Y178504D01*
X669829Y178555D01*
X669815Y178608D01*
X669806Y178662D01*
X669800Y178716D01*
X669798Y178770D01*
X669798Y179786D01*
X670814Y181508D02*
X671830Y181508D01*
X670814Y181508D02*
X670751Y181510D01*
X670689Y181516D01*
X670627Y181525D01*
X670566Y181539D01*
X670506Y181556D01*
X670447Y181577D01*
X670389Y181601D01*
X670333Y181629D01*
X670279Y181660D01*
X670227Y181695D01*
X670177Y181732D01*
X670130Y181773D01*
X670085Y181817D01*
X670042Y181863D01*
X670003Y181912D01*
X669967Y181963D01*
X669934Y182016D01*
X669905Y182071D01*
X669878Y182128D01*
X669856Y182186D01*
X669837Y182246D01*
X669822Y182307D01*
X669810Y182368D01*
X669802Y182430D01*
X669798Y182493D01*
X669798Y182555D01*
X669802Y182618D01*
X669810Y182680D01*
X669822Y182741D01*
X669837Y182802D01*
X669856Y182862D01*
X669878Y182920D01*
X669905Y182977D01*
X669934Y183032D01*
X669967Y183085D01*
X670003Y183136D01*
X670042Y183185D01*
X670085Y183231D01*
X670130Y183275D01*
X670177Y183316D01*
X670227Y183353D01*
X670279Y183388D01*
X670333Y183419D01*
X670389Y183447D01*
X670447Y183471D01*
X670506Y183492D01*
X670566Y183509D01*
X670627Y183523D01*
X670689Y183532D01*
X670751Y183538D01*
X670814Y183540D01*
X671830Y183540D01*
X671893Y183538D01*
X671955Y183532D01*
X672017Y183523D01*
X672078Y183509D01*
X672138Y183492D01*
X672197Y183471D01*
X672255Y183447D01*
X672311Y183419D01*
X672365Y183388D01*
X672417Y183353D01*
X672467Y183316D01*
X672514Y183275D01*
X672559Y183231D01*
X672602Y183185D01*
X672641Y183136D01*
X672677Y183085D01*
X672710Y183032D01*
X672739Y182977D01*
X672766Y182920D01*
X672788Y182862D01*
X672807Y182802D01*
X672822Y182741D01*
X672834Y182680D01*
X672842Y182618D01*
X672846Y182555D01*
X672846Y182493D01*
X672842Y182430D01*
X672834Y182368D01*
X672822Y182307D01*
X672807Y182246D01*
X672788Y182186D01*
X672766Y182128D01*
X672739Y182071D01*
X672710Y182016D01*
X672677Y181963D01*
X672641Y181912D01*
X672602Y181863D01*
X672559Y181817D01*
X672514Y181773D01*
X672467Y181732D01*
X672417Y181695D01*
X672365Y181660D01*
X672311Y181629D01*
X672255Y181601D01*
X672197Y181577D01*
X672138Y181556D01*
X672078Y181539D01*
X672017Y181525D01*
X671955Y181516D01*
X671893Y181510D01*
X671830Y181508D01*
X672846Y185724D02*
X669798Y185724D01*
X669798Y188010D01*
X669800Y188064D01*
X669806Y188118D01*
X669815Y188172D01*
X669829Y188225D01*
X669846Y188276D01*
X669867Y188327D01*
X669891Y188375D01*
X669919Y188422D01*
X669950Y188467D01*
X669984Y188509D01*
X670021Y188549D01*
X670061Y188586D01*
X670103Y188620D01*
X670148Y188651D01*
X670195Y188679D01*
X670243Y188703D01*
X670294Y188724D01*
X670345Y188741D01*
X670398Y188755D01*
X670452Y188764D01*
X670506Y188770D01*
X670560Y188772D01*
X672846Y188772D01*
X672846Y187248D02*
X669798Y187248D01*
X673354Y190804D02*
X667766Y192836D01*
X669798Y194868D02*
X672846Y194868D01*
X669798Y194868D02*
X669798Y197154D01*
X669800Y197208D01*
X669806Y197262D01*
X669815Y197316D01*
X669829Y197369D01*
X669846Y197420D01*
X669867Y197471D01*
X669891Y197519D01*
X669919Y197566D01*
X669950Y197611D01*
X669984Y197653D01*
X670021Y197693D01*
X670061Y197730D01*
X670103Y197764D01*
X670148Y197795D01*
X670195Y197823D01*
X670243Y197847D01*
X670294Y197868D01*
X670345Y197885D01*
X670398Y197899D01*
X670452Y197908D01*
X670506Y197914D01*
X670560Y197916D01*
X672846Y197916D01*
X672846Y196392D02*
X669798Y196392D01*
X668274Y200279D02*
X672846Y200279D01*
X672846Y201549D01*
X672844Y201603D01*
X672838Y201657D01*
X672829Y201711D01*
X672815Y201764D01*
X672798Y201815D01*
X672777Y201866D01*
X672753Y201914D01*
X672725Y201961D01*
X672694Y202006D01*
X672660Y202048D01*
X672623Y202088D01*
X672583Y202125D01*
X672541Y202159D01*
X672496Y202190D01*
X672449Y202218D01*
X672401Y202242D01*
X672350Y202263D01*
X672299Y202280D01*
X672246Y202294D01*
X672192Y202303D01*
X672138Y202309D01*
X672084Y202311D01*
X670560Y202311D01*
X670506Y202309D01*
X670452Y202303D01*
X670398Y202294D01*
X670345Y202280D01*
X670294Y202263D01*
X670243Y202242D01*
X670195Y202218D01*
X670148Y202190D01*
X670103Y202159D01*
X670061Y202125D01*
X670021Y202088D01*
X669984Y202048D01*
X669950Y202006D01*
X669919Y201961D01*
X669891Y201914D01*
X669867Y201866D01*
X669846Y201815D01*
X669829Y201764D01*
X669815Y201711D01*
X669806Y201657D01*
X669800Y201603D01*
X669798Y201549D01*
X669798Y200279D01*
X670814Y204215D02*
X671830Y204215D01*
X670814Y204215D02*
X670751Y204217D01*
X670689Y204223D01*
X670627Y204232D01*
X670566Y204246D01*
X670506Y204263D01*
X670447Y204284D01*
X670389Y204308D01*
X670333Y204336D01*
X670279Y204367D01*
X670227Y204402D01*
X670177Y204439D01*
X670130Y204480D01*
X670085Y204524D01*
X670042Y204570D01*
X670003Y204619D01*
X669967Y204670D01*
X669934Y204723D01*
X669905Y204778D01*
X669878Y204835D01*
X669856Y204893D01*
X669837Y204953D01*
X669822Y205014D01*
X669810Y205075D01*
X669802Y205137D01*
X669798Y205200D01*
X669798Y205262D01*
X669802Y205325D01*
X669810Y205387D01*
X669822Y205448D01*
X669837Y205509D01*
X669856Y205569D01*
X669878Y205627D01*
X669905Y205684D01*
X669934Y205739D01*
X669967Y205792D01*
X670003Y205843D01*
X670042Y205892D01*
X670085Y205938D01*
X670130Y205982D01*
X670177Y206023D01*
X670227Y206060D01*
X670279Y206095D01*
X670333Y206126D01*
X670389Y206154D01*
X670447Y206178D01*
X670506Y206199D01*
X670566Y206216D01*
X670627Y206230D01*
X670689Y206239D01*
X670751Y206245D01*
X670814Y206247D01*
X671830Y206247D01*
X671893Y206245D01*
X671955Y206239D01*
X672017Y206230D01*
X672078Y206216D01*
X672138Y206199D01*
X672197Y206178D01*
X672255Y206154D01*
X672311Y206126D01*
X672365Y206095D01*
X672417Y206060D01*
X672467Y206023D01*
X672514Y205982D01*
X672559Y205938D01*
X672602Y205892D01*
X672641Y205843D01*
X672677Y205792D01*
X672710Y205739D01*
X672739Y205684D01*
X672766Y205627D01*
X672788Y205569D01*
X672807Y205509D01*
X672822Y205448D01*
X672834Y205387D01*
X672842Y205325D01*
X672846Y205262D01*
X672846Y205200D01*
X672842Y205137D01*
X672834Y205075D01*
X672822Y205014D01*
X672807Y204953D01*
X672788Y204893D01*
X672766Y204835D01*
X672739Y204778D01*
X672710Y204723D01*
X672677Y204670D01*
X672641Y204619D01*
X672602Y204570D01*
X672559Y204524D01*
X672514Y204480D01*
X672467Y204439D01*
X672417Y204402D01*
X672365Y204367D01*
X672311Y204336D01*
X672255Y204308D01*
X672197Y204284D01*
X672138Y204263D01*
X672078Y204246D01*
X672017Y204232D01*
X671955Y204223D01*
X671893Y204217D01*
X671830Y204215D01*
X672084Y208330D02*
X669798Y208330D01*
X672084Y208330D02*
X672138Y208332D01*
X672192Y208338D01*
X672246Y208347D01*
X672299Y208361D01*
X672350Y208378D01*
X672401Y208399D01*
X672449Y208423D01*
X672496Y208451D01*
X672541Y208482D01*
X672583Y208516D01*
X672623Y208553D01*
X672660Y208593D01*
X672694Y208635D01*
X672725Y208680D01*
X672753Y208727D01*
X672777Y208775D01*
X672798Y208826D01*
X672815Y208877D01*
X672829Y208930D01*
X672838Y208984D01*
X672844Y209038D01*
X672846Y209092D01*
X672846Y210362D01*
X669798Y210362D01*
X669798Y212627D02*
X672846Y212627D01*
X669798Y212627D02*
X669798Y214151D01*
X670306Y214151D01*
X672846Y216380D02*
X672846Y217650D01*
X672846Y216380D02*
X672844Y216326D01*
X672838Y216272D01*
X672829Y216218D01*
X672815Y216165D01*
X672798Y216114D01*
X672777Y216063D01*
X672753Y216015D01*
X672725Y215968D01*
X672694Y215923D01*
X672660Y215881D01*
X672623Y215841D01*
X672583Y215804D01*
X672541Y215770D01*
X672496Y215739D01*
X672449Y215711D01*
X672401Y215687D01*
X672350Y215666D01*
X672299Y215649D01*
X672246Y215635D01*
X672192Y215626D01*
X672138Y215620D01*
X672084Y215618D01*
X670560Y215618D01*
X670506Y215620D01*
X670452Y215626D01*
X670398Y215635D01*
X670345Y215649D01*
X670294Y215666D01*
X670243Y215687D01*
X670195Y215711D01*
X670148Y215739D01*
X670103Y215770D01*
X670061Y215804D01*
X670021Y215841D01*
X669984Y215881D01*
X669950Y215923D01*
X669919Y215968D01*
X669891Y216015D01*
X669867Y216063D01*
X669846Y216114D01*
X669829Y216165D01*
X669815Y216218D01*
X669806Y216272D01*
X669800Y216326D01*
X669798Y216380D01*
X669798Y217650D01*
X673608Y217650D01*
X673662Y217648D01*
X673716Y217642D01*
X673770Y217633D01*
X673823Y217619D01*
X673874Y217602D01*
X673925Y217581D01*
X673973Y217557D01*
X674020Y217529D01*
X674065Y217498D01*
X674107Y217464D01*
X674147Y217427D01*
X674184Y217387D01*
X674218Y217345D01*
X674249Y217300D01*
X674277Y217253D01*
X674301Y217205D01*
X674322Y217154D01*
X674339Y217103D01*
X674353Y217050D01*
X674362Y216996D01*
X674368Y216942D01*
X674370Y216888D01*
X674370Y215872D01*
X672846Y220522D02*
X672846Y221792D01*
X672846Y220522D02*
X672844Y220468D01*
X672838Y220414D01*
X672829Y220360D01*
X672815Y220307D01*
X672798Y220256D01*
X672777Y220205D01*
X672753Y220157D01*
X672725Y220110D01*
X672694Y220065D01*
X672660Y220023D01*
X672623Y219983D01*
X672583Y219946D01*
X672541Y219912D01*
X672496Y219881D01*
X672449Y219853D01*
X672401Y219829D01*
X672350Y219808D01*
X672299Y219791D01*
X672246Y219777D01*
X672192Y219768D01*
X672138Y219762D01*
X672084Y219760D01*
X670814Y219760D01*
X670751Y219762D01*
X670689Y219768D01*
X670627Y219777D01*
X670566Y219791D01*
X670506Y219808D01*
X670447Y219829D01*
X670389Y219853D01*
X670333Y219881D01*
X670279Y219912D01*
X670227Y219947D01*
X670177Y219984D01*
X670130Y220025D01*
X670085Y220069D01*
X670042Y220115D01*
X670003Y220164D01*
X669967Y220215D01*
X669934Y220268D01*
X669905Y220323D01*
X669878Y220380D01*
X669856Y220438D01*
X669837Y220498D01*
X669822Y220559D01*
X669810Y220620D01*
X669802Y220682D01*
X669798Y220745D01*
X669798Y220807D01*
X669802Y220870D01*
X669810Y220932D01*
X669822Y220993D01*
X669837Y221054D01*
X669856Y221114D01*
X669878Y221172D01*
X669905Y221229D01*
X669934Y221284D01*
X669967Y221337D01*
X670003Y221388D01*
X670042Y221437D01*
X670085Y221483D01*
X670130Y221527D01*
X670177Y221568D01*
X670227Y221605D01*
X670279Y221640D01*
X670333Y221671D01*
X670389Y221699D01*
X670447Y221723D01*
X670506Y221744D01*
X670566Y221761D01*
X670627Y221775D01*
X670689Y221784D01*
X670751Y221790D01*
X670814Y221792D01*
X671322Y221792D01*
X671322Y219760D01*
X671830Y223722D02*
X670814Y223722D01*
X670751Y223724D01*
X670689Y223730D01*
X670627Y223739D01*
X670566Y223753D01*
X670506Y223770D01*
X670447Y223791D01*
X670389Y223815D01*
X670333Y223843D01*
X670279Y223874D01*
X670227Y223909D01*
X670177Y223946D01*
X670130Y223987D01*
X670085Y224031D01*
X670042Y224077D01*
X670003Y224126D01*
X669967Y224177D01*
X669934Y224230D01*
X669905Y224285D01*
X669878Y224342D01*
X669856Y224400D01*
X669837Y224460D01*
X669822Y224521D01*
X669810Y224582D01*
X669802Y224644D01*
X669798Y224707D01*
X669798Y224769D01*
X669802Y224832D01*
X669810Y224894D01*
X669822Y224955D01*
X669837Y225016D01*
X669856Y225076D01*
X669878Y225134D01*
X669905Y225191D01*
X669934Y225246D01*
X669967Y225299D01*
X670003Y225350D01*
X670042Y225399D01*
X670085Y225445D01*
X670130Y225489D01*
X670177Y225530D01*
X670227Y225567D01*
X670279Y225602D01*
X670333Y225633D01*
X670389Y225661D01*
X670447Y225685D01*
X670506Y225706D01*
X670566Y225723D01*
X670627Y225737D01*
X670689Y225746D01*
X670751Y225752D01*
X670814Y225754D01*
X671830Y225754D01*
X671893Y225752D01*
X671955Y225746D01*
X672017Y225737D01*
X672078Y225723D01*
X672138Y225706D01*
X672197Y225685D01*
X672255Y225661D01*
X672311Y225633D01*
X672365Y225602D01*
X672417Y225567D01*
X672467Y225530D01*
X672514Y225489D01*
X672559Y225445D01*
X672602Y225399D01*
X672641Y225350D01*
X672677Y225299D01*
X672710Y225246D01*
X672739Y225191D01*
X672766Y225134D01*
X672788Y225076D01*
X672807Y225016D01*
X672822Y224955D01*
X672834Y224894D01*
X672842Y224832D01*
X672846Y224769D01*
X672846Y224707D01*
X672842Y224644D01*
X672834Y224582D01*
X672822Y224521D01*
X672807Y224460D01*
X672788Y224400D01*
X672766Y224342D01*
X672739Y224285D01*
X672710Y224230D01*
X672677Y224177D01*
X672641Y224126D01*
X672602Y224077D01*
X672559Y224031D01*
X672514Y223987D01*
X672467Y223946D01*
X672417Y223909D01*
X672365Y223874D01*
X672311Y223843D01*
X672255Y223815D01*
X672197Y223791D01*
X672138Y223770D01*
X672078Y223753D01*
X672017Y223739D01*
X671955Y223730D01*
X671893Y223724D01*
X671830Y223722D01*
X672846Y227634D02*
X669798Y227634D01*
X668528Y227507D02*
X668274Y227507D01*
X668274Y227761D01*
X668528Y227761D01*
X668528Y227507D01*
X671068Y229894D02*
X671576Y231164D01*
X671069Y229894D02*
X671048Y229848D01*
X671024Y229803D01*
X670996Y229761D01*
X670966Y229720D01*
X670932Y229682D01*
X670895Y229647D01*
X670856Y229615D01*
X670815Y229585D01*
X670771Y229560D01*
X670725Y229537D01*
X670678Y229518D01*
X670630Y229503D01*
X670580Y229492D01*
X670530Y229484D01*
X670479Y229480D01*
X670429Y229481D01*
X670378Y229485D01*
X670328Y229493D01*
X670278Y229505D01*
X670230Y229520D01*
X670183Y229540D01*
X670138Y229563D01*
X670094Y229589D01*
X670053Y229618D01*
X670014Y229651D01*
X669978Y229687D01*
X669944Y229725D01*
X669914Y229766D01*
X669887Y229808D01*
X669863Y229853D01*
X669843Y229900D01*
X669826Y229948D01*
X669813Y229997D01*
X669804Y230047D01*
X669799Y230098D01*
X669798Y230148D01*
X669802Y230255D01*
X669809Y230362D01*
X669821Y230469D01*
X669836Y230575D01*
X669856Y230680D01*
X669879Y230785D01*
X669906Y230888D01*
X669937Y230991D01*
X669972Y231092D01*
X670010Y231192D01*
X670052Y231291D01*
X671575Y231165D02*
X671596Y231211D01*
X671620Y231256D01*
X671648Y231298D01*
X671678Y231339D01*
X671712Y231377D01*
X671749Y231412D01*
X671788Y231444D01*
X671829Y231474D01*
X671873Y231499D01*
X671919Y231522D01*
X671966Y231541D01*
X672014Y231556D01*
X672064Y231567D01*
X672114Y231575D01*
X672165Y231579D01*
X672215Y231578D01*
X672266Y231574D01*
X672316Y231566D01*
X672366Y231554D01*
X672414Y231539D01*
X672461Y231519D01*
X672506Y231496D01*
X672550Y231470D01*
X672591Y231441D01*
X672630Y231408D01*
X672666Y231372D01*
X672700Y231334D01*
X672730Y231293D01*
X672757Y231251D01*
X672781Y231206D01*
X672801Y231159D01*
X672818Y231111D01*
X672831Y231062D01*
X672840Y231012D01*
X672845Y230961D01*
X672846Y230911D01*
X672847Y230910D02*
X672843Y230781D01*
X672835Y230651D01*
X672823Y230522D01*
X672808Y230393D01*
X672789Y230265D01*
X672765Y230138D01*
X672738Y230011D01*
X672708Y229885D01*
X672673Y229760D01*
X672635Y229636D01*
X672593Y229513D01*
X668274Y234923D02*
X668276Y234989D01*
X668282Y235056D01*
X668291Y235121D01*
X668305Y235187D01*
X668322Y235251D01*
X668343Y235314D01*
X668367Y235376D01*
X668396Y235436D01*
X668427Y235495D01*
X668462Y235551D01*
X668500Y235606D01*
X668541Y235658D01*
X668586Y235707D01*
X668633Y235754D01*
X668682Y235799D01*
X668734Y235840D01*
X668789Y235878D01*
X668846Y235913D01*
X668904Y235944D01*
X668964Y235973D01*
X669026Y235997D01*
X669089Y236018D01*
X669153Y236035D01*
X669219Y236049D01*
X669284Y236058D01*
X669351Y236064D01*
X669417Y236066D01*
X668274Y234923D02*
X668276Y234849D01*
X668281Y234776D01*
X668291Y234702D01*
X668304Y234630D01*
X668320Y234558D01*
X668340Y234487D01*
X668364Y234417D01*
X668391Y234348D01*
X668422Y234281D01*
X668456Y234215D01*
X668493Y234152D01*
X668533Y234090D01*
X668577Y234030D01*
X668623Y233973D01*
X668672Y233917D01*
X668724Y233865D01*
X668779Y233815D01*
X668836Y233768D01*
X668895Y233724D01*
X668956Y233683D01*
X669020Y233645D01*
X669085Y233610D01*
X669152Y233579D01*
X669220Y233551D01*
X669290Y233526D01*
X670306Y235686D02*
X670259Y235733D01*
X670210Y235777D01*
X670158Y235818D01*
X670104Y235857D01*
X670048Y235892D01*
X669990Y235925D01*
X669931Y235954D01*
X669870Y235980D01*
X669808Y236003D01*
X669744Y236023D01*
X669680Y236038D01*
X669615Y236051D01*
X669549Y236060D01*
X669483Y236065D01*
X669417Y236067D01*
X670306Y235685D02*
X672846Y233526D01*
X672846Y236066D01*
X673354Y237895D02*
X667766Y239927D01*
X672846Y241918D02*
X672846Y243950D01*
X672846Y241918D02*
X668274Y241918D01*
X668274Y243950D01*
X670306Y243442D02*
X670306Y241918D01*
X672846Y246719D02*
X672846Y247735D01*
X672846Y246719D02*
X672844Y246658D01*
X672839Y246597D01*
X672829Y246536D01*
X672816Y246476D01*
X672800Y246417D01*
X672780Y246359D01*
X672756Y246302D01*
X672730Y246247D01*
X672699Y246193D01*
X672666Y246142D01*
X672630Y246092D01*
X672590Y246045D01*
X672548Y246001D01*
X672504Y245959D01*
X672457Y245919D01*
X672407Y245883D01*
X672356Y245850D01*
X672302Y245819D01*
X672247Y245793D01*
X672190Y245769D01*
X672132Y245749D01*
X672073Y245733D01*
X672013Y245720D01*
X671952Y245710D01*
X671891Y245705D01*
X671830Y245703D01*
X669290Y245703D01*
X669229Y245705D01*
X669168Y245710D01*
X669107Y245720D01*
X669047Y245733D01*
X668988Y245749D01*
X668930Y245769D01*
X668873Y245793D01*
X668818Y245819D01*
X668764Y245850D01*
X668713Y245883D01*
X668663Y245919D01*
X668616Y245959D01*
X668572Y246001D01*
X668530Y246045D01*
X668490Y246092D01*
X668454Y246142D01*
X668421Y246193D01*
X668390Y246247D01*
X668364Y246302D01*
X668340Y246359D01*
X668320Y246417D01*
X668304Y246476D01*
X668291Y246536D01*
X668281Y246597D01*
X668276Y246658D01*
X668274Y246719D01*
X668274Y247735D01*
X672846Y249691D02*
X672846Y251723D01*
X672846Y249691D02*
X668274Y249691D01*
X668274Y251723D01*
X670306Y251215D02*
X670306Y249691D01*
X671068Y253541D02*
X671068Y256589D01*
X672846Y258672D02*
X672846Y259942D01*
X672844Y260012D01*
X672838Y260082D01*
X672829Y260151D01*
X672815Y260220D01*
X672798Y260288D01*
X672777Y260354D01*
X672753Y260420D01*
X672725Y260484D01*
X672693Y260546D01*
X672658Y260607D01*
X672620Y260666D01*
X672578Y260722D01*
X672534Y260776D01*
X672486Y260828D01*
X672436Y260876D01*
X672383Y260922D01*
X672328Y260965D01*
X672271Y261005D01*
X672211Y261042D01*
X672149Y261075D01*
X672086Y261105D01*
X672021Y261131D01*
X671955Y261154D01*
X671888Y261173D01*
X671819Y261188D01*
X671750Y261200D01*
X671681Y261208D01*
X671611Y261212D01*
X671541Y261212D01*
X671471Y261208D01*
X671402Y261200D01*
X671333Y261188D01*
X671264Y261173D01*
X671197Y261154D01*
X671131Y261131D01*
X671066Y261105D01*
X671003Y261075D01*
X670941Y261042D01*
X670881Y261005D01*
X670824Y260965D01*
X670769Y260922D01*
X670716Y260876D01*
X670666Y260828D01*
X670618Y260776D01*
X670574Y260722D01*
X670532Y260666D01*
X670494Y260607D01*
X670459Y260546D01*
X670427Y260484D01*
X670399Y260420D01*
X670375Y260354D01*
X670354Y260288D01*
X670337Y260220D01*
X670323Y260151D01*
X670314Y260082D01*
X670308Y260012D01*
X670306Y259942D01*
X668274Y260196D02*
X668274Y258672D01*
X668274Y260196D02*
X668276Y260259D01*
X668282Y260321D01*
X668291Y260383D01*
X668305Y260444D01*
X668322Y260504D01*
X668343Y260563D01*
X668367Y260621D01*
X668395Y260677D01*
X668426Y260731D01*
X668461Y260783D01*
X668498Y260833D01*
X668539Y260880D01*
X668583Y260925D01*
X668629Y260968D01*
X668678Y261007D01*
X668729Y261043D01*
X668782Y261076D01*
X668837Y261105D01*
X668894Y261132D01*
X668952Y261154D01*
X669012Y261173D01*
X669073Y261188D01*
X669134Y261200D01*
X669196Y261208D01*
X669259Y261212D01*
X669321Y261212D01*
X669384Y261208D01*
X669446Y261200D01*
X669507Y261188D01*
X669568Y261173D01*
X669628Y261154D01*
X669686Y261132D01*
X669743Y261105D01*
X669798Y261076D01*
X669851Y261043D01*
X669902Y261007D01*
X669951Y260968D01*
X669997Y260925D01*
X670041Y260880D01*
X670082Y260833D01*
X670119Y260783D01*
X670154Y260731D01*
X670185Y260677D01*
X670213Y260621D01*
X670237Y260563D01*
X670258Y260504D01*
X670275Y260444D01*
X670289Y260383D01*
X670298Y260321D01*
X670304Y260259D01*
X670306Y260196D01*
X670306Y259180D01*
X671576Y263244D02*
X671506Y263246D01*
X671436Y263252D01*
X671367Y263261D01*
X671298Y263275D01*
X671230Y263292D01*
X671164Y263313D01*
X671098Y263337D01*
X671034Y263365D01*
X670972Y263397D01*
X670911Y263432D01*
X670852Y263470D01*
X670796Y263512D01*
X670742Y263556D01*
X670690Y263604D01*
X670642Y263654D01*
X670596Y263707D01*
X670553Y263762D01*
X670513Y263819D01*
X670476Y263879D01*
X670443Y263941D01*
X670413Y264004D01*
X670387Y264069D01*
X670364Y264135D01*
X670345Y264202D01*
X670330Y264271D01*
X670318Y264340D01*
X670310Y264409D01*
X670306Y264479D01*
X670306Y264549D01*
X670310Y264619D01*
X670318Y264688D01*
X670330Y264757D01*
X670345Y264826D01*
X670364Y264893D01*
X670387Y264959D01*
X670413Y265024D01*
X670443Y265087D01*
X670476Y265149D01*
X670513Y265209D01*
X670553Y265266D01*
X670596Y265321D01*
X670642Y265374D01*
X670690Y265424D01*
X670742Y265472D01*
X670796Y265516D01*
X670852Y265558D01*
X670911Y265596D01*
X670972Y265631D01*
X671034Y265663D01*
X671098Y265691D01*
X671164Y265715D01*
X671230Y265736D01*
X671298Y265753D01*
X671367Y265767D01*
X671436Y265776D01*
X671506Y265782D01*
X671576Y265784D01*
X671646Y265782D01*
X671716Y265776D01*
X671785Y265767D01*
X671854Y265753D01*
X671922Y265736D01*
X671988Y265715D01*
X672054Y265691D01*
X672118Y265663D01*
X672180Y265631D01*
X672241Y265596D01*
X672300Y265558D01*
X672356Y265516D01*
X672410Y265472D01*
X672462Y265424D01*
X672510Y265374D01*
X672556Y265321D01*
X672599Y265266D01*
X672639Y265209D01*
X672676Y265149D01*
X672709Y265087D01*
X672739Y265024D01*
X672765Y264959D01*
X672788Y264893D01*
X672807Y264826D01*
X672822Y264757D01*
X672834Y264688D01*
X672842Y264619D01*
X672846Y264549D01*
X672846Y264479D01*
X672842Y264409D01*
X672834Y264340D01*
X672822Y264271D01*
X672807Y264202D01*
X672788Y264135D01*
X672765Y264069D01*
X672739Y264004D01*
X672709Y263941D01*
X672676Y263879D01*
X672639Y263819D01*
X672599Y263762D01*
X672556Y263707D01*
X672510Y263654D01*
X672462Y263604D01*
X672410Y263556D01*
X672356Y263512D01*
X672300Y263470D01*
X672241Y263432D01*
X672180Y263397D01*
X672118Y263365D01*
X672054Y263337D01*
X671988Y263313D01*
X671922Y263292D01*
X671854Y263275D01*
X671785Y263261D01*
X671716Y263252D01*
X671646Y263246D01*
X671576Y263244D01*
X669290Y263498D02*
X669227Y263500D01*
X669165Y263506D01*
X669103Y263515D01*
X669042Y263529D01*
X668982Y263546D01*
X668923Y263567D01*
X668865Y263591D01*
X668809Y263619D01*
X668755Y263650D01*
X668703Y263685D01*
X668653Y263722D01*
X668606Y263763D01*
X668561Y263807D01*
X668518Y263853D01*
X668479Y263902D01*
X668443Y263953D01*
X668410Y264006D01*
X668381Y264061D01*
X668354Y264118D01*
X668332Y264176D01*
X668313Y264236D01*
X668298Y264297D01*
X668286Y264358D01*
X668278Y264420D01*
X668274Y264483D01*
X668274Y264545D01*
X668278Y264608D01*
X668286Y264670D01*
X668298Y264731D01*
X668313Y264792D01*
X668332Y264852D01*
X668354Y264910D01*
X668381Y264967D01*
X668410Y265022D01*
X668443Y265075D01*
X668479Y265126D01*
X668518Y265175D01*
X668561Y265221D01*
X668606Y265265D01*
X668653Y265306D01*
X668703Y265343D01*
X668755Y265378D01*
X668809Y265409D01*
X668865Y265437D01*
X668923Y265461D01*
X668982Y265482D01*
X669042Y265499D01*
X669103Y265513D01*
X669165Y265522D01*
X669227Y265528D01*
X669290Y265530D01*
X669353Y265528D01*
X669415Y265522D01*
X669477Y265513D01*
X669538Y265499D01*
X669598Y265482D01*
X669657Y265461D01*
X669715Y265437D01*
X669771Y265409D01*
X669825Y265378D01*
X669877Y265343D01*
X669927Y265306D01*
X669974Y265265D01*
X670019Y265221D01*
X670062Y265175D01*
X670101Y265126D01*
X670137Y265075D01*
X670170Y265022D01*
X670199Y264967D01*
X670226Y264910D01*
X670248Y264852D01*
X670267Y264792D01*
X670282Y264731D01*
X670294Y264670D01*
X670302Y264608D01*
X670306Y264545D01*
X670306Y264483D01*
X670302Y264420D01*
X670294Y264358D01*
X670282Y264297D01*
X670267Y264236D01*
X670248Y264176D01*
X670226Y264118D01*
X670199Y264061D01*
X670170Y264006D01*
X670137Y263953D01*
X670101Y263902D01*
X670062Y263853D01*
X670019Y263807D01*
X669974Y263763D01*
X669927Y263722D01*
X669877Y263685D01*
X669825Y263650D01*
X669771Y263619D01*
X669715Y263591D01*
X669657Y263567D01*
X669598Y263546D01*
X669538Y263529D01*
X669477Y263515D01*
X669415Y263506D01*
X669353Y263500D01*
X669290Y263498D01*
X671576Y267816D02*
X671506Y267818D01*
X671436Y267824D01*
X671367Y267833D01*
X671298Y267847D01*
X671230Y267864D01*
X671164Y267885D01*
X671098Y267909D01*
X671034Y267937D01*
X670972Y267969D01*
X670911Y268004D01*
X670852Y268042D01*
X670796Y268084D01*
X670742Y268128D01*
X670690Y268176D01*
X670642Y268226D01*
X670596Y268279D01*
X670553Y268334D01*
X670513Y268391D01*
X670476Y268451D01*
X670443Y268513D01*
X670413Y268576D01*
X670387Y268641D01*
X670364Y268707D01*
X670345Y268774D01*
X670330Y268843D01*
X670318Y268912D01*
X670310Y268981D01*
X670306Y269051D01*
X670306Y269121D01*
X670310Y269191D01*
X670318Y269260D01*
X670330Y269329D01*
X670345Y269398D01*
X670364Y269465D01*
X670387Y269531D01*
X670413Y269596D01*
X670443Y269659D01*
X670476Y269721D01*
X670513Y269781D01*
X670553Y269838D01*
X670596Y269893D01*
X670642Y269946D01*
X670690Y269996D01*
X670742Y270044D01*
X670796Y270088D01*
X670852Y270130D01*
X670911Y270168D01*
X670972Y270203D01*
X671034Y270235D01*
X671098Y270263D01*
X671164Y270287D01*
X671230Y270308D01*
X671298Y270325D01*
X671367Y270339D01*
X671436Y270348D01*
X671506Y270354D01*
X671576Y270356D01*
X671646Y270354D01*
X671716Y270348D01*
X671785Y270339D01*
X671854Y270325D01*
X671922Y270308D01*
X671988Y270287D01*
X672054Y270263D01*
X672118Y270235D01*
X672180Y270203D01*
X672241Y270168D01*
X672300Y270130D01*
X672356Y270088D01*
X672410Y270044D01*
X672462Y269996D01*
X672510Y269946D01*
X672556Y269893D01*
X672599Y269838D01*
X672639Y269781D01*
X672676Y269721D01*
X672709Y269659D01*
X672739Y269596D01*
X672765Y269531D01*
X672788Y269465D01*
X672807Y269398D01*
X672822Y269329D01*
X672834Y269260D01*
X672842Y269191D01*
X672846Y269121D01*
X672846Y269051D01*
X672842Y268981D01*
X672834Y268912D01*
X672822Y268843D01*
X672807Y268774D01*
X672788Y268707D01*
X672765Y268641D01*
X672739Y268576D01*
X672709Y268513D01*
X672676Y268451D01*
X672639Y268391D01*
X672599Y268334D01*
X672556Y268279D01*
X672510Y268226D01*
X672462Y268176D01*
X672410Y268128D01*
X672356Y268084D01*
X672300Y268042D01*
X672241Y268004D01*
X672180Y267969D01*
X672118Y267937D01*
X672054Y267909D01*
X671988Y267885D01*
X671922Y267864D01*
X671854Y267847D01*
X671785Y267833D01*
X671716Y267824D01*
X671646Y267818D01*
X671576Y267816D01*
X669290Y268070D02*
X669227Y268072D01*
X669165Y268078D01*
X669103Y268087D01*
X669042Y268101D01*
X668982Y268118D01*
X668923Y268139D01*
X668865Y268163D01*
X668809Y268191D01*
X668755Y268222D01*
X668703Y268257D01*
X668653Y268294D01*
X668606Y268335D01*
X668561Y268379D01*
X668518Y268425D01*
X668479Y268474D01*
X668443Y268525D01*
X668410Y268578D01*
X668381Y268633D01*
X668354Y268690D01*
X668332Y268748D01*
X668313Y268808D01*
X668298Y268869D01*
X668286Y268930D01*
X668278Y268992D01*
X668274Y269055D01*
X668274Y269117D01*
X668278Y269180D01*
X668286Y269242D01*
X668298Y269303D01*
X668313Y269364D01*
X668332Y269424D01*
X668354Y269482D01*
X668381Y269539D01*
X668410Y269594D01*
X668443Y269647D01*
X668479Y269698D01*
X668518Y269747D01*
X668561Y269793D01*
X668606Y269837D01*
X668653Y269878D01*
X668703Y269915D01*
X668755Y269950D01*
X668809Y269981D01*
X668865Y270009D01*
X668923Y270033D01*
X668982Y270054D01*
X669042Y270071D01*
X669103Y270085D01*
X669165Y270094D01*
X669227Y270100D01*
X669290Y270102D01*
X669353Y270100D01*
X669415Y270094D01*
X669477Y270085D01*
X669538Y270071D01*
X669598Y270054D01*
X669657Y270033D01*
X669715Y270009D01*
X669771Y269981D01*
X669825Y269950D01*
X669877Y269915D01*
X669927Y269878D01*
X669974Y269837D01*
X670019Y269793D01*
X670062Y269747D01*
X670101Y269698D01*
X670137Y269647D01*
X670170Y269594D01*
X670199Y269539D01*
X670226Y269482D01*
X670248Y269424D01*
X670267Y269364D01*
X670282Y269303D01*
X670294Y269242D01*
X670302Y269180D01*
X670306Y269117D01*
X670306Y269055D01*
X670302Y268992D01*
X670294Y268930D01*
X670282Y268869D01*
X670267Y268808D01*
X670248Y268748D01*
X670226Y268690D01*
X670199Y268633D01*
X670170Y268578D01*
X670137Y268525D01*
X670101Y268474D01*
X670062Y268425D01*
X670019Y268379D01*
X669974Y268335D01*
X669927Y268294D01*
X669877Y268257D01*
X669825Y268222D01*
X669771Y268191D01*
X669715Y268163D01*
X669657Y268139D01*
X669598Y268118D01*
X669538Y268101D01*
X669477Y268087D01*
X669415Y268078D01*
X669353Y268072D01*
X669290Y268070D01*
X671068Y272439D02*
X671068Y275487D01*
X672846Y277722D02*
X668274Y277722D01*
X668274Y278992D01*
X668276Y279061D01*
X668281Y279129D01*
X668291Y279197D01*
X668304Y279265D01*
X668320Y279332D01*
X668340Y279398D01*
X668364Y279462D01*
X668391Y279525D01*
X668422Y279587D01*
X668456Y279647D01*
X668493Y279705D01*
X668533Y279761D01*
X668576Y279814D01*
X668622Y279865D01*
X668671Y279914D01*
X668722Y279960D01*
X668775Y280003D01*
X668831Y280043D01*
X668889Y280080D01*
X668949Y280114D01*
X669011Y280145D01*
X669074Y280172D01*
X669138Y280196D01*
X669204Y280216D01*
X669271Y280232D01*
X669339Y280245D01*
X669407Y280255D01*
X669475Y280260D01*
X669544Y280262D01*
X671576Y280262D01*
X671645Y280260D01*
X671713Y280255D01*
X671781Y280245D01*
X671849Y280232D01*
X671916Y280216D01*
X671982Y280196D01*
X672046Y280172D01*
X672109Y280145D01*
X672171Y280114D01*
X672231Y280080D01*
X672289Y280043D01*
X672345Y280003D01*
X672398Y279960D01*
X672449Y279914D01*
X672498Y279865D01*
X672544Y279814D01*
X672587Y279761D01*
X672627Y279705D01*
X672664Y279647D01*
X672698Y279587D01*
X672729Y279525D01*
X672756Y279462D01*
X672780Y279398D01*
X672800Y279332D01*
X672816Y279265D01*
X672829Y279197D01*
X672839Y279129D01*
X672844Y279061D01*
X672846Y278992D01*
X672846Y277722D01*
X672846Y282345D02*
X669798Y282345D01*
X668528Y282218D02*
X668274Y282218D01*
X668274Y282472D01*
X668528Y282472D01*
X668528Y282218D01*
X672846Y284960D02*
X672846Y286230D01*
X672846Y284960D02*
X672844Y284906D01*
X672838Y284852D01*
X672829Y284798D01*
X672815Y284745D01*
X672798Y284694D01*
X672777Y284643D01*
X672753Y284595D01*
X672725Y284548D01*
X672694Y284503D01*
X672660Y284461D01*
X672623Y284421D01*
X672583Y284384D01*
X672541Y284350D01*
X672496Y284319D01*
X672449Y284291D01*
X672401Y284267D01*
X672350Y284246D01*
X672299Y284229D01*
X672246Y284215D01*
X672192Y284206D01*
X672138Y284200D01*
X672084Y284198D01*
X670560Y284198D01*
X670506Y284200D01*
X670452Y284206D01*
X670398Y284215D01*
X670345Y284229D01*
X670294Y284246D01*
X670243Y284267D01*
X670195Y284291D01*
X670148Y284319D01*
X670103Y284350D01*
X670061Y284384D01*
X670021Y284421D01*
X669984Y284461D01*
X669950Y284503D01*
X669919Y284548D01*
X669891Y284595D01*
X669867Y284643D01*
X669846Y284694D01*
X669829Y284745D01*
X669815Y284798D01*
X669806Y284852D01*
X669800Y284906D01*
X669798Y284960D01*
X669798Y286230D01*
X673608Y286230D01*
X673662Y286228D01*
X673716Y286222D01*
X673770Y286213D01*
X673823Y286199D01*
X673874Y286182D01*
X673925Y286161D01*
X673973Y286137D01*
X674020Y286109D01*
X674065Y286078D01*
X674107Y286044D01*
X674147Y286007D01*
X674184Y285967D01*
X674218Y285925D01*
X674249Y285880D01*
X674277Y285833D01*
X674301Y285785D01*
X674322Y285734D01*
X674339Y285683D01*
X674353Y285630D01*
X674362Y285576D01*
X674368Y285522D01*
X674370Y285468D01*
X674370Y284452D01*
X672846Y288288D02*
X669798Y288288D01*
X668528Y288161D02*
X668274Y288161D01*
X668274Y288415D01*
X668528Y288415D01*
X668528Y288161D01*
X669798Y289771D02*
X669798Y291295D01*
X668274Y290279D02*
X672084Y290279D01*
X672138Y290281D01*
X672192Y290287D01*
X672246Y290296D01*
X672299Y290310D01*
X672350Y290327D01*
X672401Y290348D01*
X672449Y290372D01*
X672496Y290400D01*
X672541Y290431D01*
X672583Y290465D01*
X672623Y290502D01*
X672660Y290542D01*
X672694Y290584D01*
X672725Y290629D01*
X672753Y290676D01*
X672777Y290724D01*
X672798Y290775D01*
X672815Y290826D01*
X672829Y290879D01*
X672838Y290933D01*
X672844Y290987D01*
X672846Y291041D01*
X672846Y291295D01*
X671068Y293926D02*
X671068Y295069D01*
X671068Y293926D02*
X671070Y293868D01*
X671076Y293810D01*
X671085Y293753D01*
X671098Y293696D01*
X671115Y293640D01*
X671136Y293586D01*
X671160Y293533D01*
X671187Y293482D01*
X671218Y293432D01*
X671252Y293385D01*
X671289Y293340D01*
X671328Y293297D01*
X671371Y293258D01*
X671416Y293221D01*
X671463Y293187D01*
X671513Y293156D01*
X671564Y293129D01*
X671617Y293105D01*
X671671Y293084D01*
X671727Y293067D01*
X671784Y293054D01*
X671841Y293045D01*
X671899Y293039D01*
X671957Y293037D01*
X672015Y293039D01*
X672073Y293045D01*
X672130Y293054D01*
X672187Y293067D01*
X672243Y293084D01*
X672297Y293105D01*
X672350Y293129D01*
X672402Y293156D01*
X672451Y293187D01*
X672498Y293221D01*
X672543Y293258D01*
X672586Y293297D01*
X672625Y293340D01*
X672662Y293385D01*
X672696Y293432D01*
X672727Y293482D01*
X672754Y293533D01*
X672778Y293586D01*
X672799Y293640D01*
X672816Y293696D01*
X672829Y293753D01*
X672838Y293810D01*
X672844Y293868D01*
X672846Y293926D01*
X672846Y295069D01*
X670560Y295069D01*
X670506Y295067D01*
X670452Y295061D01*
X670398Y295052D01*
X670345Y295038D01*
X670294Y295021D01*
X670243Y295000D01*
X670195Y294976D01*
X670148Y294948D01*
X670103Y294917D01*
X670061Y294883D01*
X670021Y294846D01*
X669984Y294806D01*
X669950Y294764D01*
X669919Y294719D01*
X669891Y294672D01*
X669867Y294624D01*
X669846Y294573D01*
X669829Y294522D01*
X669815Y294469D01*
X669806Y294415D01*
X669800Y294361D01*
X669798Y294307D01*
X669798Y293291D01*
X668274Y297226D02*
X672084Y297226D01*
X672138Y297228D01*
X672192Y297234D01*
X672246Y297243D01*
X672299Y297257D01*
X672350Y297274D01*
X672401Y297295D01*
X672449Y297319D01*
X672496Y297347D01*
X672541Y297378D01*
X672583Y297412D01*
X672623Y297449D01*
X672660Y297489D01*
X672694Y297531D01*
X672725Y297576D01*
X672753Y297623D01*
X672777Y297671D01*
X672798Y297722D01*
X672815Y297773D01*
X672829Y297826D01*
X672838Y297880D01*
X672844Y297934D01*
X672846Y297988D01*
X671068Y299718D02*
X671068Y302766D01*
X672846Y305011D02*
X668274Y305011D01*
X672846Y305011D02*
X672846Y307043D01*
X672846Y309522D02*
X672846Y310792D01*
X672846Y309522D02*
X672844Y309468D01*
X672838Y309414D01*
X672829Y309360D01*
X672815Y309307D01*
X672798Y309256D01*
X672777Y309205D01*
X672753Y309157D01*
X672725Y309110D01*
X672694Y309065D01*
X672660Y309023D01*
X672623Y308983D01*
X672583Y308946D01*
X672541Y308912D01*
X672496Y308881D01*
X672449Y308853D01*
X672401Y308829D01*
X672350Y308808D01*
X672299Y308791D01*
X672246Y308777D01*
X672192Y308768D01*
X672138Y308762D01*
X672084Y308760D01*
X670814Y308760D01*
X670751Y308762D01*
X670689Y308768D01*
X670627Y308777D01*
X670566Y308791D01*
X670506Y308808D01*
X670447Y308829D01*
X670389Y308853D01*
X670333Y308881D01*
X670279Y308912D01*
X670227Y308947D01*
X670177Y308984D01*
X670130Y309025D01*
X670085Y309069D01*
X670042Y309115D01*
X670003Y309164D01*
X669967Y309215D01*
X669934Y309268D01*
X669905Y309323D01*
X669878Y309380D01*
X669856Y309438D01*
X669837Y309498D01*
X669822Y309559D01*
X669810Y309620D01*
X669802Y309682D01*
X669798Y309745D01*
X669798Y309807D01*
X669802Y309870D01*
X669810Y309932D01*
X669822Y309993D01*
X669837Y310054D01*
X669856Y310114D01*
X669878Y310172D01*
X669905Y310229D01*
X669934Y310284D01*
X669967Y310337D01*
X670003Y310388D01*
X670042Y310437D01*
X670085Y310483D01*
X670130Y310527D01*
X670177Y310568D01*
X670227Y310605D01*
X670279Y310640D01*
X670333Y310671D01*
X670389Y310699D01*
X670447Y310723D01*
X670506Y310744D01*
X670566Y310761D01*
X670627Y310775D01*
X670689Y310784D01*
X670751Y310790D01*
X670814Y310792D01*
X671322Y310792D01*
X671322Y308760D01*
X669798Y312570D02*
X672846Y313586D01*
X669798Y314602D01*
X672846Y317142D02*
X672846Y318412D01*
X672846Y317142D02*
X672844Y317088D01*
X672838Y317034D01*
X672829Y316980D01*
X672815Y316927D01*
X672798Y316876D01*
X672777Y316825D01*
X672753Y316777D01*
X672725Y316730D01*
X672694Y316685D01*
X672660Y316643D01*
X672623Y316603D01*
X672583Y316566D01*
X672541Y316532D01*
X672496Y316501D01*
X672449Y316473D01*
X672401Y316449D01*
X672350Y316428D01*
X672299Y316411D01*
X672246Y316397D01*
X672192Y316388D01*
X672138Y316382D01*
X672084Y316380D01*
X670814Y316380D01*
X670751Y316382D01*
X670689Y316388D01*
X670627Y316397D01*
X670566Y316411D01*
X670506Y316428D01*
X670447Y316449D01*
X670389Y316473D01*
X670333Y316501D01*
X670279Y316532D01*
X670227Y316567D01*
X670177Y316604D01*
X670130Y316645D01*
X670085Y316689D01*
X670042Y316735D01*
X670003Y316784D01*
X669967Y316835D01*
X669934Y316888D01*
X669905Y316943D01*
X669878Y317000D01*
X669856Y317058D01*
X669837Y317118D01*
X669822Y317179D01*
X669810Y317240D01*
X669802Y317302D01*
X669798Y317365D01*
X669798Y317427D01*
X669802Y317490D01*
X669810Y317552D01*
X669822Y317613D01*
X669837Y317674D01*
X669856Y317734D01*
X669878Y317792D01*
X669905Y317849D01*
X669934Y317904D01*
X669967Y317957D01*
X670003Y318008D01*
X670042Y318057D01*
X670085Y318103D01*
X670130Y318147D01*
X670177Y318188D01*
X670227Y318225D01*
X670279Y318260D01*
X670333Y318291D01*
X670389Y318319D01*
X670447Y318343D01*
X670506Y318364D01*
X670566Y318381D01*
X670627Y318395D01*
X670689Y318404D01*
X670751Y318410D01*
X670814Y318412D01*
X671322Y318412D01*
X671322Y316380D01*
X672084Y320391D02*
X668274Y320391D01*
X672084Y320391D02*
X672138Y320393D01*
X672192Y320399D01*
X672246Y320408D01*
X672299Y320422D01*
X672350Y320439D01*
X672401Y320460D01*
X672449Y320484D01*
X672496Y320512D01*
X672541Y320543D01*
X672583Y320577D01*
X672623Y320614D01*
X672660Y320654D01*
X672694Y320696D01*
X672725Y320741D01*
X672753Y320788D01*
X672777Y320836D01*
X672798Y320887D01*
X672815Y320938D01*
X672829Y320991D01*
X672838Y321045D01*
X672844Y321099D01*
X672846Y321153D01*
X671068Y322883D02*
X671068Y325931D01*
X672846Y328166D02*
X668274Y328166D01*
X668274Y329436D01*
X668276Y329505D01*
X668281Y329573D01*
X668291Y329641D01*
X668304Y329709D01*
X668320Y329776D01*
X668340Y329842D01*
X668364Y329906D01*
X668391Y329969D01*
X668422Y330031D01*
X668456Y330091D01*
X668493Y330149D01*
X668533Y330205D01*
X668576Y330258D01*
X668622Y330309D01*
X668671Y330358D01*
X668722Y330404D01*
X668775Y330447D01*
X668831Y330487D01*
X668889Y330524D01*
X668949Y330558D01*
X669011Y330589D01*
X669074Y330616D01*
X669138Y330640D01*
X669204Y330660D01*
X669271Y330676D01*
X669339Y330689D01*
X669407Y330699D01*
X669475Y330704D01*
X669544Y330706D01*
X671576Y330706D01*
X671645Y330704D01*
X671713Y330699D01*
X671781Y330689D01*
X671849Y330676D01*
X671916Y330660D01*
X671982Y330640D01*
X672046Y330616D01*
X672109Y330589D01*
X672171Y330558D01*
X672231Y330524D01*
X672289Y330487D01*
X672345Y330447D01*
X672398Y330404D01*
X672449Y330358D01*
X672498Y330309D01*
X672544Y330258D01*
X672587Y330205D01*
X672627Y330149D01*
X672664Y330091D01*
X672698Y330031D01*
X672729Y329969D01*
X672756Y329906D01*
X672780Y329842D01*
X672800Y329776D01*
X672816Y329709D01*
X672829Y329641D01*
X672839Y329573D01*
X672844Y329505D01*
X672846Y329436D01*
X672846Y328166D01*
X672846Y333601D02*
X672846Y334871D01*
X672846Y333601D02*
X672844Y333547D01*
X672838Y333493D01*
X672829Y333439D01*
X672815Y333386D01*
X672798Y333335D01*
X672777Y333284D01*
X672753Y333236D01*
X672725Y333189D01*
X672694Y333144D01*
X672660Y333102D01*
X672623Y333062D01*
X672583Y333025D01*
X672541Y332991D01*
X672496Y332960D01*
X672449Y332932D01*
X672401Y332908D01*
X672350Y332887D01*
X672299Y332870D01*
X672246Y332856D01*
X672192Y332847D01*
X672138Y332841D01*
X672084Y332839D01*
X670814Y332839D01*
X670751Y332841D01*
X670689Y332847D01*
X670627Y332856D01*
X670566Y332870D01*
X670506Y332887D01*
X670447Y332908D01*
X670389Y332932D01*
X670333Y332960D01*
X670279Y332991D01*
X670227Y333026D01*
X670177Y333063D01*
X670130Y333104D01*
X670085Y333148D01*
X670042Y333194D01*
X670003Y333243D01*
X669967Y333294D01*
X669934Y333347D01*
X669905Y333402D01*
X669878Y333459D01*
X669856Y333517D01*
X669837Y333577D01*
X669822Y333638D01*
X669810Y333699D01*
X669802Y333761D01*
X669798Y333824D01*
X669798Y333886D01*
X669802Y333949D01*
X669810Y334011D01*
X669822Y334072D01*
X669837Y334133D01*
X669856Y334193D01*
X669878Y334251D01*
X669905Y334308D01*
X669934Y334363D01*
X669967Y334416D01*
X670003Y334467D01*
X670042Y334516D01*
X670085Y334562D01*
X670130Y334606D01*
X670177Y334647D01*
X670227Y334684D01*
X670279Y334719D01*
X670333Y334750D01*
X670389Y334778D01*
X670447Y334802D01*
X670506Y334823D01*
X670566Y334840D01*
X670627Y334854D01*
X670689Y334863D01*
X670751Y334869D01*
X670814Y334871D01*
X671322Y334871D01*
X671322Y332839D01*
X671068Y337183D02*
X671576Y338453D01*
X671069Y337182D02*
X671048Y337136D01*
X671024Y337091D01*
X670996Y337049D01*
X670966Y337008D01*
X670932Y336970D01*
X670895Y336935D01*
X670856Y336903D01*
X670815Y336873D01*
X670771Y336848D01*
X670725Y336825D01*
X670678Y336806D01*
X670630Y336791D01*
X670580Y336780D01*
X670530Y336772D01*
X670479Y336768D01*
X670429Y336769D01*
X670378Y336773D01*
X670328Y336781D01*
X670278Y336793D01*
X670230Y336808D01*
X670183Y336828D01*
X670138Y336851D01*
X670094Y336877D01*
X670053Y336906D01*
X670014Y336939D01*
X669978Y336975D01*
X669944Y337013D01*
X669914Y337054D01*
X669887Y337096D01*
X669863Y337141D01*
X669843Y337188D01*
X669826Y337236D01*
X669813Y337285D01*
X669804Y337335D01*
X669799Y337386D01*
X669798Y337436D01*
X669798Y337437D02*
X669802Y337544D01*
X669809Y337651D01*
X669821Y337758D01*
X669836Y337864D01*
X669856Y337969D01*
X669879Y338074D01*
X669906Y338177D01*
X669937Y338280D01*
X669972Y338381D01*
X670010Y338481D01*
X670052Y338580D01*
X671575Y338453D02*
X671596Y338499D01*
X671620Y338544D01*
X671648Y338586D01*
X671678Y338627D01*
X671712Y338665D01*
X671749Y338700D01*
X671788Y338732D01*
X671829Y338762D01*
X671873Y338787D01*
X671919Y338810D01*
X671966Y338829D01*
X672014Y338844D01*
X672064Y338855D01*
X672114Y338863D01*
X672165Y338867D01*
X672215Y338866D01*
X672266Y338862D01*
X672316Y338854D01*
X672366Y338842D01*
X672414Y338827D01*
X672461Y338807D01*
X672506Y338784D01*
X672550Y338758D01*
X672591Y338729D01*
X672630Y338696D01*
X672666Y338660D01*
X672700Y338622D01*
X672730Y338581D01*
X672757Y338539D01*
X672781Y338494D01*
X672801Y338447D01*
X672818Y338399D01*
X672831Y338350D01*
X672840Y338300D01*
X672845Y338249D01*
X672846Y338199D01*
X672847Y338198D02*
X672843Y338069D01*
X672835Y337939D01*
X672823Y337810D01*
X672808Y337681D01*
X672789Y337553D01*
X672765Y337426D01*
X672738Y337299D01*
X672708Y337173D01*
X672673Y337048D01*
X672635Y336924D01*
X672593Y336801D01*
X672846Y340713D02*
X669798Y340713D01*
X668528Y340586D02*
X668274Y340586D01*
X668274Y340840D01*
X668528Y340840D01*
X668528Y340586D01*
X672846Y343328D02*
X672846Y344598D01*
X672846Y343328D02*
X672844Y343274D01*
X672838Y343220D01*
X672829Y343166D01*
X672815Y343113D01*
X672798Y343062D01*
X672777Y343011D01*
X672753Y342963D01*
X672725Y342916D01*
X672694Y342871D01*
X672660Y342829D01*
X672623Y342789D01*
X672583Y342752D01*
X672541Y342718D01*
X672496Y342687D01*
X672449Y342659D01*
X672401Y342635D01*
X672350Y342614D01*
X672299Y342597D01*
X672246Y342583D01*
X672192Y342574D01*
X672138Y342568D01*
X672084Y342566D01*
X670560Y342566D01*
X670506Y342568D01*
X670452Y342574D01*
X670398Y342583D01*
X670345Y342597D01*
X670294Y342614D01*
X670243Y342635D01*
X670195Y342659D01*
X670148Y342687D01*
X670103Y342718D01*
X670061Y342752D01*
X670021Y342789D01*
X669984Y342829D01*
X669950Y342871D01*
X669919Y342916D01*
X669891Y342963D01*
X669867Y343011D01*
X669846Y343062D01*
X669829Y343113D01*
X669815Y343166D01*
X669806Y343220D01*
X669800Y343274D01*
X669798Y343328D01*
X669798Y344598D01*
X673608Y344598D01*
X673662Y344596D01*
X673716Y344590D01*
X673770Y344581D01*
X673823Y344567D01*
X673874Y344550D01*
X673925Y344529D01*
X673973Y344505D01*
X674020Y344477D01*
X674065Y344446D01*
X674107Y344412D01*
X674147Y344375D01*
X674184Y344335D01*
X674218Y344293D01*
X674249Y344248D01*
X674277Y344201D01*
X674301Y344153D01*
X674322Y344102D01*
X674339Y344051D01*
X674353Y343998D01*
X674362Y343944D01*
X674368Y343890D01*
X674370Y343836D01*
X674370Y342820D01*
X672846Y346860D02*
X669798Y346860D01*
X669798Y348130D01*
X669800Y348184D01*
X669806Y348238D01*
X669815Y348292D01*
X669829Y348345D01*
X669846Y348396D01*
X669867Y348447D01*
X669891Y348495D01*
X669919Y348542D01*
X669950Y348587D01*
X669984Y348629D01*
X670021Y348669D01*
X670061Y348706D01*
X670103Y348740D01*
X670148Y348771D01*
X670195Y348799D01*
X670243Y348823D01*
X670294Y348844D01*
X670345Y348861D01*
X670398Y348875D01*
X670452Y348884D01*
X670506Y348890D01*
X670560Y348892D01*
X672846Y348892D01*
X671068Y351076D02*
X671068Y354124D01*
X672846Y356436D02*
X668274Y356436D01*
X668274Y357706D01*
X668276Y357776D01*
X668282Y357846D01*
X668291Y357915D01*
X668305Y357984D01*
X668322Y358052D01*
X668343Y358118D01*
X668367Y358184D01*
X668395Y358248D01*
X668427Y358310D01*
X668462Y358371D01*
X668500Y358430D01*
X668542Y358486D01*
X668586Y358540D01*
X668634Y358592D01*
X668684Y358640D01*
X668737Y358686D01*
X668792Y358729D01*
X668849Y358769D01*
X668909Y358806D01*
X668971Y358839D01*
X669034Y358869D01*
X669099Y358895D01*
X669165Y358918D01*
X669232Y358937D01*
X669301Y358952D01*
X669370Y358964D01*
X669439Y358972D01*
X669509Y358976D01*
X669579Y358976D01*
X669649Y358972D01*
X669718Y358964D01*
X669787Y358952D01*
X669856Y358937D01*
X669923Y358918D01*
X669989Y358895D01*
X670054Y358869D01*
X670117Y358839D01*
X670179Y358806D01*
X670239Y358769D01*
X670296Y358729D01*
X670351Y358686D01*
X670404Y358640D01*
X670454Y358592D01*
X670502Y358540D01*
X670546Y358486D01*
X670588Y358430D01*
X670626Y358371D01*
X670661Y358310D01*
X670693Y358248D01*
X670721Y358184D01*
X670745Y358118D01*
X670766Y358052D01*
X670783Y357984D01*
X670797Y357915D01*
X670806Y357846D01*
X670812Y357776D01*
X670814Y357706D01*
X670814Y356436D01*
X669798Y360911D02*
X672846Y360911D01*
X669798Y360911D02*
X669798Y362435D01*
X670306Y362435D01*
X670814Y363929D02*
X671830Y363929D01*
X670814Y363929D02*
X670751Y363931D01*
X670689Y363937D01*
X670627Y363946D01*
X670566Y363960D01*
X670506Y363977D01*
X670447Y363998D01*
X670389Y364022D01*
X670333Y364050D01*
X670279Y364081D01*
X670227Y364116D01*
X670177Y364153D01*
X670130Y364194D01*
X670085Y364238D01*
X670042Y364284D01*
X670003Y364333D01*
X669967Y364384D01*
X669934Y364437D01*
X669905Y364492D01*
X669878Y364549D01*
X669856Y364607D01*
X669837Y364667D01*
X669822Y364728D01*
X669810Y364789D01*
X669802Y364851D01*
X669798Y364914D01*
X669798Y364976D01*
X669802Y365039D01*
X669810Y365101D01*
X669822Y365162D01*
X669837Y365223D01*
X669856Y365283D01*
X669878Y365341D01*
X669905Y365398D01*
X669934Y365453D01*
X669967Y365506D01*
X670003Y365557D01*
X670042Y365606D01*
X670085Y365652D01*
X670130Y365696D01*
X670177Y365737D01*
X670227Y365774D01*
X670279Y365809D01*
X670333Y365840D01*
X670389Y365868D01*
X670447Y365892D01*
X670506Y365913D01*
X670566Y365930D01*
X670627Y365944D01*
X670689Y365953D01*
X670751Y365959D01*
X670814Y365961D01*
X671830Y365961D01*
X671893Y365959D01*
X671955Y365953D01*
X672017Y365944D01*
X672078Y365930D01*
X672138Y365913D01*
X672197Y365892D01*
X672255Y365868D01*
X672311Y365840D01*
X672365Y365809D01*
X672417Y365774D01*
X672467Y365737D01*
X672514Y365696D01*
X672559Y365652D01*
X672602Y365606D01*
X672641Y365557D01*
X672677Y365506D01*
X672710Y365453D01*
X672739Y365398D01*
X672766Y365341D01*
X672788Y365283D01*
X672807Y365223D01*
X672822Y365162D01*
X672834Y365101D01*
X672842Y365039D01*
X672846Y364976D01*
X672846Y364914D01*
X672842Y364851D01*
X672834Y364789D01*
X672822Y364728D01*
X672807Y364667D01*
X672788Y364607D01*
X672766Y364549D01*
X672739Y364492D01*
X672710Y364437D01*
X672677Y364384D01*
X672641Y364333D01*
X672602Y364284D01*
X672559Y364238D01*
X672514Y364194D01*
X672467Y364153D01*
X672417Y364116D01*
X672365Y364081D01*
X672311Y364050D01*
X672255Y364022D01*
X672197Y363998D01*
X672138Y363977D01*
X672078Y363960D01*
X672017Y363946D01*
X671955Y363937D01*
X671893Y363931D01*
X671830Y363929D01*
X673608Y367751D02*
X669798Y367751D01*
X673608Y367751D02*
X673662Y367749D01*
X673716Y367743D01*
X673770Y367734D01*
X673823Y367720D01*
X673874Y367703D01*
X673925Y367682D01*
X673973Y367658D01*
X674020Y367630D01*
X674065Y367599D01*
X674107Y367565D01*
X674147Y367528D01*
X674184Y367488D01*
X674218Y367446D01*
X674249Y367401D01*
X674277Y367354D01*
X674301Y367306D01*
X674322Y367255D01*
X674339Y367204D01*
X674353Y367151D01*
X674362Y367097D01*
X674368Y367043D01*
X674370Y366989D01*
X674370Y366735D01*
X668528Y367624D02*
X668274Y367624D01*
X668274Y367878D01*
X668528Y367878D01*
X668528Y367624D01*
X672846Y370482D02*
X672846Y371752D01*
X672846Y370482D02*
X672844Y370428D01*
X672838Y370374D01*
X672829Y370320D01*
X672815Y370267D01*
X672798Y370216D01*
X672777Y370165D01*
X672753Y370117D01*
X672725Y370070D01*
X672694Y370025D01*
X672660Y369983D01*
X672623Y369943D01*
X672583Y369906D01*
X672541Y369872D01*
X672496Y369841D01*
X672449Y369813D01*
X672401Y369789D01*
X672350Y369768D01*
X672299Y369751D01*
X672246Y369737D01*
X672192Y369728D01*
X672138Y369722D01*
X672084Y369720D01*
X670814Y369720D01*
X670751Y369722D01*
X670689Y369728D01*
X670627Y369737D01*
X670566Y369751D01*
X670506Y369768D01*
X670447Y369789D01*
X670389Y369813D01*
X670333Y369841D01*
X670279Y369872D01*
X670227Y369907D01*
X670177Y369944D01*
X670130Y369985D01*
X670085Y370029D01*
X670042Y370075D01*
X670003Y370124D01*
X669967Y370175D01*
X669934Y370228D01*
X669905Y370283D01*
X669878Y370340D01*
X669856Y370398D01*
X669837Y370458D01*
X669822Y370519D01*
X669810Y370580D01*
X669802Y370642D01*
X669798Y370705D01*
X669798Y370767D01*
X669802Y370830D01*
X669810Y370892D01*
X669822Y370953D01*
X669837Y371014D01*
X669856Y371074D01*
X669878Y371132D01*
X669905Y371189D01*
X669934Y371244D01*
X669967Y371297D01*
X670003Y371348D01*
X670042Y371397D01*
X670085Y371443D01*
X670130Y371487D01*
X670177Y371528D01*
X670227Y371565D01*
X670279Y371600D01*
X670333Y371631D01*
X670389Y371659D01*
X670447Y371683D01*
X670506Y371704D01*
X670566Y371721D01*
X670627Y371735D01*
X670689Y371744D01*
X670751Y371750D01*
X670814Y371752D01*
X671322Y371752D01*
X671322Y369720D01*
X672846Y374450D02*
X672846Y375466D01*
X672846Y374450D02*
X672844Y374396D01*
X672838Y374342D01*
X672829Y374288D01*
X672815Y374235D01*
X672798Y374184D01*
X672777Y374133D01*
X672753Y374085D01*
X672725Y374038D01*
X672694Y373993D01*
X672660Y373951D01*
X672623Y373911D01*
X672583Y373874D01*
X672541Y373840D01*
X672496Y373809D01*
X672449Y373781D01*
X672401Y373757D01*
X672350Y373736D01*
X672299Y373719D01*
X672246Y373705D01*
X672192Y373696D01*
X672138Y373690D01*
X672084Y373688D01*
X670560Y373688D01*
X670506Y373690D01*
X670452Y373696D01*
X670398Y373705D01*
X670345Y373719D01*
X670294Y373736D01*
X670243Y373757D01*
X670195Y373781D01*
X670148Y373809D01*
X670103Y373840D01*
X670061Y373874D01*
X670021Y373911D01*
X669984Y373951D01*
X669950Y373993D01*
X669919Y374038D01*
X669891Y374085D01*
X669867Y374133D01*
X669846Y374184D01*
X669829Y374235D01*
X669815Y374288D01*
X669806Y374342D01*
X669800Y374396D01*
X669798Y374450D01*
X669798Y375466D01*
X669798Y376790D02*
X669798Y378314D01*
X668274Y377298D02*
X672084Y377298D01*
X672138Y377300D01*
X672192Y377306D01*
X672246Y377315D01*
X672299Y377329D01*
X672350Y377346D01*
X672401Y377367D01*
X672449Y377391D01*
X672496Y377419D01*
X672541Y377450D01*
X672583Y377484D01*
X672623Y377521D01*
X672660Y377561D01*
X672694Y377603D01*
X672725Y377648D01*
X672753Y377695D01*
X672777Y377743D01*
X672798Y377794D01*
X672815Y377845D01*
X672829Y377898D01*
X672838Y377952D01*
X672844Y378006D01*
X672846Y378060D01*
X672846Y378314D01*
X660654Y497840D02*
X660656Y497966D01*
X660661Y498093D01*
X660671Y498219D01*
X660683Y498345D01*
X660700Y498470D01*
X660720Y498595D01*
X660744Y498719D01*
X660771Y498842D01*
X660802Y498965D01*
X660836Y499087D01*
X660874Y499207D01*
X660916Y499327D01*
X660961Y499445D01*
X661009Y499562D01*
X661061Y499677D01*
X661116Y499791D01*
X661174Y499903D01*
X661236Y500013D01*
X661301Y500122D01*
X661368Y500229D01*
X661439Y500333D01*
X661513Y500436D01*
X661590Y500536D01*
X661670Y500634D01*
X660654Y497840D02*
X660656Y497714D01*
X660661Y497587D01*
X660671Y497461D01*
X660683Y497335D01*
X660700Y497210D01*
X660720Y497085D01*
X660744Y496961D01*
X660771Y496838D01*
X660802Y496715D01*
X660836Y496593D01*
X660874Y496473D01*
X660916Y496353D01*
X660961Y496235D01*
X661009Y496118D01*
X661061Y496003D01*
X661116Y495889D01*
X661174Y495777D01*
X661236Y495667D01*
X661301Y495558D01*
X661368Y495451D01*
X661439Y495347D01*
X661513Y495244D01*
X661590Y495144D01*
X661670Y495046D01*
X668464Y496316D02*
X668464Y496443D01*
X669099Y498602D02*
X669097Y498646D01*
X669091Y498690D01*
X669082Y498733D01*
X669068Y498776D01*
X669051Y498817D01*
X669031Y498856D01*
X669007Y498893D01*
X668980Y498929D01*
X668950Y498961D01*
X668918Y498991D01*
X668882Y499018D01*
X668845Y499042D01*
X668806Y499062D01*
X668765Y499079D01*
X668722Y499093D01*
X668679Y499102D01*
X668635Y499108D01*
X668591Y499110D01*
X668519Y499108D01*
X668446Y499104D01*
X668374Y499096D01*
X668303Y499085D01*
X668232Y499070D01*
X668161Y499053D01*
X668092Y499033D01*
X668023Y499009D01*
X667956Y498983D01*
X669099Y498602D02*
X669097Y498557D01*
X669093Y498512D01*
X669084Y498467D01*
X669073Y498423D01*
X669059Y498380D01*
X669041Y498338D01*
X669021Y498297D01*
X668998Y498258D01*
X668972Y498221D01*
X668935Y498174D01*
X668895Y498128D01*
X668854Y498085D01*
X668811Y498044D01*
X668765Y498004D01*
X668718Y497967D01*
X668678Y497935D01*
X668640Y497899D01*
X668605Y497861D01*
X668573Y497820D01*
X668545Y497777D01*
X668519Y497732D01*
X668497Y497685D01*
X668479Y497636D01*
X668464Y497586D01*
X668464Y497332D01*
X670877Y497840D02*
X668464Y494030D01*
X670877Y497840D02*
X668464Y501650D01*
X666051Y497840D01*
X668464Y494030D01*
X672731Y499364D02*
X672733Y499418D01*
X672739Y499472D01*
X672748Y499526D01*
X672762Y499579D01*
X672779Y499630D01*
X672800Y499681D01*
X672824Y499729D01*
X672852Y499776D01*
X672883Y499821D01*
X672917Y499863D01*
X672954Y499903D01*
X672994Y499940D01*
X673036Y499974D01*
X673081Y500005D01*
X673128Y500033D01*
X673176Y500057D01*
X673227Y500078D01*
X673278Y500095D01*
X673331Y500109D01*
X673385Y500118D01*
X673439Y500124D01*
X673493Y500126D01*
X673547Y500124D01*
X673601Y500118D01*
X673655Y500109D01*
X673708Y500095D01*
X673759Y500078D01*
X673810Y500057D01*
X673858Y500033D01*
X673905Y500005D01*
X673950Y499974D01*
X673992Y499940D01*
X674032Y499903D01*
X674069Y499863D01*
X674103Y499821D01*
X674134Y499776D01*
X674162Y499729D01*
X674186Y499681D01*
X674207Y499630D01*
X674224Y499579D01*
X674238Y499526D01*
X674247Y499472D01*
X674253Y499418D01*
X674255Y499364D01*
X674253Y499310D01*
X674247Y499256D01*
X674238Y499202D01*
X674224Y499149D01*
X674207Y499098D01*
X674186Y499047D01*
X674162Y498999D01*
X674134Y498952D01*
X674103Y498907D01*
X674069Y498865D01*
X674032Y498825D01*
X673992Y498788D01*
X673950Y498754D01*
X673905Y498723D01*
X673858Y498695D01*
X673810Y498671D01*
X673759Y498650D01*
X673708Y498633D01*
X673655Y498619D01*
X673601Y498610D01*
X673547Y498604D01*
X673493Y498602D01*
X673439Y498604D01*
X673385Y498610D01*
X673331Y498619D01*
X673278Y498633D01*
X673227Y498650D01*
X673176Y498671D01*
X673128Y498695D01*
X673081Y498723D01*
X673036Y498754D01*
X672994Y498788D01*
X672954Y498825D01*
X672917Y498865D01*
X672883Y498907D01*
X672852Y498952D01*
X672824Y498999D01*
X672800Y499047D01*
X672779Y499098D01*
X672762Y499149D01*
X672748Y499202D01*
X672739Y499256D01*
X672733Y499310D01*
X672731Y499364D01*
X680961Y496443D02*
X680961Y496316D01*
X681596Y498602D02*
X681594Y498646D01*
X681588Y498690D01*
X681579Y498733D01*
X681565Y498776D01*
X681548Y498817D01*
X681528Y498856D01*
X681504Y498893D01*
X681477Y498929D01*
X681447Y498961D01*
X681415Y498991D01*
X681379Y499018D01*
X681342Y499042D01*
X681303Y499062D01*
X681262Y499079D01*
X681219Y499093D01*
X681176Y499102D01*
X681132Y499108D01*
X681088Y499110D01*
X681016Y499108D01*
X680943Y499104D01*
X680871Y499096D01*
X680800Y499085D01*
X680729Y499070D01*
X680658Y499053D01*
X680589Y499033D01*
X680520Y499009D01*
X680453Y498983D01*
X681596Y498602D02*
X681594Y498557D01*
X681590Y498512D01*
X681581Y498467D01*
X681570Y498423D01*
X681556Y498380D01*
X681538Y498338D01*
X681518Y498297D01*
X681495Y498258D01*
X681469Y498221D01*
X681432Y498174D01*
X681392Y498128D01*
X681351Y498085D01*
X681308Y498044D01*
X681262Y498004D01*
X681215Y497967D01*
X681214Y497967D02*
X681174Y497935D01*
X681136Y497899D01*
X681101Y497861D01*
X681069Y497820D01*
X681041Y497777D01*
X681015Y497732D01*
X680993Y497685D01*
X680975Y497636D01*
X680960Y497586D01*
X680961Y497586D02*
X680961Y497332D01*
X683374Y497840D02*
X680961Y494030D01*
X683374Y497840D02*
X680961Y501650D01*
X678548Y497840D01*
X680961Y494030D01*
X686142Y495554D02*
X686200Y495556D01*
X686258Y495562D01*
X686315Y495571D01*
X686372Y495584D01*
X686428Y495601D01*
X686482Y495622D01*
X686535Y495646D01*
X686587Y495673D01*
X686636Y495704D01*
X686683Y495738D01*
X686728Y495775D01*
X686771Y495814D01*
X686810Y495857D01*
X686847Y495902D01*
X686881Y495949D01*
X686912Y495999D01*
X686939Y496050D01*
X686963Y496103D01*
X686984Y496157D01*
X687001Y496213D01*
X687014Y496270D01*
X687023Y496327D01*
X687029Y496385D01*
X687031Y496443D01*
X686142Y495554D02*
X686042Y495556D01*
X685942Y495560D01*
X685842Y495568D01*
X685743Y495579D01*
X685643Y495593D01*
X685545Y495611D01*
X685447Y495631D01*
X685350Y495654D01*
X685253Y495681D01*
X687032Y496443D02*
X687030Y496509D01*
X687025Y496575D01*
X687016Y496641D01*
X687003Y496706D01*
X686988Y496770D01*
X686968Y496834D01*
X686945Y496896D01*
X686919Y496957D01*
X686890Y497016D01*
X686857Y497074D01*
X686822Y497130D01*
X686783Y497184D01*
X686742Y497236D01*
X686698Y497285D01*
X686651Y497332D01*
X686650Y497332D02*
X686583Y497399D01*
X686518Y497468D01*
X686456Y497540D01*
X686397Y497613D01*
X686341Y497690D01*
X686287Y497768D01*
X686237Y497848D01*
X686190Y497930D01*
X686146Y498014D01*
X686106Y498100D01*
X686068Y498187D01*
X686034Y498275D01*
X686004Y498365D01*
X685977Y498455D01*
X685953Y498547D01*
X685933Y498640D01*
X685917Y498733D01*
X685904Y498827D01*
X685895Y498921D01*
X685890Y499015D01*
X685888Y499110D01*
X685888Y500126D01*
X693762Y496443D02*
X693762Y496316D01*
X694397Y498602D02*
X694395Y498646D01*
X694389Y498690D01*
X694380Y498733D01*
X694366Y498776D01*
X694349Y498817D01*
X694329Y498856D01*
X694305Y498893D01*
X694278Y498929D01*
X694248Y498961D01*
X694216Y498991D01*
X694180Y499018D01*
X694143Y499042D01*
X694104Y499062D01*
X694063Y499079D01*
X694020Y499093D01*
X693977Y499102D01*
X693933Y499108D01*
X693889Y499110D01*
X693817Y499108D01*
X693744Y499104D01*
X693672Y499096D01*
X693601Y499085D01*
X693530Y499070D01*
X693459Y499053D01*
X693390Y499033D01*
X693321Y499009D01*
X693254Y498983D01*
X694397Y498602D02*
X694395Y498557D01*
X694391Y498512D01*
X694382Y498467D01*
X694371Y498423D01*
X694357Y498380D01*
X694339Y498338D01*
X694319Y498297D01*
X694296Y498258D01*
X694270Y498221D01*
X694233Y498174D01*
X694193Y498128D01*
X694152Y498085D01*
X694109Y498044D01*
X694063Y498004D01*
X694016Y497967D01*
X693976Y497935D01*
X693938Y497899D01*
X693903Y497861D01*
X693871Y497820D01*
X693843Y497777D01*
X693817Y497732D01*
X693795Y497685D01*
X693777Y497636D01*
X693762Y497586D01*
X693762Y497332D01*
X696175Y497840D02*
X693762Y494030D01*
X696175Y497840D02*
X693762Y501650D01*
X691349Y497840D01*
X693762Y494030D01*
X698029Y499364D02*
X698031Y499418D01*
X698037Y499472D01*
X698046Y499526D01*
X698060Y499579D01*
X698077Y499630D01*
X698098Y499681D01*
X698122Y499729D01*
X698150Y499776D01*
X698181Y499821D01*
X698215Y499863D01*
X698252Y499903D01*
X698292Y499940D01*
X698334Y499974D01*
X698379Y500005D01*
X698426Y500033D01*
X698474Y500057D01*
X698525Y500078D01*
X698576Y500095D01*
X698629Y500109D01*
X698683Y500118D01*
X698737Y500124D01*
X698791Y500126D01*
X698845Y500124D01*
X698899Y500118D01*
X698953Y500109D01*
X699006Y500095D01*
X699057Y500078D01*
X699108Y500057D01*
X699156Y500033D01*
X699203Y500005D01*
X699248Y499974D01*
X699290Y499940D01*
X699330Y499903D01*
X699367Y499863D01*
X699401Y499821D01*
X699432Y499776D01*
X699460Y499729D01*
X699484Y499681D01*
X699505Y499630D01*
X699522Y499579D01*
X699536Y499526D01*
X699545Y499472D01*
X699551Y499418D01*
X699553Y499364D01*
X699551Y499310D01*
X699545Y499256D01*
X699536Y499202D01*
X699522Y499149D01*
X699505Y499098D01*
X699484Y499047D01*
X699460Y498999D01*
X699432Y498952D01*
X699401Y498907D01*
X699367Y498865D01*
X699330Y498825D01*
X699290Y498788D01*
X699248Y498754D01*
X699203Y498723D01*
X699156Y498695D01*
X699108Y498671D01*
X699057Y498650D01*
X699006Y498633D01*
X698953Y498619D01*
X698899Y498610D01*
X698845Y498604D01*
X698791Y498602D01*
X698737Y498604D01*
X698683Y498610D01*
X698629Y498619D01*
X698576Y498633D01*
X698525Y498650D01*
X698474Y498671D01*
X698426Y498695D01*
X698379Y498723D01*
X698334Y498754D01*
X698292Y498788D01*
X698252Y498825D01*
X698215Y498865D01*
X698181Y498907D01*
X698150Y498952D01*
X698122Y498999D01*
X698098Y499047D01*
X698077Y499098D01*
X698060Y499149D01*
X698046Y499202D01*
X698037Y499256D01*
X698031Y499310D01*
X698029Y499364D01*
X702182Y497840D02*
X702180Y497714D01*
X702175Y497587D01*
X702165Y497461D01*
X702153Y497335D01*
X702136Y497210D01*
X702116Y497085D01*
X702092Y496961D01*
X702065Y496838D01*
X702034Y496715D01*
X702000Y496593D01*
X701962Y496473D01*
X701920Y496353D01*
X701875Y496235D01*
X701827Y496118D01*
X701775Y496003D01*
X701720Y495889D01*
X701662Y495777D01*
X701600Y495667D01*
X701535Y495558D01*
X701468Y495451D01*
X701397Y495347D01*
X701323Y495244D01*
X701246Y495144D01*
X701166Y495046D01*
X702182Y497840D02*
X702180Y497966D01*
X702175Y498093D01*
X702165Y498219D01*
X702153Y498345D01*
X702136Y498470D01*
X702116Y498595D01*
X702092Y498719D01*
X702065Y498842D01*
X702034Y498965D01*
X702000Y499087D01*
X701962Y499207D01*
X701920Y499327D01*
X701875Y499445D01*
X701827Y499562D01*
X701775Y499677D01*
X701720Y499791D01*
X701662Y499903D01*
X701600Y500013D01*
X701535Y500122D01*
X701468Y500229D01*
X701397Y500333D01*
X701323Y500436D01*
X701246Y500536D01*
X701166Y500634D01*
D11*
X378400Y225510D03*
D12*
X373900Y243900D02*
X370900Y243900D01*
X370900Y246900D01*
X370900Y311900D02*
X370900Y314900D01*
X373900Y314900D01*
X441900Y314900D02*
X441900Y311900D01*
X441900Y314900D02*
X438900Y314900D01*
X438900Y243900D02*
X441900Y243900D01*
X441900Y246900D01*
D13*
X589100Y434700D02*
X589100Y439600D01*
X594000Y439600D01*
X630100Y403500D02*
X630100Y398600D01*
X625200Y398600D01*
X625200Y439600D02*
X630100Y439600D01*
X630100Y434700D01*
D14*
X595600Y389100D02*
X595602Y389163D01*
X595608Y389225D01*
X595618Y389287D01*
X595631Y389349D01*
X595649Y389409D01*
X595670Y389468D01*
X595695Y389526D01*
X595724Y389582D01*
X595756Y389636D01*
X595791Y389688D01*
X595829Y389737D01*
X595871Y389785D01*
X595915Y389829D01*
X595963Y389871D01*
X596012Y389909D01*
X596064Y389944D01*
X596118Y389976D01*
X596174Y390005D01*
X596232Y390030D01*
X596291Y390051D01*
X596351Y390069D01*
X596413Y390082D01*
X596475Y390092D01*
X596537Y390098D01*
X596600Y390100D01*
X596663Y390098D01*
X596725Y390092D01*
X596787Y390082D01*
X596849Y390069D01*
X596909Y390051D01*
X596968Y390030D01*
X597026Y390005D01*
X597082Y389976D01*
X597136Y389944D01*
X597188Y389909D01*
X597237Y389871D01*
X597285Y389829D01*
X597329Y389785D01*
X597371Y389737D01*
X597409Y389688D01*
X597444Y389636D01*
X597476Y389582D01*
X597505Y389526D01*
X597530Y389468D01*
X597551Y389409D01*
X597569Y389349D01*
X597582Y389287D01*
X597592Y389225D01*
X597598Y389163D01*
X597600Y389100D01*
X597598Y389037D01*
X597592Y388975D01*
X597582Y388913D01*
X597569Y388851D01*
X597551Y388791D01*
X597530Y388732D01*
X597505Y388674D01*
X597476Y388618D01*
X597444Y388564D01*
X597409Y388512D01*
X597371Y388463D01*
X597329Y388415D01*
X597285Y388371D01*
X597237Y388329D01*
X597188Y388291D01*
X597136Y388256D01*
X597082Y388224D01*
X597026Y388195D01*
X596968Y388170D01*
X596909Y388149D01*
X596849Y388131D01*
X596787Y388118D01*
X596725Y388108D01*
X596663Y388102D01*
X596600Y388100D01*
X596537Y388102D01*
X596475Y388108D01*
X596413Y388118D01*
X596351Y388131D01*
X596291Y388149D01*
X596232Y388170D01*
X596174Y388195D01*
X596118Y388224D01*
X596064Y388256D01*
X596012Y388291D01*
X595963Y388329D01*
X595915Y388371D01*
X595871Y388415D01*
X595829Y388463D01*
X595791Y388512D01*
X595756Y388564D01*
X595724Y388618D01*
X595695Y388674D01*
X595670Y388732D01*
X595649Y388791D01*
X595631Y388851D01*
X595618Y388913D01*
X595608Y388975D01*
X595602Y389037D01*
X595600Y389100D01*
D13*
X594000Y398600D02*
X589100Y398600D01*
X589100Y403500D01*
D15*
X575773Y399564D02*
X567314Y399564D01*
X575773Y399564D02*
X575885Y399566D01*
X575997Y399572D01*
X576109Y399581D01*
X576221Y399595D01*
X576332Y399612D01*
X576442Y399634D01*
X576551Y399659D01*
X576660Y399687D01*
X576768Y399720D01*
X576874Y399756D01*
X576979Y399796D01*
X577082Y399839D01*
X577184Y399886D01*
X577285Y399937D01*
X577383Y399991D01*
X577480Y400048D01*
X577574Y400108D01*
X577667Y400172D01*
X577757Y400239D01*
X577845Y400309D01*
X577930Y400382D01*
X578013Y400458D01*
X578093Y400537D01*
X578170Y400618D01*
X578245Y400702D01*
X578316Y400789D01*
X578385Y400878D01*
X578450Y400969D01*
X578512Y401063D01*
X578571Y401158D01*
X578627Y401256D01*
X578679Y401355D01*
X578728Y401456D01*
X578773Y401559D01*
X578815Y401663D01*
X578853Y401769D01*
X578887Y401876D01*
X578918Y401984D01*
X578944Y402093D01*
X578968Y402203D01*
X578987Y402314D01*
X579002Y402425D01*
X579014Y402537D01*
X579022Y402649D01*
X579026Y402761D01*
X579026Y402873D01*
X579022Y402985D01*
X579014Y403097D01*
X579002Y403209D01*
X578987Y403320D01*
X578968Y403431D01*
X578944Y403541D01*
X578918Y403650D01*
X578887Y403758D01*
X578853Y403865D01*
X578815Y403971D01*
X578773Y404075D01*
X578728Y404178D01*
X578679Y404279D01*
X578627Y404378D01*
X578571Y404476D01*
X578512Y404571D01*
X578450Y404665D01*
X578385Y404756D01*
X578316Y404845D01*
X578245Y404932D01*
X578170Y405016D01*
X578093Y405097D01*
X578013Y405176D01*
X577930Y405252D01*
X577845Y405325D01*
X577757Y405395D01*
X577667Y405462D01*
X577574Y405526D01*
X577480Y405586D01*
X577383Y405643D01*
X577285Y405697D01*
X577184Y405748D01*
X577082Y405795D01*
X576979Y405838D01*
X576874Y405878D01*
X576768Y405914D01*
X576660Y405947D01*
X576551Y405975D01*
X576442Y406000D01*
X576332Y406022D01*
X576221Y406039D01*
X576109Y406053D01*
X575997Y406062D01*
X575885Y406068D01*
X575773Y406070D01*
X575773Y406071D02*
X567314Y406071D01*
X567314Y414979D02*
X567316Y415086D01*
X567322Y415193D01*
X567332Y415299D01*
X567345Y415405D01*
X567363Y415511D01*
X567384Y415616D01*
X567409Y415720D01*
X567438Y415823D01*
X567471Y415924D01*
X567507Y416025D01*
X567547Y416124D01*
X567591Y416222D01*
X567638Y416318D01*
X567689Y416412D01*
X567743Y416504D01*
X567800Y416595D01*
X567861Y416683D01*
X567925Y416769D01*
X567991Y416852D01*
X568061Y416933D01*
X568134Y417011D01*
X568210Y417087D01*
X568288Y417160D01*
X568369Y417230D01*
X568452Y417297D01*
X568538Y417360D01*
X568626Y417421D01*
X568717Y417478D01*
X568809Y417532D01*
X568903Y417583D01*
X568999Y417630D01*
X569097Y417674D01*
X569196Y417714D01*
X569297Y417750D01*
X569398Y417783D01*
X569501Y417812D01*
X569605Y417837D01*
X569710Y417858D01*
X569816Y417876D01*
X569922Y417889D01*
X570028Y417899D01*
X570135Y417905D01*
X570242Y417907D01*
X567314Y414979D02*
X567316Y414858D01*
X567322Y414737D01*
X567332Y414616D01*
X567345Y414495D01*
X567363Y414375D01*
X567384Y414256D01*
X567409Y414137D01*
X567438Y414019D01*
X567471Y413902D01*
X567508Y413787D01*
X567548Y413672D01*
X567592Y413559D01*
X567640Y413448D01*
X567691Y413338D01*
X567746Y413229D01*
X567804Y413123D01*
X567865Y413018D01*
X567930Y412916D01*
X567998Y412816D01*
X568070Y412718D01*
X568144Y412622D01*
X568222Y412528D01*
X568302Y412438D01*
X568385Y412350D01*
X568472Y412264D01*
X568561Y412182D01*
X568652Y412102D01*
X568746Y412025D01*
X568842Y411952D01*
X568941Y411881D01*
X569042Y411814D01*
X569145Y411750D01*
X569250Y411690D01*
X569357Y411632D01*
X569466Y411579D01*
X569577Y411529D01*
X569689Y411482D01*
X569802Y411439D01*
X569917Y411400D01*
X572519Y416932D02*
X572442Y417011D01*
X572361Y417087D01*
X572278Y417160D01*
X572192Y417230D01*
X572104Y417297D01*
X572014Y417361D01*
X571921Y417422D01*
X571827Y417479D01*
X571730Y417534D01*
X571632Y417584D01*
X571532Y417631D01*
X571430Y417675D01*
X571327Y417715D01*
X571222Y417751D01*
X571116Y417784D01*
X571009Y417813D01*
X570901Y417838D01*
X570793Y417859D01*
X570683Y417877D01*
X570574Y417890D01*
X570463Y417900D01*
X570353Y417906D01*
X570242Y417908D01*
X572520Y416931D02*
X579026Y411401D01*
X579026Y417907D01*
D14*
X490500Y264050D02*
X490502Y264113D01*
X490508Y264175D01*
X490518Y264237D01*
X490531Y264299D01*
X490549Y264359D01*
X490570Y264418D01*
X490595Y264476D01*
X490624Y264532D01*
X490656Y264586D01*
X490691Y264638D01*
X490729Y264687D01*
X490771Y264735D01*
X490815Y264779D01*
X490863Y264821D01*
X490912Y264859D01*
X490964Y264894D01*
X491018Y264926D01*
X491074Y264955D01*
X491132Y264980D01*
X491191Y265001D01*
X491251Y265019D01*
X491313Y265032D01*
X491375Y265042D01*
X491437Y265048D01*
X491500Y265050D01*
X491563Y265048D01*
X491625Y265042D01*
X491687Y265032D01*
X491749Y265019D01*
X491809Y265001D01*
X491868Y264980D01*
X491926Y264955D01*
X491982Y264926D01*
X492036Y264894D01*
X492088Y264859D01*
X492137Y264821D01*
X492185Y264779D01*
X492229Y264735D01*
X492271Y264687D01*
X492309Y264638D01*
X492344Y264586D01*
X492376Y264532D01*
X492405Y264476D01*
X492430Y264418D01*
X492451Y264359D01*
X492469Y264299D01*
X492482Y264237D01*
X492492Y264175D01*
X492498Y264113D01*
X492500Y264050D01*
X492498Y263987D01*
X492492Y263925D01*
X492482Y263863D01*
X492469Y263801D01*
X492451Y263741D01*
X492430Y263682D01*
X492405Y263624D01*
X492376Y263568D01*
X492344Y263514D01*
X492309Y263462D01*
X492271Y263413D01*
X492229Y263365D01*
X492185Y263321D01*
X492137Y263279D01*
X492088Y263241D01*
X492036Y263206D01*
X491982Y263174D01*
X491926Y263145D01*
X491868Y263120D01*
X491809Y263099D01*
X491749Y263081D01*
X491687Y263068D01*
X491625Y263058D01*
X491563Y263052D01*
X491500Y263050D01*
X491437Y263052D01*
X491375Y263058D01*
X491313Y263068D01*
X491251Y263081D01*
X491191Y263099D01*
X491132Y263120D01*
X491074Y263145D01*
X491018Y263174D01*
X490964Y263206D01*
X490912Y263241D01*
X490863Y263279D01*
X490815Y263321D01*
X490771Y263365D01*
X490729Y263413D01*
X490691Y263462D01*
X490656Y263514D01*
X490624Y263568D01*
X490595Y263624D01*
X490570Y263682D01*
X490549Y263741D01*
X490531Y263801D01*
X490518Y263863D01*
X490508Y263925D01*
X490502Y263987D01*
X490500Y264050D01*
D13*
X515750Y266300D02*
X551050Y266300D01*
X551050Y216300D02*
X515750Y216300D01*
D15*
X498908Y275054D02*
X498908Y283492D01*
X498908Y275054D02*
X498910Y274941D01*
X498916Y274828D01*
X498926Y274715D01*
X498940Y274602D01*
X498957Y274490D01*
X498979Y274379D01*
X499004Y274269D01*
X499034Y274159D01*
X499067Y274051D01*
X499104Y273944D01*
X499144Y273838D01*
X499189Y273734D01*
X499237Y273631D01*
X499288Y273530D01*
X499343Y273431D01*
X499401Y273334D01*
X499463Y273239D01*
X499528Y273146D01*
X499596Y273056D01*
X499667Y272968D01*
X499742Y272882D01*
X499819Y272799D01*
X499899Y272719D01*
X499982Y272642D01*
X500068Y272567D01*
X500156Y272496D01*
X500246Y272428D01*
X500339Y272363D01*
X500434Y272301D01*
X500531Y272243D01*
X500630Y272188D01*
X500731Y272137D01*
X500834Y272089D01*
X500938Y272044D01*
X501044Y272004D01*
X501151Y271967D01*
X501259Y271934D01*
X501369Y271904D01*
X501479Y271879D01*
X501590Y271857D01*
X501702Y271840D01*
X501815Y271826D01*
X501928Y271816D01*
X502041Y271810D01*
X502154Y271808D01*
X502267Y271810D01*
X502380Y271816D01*
X502493Y271826D01*
X502606Y271840D01*
X502718Y271857D01*
X502829Y271879D01*
X502939Y271904D01*
X503049Y271934D01*
X503157Y271967D01*
X503264Y272004D01*
X503370Y272044D01*
X503474Y272089D01*
X503577Y272137D01*
X503678Y272188D01*
X503777Y272243D01*
X503874Y272301D01*
X503969Y272363D01*
X504062Y272428D01*
X504152Y272496D01*
X504240Y272567D01*
X504326Y272642D01*
X504409Y272719D01*
X504489Y272799D01*
X504566Y272882D01*
X504641Y272968D01*
X504712Y273056D01*
X504780Y273146D01*
X504845Y273239D01*
X504907Y273334D01*
X504965Y273431D01*
X505020Y273530D01*
X505071Y273631D01*
X505119Y273734D01*
X505164Y273838D01*
X505204Y273944D01*
X505241Y274051D01*
X505274Y274159D01*
X505304Y274269D01*
X505329Y274379D01*
X505351Y274490D01*
X505368Y274602D01*
X505382Y274715D01*
X505392Y274828D01*
X505398Y274941D01*
X505400Y275054D01*
X505399Y275054D02*
X505399Y283492D01*
X510719Y271808D02*
X513965Y271808D01*
X514078Y271810D01*
X514191Y271816D01*
X514304Y271826D01*
X514417Y271840D01*
X514529Y271857D01*
X514640Y271879D01*
X514750Y271904D01*
X514860Y271934D01*
X514968Y271967D01*
X515075Y272004D01*
X515181Y272044D01*
X515285Y272089D01*
X515388Y272137D01*
X515489Y272188D01*
X515588Y272243D01*
X515685Y272301D01*
X515780Y272363D01*
X515873Y272428D01*
X515963Y272496D01*
X516051Y272567D01*
X516137Y272642D01*
X516220Y272719D01*
X516300Y272799D01*
X516377Y272882D01*
X516452Y272968D01*
X516523Y273056D01*
X516591Y273146D01*
X516656Y273239D01*
X516718Y273334D01*
X516776Y273431D01*
X516831Y273530D01*
X516882Y273631D01*
X516930Y273734D01*
X516975Y273838D01*
X517015Y273944D01*
X517052Y274051D01*
X517085Y274159D01*
X517115Y274269D01*
X517140Y274379D01*
X517162Y274490D01*
X517179Y274602D01*
X517193Y274715D01*
X517203Y274828D01*
X517209Y274941D01*
X517211Y275054D01*
X517209Y275167D01*
X517203Y275280D01*
X517193Y275393D01*
X517179Y275506D01*
X517162Y275618D01*
X517140Y275729D01*
X517115Y275839D01*
X517085Y275949D01*
X517052Y276057D01*
X517015Y276164D01*
X516975Y276270D01*
X516930Y276374D01*
X516882Y276477D01*
X516831Y276578D01*
X516776Y276677D01*
X516718Y276774D01*
X516656Y276869D01*
X516591Y276962D01*
X516523Y277052D01*
X516452Y277140D01*
X516377Y277226D01*
X516300Y277309D01*
X516220Y277389D01*
X516137Y277466D01*
X516051Y277541D01*
X515963Y277612D01*
X515873Y277680D01*
X515780Y277745D01*
X515685Y277807D01*
X515588Y277865D01*
X515489Y277920D01*
X515388Y277971D01*
X515285Y278019D01*
X515181Y278064D01*
X515075Y278104D01*
X514968Y278141D01*
X514860Y278174D01*
X514750Y278204D01*
X514640Y278229D01*
X514529Y278251D01*
X514417Y278268D01*
X514304Y278282D01*
X514191Y278292D01*
X514078Y278298D01*
X513965Y278300D01*
X514614Y283492D02*
X510719Y283492D01*
X514614Y283492D02*
X514715Y283490D01*
X514815Y283484D01*
X514915Y283474D01*
X515015Y283461D01*
X515114Y283443D01*
X515213Y283422D01*
X515310Y283397D01*
X515407Y283368D01*
X515502Y283335D01*
X515596Y283299D01*
X515688Y283259D01*
X515779Y283216D01*
X515868Y283169D01*
X515955Y283119D01*
X516041Y283065D01*
X516124Y283008D01*
X516204Y282948D01*
X516283Y282885D01*
X516359Y282818D01*
X516432Y282749D01*
X516502Y282677D01*
X516570Y282603D01*
X516635Y282526D01*
X516696Y282446D01*
X516755Y282364D01*
X516810Y282280D01*
X516862Y282194D01*
X516911Y282106D01*
X516956Y282016D01*
X516998Y281924D01*
X517036Y281831D01*
X517070Y281736D01*
X517101Y281641D01*
X517128Y281544D01*
X517151Y281446D01*
X517171Y281347D01*
X517186Y281247D01*
X517198Y281147D01*
X517206Y281047D01*
X517210Y280946D01*
X517210Y280846D01*
X517206Y280745D01*
X517198Y280645D01*
X517186Y280545D01*
X517171Y280445D01*
X517151Y280346D01*
X517128Y280248D01*
X517101Y280151D01*
X517070Y280056D01*
X517036Y279961D01*
X516998Y279868D01*
X516956Y279776D01*
X516911Y279686D01*
X516862Y279598D01*
X516810Y279512D01*
X516755Y279428D01*
X516696Y279346D01*
X516635Y279266D01*
X516570Y279189D01*
X516502Y279115D01*
X516432Y279043D01*
X516359Y278974D01*
X516283Y278907D01*
X516204Y278844D01*
X516124Y278784D01*
X516041Y278727D01*
X515955Y278673D01*
X515868Y278623D01*
X515779Y278576D01*
X515688Y278533D01*
X515596Y278493D01*
X515502Y278457D01*
X515407Y278424D01*
X515310Y278395D01*
X515213Y278370D01*
X515114Y278349D01*
X515015Y278331D01*
X514915Y278318D01*
X514815Y278308D01*
X514715Y278302D01*
X514614Y278300D01*
X514614Y278299D02*
X512017Y278299D01*
D14*
X214100Y154400D02*
X214100Y150400D01*
X214100Y154400D02*
X243100Y154400D01*
X243100Y150400D01*
X214100Y150400D01*
X213600Y146900D02*
X213600Y135900D01*
D15*
X181683Y137104D02*
X181683Y142296D01*
X181682Y142296D02*
X181684Y142409D01*
X181690Y142522D01*
X181700Y142635D01*
X181714Y142748D01*
X181731Y142860D01*
X181753Y142971D01*
X181778Y143081D01*
X181808Y143191D01*
X181841Y143299D01*
X181878Y143406D01*
X181918Y143512D01*
X181963Y143616D01*
X182011Y143719D01*
X182062Y143820D01*
X182117Y143919D01*
X182175Y144016D01*
X182237Y144111D01*
X182302Y144204D01*
X182370Y144294D01*
X182441Y144382D01*
X182516Y144468D01*
X182593Y144551D01*
X182673Y144631D01*
X182756Y144708D01*
X182842Y144783D01*
X182930Y144854D01*
X183020Y144922D01*
X183113Y144987D01*
X183208Y145049D01*
X183305Y145107D01*
X183404Y145162D01*
X183505Y145213D01*
X183608Y145261D01*
X183712Y145306D01*
X183818Y145346D01*
X183925Y145383D01*
X184033Y145416D01*
X184143Y145446D01*
X184253Y145471D01*
X184364Y145493D01*
X184476Y145510D01*
X184589Y145524D01*
X184702Y145534D01*
X184815Y145540D01*
X184928Y145542D01*
X185041Y145540D01*
X185154Y145534D01*
X185267Y145524D01*
X185380Y145510D01*
X185492Y145493D01*
X185603Y145471D01*
X185713Y145446D01*
X185823Y145416D01*
X185931Y145383D01*
X186038Y145346D01*
X186144Y145306D01*
X186248Y145261D01*
X186351Y145213D01*
X186452Y145162D01*
X186551Y145107D01*
X186648Y145049D01*
X186743Y144987D01*
X186836Y144922D01*
X186926Y144854D01*
X187014Y144783D01*
X187100Y144708D01*
X187183Y144631D01*
X187263Y144551D01*
X187340Y144468D01*
X187415Y144382D01*
X187486Y144294D01*
X187554Y144204D01*
X187619Y144111D01*
X187681Y144016D01*
X187739Y143919D01*
X187794Y143820D01*
X187845Y143719D01*
X187893Y143616D01*
X187938Y143512D01*
X187978Y143406D01*
X188015Y143299D01*
X188048Y143191D01*
X188078Y143081D01*
X188103Y142971D01*
X188125Y142860D01*
X188142Y142748D01*
X188156Y142635D01*
X188166Y142522D01*
X188172Y142409D01*
X188174Y142296D01*
X188174Y137104D01*
X188172Y136991D01*
X188166Y136878D01*
X188156Y136765D01*
X188142Y136652D01*
X188125Y136540D01*
X188103Y136429D01*
X188078Y136319D01*
X188048Y136209D01*
X188015Y136101D01*
X187978Y135994D01*
X187938Y135888D01*
X187893Y135784D01*
X187845Y135681D01*
X187794Y135580D01*
X187739Y135481D01*
X187681Y135384D01*
X187619Y135289D01*
X187554Y135196D01*
X187486Y135106D01*
X187415Y135018D01*
X187340Y134932D01*
X187263Y134849D01*
X187183Y134769D01*
X187100Y134692D01*
X187014Y134617D01*
X186926Y134546D01*
X186836Y134478D01*
X186743Y134413D01*
X186648Y134351D01*
X186551Y134293D01*
X186452Y134238D01*
X186351Y134187D01*
X186248Y134139D01*
X186144Y134094D01*
X186038Y134054D01*
X185931Y134017D01*
X185823Y133984D01*
X185713Y133954D01*
X185603Y133929D01*
X185492Y133907D01*
X185380Y133890D01*
X185267Y133876D01*
X185154Y133866D01*
X185041Y133860D01*
X184928Y133858D01*
X184815Y133860D01*
X184702Y133866D01*
X184589Y133876D01*
X184476Y133890D01*
X184364Y133907D01*
X184253Y133929D01*
X184143Y133954D01*
X184033Y133984D01*
X183925Y134017D01*
X183818Y134054D01*
X183712Y134094D01*
X183608Y134139D01*
X183505Y134187D01*
X183404Y134238D01*
X183305Y134293D01*
X183208Y134351D01*
X183113Y134413D01*
X183020Y134478D01*
X182930Y134546D01*
X182842Y134617D01*
X182756Y134692D01*
X182673Y134769D01*
X182593Y134849D01*
X182516Y134932D01*
X182441Y135018D01*
X182370Y135106D01*
X182302Y135196D01*
X182237Y135289D01*
X182175Y135384D01*
X182117Y135481D01*
X182062Y135580D01*
X182011Y135681D01*
X181963Y135784D01*
X181918Y135888D01*
X181878Y135994D01*
X181841Y136101D01*
X181808Y136209D01*
X181778Y136319D01*
X181753Y136429D01*
X181731Y136540D01*
X181714Y136652D01*
X181700Y136765D01*
X181690Y136878D01*
X181684Y136991D01*
X181682Y137104D01*
X186875Y136454D02*
X189472Y133858D01*
X192826Y142946D02*
X196072Y145542D01*
X196072Y133858D01*
X199317Y133858D02*
X192826Y133858D01*
D13*
X431800Y474980D02*
X439420Y482600D01*
X474980Y482600D01*
X482600Y474980D01*
X482600Y462280D01*
X477520Y457200D01*
X482600Y452120D01*
X482600Y436880D01*
X477520Y431800D01*
X482600Y426720D01*
X482600Y414020D01*
X474980Y406400D01*
X439420Y406400D01*
X431800Y414020D01*
X431800Y426720D01*
X436880Y431800D01*
X431800Y436880D01*
X431800Y452120D01*
X436880Y457200D01*
X431800Y462280D01*
X431800Y474980D01*
D16*
X427101Y487751D02*
X429712Y489839D01*
X429712Y480441D01*
X432322Y480441D02*
X427101Y480441D01*
D15*
X426212Y428526D02*
X414528Y428526D01*
X426212Y427228D02*
X426212Y429824D01*
X414528Y429824D02*
X414528Y427228D01*
X426212Y437938D02*
X426210Y438037D01*
X426204Y438137D01*
X426195Y438236D01*
X426182Y438334D01*
X426165Y438432D01*
X426144Y438530D01*
X426119Y438626D01*
X426091Y438721D01*
X426059Y438815D01*
X426024Y438908D01*
X425985Y439000D01*
X425942Y439090D01*
X425897Y439178D01*
X425847Y439265D01*
X425795Y439349D01*
X425739Y439432D01*
X425681Y439512D01*
X425619Y439590D01*
X425554Y439665D01*
X425486Y439738D01*
X425416Y439808D01*
X425343Y439876D01*
X425268Y439941D01*
X425190Y440003D01*
X425110Y440061D01*
X425027Y440117D01*
X424943Y440169D01*
X424856Y440219D01*
X424768Y440264D01*
X424678Y440307D01*
X424586Y440346D01*
X424493Y440381D01*
X424399Y440413D01*
X424304Y440441D01*
X424208Y440466D01*
X424110Y440487D01*
X424012Y440504D01*
X423914Y440517D01*
X423815Y440526D01*
X423715Y440532D01*
X423616Y440534D01*
X426212Y437938D02*
X426210Y437794D01*
X426204Y437649D01*
X426195Y437505D01*
X426182Y437362D01*
X426165Y437218D01*
X426144Y437075D01*
X426119Y436933D01*
X426091Y436792D01*
X426059Y436651D01*
X426023Y436511D01*
X425984Y436372D01*
X425941Y436234D01*
X425894Y436098D01*
X425844Y435962D01*
X425790Y435828D01*
X425733Y435696D01*
X425672Y435565D01*
X425608Y435436D01*
X425540Y435308D01*
X425470Y435182D01*
X425395Y435058D01*
X425318Y434937D01*
X425237Y434817D01*
X425154Y434699D01*
X425067Y434584D01*
X424977Y434471D01*
X424884Y434360D01*
X424789Y434252D01*
X424690Y434146D01*
X424589Y434043D01*
X417124Y434369D02*
X417025Y434371D01*
X416925Y434377D01*
X416826Y434386D01*
X416728Y434399D01*
X416630Y434416D01*
X416532Y434437D01*
X416436Y434462D01*
X416341Y434490D01*
X416247Y434522D01*
X416154Y434557D01*
X416062Y434596D01*
X415972Y434639D01*
X415884Y434684D01*
X415797Y434734D01*
X415713Y434786D01*
X415630Y434842D01*
X415550Y434900D01*
X415472Y434962D01*
X415397Y435027D01*
X415324Y435095D01*
X415254Y435165D01*
X415186Y435238D01*
X415121Y435313D01*
X415059Y435391D01*
X415001Y435471D01*
X414945Y435554D01*
X414893Y435638D01*
X414843Y435725D01*
X414798Y435813D01*
X414755Y435903D01*
X414716Y435995D01*
X414681Y436088D01*
X414649Y436182D01*
X414621Y436277D01*
X414596Y436373D01*
X414575Y436471D01*
X414558Y436569D01*
X414545Y436667D01*
X414536Y436766D01*
X414530Y436866D01*
X414528Y436965D01*
X414530Y437101D01*
X414536Y437237D01*
X414545Y437373D01*
X414558Y437509D01*
X414576Y437644D01*
X414596Y437778D01*
X414621Y437912D01*
X414649Y438046D01*
X414682Y438178D01*
X414717Y438309D01*
X414757Y438440D01*
X414800Y438569D01*
X414846Y438697D01*
X414897Y438823D01*
X414950Y438949D01*
X415008Y439072D01*
X415068Y439194D01*
X415132Y439314D01*
X415200Y439433D01*
X415270Y439549D01*
X415344Y439663D01*
X415421Y439776D01*
X415502Y439886D01*
X419396Y435666D02*
X419343Y435580D01*
X419286Y435496D01*
X419227Y435414D01*
X419164Y435334D01*
X419098Y435257D01*
X419030Y435182D01*
X418958Y435110D01*
X418884Y435041D01*
X418807Y434975D01*
X418728Y434912D01*
X418646Y434852D01*
X418562Y434795D01*
X418476Y434741D01*
X418388Y434691D01*
X418298Y434644D01*
X418207Y434600D01*
X418113Y434561D01*
X418019Y434524D01*
X417923Y434492D01*
X417825Y434463D01*
X417727Y434438D01*
X417628Y434417D01*
X417528Y434399D01*
X417428Y434386D01*
X417327Y434376D01*
X417225Y434370D01*
X417124Y434368D01*
X421344Y439237D02*
X421397Y439323D01*
X421454Y439407D01*
X421513Y439489D01*
X421576Y439569D01*
X421642Y439646D01*
X421710Y439721D01*
X421782Y439793D01*
X421856Y439862D01*
X421933Y439928D01*
X422012Y439991D01*
X422094Y440051D01*
X422178Y440108D01*
X422264Y440162D01*
X422352Y440212D01*
X422442Y440259D01*
X422533Y440303D01*
X422627Y440342D01*
X422721Y440379D01*
X422817Y440411D01*
X422915Y440440D01*
X423013Y440465D01*
X423112Y440486D01*
X423212Y440504D01*
X423312Y440517D01*
X423413Y440527D01*
X423515Y440533D01*
X423616Y440535D01*
X421344Y439237D02*
X419396Y435666D01*
X414528Y445643D02*
X426212Y445643D01*
X414528Y445643D02*
X414528Y448889D01*
X414530Y449002D01*
X414536Y449115D01*
X414546Y449228D01*
X414560Y449341D01*
X414577Y449453D01*
X414599Y449564D01*
X414624Y449674D01*
X414654Y449784D01*
X414687Y449892D01*
X414724Y449999D01*
X414764Y450105D01*
X414809Y450209D01*
X414857Y450312D01*
X414908Y450413D01*
X414963Y450512D01*
X415021Y450609D01*
X415083Y450704D01*
X415148Y450797D01*
X415216Y450887D01*
X415287Y450975D01*
X415362Y451061D01*
X415439Y451144D01*
X415519Y451224D01*
X415602Y451301D01*
X415688Y451376D01*
X415776Y451447D01*
X415866Y451515D01*
X415959Y451580D01*
X416054Y451642D01*
X416151Y451700D01*
X416250Y451755D01*
X416351Y451806D01*
X416454Y451854D01*
X416558Y451899D01*
X416664Y451939D01*
X416771Y451976D01*
X416879Y452009D01*
X416989Y452039D01*
X417099Y452064D01*
X417210Y452086D01*
X417322Y452103D01*
X417435Y452117D01*
X417548Y452127D01*
X417661Y452133D01*
X417774Y452135D01*
X417887Y452133D01*
X418000Y452127D01*
X418113Y452117D01*
X418226Y452103D01*
X418338Y452086D01*
X418449Y452064D01*
X418559Y452039D01*
X418669Y452009D01*
X418777Y451976D01*
X418884Y451939D01*
X418990Y451899D01*
X419094Y451854D01*
X419197Y451806D01*
X419298Y451755D01*
X419397Y451700D01*
X419494Y451642D01*
X419589Y451580D01*
X419682Y451515D01*
X419772Y451447D01*
X419860Y451376D01*
X419946Y451301D01*
X420029Y451224D01*
X420109Y451144D01*
X420186Y451061D01*
X420261Y450975D01*
X420332Y450887D01*
X420400Y450797D01*
X420465Y450704D01*
X420527Y450609D01*
X420585Y450512D01*
X420640Y450413D01*
X420691Y450312D01*
X420739Y450209D01*
X420784Y450105D01*
X420824Y449999D01*
X420861Y449892D01*
X420894Y449784D01*
X420924Y449674D01*
X420949Y449564D01*
X420971Y449453D01*
X420988Y449341D01*
X421002Y449228D01*
X421012Y449115D01*
X421018Y449002D01*
X421020Y448889D01*
X421019Y448889D02*
X421019Y445643D01*
X417124Y456523D02*
X414528Y459768D01*
X426212Y459768D01*
X426212Y456523D02*
X426212Y463014D01*
X595639Y445008D02*
X598236Y445008D01*
X595639Y445008D02*
X595540Y445010D01*
X595440Y445016D01*
X595341Y445025D01*
X595243Y445038D01*
X595145Y445055D01*
X595047Y445076D01*
X594951Y445101D01*
X594856Y445129D01*
X594762Y445161D01*
X594669Y445196D01*
X594577Y445235D01*
X594487Y445278D01*
X594399Y445323D01*
X594312Y445373D01*
X594228Y445425D01*
X594145Y445481D01*
X594065Y445539D01*
X593987Y445601D01*
X593912Y445666D01*
X593839Y445734D01*
X593769Y445804D01*
X593701Y445877D01*
X593636Y445952D01*
X593574Y446030D01*
X593516Y446110D01*
X593460Y446193D01*
X593408Y446277D01*
X593358Y446364D01*
X593313Y446452D01*
X593270Y446542D01*
X593231Y446634D01*
X593196Y446727D01*
X593164Y446821D01*
X593136Y446916D01*
X593111Y447012D01*
X593090Y447110D01*
X593073Y447208D01*
X593060Y447306D01*
X593051Y447405D01*
X593045Y447505D01*
X593043Y447604D01*
X593043Y454096D01*
X593045Y454195D01*
X593051Y454295D01*
X593060Y454394D01*
X593073Y454492D01*
X593090Y454590D01*
X593111Y454688D01*
X593136Y454784D01*
X593164Y454879D01*
X593196Y454973D01*
X593231Y455066D01*
X593270Y455158D01*
X593313Y455248D01*
X593358Y455336D01*
X593408Y455423D01*
X593460Y455507D01*
X593516Y455590D01*
X593574Y455670D01*
X593636Y455748D01*
X593701Y455823D01*
X593769Y455896D01*
X593839Y455966D01*
X593912Y456034D01*
X593987Y456099D01*
X594065Y456161D01*
X594145Y456219D01*
X594228Y456275D01*
X594312Y456327D01*
X594399Y456377D01*
X594487Y456422D01*
X594577Y456465D01*
X594669Y456504D01*
X594761Y456539D01*
X594856Y456571D01*
X594951Y456599D01*
X595047Y456624D01*
X595145Y456645D01*
X595243Y456662D01*
X595341Y456675D01*
X595440Y456684D01*
X595540Y456690D01*
X595639Y456692D01*
X598236Y456692D01*
X602601Y454096D02*
X605846Y456692D01*
X605846Y445008D01*
X602601Y445008D02*
X609092Y445008D01*
X650804Y406908D02*
X653401Y406908D01*
X650804Y406908D02*
X650705Y406910D01*
X650605Y406916D01*
X650506Y406925D01*
X650408Y406938D01*
X650310Y406955D01*
X650212Y406976D01*
X650116Y407001D01*
X650021Y407029D01*
X649927Y407061D01*
X649834Y407096D01*
X649742Y407135D01*
X649652Y407178D01*
X649564Y407223D01*
X649477Y407273D01*
X649393Y407325D01*
X649310Y407381D01*
X649230Y407439D01*
X649152Y407501D01*
X649077Y407566D01*
X649004Y407634D01*
X648934Y407704D01*
X648866Y407777D01*
X648801Y407852D01*
X648739Y407930D01*
X648681Y408010D01*
X648625Y408093D01*
X648573Y408177D01*
X648523Y408264D01*
X648478Y408352D01*
X648435Y408442D01*
X648396Y408534D01*
X648361Y408627D01*
X648329Y408721D01*
X648301Y408816D01*
X648276Y408912D01*
X648255Y409010D01*
X648238Y409108D01*
X648225Y409206D01*
X648216Y409305D01*
X648210Y409405D01*
X648208Y409504D01*
X648208Y415996D01*
X648210Y416095D01*
X648216Y416195D01*
X648225Y416294D01*
X648238Y416392D01*
X648255Y416490D01*
X648276Y416588D01*
X648301Y416684D01*
X648329Y416779D01*
X648361Y416873D01*
X648396Y416966D01*
X648435Y417058D01*
X648478Y417148D01*
X648523Y417236D01*
X648573Y417323D01*
X648625Y417407D01*
X648681Y417490D01*
X648739Y417570D01*
X648801Y417648D01*
X648866Y417723D01*
X648934Y417796D01*
X649004Y417866D01*
X649077Y417934D01*
X649152Y417999D01*
X649230Y418061D01*
X649310Y418119D01*
X649393Y418175D01*
X649477Y418227D01*
X649564Y418277D01*
X649652Y418322D01*
X649742Y418365D01*
X649834Y418404D01*
X649926Y418439D01*
X650021Y418471D01*
X650116Y418499D01*
X650212Y418524D01*
X650310Y418545D01*
X650408Y418562D01*
X650506Y418575D01*
X650605Y418584D01*
X650705Y418590D01*
X650804Y418592D01*
X653401Y418592D01*
X657766Y406908D02*
X661661Y406908D01*
X661760Y406910D01*
X661860Y406916D01*
X661959Y406925D01*
X662057Y406938D01*
X662155Y406955D01*
X662253Y406976D01*
X662349Y407001D01*
X662444Y407029D01*
X662538Y407061D01*
X662631Y407096D01*
X662723Y407135D01*
X662813Y407178D01*
X662901Y407223D01*
X662988Y407273D01*
X663072Y407325D01*
X663155Y407381D01*
X663235Y407439D01*
X663313Y407501D01*
X663388Y407566D01*
X663461Y407634D01*
X663531Y407704D01*
X663599Y407777D01*
X663664Y407852D01*
X663726Y407930D01*
X663784Y408010D01*
X663840Y408093D01*
X663892Y408177D01*
X663942Y408264D01*
X663987Y408352D01*
X664030Y408442D01*
X664069Y408534D01*
X664104Y408627D01*
X664136Y408721D01*
X664164Y408816D01*
X664189Y408912D01*
X664210Y409010D01*
X664227Y409108D01*
X664240Y409206D01*
X664249Y409305D01*
X664255Y409405D01*
X664257Y409504D01*
X664257Y410803D01*
X664255Y410902D01*
X664249Y411002D01*
X664240Y411101D01*
X664227Y411199D01*
X664210Y411297D01*
X664189Y411395D01*
X664164Y411491D01*
X664136Y411586D01*
X664104Y411680D01*
X664069Y411773D01*
X664030Y411865D01*
X663987Y411955D01*
X663942Y412043D01*
X663892Y412130D01*
X663840Y412214D01*
X663784Y412297D01*
X663726Y412377D01*
X663664Y412455D01*
X663599Y412530D01*
X663531Y412603D01*
X663461Y412673D01*
X663388Y412741D01*
X663313Y412806D01*
X663235Y412868D01*
X663155Y412926D01*
X663072Y412982D01*
X662988Y413034D01*
X662901Y413084D01*
X662813Y413129D01*
X662723Y413172D01*
X662631Y413211D01*
X662538Y413246D01*
X662444Y413278D01*
X662349Y413306D01*
X662253Y413331D01*
X662155Y413352D01*
X662057Y413369D01*
X661959Y413382D01*
X661860Y413391D01*
X661760Y413397D01*
X661661Y413399D01*
X657766Y413399D01*
X657766Y418592D01*
X664257Y418592D01*
X393192Y361301D02*
X393192Y358704D01*
X393190Y358605D01*
X393184Y358505D01*
X393175Y358406D01*
X393162Y358308D01*
X393145Y358210D01*
X393124Y358112D01*
X393099Y358016D01*
X393071Y357921D01*
X393039Y357827D01*
X393004Y357734D01*
X392965Y357642D01*
X392922Y357552D01*
X392877Y357464D01*
X392827Y357377D01*
X392775Y357293D01*
X392719Y357210D01*
X392661Y357130D01*
X392599Y357052D01*
X392534Y356977D01*
X392466Y356904D01*
X392396Y356834D01*
X392323Y356766D01*
X392248Y356701D01*
X392170Y356639D01*
X392090Y356581D01*
X392007Y356525D01*
X391923Y356473D01*
X391836Y356423D01*
X391748Y356378D01*
X391658Y356335D01*
X391566Y356296D01*
X391473Y356261D01*
X391379Y356229D01*
X391284Y356201D01*
X391188Y356176D01*
X391090Y356155D01*
X390992Y356138D01*
X390894Y356125D01*
X390795Y356116D01*
X390695Y356110D01*
X390596Y356108D01*
X384104Y356108D01*
X384005Y356110D01*
X383905Y356116D01*
X383806Y356125D01*
X383708Y356138D01*
X383610Y356156D01*
X383512Y356176D01*
X383416Y356201D01*
X383320Y356229D01*
X383226Y356261D01*
X383133Y356296D01*
X383042Y356335D01*
X382952Y356378D01*
X382863Y356423D01*
X382777Y356473D01*
X382692Y356525D01*
X382610Y356581D01*
X382530Y356640D01*
X382452Y356701D01*
X382376Y356766D01*
X382303Y356834D01*
X382233Y356904D01*
X382165Y356977D01*
X382100Y357053D01*
X382039Y357131D01*
X381980Y357211D01*
X381924Y357293D01*
X381872Y357378D01*
X381823Y357464D01*
X381777Y357553D01*
X381734Y357643D01*
X381695Y357734D01*
X381660Y357827D01*
X381628Y357921D01*
X381600Y358017D01*
X381575Y358113D01*
X381555Y358211D01*
X381537Y358309D01*
X381524Y358407D01*
X381515Y358506D01*
X381509Y358605D01*
X381507Y358705D01*
X381508Y358704D02*
X381508Y361301D01*
X381508Y365666D02*
X382806Y365666D01*
X381508Y365666D02*
X381508Y372157D01*
X393192Y368912D01*
X647192Y422204D02*
X647192Y424801D01*
X647192Y422204D02*
X647190Y422105D01*
X647184Y422005D01*
X647175Y421906D01*
X647162Y421808D01*
X647145Y421710D01*
X647124Y421612D01*
X647099Y421516D01*
X647071Y421421D01*
X647039Y421327D01*
X647004Y421234D01*
X646965Y421142D01*
X646922Y421052D01*
X646877Y420964D01*
X646827Y420877D01*
X646775Y420793D01*
X646719Y420710D01*
X646661Y420630D01*
X646599Y420552D01*
X646534Y420477D01*
X646466Y420404D01*
X646396Y420334D01*
X646323Y420266D01*
X646248Y420201D01*
X646170Y420139D01*
X646090Y420081D01*
X646007Y420025D01*
X645923Y419973D01*
X645836Y419923D01*
X645748Y419878D01*
X645658Y419835D01*
X645566Y419796D01*
X645473Y419761D01*
X645379Y419729D01*
X645284Y419701D01*
X645188Y419676D01*
X645090Y419655D01*
X644992Y419638D01*
X644894Y419625D01*
X644795Y419616D01*
X644695Y419610D01*
X644596Y419608D01*
X638104Y419608D01*
X638005Y419610D01*
X637905Y419616D01*
X637806Y419625D01*
X637708Y419638D01*
X637610Y419656D01*
X637512Y419676D01*
X637416Y419701D01*
X637320Y419729D01*
X637226Y419761D01*
X637133Y419796D01*
X637042Y419835D01*
X636952Y419878D01*
X636863Y419923D01*
X636777Y419973D01*
X636692Y420025D01*
X636610Y420081D01*
X636530Y420140D01*
X636452Y420201D01*
X636376Y420266D01*
X636303Y420334D01*
X636233Y420404D01*
X636165Y420477D01*
X636100Y420553D01*
X636039Y420631D01*
X635980Y420711D01*
X635924Y420793D01*
X635872Y420878D01*
X635823Y420964D01*
X635777Y421053D01*
X635734Y421143D01*
X635695Y421234D01*
X635660Y421327D01*
X635628Y421421D01*
X635600Y421517D01*
X635575Y421613D01*
X635555Y421711D01*
X635537Y421809D01*
X635524Y421907D01*
X635515Y422006D01*
X635509Y422105D01*
X635507Y422205D01*
X635508Y422204D02*
X635508Y424801D01*
X635508Y431763D02*
X644596Y429166D01*
X644596Y435657D01*
X641999Y433710D02*
X647192Y433710D01*
X547436Y406908D02*
X544839Y406908D01*
X544740Y406910D01*
X544640Y406916D01*
X544541Y406925D01*
X544443Y406938D01*
X544345Y406955D01*
X544247Y406976D01*
X544151Y407001D01*
X544056Y407029D01*
X543962Y407061D01*
X543869Y407096D01*
X543777Y407135D01*
X543687Y407178D01*
X543599Y407223D01*
X543512Y407273D01*
X543428Y407325D01*
X543345Y407381D01*
X543265Y407439D01*
X543187Y407501D01*
X543112Y407566D01*
X543039Y407634D01*
X542969Y407704D01*
X542901Y407777D01*
X542836Y407852D01*
X542774Y407930D01*
X542716Y408010D01*
X542660Y408093D01*
X542608Y408177D01*
X542558Y408264D01*
X542513Y408352D01*
X542470Y408442D01*
X542431Y408534D01*
X542396Y408627D01*
X542364Y408721D01*
X542336Y408816D01*
X542311Y408912D01*
X542290Y409010D01*
X542273Y409108D01*
X542260Y409206D01*
X542251Y409305D01*
X542245Y409405D01*
X542243Y409504D01*
X542243Y415996D01*
X542245Y416095D01*
X542251Y416195D01*
X542260Y416294D01*
X542273Y416392D01*
X542290Y416490D01*
X542311Y416588D01*
X542336Y416684D01*
X542364Y416779D01*
X542396Y416873D01*
X542431Y416966D01*
X542470Y417058D01*
X542513Y417148D01*
X542558Y417236D01*
X542608Y417323D01*
X542660Y417407D01*
X542716Y417490D01*
X542774Y417570D01*
X542836Y417648D01*
X542901Y417723D01*
X542969Y417796D01*
X543039Y417866D01*
X543112Y417934D01*
X543187Y417999D01*
X543265Y418061D01*
X543345Y418119D01*
X543428Y418175D01*
X543512Y418227D01*
X543599Y418277D01*
X543687Y418322D01*
X543777Y418365D01*
X543869Y418404D01*
X543961Y418439D01*
X544056Y418471D01*
X544151Y418499D01*
X544247Y418524D01*
X544345Y418545D01*
X544443Y418562D01*
X544541Y418575D01*
X544640Y418584D01*
X544740Y418590D01*
X544839Y418592D01*
X547436Y418592D01*
X551801Y413399D02*
X555696Y413399D01*
X555795Y413397D01*
X555895Y413391D01*
X555994Y413382D01*
X556092Y413369D01*
X556190Y413352D01*
X556288Y413331D01*
X556384Y413306D01*
X556479Y413278D01*
X556573Y413246D01*
X556666Y413211D01*
X556758Y413172D01*
X556848Y413129D01*
X556936Y413084D01*
X557023Y413034D01*
X557107Y412982D01*
X557190Y412926D01*
X557270Y412868D01*
X557348Y412806D01*
X557423Y412741D01*
X557496Y412673D01*
X557566Y412603D01*
X557634Y412530D01*
X557699Y412455D01*
X557761Y412377D01*
X557819Y412297D01*
X557875Y412214D01*
X557927Y412130D01*
X557977Y412043D01*
X558022Y411955D01*
X558065Y411865D01*
X558104Y411773D01*
X558139Y411680D01*
X558171Y411586D01*
X558199Y411491D01*
X558224Y411395D01*
X558245Y411297D01*
X558262Y411199D01*
X558275Y411101D01*
X558284Y411002D01*
X558290Y410902D01*
X558292Y410803D01*
X558292Y410154D01*
X558290Y410041D01*
X558284Y409928D01*
X558274Y409815D01*
X558260Y409702D01*
X558243Y409590D01*
X558221Y409479D01*
X558196Y409369D01*
X558166Y409259D01*
X558133Y409151D01*
X558096Y409044D01*
X558056Y408938D01*
X558011Y408834D01*
X557963Y408731D01*
X557912Y408630D01*
X557857Y408531D01*
X557799Y408434D01*
X557737Y408339D01*
X557672Y408246D01*
X557604Y408156D01*
X557533Y408068D01*
X557458Y407982D01*
X557381Y407899D01*
X557301Y407819D01*
X557218Y407742D01*
X557132Y407667D01*
X557044Y407596D01*
X556954Y407528D01*
X556861Y407463D01*
X556766Y407401D01*
X556669Y407343D01*
X556570Y407288D01*
X556469Y407237D01*
X556366Y407189D01*
X556262Y407144D01*
X556156Y407104D01*
X556049Y407067D01*
X555941Y407034D01*
X555831Y407004D01*
X555721Y406979D01*
X555610Y406957D01*
X555498Y406940D01*
X555385Y406926D01*
X555272Y406916D01*
X555159Y406910D01*
X555046Y406908D01*
X554933Y406910D01*
X554820Y406916D01*
X554707Y406926D01*
X554594Y406940D01*
X554482Y406957D01*
X554371Y406979D01*
X554261Y407004D01*
X554151Y407034D01*
X554043Y407067D01*
X553936Y407104D01*
X553830Y407144D01*
X553726Y407189D01*
X553623Y407237D01*
X553522Y407288D01*
X553423Y407343D01*
X553326Y407401D01*
X553231Y407463D01*
X553138Y407528D01*
X553048Y407596D01*
X552960Y407667D01*
X552874Y407742D01*
X552791Y407819D01*
X552711Y407899D01*
X552634Y407982D01*
X552559Y408068D01*
X552488Y408156D01*
X552420Y408246D01*
X552355Y408339D01*
X552293Y408434D01*
X552235Y408531D01*
X552180Y408630D01*
X552129Y408731D01*
X552081Y408834D01*
X552036Y408938D01*
X551996Y409044D01*
X551959Y409151D01*
X551926Y409259D01*
X551896Y409369D01*
X551871Y409479D01*
X551849Y409590D01*
X551832Y409702D01*
X551818Y409815D01*
X551808Y409928D01*
X551802Y410041D01*
X551800Y410154D01*
X551801Y410154D02*
X551801Y413399D01*
X551803Y413542D01*
X551809Y413685D01*
X551819Y413828D01*
X551833Y413970D01*
X551850Y414112D01*
X551872Y414254D01*
X551897Y414395D01*
X551927Y414535D01*
X551960Y414674D01*
X551997Y414812D01*
X552038Y414949D01*
X552082Y415085D01*
X552131Y415220D01*
X552183Y415353D01*
X552238Y415485D01*
X552298Y415615D01*
X552361Y415744D01*
X552427Y415871D01*
X552497Y415995D01*
X552570Y416118D01*
X552647Y416239D01*
X552727Y416358D01*
X552810Y416474D01*
X552896Y416589D01*
X552985Y416700D01*
X553078Y416810D01*
X553173Y416916D01*
X553272Y417020D01*
X553373Y417121D01*
X553477Y417220D01*
X553583Y417315D01*
X553693Y417408D01*
X553804Y417497D01*
X553919Y417583D01*
X554035Y417666D01*
X554154Y417746D01*
X554275Y417823D01*
X554397Y417896D01*
X554522Y417966D01*
X554649Y418032D01*
X554778Y418095D01*
X554908Y418155D01*
X555040Y418210D01*
X555173Y418262D01*
X555308Y418311D01*
X555444Y418355D01*
X555581Y418396D01*
X555719Y418433D01*
X555858Y418466D01*
X555998Y418496D01*
X556139Y418521D01*
X556281Y418543D01*
X556423Y418560D01*
X556565Y418574D01*
X556708Y418584D01*
X556851Y418590D01*
X556994Y418592D01*
D16*
X273346Y4036D02*
X267081Y4036D01*
X270214Y903D02*
X270214Y7168D01*
D17*
X273400Y26900D03*
X285400Y26900D03*
D18*
X279400Y26900D03*
D15*
X266192Y13208D02*
X254508Y13208D01*
X266192Y13208D02*
X266192Y18401D01*
X266192Y23114D02*
X266192Y28307D01*
X266192Y23114D02*
X254508Y23114D01*
X254508Y28307D01*
X259701Y27009D02*
X259701Y23114D01*
X254508Y32997D02*
X266192Y32997D01*
X254508Y32997D02*
X254508Y36243D01*
X254510Y36356D01*
X254516Y36469D01*
X254526Y36582D01*
X254540Y36695D01*
X254557Y36807D01*
X254579Y36918D01*
X254604Y37028D01*
X254634Y37138D01*
X254667Y37246D01*
X254704Y37353D01*
X254744Y37459D01*
X254789Y37563D01*
X254837Y37666D01*
X254888Y37767D01*
X254943Y37866D01*
X255001Y37963D01*
X255063Y38058D01*
X255128Y38151D01*
X255196Y38241D01*
X255267Y38329D01*
X255342Y38415D01*
X255419Y38498D01*
X255499Y38578D01*
X255582Y38655D01*
X255668Y38730D01*
X255756Y38801D01*
X255846Y38869D01*
X255939Y38934D01*
X256034Y38996D01*
X256131Y39054D01*
X256230Y39109D01*
X256331Y39160D01*
X256434Y39208D01*
X256538Y39253D01*
X256644Y39293D01*
X256751Y39330D01*
X256859Y39363D01*
X256969Y39393D01*
X257079Y39418D01*
X257190Y39440D01*
X257302Y39457D01*
X257415Y39471D01*
X257528Y39481D01*
X257641Y39487D01*
X257754Y39489D01*
X262946Y39489D01*
X263059Y39487D01*
X263172Y39481D01*
X263285Y39471D01*
X263398Y39457D01*
X263510Y39440D01*
X263621Y39418D01*
X263731Y39393D01*
X263841Y39363D01*
X263949Y39330D01*
X264056Y39293D01*
X264162Y39253D01*
X264266Y39208D01*
X264369Y39160D01*
X264470Y39109D01*
X264569Y39054D01*
X264666Y38996D01*
X264761Y38934D01*
X264854Y38869D01*
X264944Y38801D01*
X265032Y38730D01*
X265118Y38655D01*
X265201Y38578D01*
X265281Y38498D01*
X265358Y38415D01*
X265433Y38329D01*
X265504Y38241D01*
X265572Y38151D01*
X265637Y38058D01*
X265699Y37963D01*
X265757Y37866D01*
X265812Y37767D01*
X265863Y37666D01*
X265911Y37563D01*
X265956Y37459D01*
X265996Y37353D01*
X266033Y37246D01*
X266066Y37138D01*
X266096Y37028D01*
X266121Y36918D01*
X266143Y36807D01*
X266160Y36695D01*
X266174Y36582D01*
X266184Y36469D01*
X266190Y36356D01*
X266192Y36243D01*
X266192Y32997D01*
X254508Y48378D02*
X254510Y48485D01*
X254516Y48591D01*
X254526Y48697D01*
X254539Y48803D01*
X254557Y48909D01*
X254578Y49013D01*
X254603Y49117D01*
X254632Y49220D01*
X254664Y49321D01*
X254701Y49421D01*
X254741Y49520D01*
X254784Y49618D01*
X254831Y49714D01*
X254882Y49808D01*
X254936Y49900D01*
X254993Y49990D01*
X255053Y50078D01*
X255117Y50163D01*
X255184Y50246D01*
X255254Y50327D01*
X255326Y50405D01*
X255402Y50481D01*
X255480Y50553D01*
X255561Y50623D01*
X255644Y50690D01*
X255729Y50754D01*
X255817Y50814D01*
X255907Y50871D01*
X255999Y50925D01*
X256093Y50976D01*
X256189Y51023D01*
X256287Y51066D01*
X256386Y51106D01*
X256486Y51143D01*
X256587Y51175D01*
X256690Y51204D01*
X256794Y51229D01*
X256898Y51250D01*
X257004Y51268D01*
X257110Y51281D01*
X257216Y51291D01*
X257322Y51297D01*
X257429Y51299D01*
X254508Y48378D02*
X254510Y48257D01*
X254516Y48136D01*
X254526Y48016D01*
X254539Y47895D01*
X254557Y47776D01*
X254578Y47656D01*
X254603Y47538D01*
X254632Y47421D01*
X254665Y47304D01*
X254701Y47189D01*
X254742Y47075D01*
X254785Y46962D01*
X254833Y46850D01*
X254884Y46741D01*
X254939Y46633D01*
X254997Y46526D01*
X255058Y46422D01*
X255123Y46320D01*
X255191Y46220D01*
X255262Y46122D01*
X255336Y46026D01*
X255413Y45933D01*
X255494Y45843D01*
X255577Y45755D01*
X255663Y45670D01*
X255752Y45587D01*
X255843Y45508D01*
X255937Y45431D01*
X256033Y45358D01*
X256131Y45288D01*
X256232Y45221D01*
X256335Y45157D01*
X256440Y45097D01*
X256547Y45039D01*
X256655Y44986D01*
X256765Y44936D01*
X256877Y44890D01*
X256990Y44847D01*
X257105Y44808D01*
X259701Y50325D02*
X259623Y50404D01*
X259543Y50480D01*
X259460Y50553D01*
X259374Y50623D01*
X259287Y50690D01*
X259196Y50754D01*
X259104Y50814D01*
X259010Y50872D01*
X258913Y50926D01*
X258815Y50976D01*
X258715Y51023D01*
X258614Y51067D01*
X258511Y51107D01*
X258406Y51143D01*
X258301Y51175D01*
X258194Y51204D01*
X258087Y51229D01*
X257978Y51251D01*
X257869Y51268D01*
X257760Y51282D01*
X257650Y51291D01*
X257539Y51297D01*
X257429Y51299D01*
X259701Y50326D02*
X266192Y44808D01*
X266192Y51299D01*
D16*
X317881Y4036D02*
X324146Y4036D01*
X321014Y7168D02*
X321014Y903D01*
D17*
X324200Y26900D03*
X336200Y26900D03*
D18*
X330200Y26900D03*
D15*
X316992Y13208D02*
X305308Y13208D01*
X316992Y13208D02*
X316992Y18401D01*
X316992Y23114D02*
X316992Y28307D01*
X316992Y23114D02*
X305308Y23114D01*
X305308Y28307D01*
X310501Y27009D02*
X310501Y23114D01*
X305308Y32997D02*
X316992Y32997D01*
X305308Y32997D02*
X305308Y36243D01*
X305310Y36356D01*
X305316Y36469D01*
X305326Y36582D01*
X305340Y36695D01*
X305357Y36807D01*
X305379Y36918D01*
X305404Y37028D01*
X305434Y37138D01*
X305467Y37246D01*
X305504Y37353D01*
X305544Y37459D01*
X305589Y37563D01*
X305637Y37666D01*
X305688Y37767D01*
X305743Y37866D01*
X305801Y37963D01*
X305863Y38058D01*
X305928Y38151D01*
X305996Y38241D01*
X306067Y38329D01*
X306142Y38415D01*
X306219Y38498D01*
X306299Y38578D01*
X306382Y38655D01*
X306468Y38730D01*
X306556Y38801D01*
X306646Y38869D01*
X306739Y38934D01*
X306834Y38996D01*
X306931Y39054D01*
X307030Y39109D01*
X307131Y39160D01*
X307234Y39208D01*
X307338Y39253D01*
X307444Y39293D01*
X307551Y39330D01*
X307659Y39363D01*
X307769Y39393D01*
X307879Y39418D01*
X307990Y39440D01*
X308102Y39457D01*
X308215Y39471D01*
X308328Y39481D01*
X308441Y39487D01*
X308554Y39489D01*
X313746Y39489D01*
X313859Y39487D01*
X313972Y39481D01*
X314085Y39471D01*
X314198Y39457D01*
X314310Y39440D01*
X314421Y39418D01*
X314531Y39393D01*
X314641Y39363D01*
X314749Y39330D01*
X314856Y39293D01*
X314962Y39253D01*
X315066Y39208D01*
X315169Y39160D01*
X315270Y39109D01*
X315369Y39054D01*
X315466Y38996D01*
X315561Y38934D01*
X315654Y38869D01*
X315744Y38801D01*
X315832Y38730D01*
X315918Y38655D01*
X316001Y38578D01*
X316081Y38498D01*
X316158Y38415D01*
X316233Y38329D01*
X316304Y38241D01*
X316372Y38151D01*
X316437Y38058D01*
X316499Y37963D01*
X316557Y37866D01*
X316612Y37767D01*
X316663Y37666D01*
X316711Y37563D01*
X316756Y37459D01*
X316796Y37353D01*
X316833Y37246D01*
X316866Y37138D01*
X316896Y37028D01*
X316921Y36918D01*
X316943Y36807D01*
X316960Y36695D01*
X316974Y36582D01*
X316984Y36469D01*
X316990Y36356D01*
X316992Y36243D01*
X316992Y32997D01*
X316992Y44808D02*
X316992Y48054D01*
X316990Y48167D01*
X316984Y48280D01*
X316974Y48393D01*
X316960Y48506D01*
X316943Y48618D01*
X316921Y48729D01*
X316896Y48839D01*
X316866Y48949D01*
X316833Y49057D01*
X316796Y49164D01*
X316756Y49270D01*
X316711Y49374D01*
X316663Y49477D01*
X316612Y49578D01*
X316557Y49677D01*
X316499Y49774D01*
X316437Y49869D01*
X316372Y49962D01*
X316304Y50052D01*
X316233Y50140D01*
X316158Y50226D01*
X316081Y50309D01*
X316001Y50389D01*
X315918Y50466D01*
X315832Y50541D01*
X315744Y50612D01*
X315654Y50680D01*
X315561Y50745D01*
X315466Y50807D01*
X315369Y50865D01*
X315270Y50920D01*
X315169Y50971D01*
X315066Y51019D01*
X314962Y51064D01*
X314856Y51104D01*
X314749Y51141D01*
X314641Y51174D01*
X314531Y51204D01*
X314421Y51229D01*
X314310Y51251D01*
X314198Y51268D01*
X314085Y51282D01*
X313972Y51292D01*
X313859Y51298D01*
X313746Y51300D01*
X313633Y51298D01*
X313520Y51292D01*
X313407Y51282D01*
X313294Y51268D01*
X313182Y51251D01*
X313071Y51229D01*
X312961Y51204D01*
X312851Y51174D01*
X312743Y51141D01*
X312636Y51104D01*
X312530Y51064D01*
X312426Y51019D01*
X312323Y50971D01*
X312222Y50920D01*
X312123Y50865D01*
X312026Y50807D01*
X311931Y50745D01*
X311838Y50680D01*
X311748Y50612D01*
X311660Y50541D01*
X311574Y50466D01*
X311491Y50389D01*
X311411Y50309D01*
X311334Y50226D01*
X311259Y50140D01*
X311188Y50052D01*
X311120Y49962D01*
X311055Y49869D01*
X310993Y49774D01*
X310935Y49677D01*
X310880Y49578D01*
X310829Y49477D01*
X310781Y49374D01*
X310736Y49270D01*
X310696Y49164D01*
X310659Y49057D01*
X310626Y48949D01*
X310596Y48839D01*
X310571Y48729D01*
X310549Y48618D01*
X310532Y48506D01*
X310518Y48393D01*
X310508Y48280D01*
X310502Y48167D01*
X310500Y48054D01*
X305308Y48703D02*
X305308Y44808D01*
X305308Y48703D02*
X305310Y48804D01*
X305316Y48904D01*
X305326Y49004D01*
X305339Y49104D01*
X305357Y49203D01*
X305378Y49302D01*
X305403Y49399D01*
X305432Y49496D01*
X305465Y49591D01*
X305501Y49685D01*
X305541Y49777D01*
X305584Y49868D01*
X305631Y49957D01*
X305681Y50044D01*
X305735Y50130D01*
X305792Y50213D01*
X305852Y50293D01*
X305915Y50372D01*
X305982Y50448D01*
X306051Y50521D01*
X306123Y50591D01*
X306197Y50659D01*
X306274Y50724D01*
X306354Y50785D01*
X306436Y50844D01*
X306520Y50899D01*
X306606Y50951D01*
X306694Y51000D01*
X306784Y51045D01*
X306876Y51087D01*
X306969Y51125D01*
X307064Y51159D01*
X307159Y51190D01*
X307256Y51217D01*
X307354Y51240D01*
X307453Y51260D01*
X307553Y51275D01*
X307653Y51287D01*
X307753Y51295D01*
X307854Y51299D01*
X307954Y51299D01*
X308055Y51295D01*
X308155Y51287D01*
X308255Y51275D01*
X308355Y51260D01*
X308454Y51240D01*
X308552Y51217D01*
X308649Y51190D01*
X308744Y51159D01*
X308839Y51125D01*
X308932Y51087D01*
X309024Y51045D01*
X309114Y51000D01*
X309202Y50951D01*
X309288Y50899D01*
X309372Y50844D01*
X309454Y50785D01*
X309534Y50724D01*
X309611Y50659D01*
X309685Y50591D01*
X309757Y50521D01*
X309826Y50448D01*
X309893Y50372D01*
X309956Y50293D01*
X310016Y50213D01*
X310073Y50130D01*
X310127Y50044D01*
X310177Y49957D01*
X310224Y49868D01*
X310267Y49777D01*
X310307Y49685D01*
X310343Y49591D01*
X310376Y49496D01*
X310405Y49399D01*
X310430Y49302D01*
X310451Y49203D01*
X310469Y49104D01*
X310482Y49004D01*
X310492Y48904D01*
X310498Y48804D01*
X310500Y48703D01*
X310501Y48703D02*
X310501Y46107D01*
D16*
X368681Y4036D02*
X374946Y4036D01*
X371814Y7168D02*
X371814Y903D01*
D17*
X375000Y26900D03*
X387000Y26900D03*
D18*
X381000Y26900D03*
D15*
X367792Y13208D02*
X356108Y13208D01*
X367792Y13208D02*
X367792Y18401D01*
X367792Y23114D02*
X367792Y28307D01*
X367792Y23114D02*
X356108Y23114D01*
X356108Y28307D01*
X361301Y27009D02*
X361301Y23114D01*
X356108Y32997D02*
X367792Y32997D01*
X356108Y32997D02*
X356108Y36243D01*
X356110Y36356D01*
X356116Y36469D01*
X356126Y36582D01*
X356140Y36695D01*
X356157Y36807D01*
X356179Y36918D01*
X356204Y37028D01*
X356234Y37138D01*
X356267Y37246D01*
X356304Y37353D01*
X356344Y37459D01*
X356389Y37563D01*
X356437Y37666D01*
X356488Y37767D01*
X356543Y37866D01*
X356601Y37963D01*
X356663Y38058D01*
X356728Y38151D01*
X356796Y38241D01*
X356867Y38329D01*
X356942Y38415D01*
X357019Y38498D01*
X357099Y38578D01*
X357182Y38655D01*
X357268Y38730D01*
X357356Y38801D01*
X357446Y38869D01*
X357539Y38934D01*
X357634Y38996D01*
X357731Y39054D01*
X357830Y39109D01*
X357931Y39160D01*
X358034Y39208D01*
X358138Y39253D01*
X358244Y39293D01*
X358351Y39330D01*
X358459Y39363D01*
X358569Y39393D01*
X358679Y39418D01*
X358790Y39440D01*
X358902Y39457D01*
X359015Y39471D01*
X359128Y39481D01*
X359241Y39487D01*
X359354Y39489D01*
X364546Y39489D01*
X364659Y39487D01*
X364772Y39481D01*
X364885Y39471D01*
X364998Y39457D01*
X365110Y39440D01*
X365221Y39418D01*
X365331Y39393D01*
X365441Y39363D01*
X365549Y39330D01*
X365656Y39293D01*
X365762Y39253D01*
X365866Y39208D01*
X365969Y39160D01*
X366070Y39109D01*
X366169Y39054D01*
X366266Y38996D01*
X366361Y38934D01*
X366454Y38869D01*
X366544Y38801D01*
X366632Y38730D01*
X366718Y38655D01*
X366801Y38578D01*
X366881Y38498D01*
X366958Y38415D01*
X367033Y38329D01*
X367104Y38241D01*
X367172Y38151D01*
X367237Y38058D01*
X367299Y37963D01*
X367357Y37866D01*
X367412Y37767D01*
X367463Y37666D01*
X367511Y37563D01*
X367556Y37459D01*
X367596Y37353D01*
X367633Y37246D01*
X367666Y37138D01*
X367696Y37028D01*
X367721Y36918D01*
X367743Y36807D01*
X367760Y36695D01*
X367774Y36582D01*
X367784Y36469D01*
X367790Y36356D01*
X367792Y36243D01*
X367792Y32997D01*
X365196Y44808D02*
X356108Y47405D01*
X365196Y44808D02*
X365196Y51299D01*
X362599Y49352D02*
X367792Y49352D01*
D19*
X431800Y26400D03*
D15*
X418592Y13208D02*
X406908Y13208D01*
X418592Y13208D02*
X418592Y18401D01*
X418592Y23114D02*
X418592Y28307D01*
X418592Y23114D02*
X406908Y23114D01*
X406908Y28307D01*
X412101Y27009D02*
X412101Y23114D01*
X406908Y32997D02*
X418592Y32997D01*
X406908Y32997D02*
X406908Y36243D01*
X406910Y36356D01*
X406916Y36469D01*
X406926Y36582D01*
X406940Y36695D01*
X406957Y36807D01*
X406979Y36918D01*
X407004Y37028D01*
X407034Y37138D01*
X407067Y37246D01*
X407104Y37353D01*
X407144Y37459D01*
X407189Y37563D01*
X407237Y37666D01*
X407288Y37767D01*
X407343Y37866D01*
X407401Y37963D01*
X407463Y38058D01*
X407528Y38151D01*
X407596Y38241D01*
X407667Y38329D01*
X407742Y38415D01*
X407819Y38498D01*
X407899Y38578D01*
X407982Y38655D01*
X408068Y38730D01*
X408156Y38801D01*
X408246Y38869D01*
X408339Y38934D01*
X408434Y38996D01*
X408531Y39054D01*
X408630Y39109D01*
X408731Y39160D01*
X408834Y39208D01*
X408938Y39253D01*
X409044Y39293D01*
X409151Y39330D01*
X409259Y39363D01*
X409369Y39393D01*
X409479Y39418D01*
X409590Y39440D01*
X409702Y39457D01*
X409815Y39471D01*
X409928Y39481D01*
X410041Y39487D01*
X410154Y39489D01*
X415346Y39489D01*
X415459Y39487D01*
X415572Y39481D01*
X415685Y39471D01*
X415798Y39457D01*
X415910Y39440D01*
X416021Y39418D01*
X416131Y39393D01*
X416241Y39363D01*
X416349Y39330D01*
X416456Y39293D01*
X416562Y39253D01*
X416666Y39208D01*
X416769Y39160D01*
X416870Y39109D01*
X416969Y39054D01*
X417066Y38996D01*
X417161Y38934D01*
X417254Y38869D01*
X417344Y38801D01*
X417432Y38730D01*
X417518Y38655D01*
X417601Y38578D01*
X417681Y38498D01*
X417758Y38415D01*
X417833Y38329D01*
X417904Y38241D01*
X417972Y38151D01*
X418037Y38058D01*
X418099Y37963D01*
X418157Y37866D01*
X418212Y37767D01*
X418263Y37666D01*
X418311Y37563D01*
X418356Y37459D01*
X418396Y37353D01*
X418433Y37246D01*
X418466Y37138D01*
X418496Y37028D01*
X418521Y36918D01*
X418543Y36807D01*
X418560Y36695D01*
X418574Y36582D01*
X418584Y36469D01*
X418590Y36356D01*
X418592Y36243D01*
X418592Y32997D01*
X413399Y47405D02*
X413399Y51299D01*
X413399Y47405D02*
X413397Y47306D01*
X413391Y47206D01*
X413382Y47107D01*
X413369Y47009D01*
X413352Y46911D01*
X413331Y46813D01*
X413306Y46717D01*
X413278Y46622D01*
X413246Y46528D01*
X413211Y46435D01*
X413172Y46343D01*
X413129Y46253D01*
X413084Y46165D01*
X413034Y46078D01*
X412982Y45994D01*
X412926Y45911D01*
X412868Y45831D01*
X412806Y45753D01*
X412741Y45678D01*
X412673Y45605D01*
X412603Y45535D01*
X412530Y45467D01*
X412455Y45402D01*
X412377Y45340D01*
X412297Y45282D01*
X412214Y45226D01*
X412130Y45174D01*
X412043Y45124D01*
X411955Y45079D01*
X411865Y45036D01*
X411773Y44997D01*
X411680Y44962D01*
X411586Y44930D01*
X411491Y44902D01*
X411395Y44877D01*
X411297Y44856D01*
X411199Y44839D01*
X411101Y44826D01*
X411002Y44817D01*
X410902Y44811D01*
X410803Y44809D01*
X410803Y44808D02*
X410154Y44808D01*
X410041Y44810D01*
X409928Y44816D01*
X409815Y44826D01*
X409702Y44840D01*
X409590Y44857D01*
X409479Y44879D01*
X409369Y44904D01*
X409259Y44934D01*
X409151Y44967D01*
X409044Y45004D01*
X408938Y45044D01*
X408834Y45089D01*
X408731Y45137D01*
X408630Y45188D01*
X408531Y45243D01*
X408434Y45301D01*
X408339Y45363D01*
X408246Y45428D01*
X408156Y45496D01*
X408068Y45567D01*
X407982Y45642D01*
X407899Y45719D01*
X407819Y45799D01*
X407742Y45882D01*
X407667Y45968D01*
X407596Y46056D01*
X407528Y46146D01*
X407463Y46239D01*
X407401Y46334D01*
X407343Y46431D01*
X407288Y46530D01*
X407237Y46631D01*
X407189Y46734D01*
X407144Y46838D01*
X407104Y46944D01*
X407067Y47051D01*
X407034Y47159D01*
X407004Y47269D01*
X406979Y47379D01*
X406957Y47490D01*
X406940Y47602D01*
X406926Y47715D01*
X406916Y47828D01*
X406910Y47941D01*
X406908Y48054D01*
X406910Y48167D01*
X406916Y48280D01*
X406926Y48393D01*
X406940Y48506D01*
X406957Y48618D01*
X406979Y48729D01*
X407004Y48839D01*
X407034Y48949D01*
X407067Y49057D01*
X407104Y49164D01*
X407144Y49270D01*
X407189Y49374D01*
X407237Y49477D01*
X407288Y49578D01*
X407343Y49677D01*
X407401Y49774D01*
X407463Y49869D01*
X407528Y49962D01*
X407596Y50052D01*
X407667Y50140D01*
X407742Y50226D01*
X407819Y50309D01*
X407899Y50389D01*
X407982Y50466D01*
X408068Y50541D01*
X408156Y50612D01*
X408246Y50680D01*
X408339Y50745D01*
X408434Y50807D01*
X408531Y50865D01*
X408630Y50920D01*
X408731Y50971D01*
X408834Y51019D01*
X408938Y51064D01*
X409044Y51104D01*
X409151Y51141D01*
X409259Y51174D01*
X409369Y51204D01*
X409479Y51229D01*
X409590Y51251D01*
X409702Y51268D01*
X409815Y51282D01*
X409928Y51292D01*
X410041Y51298D01*
X410154Y51300D01*
X410154Y51299D02*
X413399Y51299D01*
X413399Y51300D02*
X413542Y51298D01*
X413685Y51292D01*
X413828Y51282D01*
X413970Y51268D01*
X414112Y51251D01*
X414254Y51229D01*
X414395Y51204D01*
X414535Y51174D01*
X414674Y51141D01*
X414812Y51104D01*
X414949Y51063D01*
X415085Y51019D01*
X415220Y50970D01*
X415353Y50918D01*
X415485Y50863D01*
X415615Y50803D01*
X415744Y50740D01*
X415871Y50674D01*
X415996Y50604D01*
X416118Y50531D01*
X416239Y50454D01*
X416358Y50374D01*
X416474Y50291D01*
X416589Y50205D01*
X416700Y50116D01*
X416810Y50023D01*
X416916Y49928D01*
X417020Y49829D01*
X417121Y49728D01*
X417220Y49624D01*
X417315Y49518D01*
X417408Y49408D01*
X417497Y49297D01*
X417583Y49182D01*
X417666Y49066D01*
X417746Y48947D01*
X417823Y48826D01*
X417896Y48704D01*
X417966Y48579D01*
X418032Y48452D01*
X418095Y48323D01*
X418155Y48193D01*
X418210Y48061D01*
X418262Y47928D01*
X418311Y47793D01*
X418355Y47657D01*
X418396Y47520D01*
X418433Y47382D01*
X418466Y47243D01*
X418496Y47103D01*
X418521Y46962D01*
X418543Y46820D01*
X418560Y46678D01*
X418574Y46536D01*
X418584Y46393D01*
X418590Y46250D01*
X418592Y46107D01*
D16*
X470281Y4036D02*
X476546Y4036D01*
X473414Y7168D02*
X473414Y903D01*
D17*
X476600Y26900D03*
X488600Y26900D03*
D18*
X482600Y26900D03*
D15*
X469392Y13208D02*
X457708Y13208D01*
X469392Y13208D02*
X469392Y18401D01*
X469392Y23114D02*
X469392Y28307D01*
X469392Y23114D02*
X457708Y23114D01*
X457708Y28307D01*
X462901Y27009D02*
X462901Y23114D01*
X457708Y32997D02*
X469392Y32997D01*
X457708Y32997D02*
X457708Y36243D01*
X457710Y36356D01*
X457716Y36469D01*
X457726Y36582D01*
X457740Y36695D01*
X457757Y36807D01*
X457779Y36918D01*
X457804Y37028D01*
X457834Y37138D01*
X457867Y37246D01*
X457904Y37353D01*
X457944Y37459D01*
X457989Y37563D01*
X458037Y37666D01*
X458088Y37767D01*
X458143Y37866D01*
X458201Y37963D01*
X458263Y38058D01*
X458328Y38151D01*
X458396Y38241D01*
X458467Y38329D01*
X458542Y38415D01*
X458619Y38498D01*
X458699Y38578D01*
X458782Y38655D01*
X458868Y38730D01*
X458956Y38801D01*
X459046Y38869D01*
X459139Y38934D01*
X459234Y38996D01*
X459331Y39054D01*
X459430Y39109D01*
X459531Y39160D01*
X459634Y39208D01*
X459738Y39253D01*
X459844Y39293D01*
X459951Y39330D01*
X460059Y39363D01*
X460169Y39393D01*
X460279Y39418D01*
X460390Y39440D01*
X460502Y39457D01*
X460615Y39471D01*
X460728Y39481D01*
X460841Y39487D01*
X460954Y39489D01*
X466146Y39489D01*
X466259Y39487D01*
X466372Y39481D01*
X466485Y39471D01*
X466598Y39457D01*
X466710Y39440D01*
X466821Y39418D01*
X466931Y39393D01*
X467041Y39363D01*
X467149Y39330D01*
X467256Y39293D01*
X467362Y39253D01*
X467466Y39208D01*
X467569Y39160D01*
X467670Y39109D01*
X467769Y39054D01*
X467866Y38996D01*
X467961Y38934D01*
X468054Y38869D01*
X468144Y38801D01*
X468232Y38730D01*
X468318Y38655D01*
X468401Y38578D01*
X468481Y38498D01*
X468558Y38415D01*
X468633Y38329D01*
X468704Y38241D01*
X468772Y38151D01*
X468837Y38058D01*
X468899Y37963D01*
X468957Y37866D01*
X469012Y37767D01*
X469063Y37666D01*
X469111Y37563D01*
X469156Y37459D01*
X469196Y37353D01*
X469233Y37246D01*
X469266Y37138D01*
X469296Y37028D01*
X469321Y36918D01*
X469343Y36807D01*
X469360Y36695D01*
X469374Y36582D01*
X469384Y36469D01*
X469390Y36356D01*
X469392Y36243D01*
X469392Y32997D01*
X469392Y44808D02*
X469392Y48703D01*
X469390Y48802D01*
X469384Y48902D01*
X469375Y49001D01*
X469362Y49099D01*
X469345Y49197D01*
X469324Y49295D01*
X469299Y49391D01*
X469271Y49486D01*
X469239Y49580D01*
X469204Y49673D01*
X469165Y49765D01*
X469122Y49855D01*
X469077Y49943D01*
X469027Y50030D01*
X468975Y50114D01*
X468919Y50197D01*
X468861Y50277D01*
X468799Y50355D01*
X468734Y50430D01*
X468666Y50503D01*
X468596Y50573D01*
X468523Y50641D01*
X468448Y50706D01*
X468370Y50768D01*
X468290Y50826D01*
X468207Y50882D01*
X468123Y50934D01*
X468036Y50984D01*
X467948Y51029D01*
X467858Y51072D01*
X467766Y51111D01*
X467673Y51146D01*
X467579Y51178D01*
X467484Y51206D01*
X467388Y51231D01*
X467290Y51252D01*
X467192Y51269D01*
X467094Y51282D01*
X466995Y51291D01*
X466895Y51297D01*
X466796Y51299D01*
X465497Y51299D01*
X465398Y51297D01*
X465298Y51291D01*
X465199Y51282D01*
X465101Y51269D01*
X465003Y51252D01*
X464905Y51231D01*
X464809Y51206D01*
X464714Y51178D01*
X464620Y51146D01*
X464527Y51111D01*
X464435Y51072D01*
X464345Y51029D01*
X464257Y50984D01*
X464170Y50934D01*
X464086Y50882D01*
X464003Y50826D01*
X463923Y50768D01*
X463845Y50706D01*
X463770Y50641D01*
X463697Y50573D01*
X463627Y50503D01*
X463559Y50430D01*
X463494Y50355D01*
X463432Y50277D01*
X463374Y50197D01*
X463318Y50114D01*
X463266Y50030D01*
X463216Y49943D01*
X463171Y49855D01*
X463128Y49765D01*
X463089Y49673D01*
X463054Y49580D01*
X463022Y49486D01*
X462994Y49391D01*
X462969Y49295D01*
X462948Y49197D01*
X462931Y49099D01*
X462918Y49001D01*
X462909Y48902D01*
X462903Y48802D01*
X462901Y48703D01*
X462901Y44808D01*
X457708Y44808D01*
X457708Y51299D01*
D16*
X521081Y4036D02*
X527346Y4036D01*
X524214Y7168D02*
X524214Y903D01*
D17*
X527400Y26900D03*
X539400Y26900D03*
D18*
X533400Y26900D03*
D15*
X520192Y13208D02*
X508508Y13208D01*
X520192Y13208D02*
X520192Y18401D01*
X520192Y23114D02*
X520192Y28307D01*
X520192Y23114D02*
X508508Y23114D01*
X508508Y28307D01*
X513701Y27009D02*
X513701Y23114D01*
X508508Y32997D02*
X520192Y32997D01*
X508508Y32997D02*
X508508Y36243D01*
X508510Y36356D01*
X508516Y36469D01*
X508526Y36582D01*
X508540Y36695D01*
X508557Y36807D01*
X508579Y36918D01*
X508604Y37028D01*
X508634Y37138D01*
X508667Y37246D01*
X508704Y37353D01*
X508744Y37459D01*
X508789Y37563D01*
X508837Y37666D01*
X508888Y37767D01*
X508943Y37866D01*
X509001Y37963D01*
X509063Y38058D01*
X509128Y38151D01*
X509196Y38241D01*
X509267Y38329D01*
X509342Y38415D01*
X509419Y38498D01*
X509499Y38578D01*
X509582Y38655D01*
X509668Y38730D01*
X509756Y38801D01*
X509846Y38869D01*
X509939Y38934D01*
X510034Y38996D01*
X510131Y39054D01*
X510230Y39109D01*
X510331Y39160D01*
X510434Y39208D01*
X510538Y39253D01*
X510644Y39293D01*
X510751Y39330D01*
X510859Y39363D01*
X510969Y39393D01*
X511079Y39418D01*
X511190Y39440D01*
X511302Y39457D01*
X511415Y39471D01*
X511528Y39481D01*
X511641Y39487D01*
X511754Y39489D01*
X516946Y39489D01*
X517059Y39487D01*
X517172Y39481D01*
X517285Y39471D01*
X517398Y39457D01*
X517510Y39440D01*
X517621Y39418D01*
X517731Y39393D01*
X517841Y39363D01*
X517949Y39330D01*
X518056Y39293D01*
X518162Y39253D01*
X518266Y39208D01*
X518369Y39160D01*
X518470Y39109D01*
X518569Y39054D01*
X518666Y38996D01*
X518761Y38934D01*
X518854Y38869D01*
X518944Y38801D01*
X519032Y38730D01*
X519118Y38655D01*
X519201Y38578D01*
X519281Y38498D01*
X519358Y38415D01*
X519433Y38329D01*
X519504Y38241D01*
X519572Y38151D01*
X519637Y38058D01*
X519699Y37963D01*
X519757Y37866D01*
X519812Y37767D01*
X519863Y37666D01*
X519911Y37563D01*
X519956Y37459D01*
X519996Y37353D01*
X520033Y37246D01*
X520066Y37138D01*
X520096Y37028D01*
X520121Y36918D01*
X520143Y36807D01*
X520160Y36695D01*
X520174Y36582D01*
X520184Y36469D01*
X520190Y36356D01*
X520192Y36243D01*
X520192Y32997D01*
X513701Y44808D02*
X513701Y48703D01*
X513703Y48802D01*
X513709Y48902D01*
X513718Y49001D01*
X513731Y49099D01*
X513748Y49197D01*
X513769Y49295D01*
X513794Y49391D01*
X513822Y49486D01*
X513854Y49580D01*
X513889Y49673D01*
X513928Y49765D01*
X513971Y49855D01*
X514016Y49943D01*
X514066Y50030D01*
X514118Y50114D01*
X514174Y50197D01*
X514232Y50277D01*
X514294Y50355D01*
X514359Y50430D01*
X514427Y50503D01*
X514497Y50573D01*
X514570Y50641D01*
X514645Y50706D01*
X514723Y50768D01*
X514803Y50826D01*
X514886Y50882D01*
X514970Y50934D01*
X515057Y50984D01*
X515145Y51029D01*
X515235Y51072D01*
X515327Y51111D01*
X515420Y51146D01*
X515514Y51178D01*
X515609Y51206D01*
X515705Y51231D01*
X515803Y51252D01*
X515901Y51269D01*
X515999Y51282D01*
X516098Y51291D01*
X516198Y51297D01*
X516297Y51299D01*
X516946Y51299D01*
X516946Y51300D02*
X517059Y51298D01*
X517172Y51292D01*
X517285Y51282D01*
X517398Y51268D01*
X517510Y51251D01*
X517621Y51229D01*
X517731Y51204D01*
X517841Y51174D01*
X517949Y51141D01*
X518056Y51104D01*
X518162Y51064D01*
X518266Y51019D01*
X518369Y50971D01*
X518470Y50920D01*
X518569Y50865D01*
X518666Y50807D01*
X518761Y50745D01*
X518854Y50680D01*
X518944Y50612D01*
X519032Y50541D01*
X519118Y50466D01*
X519201Y50389D01*
X519281Y50309D01*
X519358Y50226D01*
X519433Y50140D01*
X519504Y50052D01*
X519572Y49962D01*
X519637Y49869D01*
X519699Y49774D01*
X519757Y49677D01*
X519812Y49578D01*
X519863Y49477D01*
X519911Y49374D01*
X519956Y49270D01*
X519996Y49164D01*
X520033Y49057D01*
X520066Y48949D01*
X520096Y48839D01*
X520121Y48729D01*
X520143Y48618D01*
X520160Y48506D01*
X520174Y48393D01*
X520184Y48280D01*
X520190Y48167D01*
X520192Y48054D01*
X520190Y47941D01*
X520184Y47828D01*
X520174Y47715D01*
X520160Y47602D01*
X520143Y47490D01*
X520121Y47379D01*
X520096Y47269D01*
X520066Y47159D01*
X520033Y47051D01*
X519996Y46944D01*
X519956Y46838D01*
X519911Y46734D01*
X519863Y46631D01*
X519812Y46530D01*
X519757Y46431D01*
X519699Y46334D01*
X519637Y46239D01*
X519572Y46146D01*
X519504Y46056D01*
X519433Y45968D01*
X519358Y45882D01*
X519281Y45799D01*
X519201Y45719D01*
X519118Y45642D01*
X519032Y45567D01*
X518944Y45496D01*
X518854Y45428D01*
X518761Y45363D01*
X518666Y45301D01*
X518569Y45243D01*
X518470Y45188D01*
X518369Y45137D01*
X518266Y45089D01*
X518162Y45044D01*
X518056Y45004D01*
X517949Y44967D01*
X517841Y44934D01*
X517731Y44904D01*
X517621Y44879D01*
X517510Y44857D01*
X517398Y44840D01*
X517285Y44826D01*
X517172Y44816D01*
X517059Y44810D01*
X516946Y44808D01*
X513701Y44808D01*
X513558Y44810D01*
X513415Y44816D01*
X513272Y44826D01*
X513130Y44840D01*
X512988Y44857D01*
X512846Y44879D01*
X512705Y44904D01*
X512565Y44934D01*
X512426Y44967D01*
X512288Y45004D01*
X512151Y45045D01*
X512015Y45089D01*
X511880Y45138D01*
X511747Y45190D01*
X511615Y45245D01*
X511485Y45305D01*
X511356Y45368D01*
X511229Y45434D01*
X511105Y45504D01*
X510982Y45577D01*
X510861Y45654D01*
X510742Y45733D01*
X510626Y45817D01*
X510511Y45903D01*
X510400Y45992D01*
X510291Y46085D01*
X510184Y46180D01*
X510080Y46279D01*
X509979Y46380D01*
X509880Y46484D01*
X509785Y46590D01*
X509692Y46700D01*
X509603Y46811D01*
X509517Y46925D01*
X509434Y47042D01*
X509354Y47161D01*
X509277Y47282D01*
X509204Y47404D01*
X509134Y47529D01*
X509068Y47656D01*
X509005Y47785D01*
X508945Y47915D01*
X508890Y48047D01*
X508838Y48180D01*
X508789Y48315D01*
X508745Y48451D01*
X508704Y48588D01*
X508667Y48726D01*
X508634Y48865D01*
X508604Y49005D01*
X508579Y49146D01*
X508557Y49288D01*
X508540Y49430D01*
X508526Y49572D01*
X508516Y49715D01*
X508510Y49858D01*
X508508Y50001D01*
D16*
X571881Y4036D02*
X578146Y4036D01*
X575014Y7168D02*
X575014Y903D01*
D17*
X578200Y26900D03*
X590200Y26900D03*
D18*
X584200Y26900D03*
D15*
X570992Y13208D02*
X559308Y13208D01*
X570992Y13208D02*
X570992Y18401D01*
X570992Y23114D02*
X570992Y28307D01*
X570992Y23114D02*
X559308Y23114D01*
X559308Y28307D01*
X564501Y27009D02*
X564501Y23114D01*
X559308Y32997D02*
X570992Y32997D01*
X559308Y32997D02*
X559308Y36243D01*
X559310Y36356D01*
X559316Y36469D01*
X559326Y36582D01*
X559340Y36695D01*
X559357Y36807D01*
X559379Y36918D01*
X559404Y37028D01*
X559434Y37138D01*
X559467Y37246D01*
X559504Y37353D01*
X559544Y37459D01*
X559589Y37563D01*
X559637Y37666D01*
X559688Y37767D01*
X559743Y37866D01*
X559801Y37963D01*
X559863Y38058D01*
X559928Y38151D01*
X559996Y38241D01*
X560067Y38329D01*
X560142Y38415D01*
X560219Y38498D01*
X560299Y38578D01*
X560382Y38655D01*
X560468Y38730D01*
X560556Y38801D01*
X560646Y38869D01*
X560739Y38934D01*
X560834Y38996D01*
X560931Y39054D01*
X561030Y39109D01*
X561131Y39160D01*
X561234Y39208D01*
X561338Y39253D01*
X561444Y39293D01*
X561551Y39330D01*
X561659Y39363D01*
X561769Y39393D01*
X561879Y39418D01*
X561990Y39440D01*
X562102Y39457D01*
X562215Y39471D01*
X562328Y39481D01*
X562441Y39487D01*
X562554Y39489D01*
X567746Y39489D01*
X567859Y39487D01*
X567972Y39481D01*
X568085Y39471D01*
X568198Y39457D01*
X568310Y39440D01*
X568421Y39418D01*
X568531Y39393D01*
X568641Y39363D01*
X568749Y39330D01*
X568856Y39293D01*
X568962Y39253D01*
X569066Y39208D01*
X569169Y39160D01*
X569270Y39109D01*
X569369Y39054D01*
X569466Y38996D01*
X569561Y38934D01*
X569654Y38869D01*
X569744Y38801D01*
X569832Y38730D01*
X569918Y38655D01*
X570001Y38578D01*
X570081Y38498D01*
X570158Y38415D01*
X570233Y38329D01*
X570304Y38241D01*
X570372Y38151D01*
X570437Y38058D01*
X570499Y37963D01*
X570557Y37866D01*
X570612Y37767D01*
X570663Y37666D01*
X570711Y37563D01*
X570756Y37459D01*
X570796Y37353D01*
X570833Y37246D01*
X570866Y37138D01*
X570896Y37028D01*
X570921Y36918D01*
X570943Y36807D01*
X570960Y36695D01*
X570974Y36582D01*
X570984Y36469D01*
X570990Y36356D01*
X570992Y36243D01*
X570992Y32997D01*
X560606Y44808D02*
X559308Y44808D01*
X559308Y51299D01*
X570992Y48054D01*
D16*
X622681Y4036D02*
X628946Y4036D01*
X625814Y7168D02*
X625814Y903D01*
D17*
X629000Y26900D03*
X641000Y26900D03*
D18*
X635000Y26900D03*
D15*
X621792Y13208D02*
X610108Y13208D01*
X621792Y13208D02*
X621792Y18401D01*
X621792Y23114D02*
X621792Y28307D01*
X621792Y23114D02*
X610108Y23114D01*
X610108Y28307D01*
X615301Y27009D02*
X615301Y23114D01*
X610108Y32997D02*
X621792Y32997D01*
X610108Y32997D02*
X610108Y36243D01*
X610110Y36356D01*
X610116Y36469D01*
X610126Y36582D01*
X610140Y36695D01*
X610157Y36807D01*
X610179Y36918D01*
X610204Y37028D01*
X610234Y37138D01*
X610267Y37246D01*
X610304Y37353D01*
X610344Y37459D01*
X610389Y37563D01*
X610437Y37666D01*
X610488Y37767D01*
X610543Y37866D01*
X610601Y37963D01*
X610663Y38058D01*
X610728Y38151D01*
X610796Y38241D01*
X610867Y38329D01*
X610942Y38415D01*
X611019Y38498D01*
X611099Y38578D01*
X611182Y38655D01*
X611268Y38730D01*
X611356Y38801D01*
X611446Y38869D01*
X611539Y38934D01*
X611634Y38996D01*
X611731Y39054D01*
X611830Y39109D01*
X611931Y39160D01*
X612034Y39208D01*
X612138Y39253D01*
X612244Y39293D01*
X612351Y39330D01*
X612459Y39363D01*
X612569Y39393D01*
X612679Y39418D01*
X612790Y39440D01*
X612902Y39457D01*
X613015Y39471D01*
X613128Y39481D01*
X613241Y39487D01*
X613354Y39489D01*
X618546Y39489D01*
X618659Y39487D01*
X618772Y39481D01*
X618885Y39471D01*
X618998Y39457D01*
X619110Y39440D01*
X619221Y39418D01*
X619331Y39393D01*
X619441Y39363D01*
X619549Y39330D01*
X619656Y39293D01*
X619762Y39253D01*
X619866Y39208D01*
X619969Y39160D01*
X620070Y39109D01*
X620169Y39054D01*
X620266Y38996D01*
X620361Y38934D01*
X620454Y38869D01*
X620544Y38801D01*
X620632Y38730D01*
X620718Y38655D01*
X620801Y38578D01*
X620881Y38498D01*
X620958Y38415D01*
X621033Y38329D01*
X621104Y38241D01*
X621172Y38151D01*
X621237Y38058D01*
X621299Y37963D01*
X621357Y37866D01*
X621412Y37767D01*
X621463Y37666D01*
X621511Y37563D01*
X621556Y37459D01*
X621596Y37353D01*
X621633Y37246D01*
X621666Y37138D01*
X621696Y37028D01*
X621721Y36918D01*
X621743Y36807D01*
X621760Y36695D01*
X621774Y36582D01*
X621784Y36469D01*
X621790Y36356D01*
X621792Y36243D01*
X621792Y32997D01*
X618546Y44808D02*
X618433Y44810D01*
X618320Y44816D01*
X618207Y44826D01*
X618094Y44840D01*
X617982Y44857D01*
X617871Y44879D01*
X617761Y44904D01*
X617651Y44934D01*
X617543Y44967D01*
X617436Y45004D01*
X617330Y45044D01*
X617226Y45089D01*
X617123Y45137D01*
X617022Y45188D01*
X616923Y45243D01*
X616826Y45301D01*
X616731Y45363D01*
X616638Y45428D01*
X616548Y45496D01*
X616460Y45567D01*
X616374Y45642D01*
X616291Y45719D01*
X616211Y45799D01*
X616134Y45882D01*
X616059Y45968D01*
X615988Y46056D01*
X615920Y46146D01*
X615855Y46239D01*
X615793Y46334D01*
X615735Y46431D01*
X615680Y46530D01*
X615629Y46631D01*
X615581Y46734D01*
X615536Y46838D01*
X615496Y46944D01*
X615459Y47051D01*
X615426Y47159D01*
X615396Y47269D01*
X615371Y47379D01*
X615349Y47490D01*
X615332Y47602D01*
X615318Y47715D01*
X615308Y47828D01*
X615302Y47941D01*
X615300Y48054D01*
X615302Y48167D01*
X615308Y48280D01*
X615318Y48393D01*
X615332Y48506D01*
X615349Y48618D01*
X615371Y48729D01*
X615396Y48839D01*
X615426Y48949D01*
X615459Y49057D01*
X615496Y49164D01*
X615536Y49270D01*
X615581Y49374D01*
X615629Y49477D01*
X615680Y49578D01*
X615735Y49677D01*
X615793Y49774D01*
X615855Y49869D01*
X615920Y49962D01*
X615988Y50052D01*
X616059Y50140D01*
X616134Y50226D01*
X616211Y50309D01*
X616291Y50389D01*
X616374Y50466D01*
X616460Y50541D01*
X616548Y50612D01*
X616638Y50680D01*
X616731Y50745D01*
X616826Y50807D01*
X616923Y50865D01*
X617022Y50920D01*
X617123Y50971D01*
X617226Y51019D01*
X617330Y51064D01*
X617436Y51104D01*
X617543Y51141D01*
X617651Y51174D01*
X617761Y51204D01*
X617871Y51229D01*
X617982Y51251D01*
X618094Y51268D01*
X618207Y51282D01*
X618320Y51292D01*
X618433Y51298D01*
X618546Y51300D01*
X618659Y51298D01*
X618772Y51292D01*
X618885Y51282D01*
X618998Y51268D01*
X619110Y51251D01*
X619221Y51229D01*
X619331Y51204D01*
X619441Y51174D01*
X619549Y51141D01*
X619656Y51104D01*
X619762Y51064D01*
X619866Y51019D01*
X619969Y50971D01*
X620070Y50920D01*
X620169Y50865D01*
X620266Y50807D01*
X620361Y50745D01*
X620454Y50680D01*
X620544Y50612D01*
X620632Y50541D01*
X620718Y50466D01*
X620801Y50389D01*
X620881Y50309D01*
X620958Y50226D01*
X621033Y50140D01*
X621104Y50052D01*
X621172Y49962D01*
X621237Y49869D01*
X621299Y49774D01*
X621357Y49677D01*
X621412Y49578D01*
X621463Y49477D01*
X621511Y49374D01*
X621556Y49270D01*
X621596Y49164D01*
X621633Y49057D01*
X621666Y48949D01*
X621696Y48839D01*
X621721Y48729D01*
X621743Y48618D01*
X621760Y48506D01*
X621774Y48393D01*
X621784Y48280D01*
X621790Y48167D01*
X621792Y48054D01*
X621790Y47941D01*
X621784Y47828D01*
X621774Y47715D01*
X621760Y47602D01*
X621743Y47490D01*
X621721Y47379D01*
X621696Y47269D01*
X621666Y47159D01*
X621633Y47051D01*
X621596Y46944D01*
X621556Y46838D01*
X621511Y46734D01*
X621463Y46631D01*
X621412Y46530D01*
X621357Y46431D01*
X621299Y46334D01*
X621237Y46239D01*
X621172Y46146D01*
X621104Y46056D01*
X621033Y45968D01*
X620958Y45882D01*
X620881Y45799D01*
X620801Y45719D01*
X620718Y45642D01*
X620632Y45567D01*
X620544Y45496D01*
X620454Y45428D01*
X620361Y45363D01*
X620266Y45301D01*
X620169Y45243D01*
X620070Y45188D01*
X619969Y45137D01*
X619866Y45089D01*
X619762Y45044D01*
X619656Y45004D01*
X619549Y44967D01*
X619441Y44934D01*
X619331Y44904D01*
X619221Y44879D01*
X619110Y44857D01*
X618998Y44840D01*
X618885Y44826D01*
X618772Y44816D01*
X618659Y44810D01*
X618546Y44808D01*
X612704Y45458D02*
X612603Y45460D01*
X612503Y45466D01*
X612403Y45476D01*
X612303Y45489D01*
X612204Y45507D01*
X612105Y45528D01*
X612008Y45553D01*
X611911Y45582D01*
X611816Y45615D01*
X611722Y45651D01*
X611630Y45691D01*
X611539Y45734D01*
X611450Y45781D01*
X611363Y45831D01*
X611277Y45885D01*
X611194Y45942D01*
X611114Y46002D01*
X611035Y46065D01*
X610959Y46132D01*
X610886Y46201D01*
X610816Y46273D01*
X610748Y46347D01*
X610683Y46424D01*
X610622Y46504D01*
X610563Y46586D01*
X610508Y46670D01*
X610456Y46756D01*
X610407Y46844D01*
X610362Y46934D01*
X610320Y47026D01*
X610282Y47119D01*
X610248Y47214D01*
X610217Y47309D01*
X610190Y47406D01*
X610167Y47504D01*
X610147Y47603D01*
X610132Y47703D01*
X610120Y47803D01*
X610112Y47903D01*
X610108Y48004D01*
X610108Y48104D01*
X610112Y48205D01*
X610120Y48305D01*
X610132Y48405D01*
X610147Y48505D01*
X610167Y48604D01*
X610190Y48702D01*
X610217Y48799D01*
X610248Y48894D01*
X610282Y48989D01*
X610320Y49082D01*
X610362Y49174D01*
X610407Y49264D01*
X610456Y49352D01*
X610508Y49438D01*
X610563Y49522D01*
X610622Y49604D01*
X610683Y49684D01*
X610748Y49761D01*
X610816Y49835D01*
X610886Y49907D01*
X610959Y49976D01*
X611035Y50043D01*
X611114Y50106D01*
X611194Y50166D01*
X611277Y50223D01*
X611363Y50277D01*
X611450Y50327D01*
X611539Y50374D01*
X611630Y50417D01*
X611722Y50457D01*
X611816Y50493D01*
X611911Y50526D01*
X612008Y50555D01*
X612105Y50580D01*
X612204Y50601D01*
X612303Y50619D01*
X612403Y50632D01*
X612503Y50642D01*
X612603Y50648D01*
X612704Y50650D01*
X612805Y50648D01*
X612905Y50642D01*
X613005Y50632D01*
X613105Y50619D01*
X613204Y50601D01*
X613303Y50580D01*
X613400Y50555D01*
X613497Y50526D01*
X613592Y50493D01*
X613686Y50457D01*
X613778Y50417D01*
X613869Y50374D01*
X613958Y50327D01*
X614045Y50277D01*
X614131Y50223D01*
X614214Y50166D01*
X614294Y50106D01*
X614373Y50043D01*
X614449Y49976D01*
X614522Y49907D01*
X614592Y49835D01*
X614660Y49761D01*
X614725Y49684D01*
X614786Y49604D01*
X614845Y49522D01*
X614900Y49438D01*
X614952Y49352D01*
X615001Y49264D01*
X615046Y49174D01*
X615088Y49082D01*
X615126Y48989D01*
X615160Y48894D01*
X615191Y48799D01*
X615218Y48702D01*
X615241Y48604D01*
X615261Y48505D01*
X615276Y48405D01*
X615288Y48305D01*
X615296Y48205D01*
X615300Y48104D01*
X615300Y48004D01*
X615296Y47903D01*
X615288Y47803D01*
X615276Y47703D01*
X615261Y47603D01*
X615241Y47504D01*
X615218Y47406D01*
X615191Y47309D01*
X615160Y47214D01*
X615126Y47119D01*
X615088Y47026D01*
X615046Y46934D01*
X615001Y46844D01*
X614952Y46756D01*
X614900Y46670D01*
X614845Y46586D01*
X614786Y46504D01*
X614725Y46424D01*
X614660Y46347D01*
X614592Y46273D01*
X614522Y46201D01*
X614449Y46132D01*
X614373Y46065D01*
X614294Y46002D01*
X614214Y45942D01*
X614131Y45885D01*
X614045Y45831D01*
X613958Y45781D01*
X613869Y45734D01*
X613778Y45691D01*
X613686Y45651D01*
X613592Y45615D01*
X613497Y45582D01*
X613400Y45553D01*
X613303Y45528D01*
X613204Y45507D01*
X613105Y45489D01*
X613005Y45476D01*
X612905Y45466D01*
X612805Y45460D01*
X612704Y45458D01*
X418592Y358704D02*
X418592Y361301D01*
X418592Y358704D02*
X418590Y358605D01*
X418584Y358505D01*
X418575Y358406D01*
X418562Y358308D01*
X418545Y358210D01*
X418524Y358112D01*
X418499Y358016D01*
X418471Y357921D01*
X418439Y357827D01*
X418404Y357734D01*
X418365Y357642D01*
X418322Y357552D01*
X418277Y357464D01*
X418227Y357377D01*
X418175Y357293D01*
X418119Y357210D01*
X418061Y357130D01*
X417999Y357052D01*
X417934Y356977D01*
X417866Y356904D01*
X417796Y356834D01*
X417723Y356766D01*
X417648Y356701D01*
X417570Y356639D01*
X417490Y356581D01*
X417407Y356525D01*
X417323Y356473D01*
X417236Y356423D01*
X417148Y356378D01*
X417058Y356335D01*
X416966Y356296D01*
X416873Y356261D01*
X416779Y356229D01*
X416684Y356201D01*
X416588Y356176D01*
X416490Y356155D01*
X416392Y356138D01*
X416294Y356125D01*
X416195Y356116D01*
X416095Y356110D01*
X415996Y356108D01*
X409504Y356108D01*
X409405Y356110D01*
X409305Y356116D01*
X409206Y356125D01*
X409108Y356138D01*
X409010Y356156D01*
X408912Y356176D01*
X408816Y356201D01*
X408720Y356229D01*
X408626Y356261D01*
X408533Y356296D01*
X408442Y356335D01*
X408352Y356378D01*
X408263Y356423D01*
X408177Y356473D01*
X408092Y356525D01*
X408010Y356581D01*
X407930Y356640D01*
X407852Y356701D01*
X407776Y356766D01*
X407703Y356834D01*
X407633Y356904D01*
X407565Y356977D01*
X407500Y357053D01*
X407439Y357131D01*
X407380Y357211D01*
X407324Y357293D01*
X407272Y357378D01*
X407223Y357464D01*
X407177Y357553D01*
X407134Y357643D01*
X407095Y357734D01*
X407060Y357827D01*
X407028Y357921D01*
X407000Y358017D01*
X406975Y358113D01*
X406955Y358211D01*
X406937Y358309D01*
X406924Y358407D01*
X406915Y358506D01*
X406909Y358605D01*
X406907Y358705D01*
X406908Y358704D02*
X406908Y361301D01*
X406908Y369236D02*
X406910Y369343D01*
X406916Y369449D01*
X406926Y369555D01*
X406939Y369661D01*
X406957Y369767D01*
X406978Y369871D01*
X407003Y369975D01*
X407032Y370078D01*
X407064Y370179D01*
X407101Y370279D01*
X407141Y370378D01*
X407184Y370476D01*
X407231Y370572D01*
X407282Y370666D01*
X407336Y370758D01*
X407393Y370848D01*
X407453Y370936D01*
X407517Y371021D01*
X407584Y371104D01*
X407654Y371185D01*
X407726Y371263D01*
X407802Y371339D01*
X407880Y371411D01*
X407961Y371481D01*
X408044Y371548D01*
X408129Y371612D01*
X408217Y371672D01*
X408307Y371729D01*
X408399Y371783D01*
X408493Y371834D01*
X408589Y371881D01*
X408687Y371924D01*
X408786Y371964D01*
X408886Y372001D01*
X408987Y372033D01*
X409090Y372062D01*
X409194Y372087D01*
X409298Y372108D01*
X409404Y372126D01*
X409510Y372139D01*
X409616Y372149D01*
X409722Y372155D01*
X409829Y372157D01*
X406908Y369236D02*
X406910Y369115D01*
X406916Y368994D01*
X406926Y368874D01*
X406939Y368753D01*
X406957Y368634D01*
X406978Y368514D01*
X407003Y368396D01*
X407032Y368279D01*
X407065Y368162D01*
X407101Y368047D01*
X407142Y367933D01*
X407185Y367820D01*
X407233Y367708D01*
X407284Y367599D01*
X407339Y367491D01*
X407397Y367384D01*
X407458Y367280D01*
X407523Y367178D01*
X407591Y367078D01*
X407662Y366980D01*
X407736Y366884D01*
X407813Y366791D01*
X407894Y366701D01*
X407977Y366613D01*
X408063Y366528D01*
X408152Y366445D01*
X408243Y366366D01*
X408337Y366289D01*
X408433Y366216D01*
X408531Y366146D01*
X408632Y366079D01*
X408735Y366015D01*
X408840Y365955D01*
X408947Y365897D01*
X409055Y365844D01*
X409165Y365794D01*
X409277Y365748D01*
X409390Y365705D01*
X409505Y365666D01*
X412101Y371183D02*
X412023Y371262D01*
X411943Y371338D01*
X411860Y371411D01*
X411774Y371481D01*
X411687Y371548D01*
X411596Y371612D01*
X411504Y371672D01*
X411410Y371730D01*
X411313Y371784D01*
X411215Y371834D01*
X411115Y371881D01*
X411014Y371925D01*
X410911Y371965D01*
X410806Y372001D01*
X410701Y372033D01*
X410594Y372062D01*
X410487Y372087D01*
X410378Y372109D01*
X410269Y372126D01*
X410160Y372140D01*
X410050Y372149D01*
X409939Y372155D01*
X409829Y372157D01*
X412101Y371184D02*
X418592Y365666D01*
X418592Y372157D01*
X418592Y179136D02*
X418592Y176539D01*
X418590Y176440D01*
X418584Y176340D01*
X418575Y176241D01*
X418562Y176143D01*
X418545Y176045D01*
X418524Y175947D01*
X418499Y175851D01*
X418471Y175756D01*
X418439Y175662D01*
X418404Y175569D01*
X418365Y175477D01*
X418322Y175387D01*
X418277Y175299D01*
X418227Y175212D01*
X418175Y175128D01*
X418119Y175045D01*
X418061Y174965D01*
X417999Y174887D01*
X417934Y174812D01*
X417866Y174739D01*
X417796Y174669D01*
X417723Y174601D01*
X417648Y174536D01*
X417570Y174474D01*
X417490Y174416D01*
X417407Y174360D01*
X417323Y174308D01*
X417236Y174258D01*
X417148Y174213D01*
X417058Y174170D01*
X416966Y174131D01*
X416873Y174096D01*
X416779Y174064D01*
X416684Y174036D01*
X416588Y174011D01*
X416490Y173990D01*
X416392Y173973D01*
X416294Y173960D01*
X416195Y173951D01*
X416095Y173945D01*
X415996Y173943D01*
X409504Y173943D01*
X409504Y173942D02*
X409405Y173944D01*
X409305Y173950D01*
X409206Y173959D01*
X409108Y173972D01*
X409010Y173990D01*
X408912Y174010D01*
X408816Y174035D01*
X408720Y174063D01*
X408626Y174095D01*
X408533Y174130D01*
X408442Y174169D01*
X408352Y174212D01*
X408263Y174257D01*
X408177Y174307D01*
X408092Y174359D01*
X408010Y174415D01*
X407930Y174474D01*
X407852Y174535D01*
X407776Y174600D01*
X407703Y174668D01*
X407633Y174738D01*
X407565Y174811D01*
X407500Y174887D01*
X407439Y174965D01*
X407380Y175045D01*
X407324Y175127D01*
X407272Y175212D01*
X407223Y175298D01*
X407177Y175387D01*
X407134Y175477D01*
X407095Y175568D01*
X407060Y175661D01*
X407028Y175755D01*
X407000Y175851D01*
X406975Y175947D01*
X406955Y176045D01*
X406937Y176143D01*
X406924Y176241D01*
X406915Y176340D01*
X406909Y176439D01*
X406907Y176539D01*
X406908Y176539D02*
X406908Y179136D01*
X418592Y183501D02*
X418592Y186746D01*
X418590Y186859D01*
X418584Y186972D01*
X418574Y187085D01*
X418560Y187198D01*
X418543Y187310D01*
X418521Y187421D01*
X418496Y187531D01*
X418466Y187641D01*
X418433Y187749D01*
X418396Y187856D01*
X418356Y187962D01*
X418311Y188066D01*
X418263Y188169D01*
X418212Y188270D01*
X418157Y188369D01*
X418099Y188466D01*
X418037Y188561D01*
X417972Y188654D01*
X417904Y188744D01*
X417833Y188832D01*
X417758Y188918D01*
X417681Y189001D01*
X417601Y189081D01*
X417518Y189158D01*
X417432Y189233D01*
X417344Y189304D01*
X417254Y189372D01*
X417161Y189437D01*
X417066Y189499D01*
X416969Y189557D01*
X416870Y189612D01*
X416769Y189663D01*
X416666Y189711D01*
X416562Y189756D01*
X416456Y189796D01*
X416349Y189833D01*
X416241Y189866D01*
X416131Y189896D01*
X416021Y189921D01*
X415910Y189943D01*
X415798Y189960D01*
X415685Y189974D01*
X415572Y189984D01*
X415459Y189990D01*
X415346Y189992D01*
X415233Y189990D01*
X415120Y189984D01*
X415007Y189974D01*
X414894Y189960D01*
X414782Y189943D01*
X414671Y189921D01*
X414561Y189896D01*
X414451Y189866D01*
X414343Y189833D01*
X414236Y189796D01*
X414130Y189756D01*
X414026Y189711D01*
X413923Y189663D01*
X413822Y189612D01*
X413723Y189557D01*
X413626Y189499D01*
X413531Y189437D01*
X413438Y189372D01*
X413348Y189304D01*
X413260Y189233D01*
X413174Y189158D01*
X413091Y189081D01*
X413011Y189001D01*
X412934Y188918D01*
X412859Y188832D01*
X412788Y188744D01*
X412720Y188654D01*
X412655Y188561D01*
X412593Y188466D01*
X412535Y188369D01*
X412480Y188270D01*
X412429Y188169D01*
X412381Y188066D01*
X412336Y187962D01*
X412296Y187856D01*
X412259Y187749D01*
X412226Y187641D01*
X412196Y187531D01*
X412171Y187421D01*
X412149Y187310D01*
X412132Y187198D01*
X412118Y187085D01*
X412108Y186972D01*
X412102Y186859D01*
X412100Y186746D01*
X406908Y187396D02*
X406908Y183501D01*
X406908Y187396D02*
X406910Y187497D01*
X406916Y187597D01*
X406926Y187697D01*
X406939Y187797D01*
X406957Y187896D01*
X406978Y187995D01*
X407003Y188092D01*
X407032Y188189D01*
X407065Y188284D01*
X407101Y188378D01*
X407141Y188470D01*
X407184Y188561D01*
X407231Y188650D01*
X407281Y188737D01*
X407335Y188823D01*
X407392Y188906D01*
X407452Y188986D01*
X407515Y189065D01*
X407582Y189141D01*
X407651Y189214D01*
X407723Y189284D01*
X407797Y189352D01*
X407874Y189417D01*
X407954Y189478D01*
X408036Y189537D01*
X408120Y189592D01*
X408206Y189644D01*
X408294Y189693D01*
X408384Y189738D01*
X408476Y189780D01*
X408569Y189818D01*
X408664Y189852D01*
X408759Y189883D01*
X408856Y189910D01*
X408954Y189933D01*
X409053Y189953D01*
X409153Y189968D01*
X409253Y189980D01*
X409353Y189988D01*
X409454Y189992D01*
X409554Y189992D01*
X409655Y189988D01*
X409755Y189980D01*
X409855Y189968D01*
X409955Y189953D01*
X410054Y189933D01*
X410152Y189910D01*
X410249Y189883D01*
X410344Y189852D01*
X410439Y189818D01*
X410532Y189780D01*
X410624Y189738D01*
X410714Y189693D01*
X410802Y189644D01*
X410888Y189592D01*
X410972Y189537D01*
X411054Y189478D01*
X411134Y189417D01*
X411211Y189352D01*
X411285Y189284D01*
X411357Y189214D01*
X411426Y189141D01*
X411493Y189065D01*
X411556Y188986D01*
X411616Y188906D01*
X411673Y188823D01*
X411727Y188737D01*
X411777Y188650D01*
X411824Y188561D01*
X411867Y188470D01*
X411907Y188378D01*
X411943Y188284D01*
X411976Y188189D01*
X412005Y188092D01*
X412030Y187995D01*
X412051Y187896D01*
X412069Y187797D01*
X412082Y187697D01*
X412092Y187597D01*
X412098Y187497D01*
X412100Y187396D01*
X412101Y187396D02*
X412101Y184799D01*
D16*
X222546Y4036D02*
X216281Y4036D01*
X219414Y903D02*
X219414Y7168D01*
D17*
X222600Y26900D03*
X234600Y26900D03*
D18*
X228600Y26900D03*
D15*
X215392Y13208D02*
X203708Y13208D01*
X215392Y13208D02*
X215392Y18401D01*
X215392Y23114D02*
X215392Y28307D01*
X215392Y23114D02*
X203708Y23114D01*
X203708Y28307D01*
X208901Y27009D02*
X208901Y23114D01*
X203708Y32997D02*
X215392Y32997D01*
X203708Y32997D02*
X203708Y36243D01*
X203710Y36356D01*
X203716Y36469D01*
X203726Y36582D01*
X203740Y36695D01*
X203757Y36807D01*
X203779Y36918D01*
X203804Y37028D01*
X203834Y37138D01*
X203867Y37246D01*
X203904Y37353D01*
X203944Y37459D01*
X203989Y37563D01*
X204037Y37666D01*
X204088Y37767D01*
X204143Y37866D01*
X204201Y37963D01*
X204263Y38058D01*
X204328Y38151D01*
X204396Y38241D01*
X204467Y38329D01*
X204542Y38415D01*
X204619Y38498D01*
X204699Y38578D01*
X204782Y38655D01*
X204868Y38730D01*
X204956Y38801D01*
X205046Y38869D01*
X205139Y38934D01*
X205234Y38996D01*
X205331Y39054D01*
X205430Y39109D01*
X205531Y39160D01*
X205634Y39208D01*
X205738Y39253D01*
X205844Y39293D01*
X205951Y39330D01*
X206059Y39363D01*
X206169Y39393D01*
X206279Y39418D01*
X206390Y39440D01*
X206502Y39457D01*
X206615Y39471D01*
X206728Y39481D01*
X206841Y39487D01*
X206954Y39489D01*
X212146Y39489D01*
X212259Y39487D01*
X212372Y39481D01*
X212485Y39471D01*
X212598Y39457D01*
X212710Y39440D01*
X212821Y39418D01*
X212931Y39393D01*
X213041Y39363D01*
X213149Y39330D01*
X213256Y39293D01*
X213362Y39253D01*
X213466Y39208D01*
X213569Y39160D01*
X213670Y39109D01*
X213769Y39054D01*
X213866Y38996D01*
X213961Y38934D01*
X214054Y38869D01*
X214144Y38801D01*
X214232Y38730D01*
X214318Y38655D01*
X214401Y38578D01*
X214481Y38498D01*
X214558Y38415D01*
X214633Y38329D01*
X214704Y38241D01*
X214772Y38151D01*
X214837Y38058D01*
X214899Y37963D01*
X214957Y37866D01*
X215012Y37767D01*
X215063Y37666D01*
X215111Y37563D01*
X215156Y37459D01*
X215196Y37353D01*
X215233Y37246D01*
X215266Y37138D01*
X215296Y37028D01*
X215321Y36918D01*
X215343Y36807D01*
X215360Y36695D01*
X215374Y36582D01*
X215384Y36469D01*
X215390Y36356D01*
X215392Y36243D01*
X215392Y32997D01*
X206304Y44808D02*
X203708Y48054D01*
X215392Y48054D01*
X215392Y51299D02*
X215392Y44808D01*
X177292Y19558D02*
X165608Y19558D01*
X165608Y22804D01*
X165610Y22917D01*
X165616Y23030D01*
X165626Y23143D01*
X165640Y23256D01*
X165657Y23368D01*
X165679Y23479D01*
X165704Y23589D01*
X165734Y23699D01*
X165767Y23807D01*
X165804Y23914D01*
X165844Y24020D01*
X165889Y24124D01*
X165937Y24227D01*
X165988Y24328D01*
X166043Y24427D01*
X166101Y24524D01*
X166163Y24619D01*
X166228Y24712D01*
X166296Y24802D01*
X166367Y24890D01*
X166442Y24976D01*
X166519Y25059D01*
X166599Y25139D01*
X166682Y25216D01*
X166768Y25291D01*
X166856Y25362D01*
X166946Y25430D01*
X167039Y25495D01*
X167134Y25557D01*
X167231Y25615D01*
X167330Y25670D01*
X167431Y25721D01*
X167534Y25769D01*
X167638Y25814D01*
X167744Y25854D01*
X167851Y25891D01*
X167959Y25924D01*
X168069Y25954D01*
X168179Y25979D01*
X168290Y26001D01*
X168402Y26018D01*
X168515Y26032D01*
X168628Y26042D01*
X168741Y26048D01*
X168854Y26050D01*
X168967Y26048D01*
X169080Y26042D01*
X169193Y26032D01*
X169306Y26018D01*
X169418Y26001D01*
X169529Y25979D01*
X169639Y25954D01*
X169749Y25924D01*
X169857Y25891D01*
X169964Y25854D01*
X170070Y25814D01*
X170174Y25769D01*
X170277Y25721D01*
X170378Y25670D01*
X170477Y25615D01*
X170574Y25557D01*
X170669Y25495D01*
X170762Y25430D01*
X170852Y25362D01*
X170940Y25291D01*
X171026Y25216D01*
X171109Y25139D01*
X171189Y25059D01*
X171266Y24976D01*
X171341Y24890D01*
X171412Y24802D01*
X171480Y24712D01*
X171545Y24619D01*
X171607Y24524D01*
X171665Y24427D01*
X171720Y24328D01*
X171771Y24227D01*
X171819Y24124D01*
X171864Y24020D01*
X171904Y23914D01*
X171941Y23807D01*
X171974Y23699D01*
X172004Y23589D01*
X172029Y23479D01*
X172051Y23368D01*
X172068Y23256D01*
X172082Y23143D01*
X172092Y23030D01*
X172098Y22917D01*
X172100Y22804D01*
X172099Y22804D02*
X172099Y19558D01*
X172099Y23453D02*
X177292Y26049D01*
X168204Y30914D02*
X165608Y34160D01*
X177292Y34160D01*
X177292Y37405D02*
X177292Y30914D01*
X343408Y349758D02*
X355092Y349758D01*
X343408Y349758D02*
X343408Y353004D01*
X343410Y353117D01*
X343416Y353230D01*
X343426Y353343D01*
X343440Y353456D01*
X343457Y353568D01*
X343479Y353679D01*
X343504Y353789D01*
X343534Y353899D01*
X343567Y354007D01*
X343604Y354114D01*
X343644Y354220D01*
X343689Y354324D01*
X343737Y354427D01*
X343788Y354528D01*
X343843Y354627D01*
X343901Y354724D01*
X343963Y354819D01*
X344028Y354912D01*
X344096Y355002D01*
X344167Y355090D01*
X344242Y355176D01*
X344319Y355259D01*
X344399Y355339D01*
X344482Y355416D01*
X344568Y355491D01*
X344656Y355562D01*
X344746Y355630D01*
X344839Y355695D01*
X344934Y355757D01*
X345031Y355815D01*
X345130Y355870D01*
X345231Y355921D01*
X345334Y355969D01*
X345438Y356014D01*
X345544Y356054D01*
X345651Y356091D01*
X345759Y356124D01*
X345869Y356154D01*
X345979Y356179D01*
X346090Y356201D01*
X346202Y356218D01*
X346315Y356232D01*
X346428Y356242D01*
X346541Y356248D01*
X346654Y356250D01*
X346767Y356248D01*
X346880Y356242D01*
X346993Y356232D01*
X347106Y356218D01*
X347218Y356201D01*
X347329Y356179D01*
X347439Y356154D01*
X347549Y356124D01*
X347657Y356091D01*
X347764Y356054D01*
X347870Y356014D01*
X347974Y355969D01*
X348077Y355921D01*
X348178Y355870D01*
X348277Y355815D01*
X348374Y355757D01*
X348469Y355695D01*
X348562Y355630D01*
X348652Y355562D01*
X348740Y355491D01*
X348826Y355416D01*
X348909Y355339D01*
X348989Y355259D01*
X349066Y355176D01*
X349141Y355090D01*
X349212Y355002D01*
X349280Y354912D01*
X349345Y354819D01*
X349407Y354724D01*
X349465Y354627D01*
X349520Y354528D01*
X349571Y354427D01*
X349619Y354324D01*
X349664Y354220D01*
X349704Y354114D01*
X349741Y354007D01*
X349774Y353899D01*
X349804Y353789D01*
X349829Y353679D01*
X349851Y353568D01*
X349868Y353456D01*
X349882Y353343D01*
X349892Y353230D01*
X349898Y353117D01*
X349900Y353004D01*
X349899Y353004D02*
X349899Y349758D01*
X349899Y353653D02*
X355092Y356249D01*
X355092Y361114D02*
X355092Y364360D01*
X355090Y364473D01*
X355084Y364586D01*
X355074Y364699D01*
X355060Y364812D01*
X355043Y364924D01*
X355021Y365035D01*
X354996Y365145D01*
X354966Y365255D01*
X354933Y365363D01*
X354896Y365470D01*
X354856Y365576D01*
X354811Y365680D01*
X354763Y365783D01*
X354712Y365884D01*
X354657Y365983D01*
X354599Y366080D01*
X354537Y366175D01*
X354472Y366268D01*
X354404Y366358D01*
X354333Y366446D01*
X354258Y366532D01*
X354181Y366615D01*
X354101Y366695D01*
X354018Y366772D01*
X353932Y366847D01*
X353844Y366918D01*
X353754Y366986D01*
X353661Y367051D01*
X353566Y367113D01*
X353469Y367171D01*
X353370Y367226D01*
X353269Y367277D01*
X353166Y367325D01*
X353062Y367370D01*
X352956Y367410D01*
X352849Y367447D01*
X352741Y367480D01*
X352631Y367510D01*
X352521Y367535D01*
X352410Y367557D01*
X352298Y367574D01*
X352185Y367588D01*
X352072Y367598D01*
X351959Y367604D01*
X351846Y367606D01*
X351733Y367604D01*
X351620Y367598D01*
X351507Y367588D01*
X351394Y367574D01*
X351282Y367557D01*
X351171Y367535D01*
X351061Y367510D01*
X350951Y367480D01*
X350843Y367447D01*
X350736Y367410D01*
X350630Y367370D01*
X350526Y367325D01*
X350423Y367277D01*
X350322Y367226D01*
X350223Y367171D01*
X350126Y367113D01*
X350031Y367051D01*
X349938Y366986D01*
X349848Y366918D01*
X349760Y366847D01*
X349674Y366772D01*
X349591Y366695D01*
X349511Y366615D01*
X349434Y366532D01*
X349359Y366446D01*
X349288Y366358D01*
X349220Y366268D01*
X349155Y366175D01*
X349093Y366080D01*
X349035Y365983D01*
X348980Y365884D01*
X348929Y365783D01*
X348881Y365680D01*
X348836Y365576D01*
X348796Y365470D01*
X348759Y365363D01*
X348726Y365255D01*
X348696Y365145D01*
X348671Y365035D01*
X348649Y364924D01*
X348632Y364812D01*
X348618Y364699D01*
X348608Y364586D01*
X348602Y364473D01*
X348600Y364360D01*
X343408Y365009D02*
X343408Y361114D01*
X343408Y365009D02*
X343410Y365110D01*
X343416Y365210D01*
X343426Y365310D01*
X343439Y365410D01*
X343457Y365509D01*
X343478Y365608D01*
X343503Y365705D01*
X343532Y365802D01*
X343565Y365897D01*
X343601Y365991D01*
X343641Y366083D01*
X343684Y366174D01*
X343731Y366263D01*
X343781Y366350D01*
X343835Y366436D01*
X343892Y366519D01*
X343952Y366599D01*
X344015Y366678D01*
X344082Y366754D01*
X344151Y366827D01*
X344223Y366897D01*
X344297Y366965D01*
X344374Y367030D01*
X344454Y367091D01*
X344536Y367150D01*
X344620Y367205D01*
X344706Y367257D01*
X344794Y367306D01*
X344884Y367351D01*
X344976Y367393D01*
X345069Y367431D01*
X345164Y367465D01*
X345259Y367496D01*
X345356Y367523D01*
X345454Y367546D01*
X345553Y367566D01*
X345653Y367581D01*
X345753Y367593D01*
X345853Y367601D01*
X345954Y367605D01*
X346054Y367605D01*
X346155Y367601D01*
X346255Y367593D01*
X346355Y367581D01*
X346455Y367566D01*
X346554Y367546D01*
X346652Y367523D01*
X346749Y367496D01*
X346844Y367465D01*
X346939Y367431D01*
X347032Y367393D01*
X347124Y367351D01*
X347214Y367306D01*
X347302Y367257D01*
X347388Y367205D01*
X347472Y367150D01*
X347554Y367091D01*
X347634Y367030D01*
X347711Y366965D01*
X347785Y366897D01*
X347857Y366827D01*
X347926Y366754D01*
X347993Y366678D01*
X348056Y366599D01*
X348116Y366519D01*
X348173Y366436D01*
X348227Y366350D01*
X348277Y366263D01*
X348324Y366174D01*
X348367Y366083D01*
X348407Y365991D01*
X348443Y365897D01*
X348476Y365802D01*
X348505Y365705D01*
X348530Y365608D01*
X348551Y365509D01*
X348569Y365410D01*
X348582Y365310D01*
X348592Y365210D01*
X348598Y365110D01*
X348600Y365009D01*
X348601Y365009D02*
X348601Y362413D01*
X381508Y394395D02*
X393192Y394395D01*
X381508Y394395D02*
X381508Y397640D01*
X381510Y397753D01*
X381516Y397866D01*
X381526Y397979D01*
X381540Y398092D01*
X381557Y398204D01*
X381579Y398315D01*
X381604Y398425D01*
X381634Y398535D01*
X381667Y398643D01*
X381704Y398750D01*
X381744Y398856D01*
X381789Y398960D01*
X381837Y399063D01*
X381888Y399164D01*
X381943Y399263D01*
X382001Y399360D01*
X382063Y399455D01*
X382128Y399548D01*
X382196Y399638D01*
X382267Y399726D01*
X382342Y399812D01*
X382419Y399895D01*
X382499Y399975D01*
X382582Y400052D01*
X382668Y400127D01*
X382756Y400198D01*
X382846Y400266D01*
X382939Y400331D01*
X383034Y400393D01*
X383131Y400451D01*
X383230Y400506D01*
X383331Y400557D01*
X383434Y400605D01*
X383538Y400650D01*
X383644Y400690D01*
X383751Y400727D01*
X383859Y400760D01*
X383969Y400790D01*
X384079Y400815D01*
X384190Y400837D01*
X384302Y400854D01*
X384415Y400868D01*
X384528Y400878D01*
X384641Y400884D01*
X384754Y400886D01*
X384867Y400884D01*
X384980Y400878D01*
X385093Y400868D01*
X385206Y400854D01*
X385318Y400837D01*
X385429Y400815D01*
X385539Y400790D01*
X385649Y400760D01*
X385757Y400727D01*
X385864Y400690D01*
X385970Y400650D01*
X386074Y400605D01*
X386177Y400557D01*
X386278Y400506D01*
X386377Y400451D01*
X386474Y400393D01*
X386569Y400331D01*
X386662Y400266D01*
X386752Y400198D01*
X386840Y400127D01*
X386926Y400052D01*
X387009Y399975D01*
X387089Y399895D01*
X387166Y399812D01*
X387241Y399726D01*
X387312Y399638D01*
X387380Y399548D01*
X387445Y399455D01*
X387507Y399360D01*
X387565Y399263D01*
X387620Y399164D01*
X387671Y399063D01*
X387719Y398960D01*
X387764Y398856D01*
X387804Y398750D01*
X387841Y398643D01*
X387874Y398535D01*
X387904Y398425D01*
X387929Y398315D01*
X387951Y398204D01*
X387968Y398092D01*
X387982Y397979D01*
X387992Y397866D01*
X387998Y397753D01*
X388000Y397640D01*
X387999Y397640D02*
X387999Y394395D01*
X387999Y398289D02*
X393192Y400886D01*
X390596Y405751D02*
X381508Y408347D01*
X390596Y405751D02*
X390596Y412242D01*
X387999Y410295D02*
X393192Y410295D01*
M02*
