G04 EAGLE Gerber RS-274X export*
G75*
%MOMM*%
%FSLAX34Y34*%
%LPD*%
%INSoldermask Top*%
%IPPOS*%
%AMOC8*
5,1,8,0,0,1.08239X$1,22.5*%
G01*
%ADD10R,0.651600X1.701600*%
%ADD11R,1.701600X0.651600*%
%ADD12R,0.361600X0.891600*%
%ADD13R,0.891600X0.361600*%
%ADD14C,0.204637*%
%ADD15R,0.701600X1.201600*%
%ADD16C,1.727200*%
%ADD17R,5.151600X2.201600*%
%ADD18R,4.101600X4.101600*%
%ADD19R,1.401600X1.601600*%
%ADD20R,1.601600X1.401600*%
%ADD21R,1.301600X1.301600*%

G36*
X27192Y484820D02*
X27192Y484820D01*
X27235Y484832D01*
X27301Y484839D01*
X28984Y485290D01*
X29025Y485309D01*
X29088Y485328D01*
X30668Y486065D01*
X30705Y486091D01*
X30764Y486120D01*
X32192Y487120D01*
X32223Y487152D01*
X32276Y487191D01*
X33509Y488424D01*
X33534Y488460D01*
X33580Y488508D01*
X34580Y489936D01*
X34598Y489977D01*
X34635Y490032D01*
X35372Y491612D01*
X35383Y491655D01*
X35410Y491716D01*
X35861Y493399D01*
X35863Y493431D01*
X35870Y493452D01*
X35870Y493467D01*
X35880Y493508D01*
X36032Y495245D01*
X36028Y495289D01*
X36032Y495355D01*
X35880Y497092D01*
X35868Y497135D01*
X35861Y497201D01*
X35410Y498884D01*
X35391Y498925D01*
X35372Y498988D01*
X34635Y500568D01*
X34609Y500605D01*
X34580Y500664D01*
X33580Y502092D01*
X33548Y502123D01*
X33509Y502176D01*
X32276Y503409D01*
X32240Y503434D01*
X32192Y503480D01*
X30764Y504480D01*
X30723Y504498D01*
X30668Y504535D01*
X29088Y505272D01*
X29045Y505283D01*
X28984Y505310D01*
X27301Y505761D01*
X27256Y505764D01*
X27192Y505780D01*
X25455Y505932D01*
X25411Y505928D01*
X25345Y505932D01*
X23608Y505780D01*
X23565Y505768D01*
X23499Y505761D01*
X21816Y505310D01*
X21775Y505291D01*
X21712Y505272D01*
X20132Y504535D01*
X20095Y504509D01*
X20036Y504480D01*
X18608Y503480D01*
X18577Y503448D01*
X18524Y503409D01*
X17291Y502176D01*
X17266Y502140D01*
X17220Y502092D01*
X16220Y500664D01*
X16202Y500623D01*
X16165Y500568D01*
X15428Y498988D01*
X15417Y498945D01*
X15390Y498884D01*
X14939Y497201D01*
X14936Y497156D01*
X14920Y497092D01*
X14768Y495355D01*
X14772Y495311D01*
X14768Y495245D01*
X14920Y493508D01*
X14932Y493465D01*
X14936Y493431D01*
X14936Y493415D01*
X14938Y493410D01*
X14939Y493399D01*
X15390Y491716D01*
X15409Y491675D01*
X15428Y491612D01*
X16165Y490032D01*
X16191Y489995D01*
X16220Y489936D01*
X17220Y488508D01*
X17252Y488477D01*
X17291Y488424D01*
X18524Y487191D01*
X18560Y487166D01*
X18608Y487120D01*
X20036Y486120D01*
X20077Y486102D01*
X20132Y486065D01*
X21712Y485328D01*
X21755Y485317D01*
X21816Y485290D01*
X23499Y484839D01*
X23544Y484836D01*
X23608Y484820D01*
X25345Y484668D01*
X25389Y484672D01*
X25455Y484668D01*
X27192Y484820D01*
G37*
G36*
X27192Y14920D02*
X27192Y14920D01*
X27235Y14932D01*
X27301Y14939D01*
X28984Y15390D01*
X29025Y15409D01*
X29088Y15428D01*
X30668Y16165D01*
X30705Y16191D01*
X30764Y16220D01*
X32192Y17220D01*
X32223Y17252D01*
X32276Y17291D01*
X33509Y18524D01*
X33534Y18560D01*
X33580Y18608D01*
X34580Y20036D01*
X34598Y20077D01*
X34635Y20132D01*
X35372Y21712D01*
X35383Y21755D01*
X35410Y21816D01*
X35861Y23499D01*
X35863Y23531D01*
X35870Y23552D01*
X35870Y23567D01*
X35880Y23608D01*
X36032Y25345D01*
X36028Y25389D01*
X36032Y25455D01*
X35880Y27192D01*
X35868Y27235D01*
X35861Y27301D01*
X35410Y28984D01*
X35391Y29025D01*
X35372Y29088D01*
X34635Y30668D01*
X34609Y30705D01*
X34580Y30764D01*
X33580Y32192D01*
X33548Y32223D01*
X33509Y32276D01*
X32276Y33509D01*
X32240Y33534D01*
X32192Y33580D01*
X30764Y34580D01*
X30723Y34598D01*
X30668Y34635D01*
X29088Y35372D01*
X29045Y35383D01*
X28984Y35410D01*
X27301Y35861D01*
X27256Y35864D01*
X27192Y35880D01*
X25455Y36032D01*
X25411Y36028D01*
X25345Y36032D01*
X23608Y35880D01*
X23565Y35868D01*
X23499Y35861D01*
X21816Y35410D01*
X21775Y35391D01*
X21712Y35372D01*
X20132Y34635D01*
X20095Y34609D01*
X20036Y34580D01*
X18608Y33580D01*
X18577Y33548D01*
X18524Y33509D01*
X17291Y32276D01*
X17266Y32240D01*
X17220Y32192D01*
X16220Y30764D01*
X16202Y30723D01*
X16165Y30668D01*
X15428Y29088D01*
X15417Y29045D01*
X15390Y28984D01*
X14939Y27301D01*
X14936Y27256D01*
X14920Y27192D01*
X14768Y25455D01*
X14772Y25411D01*
X14768Y25345D01*
X14920Y23608D01*
X14932Y23565D01*
X14936Y23531D01*
X14936Y23515D01*
X14938Y23510D01*
X14939Y23499D01*
X15390Y21816D01*
X15409Y21775D01*
X15428Y21712D01*
X16165Y20132D01*
X16191Y20095D01*
X16220Y20036D01*
X17220Y18608D01*
X17252Y18577D01*
X17291Y18524D01*
X18524Y17291D01*
X18560Y17266D01*
X18608Y17220D01*
X20036Y16220D01*
X20077Y16202D01*
X20132Y16165D01*
X21712Y15428D01*
X21755Y15417D01*
X21816Y15390D01*
X23499Y14939D01*
X23544Y14936D01*
X23608Y14920D01*
X25345Y14768D01*
X25389Y14772D01*
X25455Y14768D01*
X27192Y14920D01*
G37*
G36*
X585992Y14920D02*
X585992Y14920D01*
X586035Y14932D01*
X586101Y14939D01*
X587784Y15390D01*
X587825Y15409D01*
X587888Y15428D01*
X589468Y16165D01*
X589505Y16191D01*
X589564Y16220D01*
X590992Y17220D01*
X591023Y17252D01*
X591076Y17291D01*
X592309Y18524D01*
X592334Y18560D01*
X592380Y18608D01*
X593380Y20036D01*
X593398Y20077D01*
X593435Y20132D01*
X594172Y21712D01*
X594183Y21755D01*
X594210Y21816D01*
X594661Y23499D01*
X594663Y23531D01*
X594670Y23552D01*
X594670Y23567D01*
X594680Y23608D01*
X594832Y25345D01*
X594828Y25389D01*
X594832Y25455D01*
X594680Y27192D01*
X594668Y27235D01*
X594661Y27301D01*
X594210Y28984D01*
X594191Y29025D01*
X594172Y29088D01*
X593435Y30668D01*
X593409Y30705D01*
X593380Y30764D01*
X592380Y32192D01*
X592348Y32223D01*
X592309Y32276D01*
X591076Y33509D01*
X591040Y33534D01*
X590992Y33580D01*
X589564Y34580D01*
X589523Y34598D01*
X589468Y34635D01*
X587888Y35372D01*
X587845Y35383D01*
X587784Y35410D01*
X586101Y35861D01*
X586056Y35864D01*
X585992Y35880D01*
X584255Y36032D01*
X584211Y36028D01*
X584145Y36032D01*
X582408Y35880D01*
X582365Y35868D01*
X582299Y35861D01*
X580616Y35410D01*
X580575Y35391D01*
X580512Y35372D01*
X578932Y34635D01*
X578895Y34609D01*
X578836Y34580D01*
X577408Y33580D01*
X577377Y33548D01*
X577324Y33509D01*
X576091Y32276D01*
X576066Y32240D01*
X576020Y32192D01*
X575020Y30764D01*
X575002Y30723D01*
X574965Y30668D01*
X574228Y29088D01*
X574217Y29045D01*
X574190Y28984D01*
X573739Y27301D01*
X573736Y27256D01*
X573720Y27192D01*
X573568Y25455D01*
X573572Y25411D01*
X573568Y25345D01*
X573720Y23608D01*
X573732Y23565D01*
X573736Y23531D01*
X573736Y23515D01*
X573738Y23510D01*
X573739Y23499D01*
X574190Y21816D01*
X574209Y21775D01*
X574228Y21712D01*
X574965Y20132D01*
X574991Y20095D01*
X575020Y20036D01*
X576020Y18608D01*
X576052Y18577D01*
X576091Y18524D01*
X577324Y17291D01*
X577360Y17266D01*
X577408Y17220D01*
X578836Y16220D01*
X578877Y16202D01*
X578932Y16165D01*
X580512Y15428D01*
X580555Y15417D01*
X580616Y15390D01*
X582299Y14939D01*
X582344Y14936D01*
X582408Y14920D01*
X584145Y14768D01*
X584189Y14772D01*
X584255Y14768D01*
X585992Y14920D01*
G37*
D10*
X302200Y237600D03*
X310200Y237600D03*
X318200Y237600D03*
X326200Y237600D03*
X334200Y237600D03*
X342200Y237600D03*
X350200Y237600D03*
X358200Y237600D03*
D11*
X372000Y251400D03*
X372000Y259400D03*
X372000Y267400D03*
X372000Y275400D03*
X372000Y283400D03*
X372000Y291400D03*
X372000Y299400D03*
X372000Y307400D03*
D10*
X358200Y321200D03*
X350200Y321200D03*
X342200Y321200D03*
X334200Y321200D03*
X326200Y321200D03*
X318200Y321200D03*
X310200Y321200D03*
X302200Y321200D03*
D11*
X288400Y307400D03*
X288400Y299400D03*
X288400Y291400D03*
X288400Y283400D03*
X288400Y275400D03*
X288400Y267400D03*
X288400Y259400D03*
X288400Y251400D03*
D12*
X520900Y399400D03*
X525900Y399400D03*
X530900Y399400D03*
X535900Y399400D03*
X540900Y399400D03*
X545900Y399400D03*
D13*
X553100Y406600D03*
X553100Y411600D03*
X553100Y416600D03*
X553100Y421600D03*
X553100Y426600D03*
X553100Y431600D03*
D12*
X545900Y438800D03*
X540900Y438800D03*
X535900Y438800D03*
X530900Y438800D03*
X525900Y438800D03*
X520900Y438800D03*
D13*
X513700Y431600D03*
X513700Y426600D03*
X513700Y421600D03*
X513700Y416600D03*
X513700Y411600D03*
X513700Y406600D03*
D14*
X435835Y262515D02*
X421165Y262515D01*
X421165Y265585D01*
X435835Y265585D01*
X435835Y262515D01*
X435835Y264459D02*
X421165Y264459D01*
X421165Y256015D02*
X435835Y256015D01*
X421165Y256015D02*
X421165Y259085D01*
X435835Y259085D01*
X435835Y256015D01*
X435835Y257959D02*
X421165Y257959D01*
X421165Y249515D02*
X435835Y249515D01*
X421165Y249515D02*
X421165Y252585D01*
X435835Y252585D01*
X435835Y249515D01*
X435835Y251459D02*
X421165Y251459D01*
X421165Y243015D02*
X435835Y243015D01*
X421165Y243015D02*
X421165Y246085D01*
X435835Y246085D01*
X435835Y243015D01*
X435835Y244959D02*
X421165Y244959D01*
X421165Y236515D02*
X435835Y236515D01*
X421165Y236515D02*
X421165Y239585D01*
X435835Y239585D01*
X435835Y236515D01*
X435835Y238459D02*
X421165Y238459D01*
X421165Y230015D02*
X435835Y230015D01*
X421165Y230015D02*
X421165Y233085D01*
X435835Y233085D01*
X435835Y230015D01*
X435835Y231959D02*
X421165Y231959D01*
X421165Y223515D02*
X435835Y223515D01*
X421165Y223515D02*
X421165Y226585D01*
X435835Y226585D01*
X435835Y223515D01*
X435835Y225459D02*
X421165Y225459D01*
X421165Y217015D02*
X435835Y217015D01*
X421165Y217015D02*
X421165Y220085D01*
X435835Y220085D01*
X435835Y217015D01*
X435835Y218959D02*
X421165Y218959D01*
X478565Y217015D02*
X493235Y217015D01*
X478565Y217015D02*
X478565Y220085D01*
X493235Y220085D01*
X493235Y217015D01*
X493235Y218959D02*
X478565Y218959D01*
X478565Y223515D02*
X493235Y223515D01*
X478565Y223515D02*
X478565Y226585D01*
X493235Y226585D01*
X493235Y223515D01*
X493235Y225459D02*
X478565Y225459D01*
X478565Y230015D02*
X493235Y230015D01*
X478565Y230015D02*
X478565Y233085D01*
X493235Y233085D01*
X493235Y230015D01*
X493235Y231959D02*
X478565Y231959D01*
X478565Y236515D02*
X493235Y236515D01*
X478565Y236515D02*
X478565Y239585D01*
X493235Y239585D01*
X493235Y236515D01*
X493235Y238459D02*
X478565Y238459D01*
X478565Y243015D02*
X493235Y243015D01*
X478565Y243015D02*
X478565Y246085D01*
X493235Y246085D01*
X493235Y243015D01*
X493235Y244959D02*
X478565Y244959D01*
X478565Y249515D02*
X493235Y249515D01*
X478565Y249515D02*
X478565Y252585D01*
X493235Y252585D01*
X493235Y249515D01*
X493235Y251459D02*
X478565Y251459D01*
X478565Y256015D02*
X493235Y256015D01*
X478565Y256015D02*
X478565Y259085D01*
X493235Y259085D01*
X493235Y256015D01*
X493235Y257959D02*
X478565Y257959D01*
X478565Y262515D02*
X493235Y262515D01*
X478565Y262515D02*
X478565Y265585D01*
X493235Y265585D01*
X493235Y262515D01*
X493235Y264459D02*
X478565Y264459D01*
D15*
X142900Y141400D03*
X161900Y141400D03*
X152400Y163400D03*
D16*
X368300Y444500D03*
X393700Y444500D03*
X393700Y469900D03*
X368300Y469900D03*
X368300Y419100D03*
X393700Y419100D03*
D17*
X111500Y235100D03*
X111500Y467600D03*
D18*
X112200Y348700D03*
D19*
X574700Y393700D03*
X593700Y393700D03*
D20*
X330200Y358800D03*
X330200Y377800D03*
D19*
X479400Y431800D03*
X460400Y431800D03*
D21*
X203200Y35900D03*
X203200Y14900D03*
X254000Y35900D03*
X254000Y14900D03*
X304800Y35900D03*
X304800Y14900D03*
X355600Y35900D03*
X355600Y14900D03*
X406400Y35900D03*
X406400Y14900D03*
X457200Y35900D03*
X457200Y14900D03*
X508000Y35900D03*
X508000Y14900D03*
X558800Y35900D03*
X558800Y14900D03*
D20*
X317500Y187300D03*
X317500Y168300D03*
D21*
X152400Y35900D03*
X152400Y14900D03*
D20*
X114300Y15900D03*
X114300Y34900D03*
X241300Y346100D03*
X241300Y365100D03*
X292100Y346100D03*
X292100Y365100D03*
X304800Y415900D03*
X304800Y396900D03*
X266700Y403200D03*
X266700Y384200D03*
X584200Y422300D03*
X584200Y441300D03*
D19*
X542900Y469900D03*
X523900Y469900D03*
M02*
