G04 EAGLE Gerber RS-274X export*
G75*
%MOMM*%
%FSLAX34Y34*%
%LPD*%
%INBottom Copper*%
%IPPOS*%
%AMOC8*
5,1,8,0,0,1.08239X$1,22.5*%
G01*
%ADD10C,1.625600*%
%ADD11C,0.685800*%
%ADD12C,0.203200*%

G36*
X491818Y396244D02*
X491818Y396244D01*
X491837Y396242D01*
X491939Y396264D01*
X492041Y396280D01*
X492058Y396290D01*
X492078Y396294D01*
X492167Y396347D01*
X492258Y396396D01*
X492272Y396410D01*
X492289Y396420D01*
X492356Y396499D01*
X492428Y396574D01*
X492436Y396592D01*
X492449Y396607D01*
X492488Y396703D01*
X492531Y396797D01*
X492533Y396817D01*
X492541Y396835D01*
X492559Y397002D01*
X492559Y990600D01*
X492556Y990620D01*
X492558Y990639D01*
X492536Y990741D01*
X492520Y990843D01*
X492510Y990860D01*
X492506Y990880D01*
X492453Y990969D01*
X492404Y991060D01*
X492390Y991074D01*
X492380Y991091D01*
X492301Y991158D01*
X492226Y991230D01*
X492208Y991238D01*
X492193Y991251D01*
X492097Y991290D01*
X492003Y991333D01*
X491983Y991335D01*
X491965Y991343D01*
X491798Y991361D01*
X16002Y991361D01*
X15982Y991358D01*
X15963Y991360D01*
X15861Y991338D01*
X15759Y991322D01*
X15742Y991312D01*
X15722Y991308D01*
X15633Y991255D01*
X15542Y991206D01*
X15528Y991192D01*
X15511Y991182D01*
X15444Y991103D01*
X15372Y991028D01*
X15364Y991010D01*
X15351Y990995D01*
X15312Y990899D01*
X15269Y990805D01*
X15267Y990785D01*
X15259Y990767D01*
X15241Y990600D01*
X15241Y397002D01*
X15244Y396982D01*
X15242Y396963D01*
X15264Y396861D01*
X15280Y396759D01*
X15290Y396742D01*
X15294Y396722D01*
X15347Y396633D01*
X15396Y396542D01*
X15410Y396528D01*
X15420Y396511D01*
X15499Y396444D01*
X15574Y396372D01*
X15592Y396364D01*
X15607Y396351D01*
X15703Y396312D01*
X15797Y396269D01*
X15817Y396267D01*
X15835Y396259D01*
X16002Y396241D01*
X491798Y396241D01*
X491818Y396244D01*
G37*
%LPC*%
G36*
X430714Y515238D02*
X430714Y515238D01*
X428706Y516070D01*
X427170Y517606D01*
X426338Y519614D01*
X426338Y521535D01*
X426324Y521625D01*
X426316Y521716D01*
X426304Y521746D01*
X426299Y521778D01*
X426256Y521858D01*
X426220Y521942D01*
X426194Y521974D01*
X426183Y521995D01*
X426160Y522017D01*
X426115Y522073D01*
X382373Y565815D01*
X382299Y565868D01*
X382230Y565928D01*
X382200Y565940D01*
X382173Y565959D01*
X382086Y565986D01*
X382002Y566020D01*
X381961Y566024D01*
X381938Y566031D01*
X381906Y566030D01*
X381835Y566038D01*
X379914Y566038D01*
X377906Y566870D01*
X376370Y568406D01*
X375538Y570414D01*
X375538Y572589D01*
X375527Y572660D01*
X375525Y572731D01*
X375507Y572780D01*
X375499Y572832D01*
X375465Y572895D01*
X375440Y572962D01*
X375408Y573003D01*
X375383Y573049D01*
X375331Y573098D01*
X375287Y573154D01*
X375243Y573183D01*
X375205Y573218D01*
X375140Y573249D01*
X375080Y573287D01*
X375029Y573300D01*
X374982Y573322D01*
X374911Y573330D01*
X374841Y573347D01*
X374789Y573343D01*
X374738Y573349D01*
X374667Y573334D01*
X374596Y573328D01*
X374548Y573308D01*
X374497Y573297D01*
X374436Y573260D01*
X374370Y573232D01*
X374314Y573187D01*
X374286Y573171D01*
X374271Y573153D01*
X374239Y573127D01*
X361285Y560173D01*
X361232Y560099D01*
X361172Y560030D01*
X361160Y560000D01*
X361141Y559973D01*
X361114Y559886D01*
X361080Y559802D01*
X361076Y559761D01*
X361069Y559738D01*
X361070Y559706D01*
X361062Y559635D01*
X361062Y557714D01*
X360230Y555706D01*
X358694Y554170D01*
X356686Y553338D01*
X354514Y553338D01*
X352506Y554170D01*
X350970Y555706D01*
X350138Y557714D01*
X350138Y559886D01*
X350970Y561894D01*
X352506Y563430D01*
X354514Y564262D01*
X356435Y564262D01*
X356525Y564276D01*
X356616Y564284D01*
X356646Y564296D01*
X356678Y564301D01*
X356758Y564344D01*
X356842Y564380D01*
X356874Y564406D01*
X356895Y564417D01*
X356917Y564440D01*
X356973Y564485D01*
X375315Y582827D01*
X375368Y582901D01*
X375428Y582970D01*
X375440Y583000D01*
X375459Y583027D01*
X375486Y583114D01*
X375520Y583198D01*
X375524Y583239D01*
X375531Y583262D01*
X375530Y583294D01*
X375538Y583365D01*
X375538Y585286D01*
X376370Y587294D01*
X377906Y588830D01*
X379914Y589662D01*
X382086Y589662D01*
X384094Y588830D01*
X385630Y587294D01*
X386462Y585286D01*
X386462Y583114D01*
X385630Y581106D01*
X384094Y579570D01*
X382086Y578738D01*
X380165Y578738D01*
X380075Y578724D01*
X379984Y578716D01*
X379954Y578704D01*
X379922Y578699D01*
X379842Y578656D01*
X379758Y578620D01*
X379726Y578594D01*
X379705Y578583D01*
X379683Y578560D01*
X379627Y578515D01*
X379373Y578261D01*
X379331Y578203D01*
X379282Y578151D01*
X379260Y578104D01*
X379229Y578062D01*
X379208Y577993D01*
X379178Y577928D01*
X379172Y577876D01*
X379157Y577826D01*
X379159Y577755D01*
X379151Y577684D01*
X379162Y577633D01*
X379163Y577581D01*
X379188Y577513D01*
X379203Y577443D01*
X379230Y577398D01*
X379248Y577350D01*
X379293Y577294D01*
X379329Y577232D01*
X379369Y577198D01*
X379401Y577158D01*
X379462Y577119D01*
X379516Y577072D01*
X379565Y577053D01*
X379608Y577025D01*
X379678Y577007D01*
X379744Y576980D01*
X379816Y576972D01*
X379847Y576964D01*
X379870Y576966D01*
X379911Y576962D01*
X382086Y576962D01*
X384094Y576130D01*
X385630Y574594D01*
X386462Y572586D01*
X386462Y570665D01*
X386476Y570575D01*
X386484Y570484D01*
X386496Y570454D01*
X386501Y570422D01*
X386544Y570342D01*
X386580Y570258D01*
X386606Y570226D01*
X386617Y570205D01*
X386640Y570183D01*
X386685Y570127D01*
X430427Y526385D01*
X430501Y526332D01*
X430570Y526272D01*
X430600Y526260D01*
X430627Y526241D01*
X430714Y526214D01*
X430798Y526180D01*
X430839Y526176D01*
X430862Y526169D01*
X430894Y526170D01*
X430965Y526162D01*
X432886Y526162D01*
X434894Y525330D01*
X436430Y523794D01*
X437262Y521786D01*
X437262Y519614D01*
X436430Y517606D01*
X434894Y516070D01*
X432886Y515238D01*
X430714Y515238D01*
G37*
%LPD*%
%LPC*%
G36*
X306914Y785138D02*
X306914Y785138D01*
X304906Y785970D01*
X303370Y787506D01*
X302538Y789514D01*
X302538Y791435D01*
X302524Y791525D01*
X302516Y791616D01*
X302504Y791646D01*
X302499Y791678D01*
X302456Y791758D01*
X302420Y791842D01*
X302394Y791874D01*
X302383Y791895D01*
X302360Y791917D01*
X302315Y791973D01*
X284845Y809444D01*
X284828Y809455D01*
X284816Y809471D01*
X284729Y809527D01*
X284645Y809587D01*
X284626Y809593D01*
X284609Y809604D01*
X284508Y809629D01*
X284410Y809660D01*
X284390Y809659D01*
X284370Y809664D01*
X284268Y809656D01*
X284164Y809653D01*
X284145Y809647D01*
X284125Y809645D01*
X284030Y809605D01*
X283933Y809569D01*
X283917Y809556D01*
X283899Y809549D01*
X283768Y809444D01*
X282494Y808170D01*
X280486Y807338D01*
X278314Y807338D01*
X276306Y808170D01*
X274770Y809706D01*
X273938Y811714D01*
X273938Y813886D01*
X274770Y815894D01*
X276306Y817430D01*
X278314Y818262D01*
X280486Y818262D01*
X282494Y817430D01*
X283852Y816072D01*
X283926Y816019D01*
X283996Y815959D01*
X284026Y815947D01*
X284052Y815928D01*
X284139Y815901D01*
X284224Y815867D01*
X284265Y815863D01*
X284287Y815856D01*
X284319Y815857D01*
X284391Y815849D01*
X287063Y815849D01*
X306627Y796285D01*
X306701Y796232D01*
X306770Y796172D01*
X306800Y796160D01*
X306827Y796141D01*
X306914Y796114D01*
X306998Y796080D01*
X307039Y796076D01*
X307062Y796069D01*
X307094Y796070D01*
X307165Y796062D01*
X309086Y796062D01*
X311094Y795230D01*
X312630Y793694D01*
X313462Y791686D01*
X313462Y789514D01*
X312630Y787506D01*
X311094Y785970D01*
X309086Y785138D01*
X306914Y785138D01*
G37*
%LPD*%
%LPC*%
G36*
X429779Y713739D02*
X429779Y713739D01*
X426044Y715286D01*
X423186Y718144D01*
X421639Y721879D01*
X421639Y725921D01*
X423186Y729656D01*
X426044Y732514D01*
X429779Y734061D01*
X433821Y734061D01*
X437556Y732514D01*
X440414Y729656D01*
X441961Y725921D01*
X441961Y721879D01*
X440414Y718144D01*
X437556Y715286D01*
X433821Y713739D01*
X429779Y713739D01*
G37*
%LPD*%
%LPC*%
G36*
X455179Y713739D02*
X455179Y713739D01*
X451444Y715286D01*
X448586Y718144D01*
X447039Y721879D01*
X447039Y725921D01*
X448586Y729656D01*
X451444Y732514D01*
X455179Y734061D01*
X459221Y734061D01*
X462956Y732514D01*
X465814Y729656D01*
X467361Y725921D01*
X467361Y721879D01*
X465814Y718144D01*
X462956Y715286D01*
X459221Y713739D01*
X455179Y713739D01*
G37*
%LPD*%
%LPC*%
G36*
X455179Y739139D02*
X455179Y739139D01*
X451444Y740686D01*
X448586Y743544D01*
X447039Y747279D01*
X447039Y751321D01*
X448586Y755056D01*
X451444Y757914D01*
X455179Y759461D01*
X459221Y759461D01*
X462956Y757914D01*
X465814Y755056D01*
X467361Y751321D01*
X467361Y747279D01*
X465814Y743544D01*
X462956Y740686D01*
X459221Y739139D01*
X455179Y739139D01*
G37*
%LPD*%
%LPC*%
G36*
X429779Y688339D02*
X429779Y688339D01*
X426044Y689886D01*
X423186Y692744D01*
X421639Y696479D01*
X421639Y700521D01*
X423186Y704256D01*
X426044Y707114D01*
X429779Y708661D01*
X433821Y708661D01*
X437556Y707114D01*
X440414Y704256D01*
X441961Y700521D01*
X441961Y696479D01*
X440414Y692744D01*
X437556Y689886D01*
X433821Y688339D01*
X429779Y688339D01*
G37*
%LPD*%
%LPC*%
G36*
X455179Y688339D02*
X455179Y688339D01*
X451444Y689886D01*
X448586Y692744D01*
X447039Y696479D01*
X447039Y700521D01*
X448586Y704256D01*
X451444Y707114D01*
X455179Y708661D01*
X459221Y708661D01*
X462956Y707114D01*
X465814Y704256D01*
X467361Y700521D01*
X467361Y696479D01*
X465814Y692744D01*
X462956Y689886D01*
X459221Y688339D01*
X455179Y688339D01*
G37*
%LPD*%
%LPC*%
G36*
X46749Y597509D02*
X46749Y597509D01*
X44437Y598467D01*
X42667Y600237D01*
X41709Y602549D01*
X41709Y605051D01*
X42667Y607363D01*
X44437Y609133D01*
X46749Y610091D01*
X49251Y610091D01*
X51563Y609133D01*
X53333Y607363D01*
X54291Y605051D01*
X54291Y602549D01*
X53333Y600237D01*
X51563Y598467D01*
X49251Y597509D01*
X46749Y597509D01*
G37*
%LPD*%
%LPC*%
G36*
X46749Y567009D02*
X46749Y567009D01*
X44437Y567967D01*
X42667Y569737D01*
X41709Y572049D01*
X41709Y574551D01*
X42667Y576863D01*
X44437Y578633D01*
X46749Y579591D01*
X49251Y579591D01*
X51563Y578633D01*
X53333Y576863D01*
X54291Y574551D01*
X54291Y572049D01*
X53333Y569737D01*
X51563Y567967D01*
X49251Y567009D01*
X46749Y567009D01*
G37*
%LPD*%
%LPC*%
G36*
X433323Y750823D02*
X433323Y750823D01*
X433323Y759860D01*
X434298Y759706D01*
X435895Y759187D01*
X437392Y758425D01*
X438750Y757438D01*
X439938Y756250D01*
X440925Y754892D01*
X441687Y753395D01*
X442206Y751798D01*
X442360Y750823D01*
X433323Y750823D01*
G37*
%LPD*%
%LPC*%
G36*
X421240Y750823D02*
X421240Y750823D01*
X421394Y751798D01*
X421913Y753395D01*
X422675Y754892D01*
X423662Y756250D01*
X424850Y757438D01*
X426208Y758425D01*
X427705Y759187D01*
X429302Y759706D01*
X430277Y759860D01*
X430277Y750823D01*
X421240Y750823D01*
G37*
%LPD*%
%LPC*%
G36*
X433323Y747777D02*
X433323Y747777D01*
X442360Y747777D01*
X442206Y746802D01*
X441687Y745205D01*
X440925Y743708D01*
X439938Y742350D01*
X438750Y741162D01*
X437392Y740175D01*
X435895Y739413D01*
X434298Y738894D01*
X433323Y738740D01*
X433323Y747777D01*
G37*
%LPD*%
%LPC*%
G36*
X429302Y738894D02*
X429302Y738894D01*
X427705Y739413D01*
X426208Y740175D01*
X424850Y741162D01*
X423662Y742350D01*
X422675Y743708D01*
X421913Y745205D01*
X421394Y746802D01*
X421240Y747777D01*
X430277Y747777D01*
X430277Y738740D01*
X429302Y738894D01*
G37*
%LPD*%
%LPC*%
G36*
X343852Y953452D02*
X343852Y953452D01*
X343852Y958397D01*
X344641Y958240D01*
X345728Y957790D01*
X346706Y957137D01*
X347537Y956306D01*
X348190Y955328D01*
X348640Y954241D01*
X348797Y953452D01*
X343852Y953452D01*
G37*
%LPD*%
%LPC*%
G36*
X331152Y915352D02*
X331152Y915352D01*
X331152Y920297D01*
X331941Y920140D01*
X333028Y919690D01*
X334006Y919037D01*
X334837Y918206D01*
X335490Y917228D01*
X335940Y916141D01*
X336097Y915352D01*
X331152Y915352D01*
G37*
%LPD*%
%LPC*%
G36*
X356552Y750252D02*
X356552Y750252D01*
X356552Y755197D01*
X357341Y755040D01*
X358428Y754590D01*
X359406Y753937D01*
X360237Y753106D01*
X360890Y752128D01*
X361340Y751041D01*
X361497Y750252D01*
X356552Y750252D01*
G37*
%LPD*%
%LPC*%
G36*
X216852Y699452D02*
X216852Y699452D01*
X216852Y704397D01*
X217641Y704240D01*
X218728Y703790D01*
X219706Y703137D01*
X220537Y702306D01*
X221190Y701328D01*
X221640Y700241D01*
X221797Y699452D01*
X216852Y699452D01*
G37*
%LPD*%
%LPC*%
G36*
X356552Y648652D02*
X356552Y648652D01*
X356552Y653597D01*
X357341Y653440D01*
X358428Y652990D01*
X359406Y652337D01*
X360237Y651506D01*
X360890Y650528D01*
X361340Y649441D01*
X361497Y648652D01*
X356552Y648652D01*
G37*
%LPD*%
%LPC*%
G36*
X337003Y953452D02*
X337003Y953452D01*
X337160Y954241D01*
X337610Y955328D01*
X338263Y956306D01*
X339094Y957137D01*
X340072Y957790D01*
X341159Y958240D01*
X341948Y958397D01*
X341948Y953452D01*
X337003Y953452D01*
G37*
%LPD*%
%LPC*%
G36*
X343852Y951548D02*
X343852Y951548D01*
X348797Y951548D01*
X348640Y950759D01*
X348190Y949672D01*
X347537Y948694D01*
X346706Y947863D01*
X345728Y947210D01*
X344641Y946760D01*
X343852Y946603D01*
X343852Y951548D01*
G37*
%LPD*%
%LPC*%
G36*
X324303Y915352D02*
X324303Y915352D01*
X324460Y916141D01*
X324910Y917228D01*
X325563Y918206D01*
X326394Y919037D01*
X327372Y919690D01*
X328459Y920140D01*
X329248Y920297D01*
X329248Y915352D01*
X324303Y915352D01*
G37*
%LPD*%
%LPC*%
G36*
X331152Y913448D02*
X331152Y913448D01*
X336097Y913448D01*
X335940Y912659D01*
X335490Y911572D01*
X334837Y910594D01*
X334006Y909763D01*
X333028Y909110D01*
X331941Y908660D01*
X331152Y908503D01*
X331152Y913448D01*
G37*
%LPD*%
%LPC*%
G36*
X356552Y748348D02*
X356552Y748348D01*
X361497Y748348D01*
X361340Y747559D01*
X360890Y746472D01*
X360237Y745494D01*
X359406Y744663D01*
X358428Y744010D01*
X357341Y743560D01*
X356552Y743403D01*
X356552Y748348D01*
G37*
%LPD*%
%LPC*%
G36*
X349703Y750252D02*
X349703Y750252D01*
X349860Y751041D01*
X350310Y752128D01*
X350963Y753106D01*
X351794Y753937D01*
X352772Y754590D01*
X353859Y755040D01*
X354648Y755197D01*
X354648Y750252D01*
X349703Y750252D01*
G37*
%LPD*%
%LPC*%
G36*
X210003Y699452D02*
X210003Y699452D01*
X210160Y700241D01*
X210610Y701328D01*
X211263Y702306D01*
X212094Y703137D01*
X213072Y703790D01*
X214159Y704240D01*
X214948Y704397D01*
X214948Y699452D01*
X210003Y699452D01*
G37*
%LPD*%
%LPC*%
G36*
X216852Y697548D02*
X216852Y697548D01*
X221797Y697548D01*
X221640Y696759D01*
X221190Y695672D01*
X220537Y694694D01*
X219706Y693863D01*
X218728Y693210D01*
X217641Y692760D01*
X216852Y692603D01*
X216852Y697548D01*
G37*
%LPD*%
%LPC*%
G36*
X349703Y648652D02*
X349703Y648652D01*
X349860Y649441D01*
X350310Y650528D01*
X350963Y651506D01*
X351794Y652337D01*
X352772Y652990D01*
X353859Y653440D01*
X354648Y653597D01*
X354648Y648652D01*
X349703Y648652D01*
G37*
%LPD*%
%LPC*%
G36*
X356552Y646748D02*
X356552Y646748D01*
X361497Y646748D01*
X361340Y645959D01*
X360890Y644872D01*
X360237Y643894D01*
X359406Y643063D01*
X358428Y642410D01*
X357341Y641960D01*
X356552Y641803D01*
X356552Y646748D01*
G37*
%LPD*%
%LPC*%
G36*
X341159Y946760D02*
X341159Y946760D01*
X340072Y947210D01*
X339094Y947863D01*
X338263Y948694D01*
X337610Y949672D01*
X337160Y950759D01*
X337003Y951548D01*
X341948Y951548D01*
X341948Y946603D01*
X341159Y946760D01*
G37*
%LPD*%
%LPC*%
G36*
X328459Y908660D02*
X328459Y908660D01*
X327372Y909110D01*
X326394Y909763D01*
X325563Y910594D01*
X324910Y911572D01*
X324460Y912659D01*
X324303Y913448D01*
X329248Y913448D01*
X329248Y908503D01*
X328459Y908660D01*
G37*
%LPD*%
%LPC*%
G36*
X214159Y692760D02*
X214159Y692760D01*
X213072Y693210D01*
X212094Y693863D01*
X211263Y694694D01*
X210610Y695672D01*
X210160Y696759D01*
X210003Y697548D01*
X214948Y697548D01*
X214948Y692603D01*
X214159Y692760D01*
G37*
%LPD*%
%LPC*%
G36*
X353859Y641960D02*
X353859Y641960D01*
X352772Y642410D01*
X351794Y643063D01*
X350963Y643894D01*
X350310Y644872D01*
X349860Y645959D01*
X349703Y646748D01*
X354648Y646748D01*
X354648Y641803D01*
X353859Y641960D01*
G37*
%LPD*%
%LPC*%
G36*
X353859Y743560D02*
X353859Y743560D01*
X352772Y744010D01*
X351794Y744663D01*
X350963Y745494D01*
X350310Y746472D01*
X349860Y747559D01*
X349703Y748348D01*
X354648Y748348D01*
X354648Y743403D01*
X353859Y743560D01*
G37*
%LPD*%
%LPC*%
G36*
X431799Y749299D02*
X431799Y749299D01*
X431799Y749301D01*
X431801Y749301D01*
X431801Y749299D01*
X431799Y749299D01*
G37*
%LPD*%
D10*
X457200Y723900D03*
X431800Y723900D03*
X431800Y698500D03*
X457200Y698500D03*
X457200Y749300D03*
X431800Y749300D03*
D11*
X308000Y790600D03*
D12*
X285800Y812800D01*
X279400Y812800D01*
D11*
X279400Y812800D03*
X381000Y571500D03*
D12*
X431800Y520700D01*
D11*
X431800Y520700D03*
X381000Y584200D03*
D12*
X355600Y558800D01*
D11*
X355600Y558800D03*
X215900Y698500D03*
X330200Y914400D03*
X342900Y952500D03*
X355600Y749300D03*
X355600Y647700D03*
M02*
