G04 EAGLE Gerber RS-274X export*
G75*
%MOMM*%
%FSLAX34Y34*%
%LPD*%
%INSoldermask Top*%
%IPPOS*%
%AMOC8*
5,1,8,0,0,1.08239X$1,22.5*%
G01*
%ADD10R,0.651600X1.701600*%
%ADD11R,1.701600X0.651600*%
%ADD12R,0.361600X0.891600*%
%ADD13R,0.891600X0.361600*%
%ADD14C,0.204637*%
%ADD15R,0.701600X1.201600*%
%ADD16C,1.727200*%
%ADD17R,5.151600X2.201600*%
%ADD18R,4.101600X4.101600*%
%ADD19R,1.401600X1.601600*%
%ADD20R,1.601600X1.401600*%
%ADD21R,1.301600X1.301600*%

G36*
X103392Y484820D02*
X103392Y484820D01*
X103435Y484832D01*
X103501Y484839D01*
X105184Y485290D01*
X105225Y485309D01*
X105288Y485328D01*
X106868Y486065D01*
X106905Y486091D01*
X106964Y486120D01*
X108392Y487120D01*
X108423Y487152D01*
X108476Y487191D01*
X109709Y488424D01*
X109734Y488460D01*
X109780Y488508D01*
X110780Y489936D01*
X110798Y489977D01*
X110835Y490032D01*
X111572Y491612D01*
X111583Y491655D01*
X111610Y491716D01*
X112061Y493399D01*
X112063Y493431D01*
X112070Y493452D01*
X112070Y493467D01*
X112080Y493508D01*
X112232Y495245D01*
X112228Y495289D01*
X112232Y495355D01*
X112080Y497092D01*
X112068Y497135D01*
X112061Y497201D01*
X111610Y498884D01*
X111591Y498925D01*
X111572Y498988D01*
X110835Y500568D01*
X110809Y500605D01*
X110780Y500664D01*
X109780Y502092D01*
X109748Y502123D01*
X109709Y502176D01*
X108476Y503409D01*
X108440Y503434D01*
X108392Y503480D01*
X106964Y504480D01*
X106923Y504498D01*
X106868Y504535D01*
X105288Y505272D01*
X105245Y505283D01*
X105184Y505310D01*
X103501Y505761D01*
X103456Y505764D01*
X103392Y505780D01*
X101655Y505932D01*
X101611Y505928D01*
X101545Y505932D01*
X99808Y505780D01*
X99765Y505768D01*
X99699Y505761D01*
X98016Y505310D01*
X97975Y505291D01*
X97912Y505272D01*
X96332Y504535D01*
X96295Y504509D01*
X96236Y504480D01*
X94808Y503480D01*
X94777Y503448D01*
X94724Y503409D01*
X93491Y502176D01*
X93466Y502140D01*
X93420Y502092D01*
X92420Y500664D01*
X92402Y500623D01*
X92365Y500568D01*
X91628Y498988D01*
X91617Y498945D01*
X91590Y498884D01*
X91139Y497201D01*
X91136Y497156D01*
X91120Y497092D01*
X90968Y495355D01*
X90972Y495311D01*
X90968Y495245D01*
X91120Y493508D01*
X91132Y493465D01*
X91136Y493431D01*
X91136Y493415D01*
X91138Y493410D01*
X91139Y493399D01*
X91590Y491716D01*
X91609Y491675D01*
X91628Y491612D01*
X92365Y490032D01*
X92391Y489995D01*
X92420Y489936D01*
X93420Y488508D01*
X93452Y488477D01*
X93491Y488424D01*
X94724Y487191D01*
X94760Y487166D01*
X94808Y487120D01*
X96236Y486120D01*
X96277Y486102D01*
X96332Y486065D01*
X97912Y485328D01*
X97955Y485317D01*
X98016Y485290D01*
X99699Y484839D01*
X99744Y484836D01*
X99808Y484820D01*
X101545Y484668D01*
X101589Y484672D01*
X101655Y484668D01*
X103392Y484820D01*
G37*
G36*
X103392Y14920D02*
X103392Y14920D01*
X103435Y14932D01*
X103501Y14939D01*
X105184Y15390D01*
X105225Y15409D01*
X105288Y15428D01*
X106868Y16165D01*
X106905Y16191D01*
X106964Y16220D01*
X108392Y17220D01*
X108423Y17252D01*
X108476Y17291D01*
X109709Y18524D01*
X109734Y18560D01*
X109780Y18608D01*
X110780Y20036D01*
X110798Y20077D01*
X110835Y20132D01*
X111572Y21712D01*
X111583Y21755D01*
X111610Y21816D01*
X112061Y23499D01*
X112063Y23531D01*
X112070Y23552D01*
X112070Y23567D01*
X112080Y23608D01*
X112232Y25345D01*
X112228Y25389D01*
X112232Y25455D01*
X112080Y27192D01*
X112068Y27235D01*
X112061Y27301D01*
X111610Y28984D01*
X111591Y29025D01*
X111572Y29088D01*
X110835Y30668D01*
X110809Y30705D01*
X110780Y30764D01*
X109780Y32192D01*
X109748Y32223D01*
X109709Y32276D01*
X108476Y33509D01*
X108440Y33534D01*
X108392Y33580D01*
X106964Y34580D01*
X106923Y34598D01*
X106868Y34635D01*
X105288Y35372D01*
X105245Y35383D01*
X105184Y35410D01*
X103501Y35861D01*
X103456Y35864D01*
X103392Y35880D01*
X101655Y36032D01*
X101611Y36028D01*
X101545Y36032D01*
X99808Y35880D01*
X99765Y35868D01*
X99699Y35861D01*
X98016Y35410D01*
X97975Y35391D01*
X97912Y35372D01*
X96332Y34635D01*
X96295Y34609D01*
X96236Y34580D01*
X94808Y33580D01*
X94777Y33548D01*
X94724Y33509D01*
X93491Y32276D01*
X93466Y32240D01*
X93420Y32192D01*
X92420Y30764D01*
X92402Y30723D01*
X92365Y30668D01*
X91628Y29088D01*
X91617Y29045D01*
X91590Y28984D01*
X91139Y27301D01*
X91136Y27256D01*
X91120Y27192D01*
X90968Y25455D01*
X90972Y25411D01*
X90968Y25345D01*
X91120Y23608D01*
X91132Y23565D01*
X91136Y23531D01*
X91136Y23515D01*
X91138Y23510D01*
X91139Y23499D01*
X91590Y21816D01*
X91609Y21775D01*
X91628Y21712D01*
X92365Y20132D01*
X92391Y20095D01*
X92420Y20036D01*
X93420Y18608D01*
X93452Y18577D01*
X93491Y18524D01*
X94724Y17291D01*
X94760Y17266D01*
X94808Y17220D01*
X96236Y16220D01*
X96277Y16202D01*
X96332Y16165D01*
X97912Y15428D01*
X97955Y15417D01*
X98016Y15390D01*
X99699Y14939D01*
X99744Y14936D01*
X99808Y14920D01*
X101545Y14768D01*
X101589Y14772D01*
X101655Y14768D01*
X103392Y14920D01*
G37*
G36*
X662192Y14920D02*
X662192Y14920D01*
X662235Y14932D01*
X662301Y14939D01*
X663984Y15390D01*
X664025Y15409D01*
X664088Y15428D01*
X665668Y16165D01*
X665705Y16191D01*
X665764Y16220D01*
X667192Y17220D01*
X667223Y17252D01*
X667276Y17291D01*
X668509Y18524D01*
X668534Y18560D01*
X668580Y18608D01*
X669580Y20036D01*
X669598Y20077D01*
X669635Y20132D01*
X670372Y21712D01*
X670383Y21755D01*
X670410Y21816D01*
X670861Y23499D01*
X670863Y23531D01*
X670870Y23552D01*
X670870Y23567D01*
X670880Y23608D01*
X671032Y25345D01*
X671028Y25389D01*
X671032Y25455D01*
X670880Y27192D01*
X670868Y27235D01*
X670861Y27301D01*
X670410Y28984D01*
X670391Y29025D01*
X670372Y29088D01*
X669635Y30668D01*
X669609Y30705D01*
X669580Y30764D01*
X668580Y32192D01*
X668548Y32223D01*
X668509Y32276D01*
X667276Y33509D01*
X667240Y33534D01*
X667192Y33580D01*
X665764Y34580D01*
X665723Y34598D01*
X665668Y34635D01*
X664088Y35372D01*
X664045Y35383D01*
X663984Y35410D01*
X662301Y35861D01*
X662256Y35864D01*
X662192Y35880D01*
X660455Y36032D01*
X660411Y36028D01*
X660345Y36032D01*
X658608Y35880D01*
X658565Y35868D01*
X658499Y35861D01*
X656816Y35410D01*
X656775Y35391D01*
X656712Y35372D01*
X655132Y34635D01*
X655095Y34609D01*
X655036Y34580D01*
X653608Y33580D01*
X653577Y33548D01*
X653524Y33509D01*
X652291Y32276D01*
X652266Y32240D01*
X652220Y32192D01*
X651220Y30764D01*
X651202Y30723D01*
X651165Y30668D01*
X650428Y29088D01*
X650417Y29045D01*
X650390Y28984D01*
X649939Y27301D01*
X649936Y27256D01*
X649920Y27192D01*
X649768Y25455D01*
X649772Y25411D01*
X649768Y25345D01*
X649920Y23608D01*
X649932Y23565D01*
X649936Y23531D01*
X649936Y23515D01*
X649938Y23510D01*
X649939Y23499D01*
X650390Y21816D01*
X650409Y21775D01*
X650428Y21712D01*
X651165Y20132D01*
X651191Y20095D01*
X651220Y20036D01*
X652220Y18608D01*
X652252Y18577D01*
X652291Y18524D01*
X653524Y17291D01*
X653560Y17266D01*
X653608Y17220D01*
X655036Y16220D01*
X655077Y16202D01*
X655132Y16165D01*
X656712Y15428D01*
X656755Y15417D01*
X656816Y15390D01*
X658499Y14939D01*
X658544Y14936D01*
X658608Y14920D01*
X660345Y14768D01*
X660389Y14772D01*
X660455Y14768D01*
X662192Y14920D01*
G37*
D10*
X378400Y237600D03*
X386400Y237600D03*
X394400Y237600D03*
X402400Y237600D03*
X410400Y237600D03*
X418400Y237600D03*
X426400Y237600D03*
X434400Y237600D03*
D11*
X448200Y251400D03*
X448200Y259400D03*
X448200Y267400D03*
X448200Y275400D03*
X448200Y283400D03*
X448200Y291400D03*
X448200Y299400D03*
X448200Y307400D03*
D10*
X434400Y321200D03*
X426400Y321200D03*
X418400Y321200D03*
X410400Y321200D03*
X402400Y321200D03*
X394400Y321200D03*
X386400Y321200D03*
X378400Y321200D03*
D11*
X364600Y307400D03*
X364600Y299400D03*
X364600Y291400D03*
X364600Y283400D03*
X364600Y275400D03*
X364600Y267400D03*
X364600Y259400D03*
X364600Y251400D03*
D12*
X597100Y399400D03*
X602100Y399400D03*
X607100Y399400D03*
X612100Y399400D03*
X617100Y399400D03*
X622100Y399400D03*
D13*
X629300Y406600D03*
X629300Y411600D03*
X629300Y416600D03*
X629300Y421600D03*
X629300Y426600D03*
X629300Y431600D03*
D12*
X622100Y438800D03*
X617100Y438800D03*
X612100Y438800D03*
X607100Y438800D03*
X602100Y438800D03*
X597100Y438800D03*
D13*
X589900Y431600D03*
X589900Y426600D03*
X589900Y421600D03*
X589900Y416600D03*
X589900Y411600D03*
X589900Y406600D03*
D14*
X512035Y262515D02*
X497365Y262515D01*
X497365Y265585D01*
X512035Y265585D01*
X512035Y262515D01*
X512035Y264459D02*
X497365Y264459D01*
X497365Y256015D02*
X512035Y256015D01*
X497365Y256015D02*
X497365Y259085D01*
X512035Y259085D01*
X512035Y256015D01*
X512035Y257959D02*
X497365Y257959D01*
X497365Y249515D02*
X512035Y249515D01*
X497365Y249515D02*
X497365Y252585D01*
X512035Y252585D01*
X512035Y249515D01*
X512035Y251459D02*
X497365Y251459D01*
X497365Y243015D02*
X512035Y243015D01*
X497365Y243015D02*
X497365Y246085D01*
X512035Y246085D01*
X512035Y243015D01*
X512035Y244959D02*
X497365Y244959D01*
X497365Y236515D02*
X512035Y236515D01*
X497365Y236515D02*
X497365Y239585D01*
X512035Y239585D01*
X512035Y236515D01*
X512035Y238459D02*
X497365Y238459D01*
X497365Y230015D02*
X512035Y230015D01*
X497365Y230015D02*
X497365Y233085D01*
X512035Y233085D01*
X512035Y230015D01*
X512035Y231959D02*
X497365Y231959D01*
X497365Y223515D02*
X512035Y223515D01*
X497365Y223515D02*
X497365Y226585D01*
X512035Y226585D01*
X512035Y223515D01*
X512035Y225459D02*
X497365Y225459D01*
X497365Y217015D02*
X512035Y217015D01*
X497365Y217015D02*
X497365Y220085D01*
X512035Y220085D01*
X512035Y217015D01*
X512035Y218959D02*
X497365Y218959D01*
X554765Y217015D02*
X569435Y217015D01*
X554765Y217015D02*
X554765Y220085D01*
X569435Y220085D01*
X569435Y217015D01*
X569435Y218959D02*
X554765Y218959D01*
X554765Y223515D02*
X569435Y223515D01*
X554765Y223515D02*
X554765Y226585D01*
X569435Y226585D01*
X569435Y223515D01*
X569435Y225459D02*
X554765Y225459D01*
X554765Y230015D02*
X569435Y230015D01*
X554765Y230015D02*
X554765Y233085D01*
X569435Y233085D01*
X569435Y230015D01*
X569435Y231959D02*
X554765Y231959D01*
X554765Y236515D02*
X569435Y236515D01*
X554765Y236515D02*
X554765Y239585D01*
X569435Y239585D01*
X569435Y236515D01*
X569435Y238459D02*
X554765Y238459D01*
X554765Y243015D02*
X569435Y243015D01*
X554765Y243015D02*
X554765Y246085D01*
X569435Y246085D01*
X569435Y243015D01*
X569435Y244959D02*
X554765Y244959D01*
X554765Y249515D02*
X569435Y249515D01*
X554765Y249515D02*
X554765Y252585D01*
X569435Y252585D01*
X569435Y249515D01*
X569435Y251459D02*
X554765Y251459D01*
X554765Y256015D02*
X569435Y256015D01*
X554765Y256015D02*
X554765Y259085D01*
X569435Y259085D01*
X569435Y256015D01*
X569435Y257959D02*
X554765Y257959D01*
X554765Y262515D02*
X569435Y262515D01*
X554765Y262515D02*
X554765Y265585D01*
X569435Y265585D01*
X569435Y262515D01*
X569435Y264459D02*
X554765Y264459D01*
D15*
X219100Y141400D03*
X238100Y141400D03*
X228600Y163400D03*
D16*
X444500Y444500D03*
X469900Y444500D03*
X469900Y469900D03*
X444500Y469900D03*
X444500Y419100D03*
X469900Y419100D03*
D17*
X187700Y235100D03*
X187700Y467600D03*
D18*
X188400Y348700D03*
D19*
X606400Y469900D03*
X587400Y469900D03*
X650900Y393700D03*
X669900Y393700D03*
D20*
X406400Y358800D03*
X406400Y377800D03*
X660400Y422300D03*
X660400Y441300D03*
D19*
X555600Y431800D03*
X536600Y431800D03*
D21*
X279400Y35900D03*
X279400Y14900D03*
X330200Y35900D03*
X330200Y14900D03*
X381000Y35900D03*
X381000Y14900D03*
X431800Y35900D03*
X431800Y14900D03*
X482600Y35900D03*
X482600Y14900D03*
X533400Y35900D03*
X533400Y14900D03*
X584200Y35900D03*
X584200Y14900D03*
X635000Y35900D03*
X635000Y14900D03*
D20*
X431800Y358800D03*
X431800Y377800D03*
X393700Y187300D03*
X393700Y168300D03*
D21*
X228600Y35900D03*
X228600Y14900D03*
D20*
X190500Y15900D03*
X190500Y34900D03*
X317500Y346100D03*
X317500Y365100D03*
X368300Y346100D03*
X368300Y365100D03*
X368300Y415900D03*
X368300Y396900D03*
M02*
